<?xml version="1.0" encoding="UTF-8" standalone="no"?>
<!DOCTYPE svg PUBLIC "-//W3C//DTD SVG 1.1//EN" "http://www.w3.org/Graphics/SVG/1.1/DTD/svg11.dtd">
<svg xmlns="http://www.w3.org/2000/svg" version="1.1" viewBox="0.00 0.00 225.00 200.00">
<g stroke-width="2.00" fill="none" stroke-linecap="butt">
<path stroke="#9e596d" vector-effect="non-scaling-stroke" d="
  M 65.42 0.30
  Q 64.95 5.64 64.29 10.94
  Q 64.00 13.35 64.31 14.56
  C 65.12 17.62 68.02 19.60 71.14 17.94
  Q 74.49 16.17 73.62 11.52
  Q 72.46 5.31 72.09 0.38"
/>
<path stroke="#9e596d" vector-effect="non-scaling-stroke" d="
  M 153.51 0.23
  Q 152.79 2.76 152.73 5.15
  Q 152.69 7.07 152.23 8.46
  C 150.85 12.61 150.74 16.24 155.06 18.71
  Q 155.45 18.94 155.89 18.88
  Q 160.11 18.32 161.14 15.05
  Q 161.64 13.45 160.76 9.26
  Q 159.85 4.95 159.73 0.37"
/>
<path stroke="#f69cad" vector-effect="non-scaling-stroke" d="
  M 201.46 49.83
  Q 198.20 46.07 190.37 45.92
  C 182.26 45.76 174.27 45.27 167.75 45.33
  Q 93.87 46.04 27.75 45.30
  Q 25.29 45.27 23.55 46.28"
/>
<path stroke="#a6b3bd" vector-effect="non-scaling-stroke" d="
  M 201.29 69.45
  L 200.66 166.65"
/>
<path stroke="#b7bdc4" stroke-opacity="0.651" vector-effect="non-scaling-stroke" d="
  M 200.66 166.65
  L 147.47 166.68"
/>
<path stroke="#a6b3bd" vector-effect="non-scaling-stroke" d="
  M 147.47 166.68
  L 123.68 166.65"
/>
<path stroke="#b7bdc4" stroke-opacity="0.651" vector-effect="non-scaling-stroke" d="
  M 123.68 166.65
  L 115.46 166.77"
/>
<path stroke="#a6b3bd" vector-effect="non-scaling-stroke" d="
  M 115.46 166.77
  L 67.79 166.78"
/>
<path stroke="#b7bdc4" stroke-opacity="0.651" vector-effect="non-scaling-stroke" d="
  M 67.79 166.78
  L 49.46 166.75"
/>
<path stroke="#a6b3bd" vector-effect="non-scaling-stroke" d="
  M 49.46 166.75
  Q 37.99 166.25 26.50 166.07
  Q 24.07 166.03 24.30 163.77
  Q 24.61 160.85 24.02 158.67"
/>
<path stroke="#49575f" stroke-opacity="0.651" vector-effect="non-scaling-stroke" d="
  M 23.96 166.51
  Q 36.76 167.52 49.46 166.75"
/>
<path stroke="#49575f" stroke-opacity="0.651" vector-effect="non-scaling-stroke" d="
  M 67.79 166.78
  L 115.46 166.77"
/>
<path stroke="#49575f" stroke-opacity="0.651" vector-effect="non-scaling-stroke" d="
  M 123.68 166.65
  L 147.47 166.68"
/>
<path stroke="#49575f" stroke-opacity="0.651" vector-effect="non-scaling-stroke" d="
  M 201.48 131.52
  L 200.66 166.65"
/>
<path stroke="#a6b3bd" vector-effect="non-scaling-stroke" d="
  M 85.02 144.99
  Q 86.42 145.11 87.03 146.00
  Q 87.30 146.40 87.79 146.46
  Q 91.95 146.91 96.15 146.93
  Q 96.25 146.93 96.24 147.02
  Q 96.24 147.13 96.25 147.28
  Q 96.26 147.34 96.20 147.35
  Q 90.70 147.94 85.28 146.83
  Q 84.76 146.73 85.07 147.16
  Q 86.45 149.11 89.01 148.94
  Q 93.12 148.66 97.61 147.21
  C 100.03 146.42 101.11 144.66 102.77 142.88
  Q 103.10 142.52 103.58 142.39
  C 106.54 141.59 108.97 140.45 110.62 137.66
  Q 114.86 130.48 115.28 122.00
  Q 115.51 117.17 114.49 115.48
  C 112.73 112.56 108.98 104.98 111.02 101.74
  C 116.41 93.13 115.84 84.89 112.32 75.74
  C 110.09 69.97 105.62 68.52 100.41 66.33
  C 94.32 63.78 87.61 63.60 81.87 67.21
  C 79.23 68.88 73.64 71.49 72.65 73.94
  C 70.54 79.19 66.57 85.19 69.01 90.79
  Q 70.81 94.92 75.37 94.13
  C 78.61 93.57 79.83 93.72 80.76 89.99
  Q 82.29 83.84 86.07 78.63
  Q 86.37 78.22 86.87 78.18
  Q 90.75 77.89 94.60 78.29
  C 101.55 79.02 103.00 87.19 100.83 92.77
  C 98.16 99.62 91.28 96.86 87.28 101.24
  Q 84.55 104.22 86.80 109.00
  Q 87.00 109.42 87.42 109.62
  Q 92.15 111.87 97.26 113.06
  C 101.92 114.15 102.00 120.93 101.72 124.58
  C 101.11 132.72 94.17 132.06 88.15 131.62
  C 82.87 131.23 82.35 124.61 81.36 120.58
  C 80.14 115.64 74.93 113.84 70.83 116.82
  Q 66.81 119.75 68.47 125.50
  C 69.46 128.91 71.98 137.29 75.12 139.59
  Q 77.15 141.08 78.98 141.30
  Q 83.58 141.88 84.39 145.28
  Q 84.43 145.48 84.62 145.39
  Q 84.70 145.35 84.76 145.16
  A 0.25 0.25 0.0 0 1 85.02 144.99"
/>
<path stroke="#a6b3bd" vector-effect="non-scaling-stroke" d="
  M 146.32 144.07
  Q 148.85 141.31 148.79 137.50
  Q 148.37 110.85 148.68 84.20
  C 148.72 80.68 150.70 66.92 146.28 65.33
  C 141.14 63.48 136.13 69.37 132.25 72.24
  C 130.74 73.35 129.92 74.65 128.83 76.10
  Q 128.40 76.68 126.12 78.86
  C 123.47 81.40 122.98 87.81 127.81 88.41
  Q 129.54 88.62 135.46 88.93
  A 1.07 1.05 74.8 0 1 136.32 89.43
  C 137.43 91.20 137.15 93.53 137.33 95.23
  Q 138.30 104.35 137.82 112.01
  Q 137.66 114.52 137.78 116.52
  C 138.22 124.02 137.77 131.73 137.49 139.25
  Q 137.42 141.31 138.33 142.52
  C 140.23 145.06 143.64 147.00 146.32 144.07"
/>
</g>
<path fill="#ff435b" d="
  M 65.42 0.30
  Q 64.95 5.64 64.29 10.94
  Q 64.00 13.35 64.31 14.56
  C 65.12 17.62 68.02 19.60 71.14 17.94
  Q 74.49 16.17 73.62 11.52
  Q 72.46 5.31 72.09 0.38
  Q 112.89 1.97 153.51 0.23
  Q 152.79 2.76 152.73 5.15
  Q 152.69 7.07 152.23 8.46
  C 150.85 12.61 150.74 16.24 155.06 18.71
  Q 155.45 18.94 155.89 18.88
  Q 160.11 18.32 161.14 15.05
  Q 161.64 13.45 160.76 9.26
  Q 159.85 4.95 159.73 0.37
  Q 179.68 1.00 185.03 0.78
  Q 198.60 0.24 200.81 13.52
  Q 201.96 20.41 201.64 28.76
  Q 201.42 34.67 201.46 49.83
  Q 198.20 46.07 190.37 45.92
  C 182.26 45.76 174.27 45.27 167.75 45.33
  Q 93.87 46.04 27.75 45.30
  Q 25.29 45.27 23.55 46.28
  Q 23.20 28.29 24.39 15.74
  Q 25.35 5.58 33.24 2.56
  Q 36.17 1.43 47.38 0.78
  Q 56.42 0.26 65.42 0.30
  Z"
/>
<path fill="#3c6f7e" d="
  M 65.42 0.30
  L 72.09 0.38
  Q 72.46 5.31 73.62 11.52
  Q 74.49 16.17 71.14 17.94
  C 68.02 19.60 65.12 17.62 64.31 14.56
  Q 64.00 13.35 64.29 10.94
  Q 64.95 5.64 65.42 0.30
  Z"
/>
<path fill="#3c6f7e" d="
  M 153.51 0.23
  L 159.73 0.37
  Q 159.85 4.95 160.76 9.26
  Q 161.64 13.45 161.14 15.05
  Q 160.11 18.32 155.89 18.88
  Q 155.45 18.94 155.06 18.71
  C 150.74 16.24 150.85 12.61 152.23 8.46
  Q 152.69 7.07 152.73 5.15
  Q 152.79 2.76 153.51 0.23
  Z"
/>
<path fill="#edf5ff" d="
  M 201.46 49.83
  L 201.29 69.45
  L 200.66 166.65
  L 147.47 166.68
  L 123.68 166.65
  L 115.46 166.77
  L 67.79 166.78
  L 49.46 166.75
  Q 37.99 166.25 26.50 166.07
  Q 24.07 166.03 24.30 163.77
  Q 24.61 160.85 24.02 158.67
  L 23.55 46.28
  Q 25.29 45.27 27.75 45.30
  Q 93.87 46.04 167.75 45.33
  C 174.27 45.27 182.26 45.76 190.37 45.92
  Q 198.20 46.07 201.46 49.83
  Z
  M 85.02 144.99
  Q 86.42 145.11 87.03 146.00
  Q 87.30 146.40 87.79 146.46
  Q 91.95 146.91 96.15 146.93
  Q 96.25 146.93 96.24 147.02
  Q 96.24 147.13 96.25 147.28
  Q 96.26 147.34 96.20 147.35
  Q 90.70 147.94 85.28 146.83
  Q 84.76 146.73 85.07 147.16
  Q 86.45 149.11 89.01 148.94
  Q 93.12 148.66 97.61 147.21
  C 100.03 146.42 101.11 144.66 102.77 142.88
  Q 103.10 142.52 103.58 142.39
  C 106.54 141.59 108.97 140.45 110.62 137.66
  Q 114.86 130.48 115.28 122.00
  Q 115.51 117.17 114.49 115.48
  C 112.73 112.56 108.98 104.98 111.02 101.74
  C 116.41 93.13 115.84 84.89 112.32 75.74
  C 110.09 69.97 105.62 68.52 100.41 66.33
  C 94.32 63.78 87.61 63.60 81.87 67.21
  C 79.23 68.88 73.64 71.49 72.65 73.94
  C 70.54 79.19 66.57 85.19 69.01 90.79
  Q 70.81 94.92 75.37 94.13
  C 78.61 93.57 79.83 93.72 80.76 89.99
  Q 82.29 83.84 86.07 78.63
  Q 86.37 78.22 86.87 78.18
  Q 90.75 77.89 94.60 78.29
  C 101.55 79.02 103.00 87.19 100.83 92.77
  C 98.16 99.62 91.28 96.86 87.28 101.24
  Q 84.55 104.22 86.80 109.00
  Q 87.00 109.42 87.42 109.62
  Q 92.15 111.87 97.26 113.06
  C 101.92 114.15 102.00 120.93 101.72 124.58
  C 101.11 132.72 94.17 132.06 88.15 131.62
  C 82.87 131.23 82.35 124.61 81.36 120.58
  C 80.14 115.64 74.93 113.84 70.83 116.82
  Q 66.81 119.75 68.47 125.50
  C 69.46 128.91 71.98 137.29 75.12 139.59
  Q 77.15 141.08 78.98 141.30
  Q 83.58 141.88 84.39 145.28
  Q 84.43 145.48 84.62 145.39
  Q 84.70 145.35 84.76 145.16
  A 0.25 0.25 0.0 0 1 85.02 144.99
  Z
  M 146.32 144.07
  Q 148.85 141.31 148.79 137.50
  Q 148.37 110.85 148.68 84.20
  C 148.72 80.68 150.70 66.92 146.28 65.33
  C 141.14 63.48 136.13 69.37 132.25 72.24
  C 130.74 73.35 129.92 74.65 128.83 76.10
  Q 128.40 76.68 126.12 78.86
  C 123.47 81.40 122.98 87.81 127.81 88.41
  Q 129.54 88.62 135.46 88.93
  A 1.07 1.05 74.8 0 1 136.32 89.43
  C 137.43 91.20 137.15 93.53 137.33 95.23
  Q 138.30 104.35 137.82 112.01
  Q 137.66 114.52 137.78 116.52
  C 138.22 124.02 137.77 131.73 137.49 139.25
  Q 137.42 141.31 138.33 142.52
  C 140.23 145.06 143.64 147.00 146.32 144.07
  Z"
/>
<path fill="#5f717b" d="
  M 84.76 145.16
  Q 84.70 145.35 84.62 145.39
  Q 84.43 145.48 84.39 145.28
  Q 83.58 141.88 78.98 141.30
  Q 77.15 141.08 75.12 139.59
  C 71.98 137.29 69.46 128.91 68.47 125.50
  Q 66.81 119.75 70.83 116.82
  C 74.93 113.84 80.14 115.64 81.36 120.58
  C 82.35 124.61 82.87 131.23 88.15 131.62
  C 94.17 132.06 101.11 132.72 101.72 124.58
  C 102.00 120.93 101.92 114.15 97.26 113.06
  Q 92.15 111.87 87.42 109.62
  Q 87.00 109.42 86.80 109.00
  Q 84.55 104.22 87.28 101.24
  C 91.28 96.86 98.16 99.62 100.83 92.77
  C 103.00 87.19 101.55 79.02 94.60 78.29
  Q 90.75 77.89 86.87 78.18
  Q 86.37 78.22 86.07 78.63
  Q 82.29 83.84 80.76 89.99
  C 79.83 93.72 78.61 93.57 75.37 94.13
  Q 70.81 94.92 69.01 90.79
  C 66.57 85.19 70.54 79.19 72.65 73.94
  C 73.64 71.49 79.23 68.88 81.87 67.21
  C 87.61 63.60 94.32 63.78 100.41 66.33
  C 105.62 68.52 110.09 69.97 112.32 75.74
  C 115.84 84.89 116.41 93.13 111.02 101.74
  C 108.98 104.98 112.73 112.56 114.49 115.48
  Q 115.51 117.17 115.28 122.00
  Q 114.86 130.48 110.62 137.66
  C 108.97 140.45 106.54 141.59 103.58 142.39
  Q 103.10 142.52 102.77 142.88
  C 101.11 144.66 100.03 146.42 97.61 147.21
  Q 93.12 148.66 89.01 148.94
  Q 86.45 149.11 85.07 147.16
  Q 84.76 146.73 85.28 146.83
  Q 90.70 147.94 96.20 147.35
  Q 96.26 147.34 96.25 147.28
  Q 96.24 147.13 96.24 147.02
  Q 96.25 146.93 96.15 146.93
  Q 91.95 146.91 87.79 146.46
  Q 87.30 146.40 87.03 146.00
  Q 86.42 145.11 85.02 144.99
  A 0.25 0.25 0.0 0 0 84.76 145.16
  Z"
/>
<path fill="#5f717b" d="
  M 146.32 144.07
  C 143.64 147.00 140.23 145.06 138.33 142.52
  Q 137.42 141.31 137.49 139.25
  C 137.77 131.73 138.22 124.02 137.78 116.52
  Q 137.66 114.52 137.82 112.01
  Q 138.30 104.35 137.33 95.23
  C 137.15 93.53 137.43 91.20 136.32 89.43
  A 1.07 1.05 74.8 0 0 135.46 88.93
  Q 129.54 88.62 127.81 88.41
  C 122.98 87.81 123.47 81.40 126.12 78.86
  Q 128.40 76.68 128.83 76.10
  C 129.92 74.65 130.74 73.35 132.25 72.24
  C 136.13 69.37 141.14 63.48 146.28 65.33
  C 150.70 66.92 148.72 80.68 148.68 84.20
  Q 148.37 110.85 148.79 137.50
  Q 148.85 141.31 146.32 144.07
  Z"
/>
<path fill="#5f717b" d="
  M 201.29 69.45
  L 201.48 131.52
  L 200.66 166.65
  L 201.29 69.45
  Z"
/>
<path fill="#000000" fill-opacity="0.298" d="
  M 201.48 131.52
  Q 202.23 140.10 201.97 148.76
  Q 201.93 150.41 202.18 150.98
  Q 202.71 152.18 202.99 150.85
  L 205.42 139.52
  Q 205.56 138.89 206.02 138.44
  L 207.61 136.90
  Q 208.85 135.70 208.80 137.43
  Q 208.31 155.00 208.67 171.59
  C 208.71 173.29 208.30 176.49 207.34 177.92
  Q 204.71 181.85 200.98 184.79
  Q 199.85 185.68 197.32 186.94
  C 195.63 187.78 194.03 189.03 192.22 189.37
  Q 182.06 191.26 171.72 190.84
  Q 171.28 190.82 170.92 191.06
  Q 170.78 191.15 170.64 191.22
  Q 170.51 191.28 170.36 191.28
  Q 154.43 191.23 138.50 191.23
  Q 129.61 191.22 118.50 190.87
  C 96.51 190.18 77.31 190.77 56.94 190.61
  Q 52.22 190.58 45.60 189.79
  C 40.46 189.17 34.55 189.55 29.98 186.88
  C 25.69 184.37 25.50 180.40 22.72 176.83
  C 21.36 175.09 19.73 172.50 21.82 170.75
  Q 24.26 168.70 27.26 169.29
  Q 27.44 169.33 28.24 169.10
  Q 28.40 169.05 28.54 168.97
  A 0.31 0.31 0.0 0 0 28.45 168.39
  L 24.70 167.66
  A 0.85 0.82 77.1 0 1 24.16 167.31
  Q 23.66 166.57 23.96 166.51
  Q 36.76 167.52 49.46 166.75
  L 67.79 166.78
  L 115.46 166.77
  L 123.68 166.65
  L 147.47 166.68
  L 200.66 166.65
  L 201.48 131.52
  Z"
/>
<path fill="#5f717b" d="
  M 24.02 158.67
  Q 24.61 160.85 24.30 163.77
  Q 24.07 166.03 26.50 166.07
  Q 37.99 166.25 49.46 166.75
  Q 36.76 167.52 23.96 166.51
  L 24.02 158.67
  Z"
/>
<path fill="#5f717b" d="
  M 115.46 166.77
  L 67.79 166.78
  L 115.46 166.77
  Z"
/>
<path fill="#5f717b" d="
  M 147.47 166.68
  L 123.68 166.65
  L 147.47 166.68
  Z"
/>
</svg>
