<?xml version="1.0" encoding="UTF-8" standalone="no"?>
<!DOCTYPE svg PUBLIC "-//W3C//DTD SVG 1.1//EN" "http://www.w3.org/Graphics/SVG/1.1/DTD/svg11.dtd">
<svg xmlns="http://www.w3.org/2000/svg" version="1.1" viewBox="0.00 0.00 75.00 57.00">
<g stroke-width="2.00" fill="none" stroke-linecap="butt">
<path stroke="#f7e97b" vector-effect="non-scaling-stroke" d="
  M 23.25 0.00
  L 22.95 0.27"
/>
<path stroke="#969896" vector-effect="non-scaling-stroke" d="
  M 22.95 0.27
  L 21.84 0.19
  A 0.56 0.56 0.0 0 0 21.24 0.67
  Q 20.70 4.60 23.50 7.15
  Q 23.76 7.39 23.70 7.74
  L 23.15 10.85
  Q 22.99 11.72 23.87 11.72
  L 50.01 11.72
  A 0.67 0.66 -84.8 0 0 50.66 11.17
  Q 50.98 9.42 50.10 7.92
  A 1.01 1.01 0.0 0 1 50.04 7.03
  C 51.95 2.63 49.05 0.57 44.93 0.62
  Q 35.70 0.75 26.55 0.40"
/>
<path stroke="#f7e97b" vector-effect="non-scaling-stroke" d="
  M 26.55 0.40
  Q 25.81 0.17 26.00 0.00"
/>
<path stroke="#f2ba97" vector-effect="non-scaling-stroke" d="
  M 39.16 57.00
  Q 39.59 56.60 40.49 56.71"
/>
<path stroke="#969896" vector-effect="non-scaling-stroke" d="
  M 40.49 56.71
  Q 40.73 56.80 40.93 56.78
  A 0.47 0.46 85.8 0 0 41.36 56.27
  L 41.11 53.62"
/>
<path stroke="#f2ba97" vector-effect="non-scaling-stroke" d="
  M 41.11 53.62
  Q 41.08 53.53 41.05 53.44"
/>
<path stroke="#8f9092" vector-effect="non-scaling-stroke" d="
  M 41.05 53.44
  Q 47.40 50.31 48.33 43.38
  Q 48.40 42.82 48.96 42.90
  C 52.95 43.48 54.93 38.87 51.18 37.08
  Q 50.71 36.85 50.71 36.33
  L 50.69 30.83
  Q 50.69 30.31 50.18 30.26
  C 45.02 29.69 49.56 24.46 44.36 23.02
  Q 43.85 22.88 43.49 22.48
  Q 40.92 19.60 37.25 20.83
  Q 36.85 20.96 36.45 20.82
  Q 33.56 19.81 31.72 21.24
  Q 29.80 22.73 28.70 23.40
  C 27.42 24.19 25.93 25.66 26.93 27.03"
/>
<path stroke="#edada5" vector-effect="non-scaling-stroke" d="
  M 26.93 27.03
  Q 26.87 27.11 26.81 27.18"
/>
<path stroke="#8f9092" vector-effect="non-scaling-stroke" d="
  M 26.81 27.18
  Q 26.41 30.30 23.79 30.25
  Q 23.25 30.24 23.25 30.78
  L 23.28 36.55
  A 0.64 0.63 -9.1 0 1 22.83 37.17
  C 19.18 38.35 20.52 43.58 25.02 42.75
  A 0.49 0.49 0.0 0 1 25.60 43.19
  Q 26.26 50.05 32.35 53.13
  A 0.67 0.66 21.7 0 1 32.69 53.90
  Q 32.15 55.75 32.95 56.92"
/>
<path stroke="#f2ba97" vector-effect="non-scaling-stroke" d="
  M 32.95 56.92
  Q 33.56 56.41 34.24 57.00"
/>
<path stroke="#868889" vector-effect="non-scaling-stroke" d="
  M 25.89 15.37
  Q 25.67 14.28 24.84 13.62
  Q 24.19 13.11 24.25 13.94
  L 24.55 18.23
  Q 24.58 18.78 25.12 18.85
  Q 27.28 19.12 27.96 21.18
  A 0.41 0.41 0.0 0 0 28.75 21.00
  L 28.15 16.41
  A 0.74 0.73 -1.9 0 0 27.47 15.78
  L 26.30 15.72
  Q 25.95 15.70 25.89 15.37"
/>
<path stroke="#969896" vector-effect="non-scaling-stroke" d="
  M 47.35 15.66
  L 46.43 15.72
  A 0.73 0.71 -88.0 0 0 45.77 16.35
  L 45.14 20.98
  A 0.47 0.46 -33.7 0 0 46.05 21.16
  Q 46.60 19.12 48.70 18.95
  Q 49.21 18.90 49.28 18.39
  L 49.84 13.85
  Q 49.94 13.06 49.25 13.47
  Q 48.38 13.99 48.12 15.01
  A 0.86 0.85 -84.8 0 1 47.35 15.66"
/>
<path stroke="#868889" vector-effect="non-scaling-stroke" d="
  M 19.75 23.19
  L 20.27 23.03
  A 0.83 0.83 0.0 0 1 20.97 23.12
  L 24.73 25.49
  A 0.42 0.42 0.0 0 0 25.31 24.93
  L 21.73 18.77
  Q 21.30 18.04 20.80 18.73
  L 20.44 19.24
  Q 20.08 19.74 19.55 19.42
  L 15.71 17.07
  A 0.37 0.37 0.0 0 0 15.19 17.56
  L 18.93 24.32
  A 0.40 0.40 0.0 0 0 19.61 24.35
  Q 19.90 23.93 19.75 23.19"
/>
<path stroke="#887c0f" vector-effect="non-scaling-stroke" d="
  M 19.75 23.19
  Q 19.73 22.73 19.94 22.43
  Q 20.27 21.95 20.79 22.23
  L 23.03 23.42
  Q 23.93 23.90 23.41 23.03
  L 21.73 20.23
  Q 21.47 19.79 21.02 20.04
  Q 20.06 20.56 17.61 19.15
  Q 16.61 18.57 17.14 19.60
  L 18.80 22.78
  Q 18.97 23.10 19.32 23.14
  L 19.75 23.19"
/>
<path stroke="#868889" vector-effect="non-scaling-stroke" d="
  M 53.36 19.27
  L 53.12 18.75
  Q 52.75 17.91 52.28 18.70
  L 48.68 24.70
  A 0.50 0.50 0.0 0 0 49.37 25.38
  L 53.08 23.09
  A 0.60 0.60 0.0 0 1 53.92 23.32
  L 54.39 24.23
  Q 54.70 24.81 55.02 24.23
  L 58.68 17.70
  A 0.43 0.42 -0.9 0 0 58.09 17.13
  L 54.08 19.50
  A 0.51 0.51 0.0 0 1 53.36 19.27"
/>
<path stroke="#868889" vector-effect="non-scaling-stroke" d="
  M 19.76 29.81
  Q 21.01 28.21 23.04 28.37
  A 0.40 0.40 0.0 0 0 23.21 27.60
  L 19.20 26.13
  A 0.75 0.75 0.0 0 0 18.30 26.45
  Q 17.31 28.12 15.21 27.79
  A 0.47 0.47 0.0 0 0 14.99 28.70
  L 19.02 30.03
  Q 19.47 30.18 19.76 29.81"
/>
<path stroke="#e2d584" vector-effect="non-scaling-stroke" d="
  M 62.85 55.24
  Q 63.27 54.83 63.16 54.52"
/>
<path stroke="#868889" vector-effect="non-scaling-stroke" d="
  M 63.16 54.52
  L 63.69 52.81
  Q 63.84 52.34 64.22 52.02
  Q 66.76 49.89 66.70 47.25
  C 66.50 39.16 54.11 39.53 55.14 48.31
  C 55.53 51.65 59.23 51.81 58.19 55.99
  Q 58.07 56.49 58.58 56.42
  Q 60.98 56.11 63.40 56.73
  Q 63.95 56.87 63.85 56.31
  Q 63.75 55.79 62.85 55.24"
/>
<path stroke="#736818" vector-effect="non-scaling-stroke" d="
  M 63.16 54.52
  Q 62.84 54.20 62.67 53.21"
/>
<path stroke="#888646" vector-effect="non-scaling-stroke" d="
  M 62.67 53.21
  C 63.63 51.30 65.28 50.40 65.75 48.37
  Q 66.76 44.06 61.90 42.15"
/>
<path stroke="#868889" vector-effect="non-scaling-stroke" d="
  M 61.90 42.15
  Q 53.22 42.84 56.92 50.49"
/>
<path stroke="#888646" vector-effect="non-scaling-stroke" d="
  M 56.92 50.49
  Q 58.89 52.11 59.09 54.71
  A 0.60 0.60 0.0 0 0 60.28 54.78
  L 61.29 49.79
  Q 61.38 49.33 61.81 49.14
  Q 62.94 48.63 63.93 49.18
  A 0.26 0.26 0.0 0 1 63.78 49.66
  Q 61.31 49.47 61.64 51.49"
/>
<path stroke="#736818" vector-effect="non-scaling-stroke" d="
  M 61.64 51.49
  L 61.28 54.84
  Q 61.23 55.24 61.64 55.30
  Q 62.27 55.40 62.85 55.24"
/>
<path stroke="#e3d341" vector-effect="non-scaling-stroke" d="
  M 62.67 53.21
  Q 62.48 53.40 62.24 53.40
  Q 61.69 53.41 61.68 52.87
  L 61.64 51.49"
/>
<path stroke="#f7f3b2" vector-effect="non-scaling-stroke" d="
  M 61.90 42.15
  Q 56.05 43.99 56.92 50.49"
/>
<path stroke="#868889" vector-effect="non-scaling-stroke" d="
  M 14.90 46.62
  Q 14.23 44.47 11.86 45.52
  A 0.60 0.59 -3.4 0 0 11.53 45.89
  Q 11.16 47.24 10.28 46.76
  Q 9.67 46.43 9.06 46.74
  Q 7.40 47.60 7.97 49.20
  A 0.69 0.69 0.0 0 1 7.58 50.07
  Q 6.18 50.65 6.57 52.16
  Q 6.68 52.58 7.02 52.83
  Q 8.23 53.70 7.79 55.26
  A 0.85 0.85 0.0 0 0 8.26 56.27
  Q 10.43 57.24 12.70 56.42
  A 0.90 0.90 0.0 0 1 13.27 56.39
  Q 15.73 57.09 17.20 56.63
  Q 18.93 56.08 17.84 54.24
  A 0.55 0.55 0.0 0 1 18.19 53.42
  Q 20.30 52.93 19.45 50.85
  Q 19.31 50.50 18.96 50.35
  L 18.31 50.08
  Q 17.82 49.88 18.00 49.38
  Q 18.71 47.40 16.77 46.55
  Q 16.30 46.35 15.91 46.66
  L 15.65 46.85
  Q 15.11 47.27 14.90 46.62"
/>
<path stroke="#988c1c" vector-effect="non-scaling-stroke" d="
  M 26.55 0.40
  Q 27.16 0.79 27.39 1.46"
/>
<path stroke="#f9e738" vector-effect="non-scaling-stroke" d="
  M 27.39 1.46
  Q 26.83 2.25 28.52 2.55
  Q 29.10 2.66 29.99 2.62
  Q 40.13 2.17 49.67 3.35"
/>
<path stroke="#988c1c" vector-effect="non-scaling-stroke" d="
  M 49.67 3.35
  C 50.32 6.44 49.00 7.92 45.87 7.96
  Q 37.53 8.05 29.18 7.98
  C 24.79 7.94 21.89 6.20 21.90 1.62
  Q 21.91 0.45 22.95 0.27"
/>
<path stroke="#979653" vector-effect="non-scaling-stroke" d="
  M 49.67 3.35
  Q 48.70 1.40 45.75 1.52
  Q 37.73 1.85 27.39 1.46"
/>
<path stroke="#827825" vector-effect="non-scaling-stroke" d="
  M 48.18 10.26
  Q 48.16 11.24 49.63 10.74
  A 0.83 0.83 0.0 0 0 50.10 9.56
  L 49.52 8.46
  Q 49.25 7.96 48.76 8.23
  Q 48.08 8.60 48.17 9.24
  A 1.21 0.03 -89.2 0 1 48.18 10.26"
/>
<path stroke="#827825" vector-effect="non-scaling-stroke" d="
  M 23.84 10.29
  A 0.53 0.53 0.0 0 0 24.33 10.95
  L 24.94 10.97
  Q 25.62 11.00 25.63 10.31
  L 25.64 8.72
  A 0.68 0.68 0.0 0 0 24.30 8.54
  L 23.84 10.29"
/>
<path stroke="#95704f" vector-effect="non-scaling-stroke" d="
  M 47.5306 9.6185
  A 0.65 0.65 0.0 0 0 46.8817 8.9673
  L 27.0217 8.9327
  A 0.65 0.65 0.0 0 0 26.3706 9.5815
  L 26.3694 10.2615
  A 0.65 0.65 0.0 0 0 27.0183 10.9127
  L 46.8783 10.9473
  A 0.65 0.65 0.0 0 0 47.5294 10.2985
  L 47.5306 9.6185"
/>
<path stroke="#887c0f" vector-effect="non-scaling-stroke" d="
  M 26.07 16.55
  L 25.61 16.12
  A 0.31 0.30 -70.9 0 0 25.10 16.37
  Q 25.22 18.20 27.13 18.46
  Q 27.80 18.55 27.66 17.89
  Q 27.49 17.09 26.65 16.87
  A 1.41 1.39 -15.7 0 1 26.07 16.55"
/>
<path stroke="#988c1c" vector-effect="non-scaling-stroke" d="
  M 46.53 17.25
  A 0.71 0.71 0.0 0 0 47.13 18.53
  Q 48.69 17.94 48.92 16.33
  Q 49.00 15.84 48.56 16.09
  L 46.53 17.25"
/>
<path stroke="#887c0f" vector-effect="non-scaling-stroke" d="
  M 53.97 22.48
  L 54.23 22.77
  A 0.51 0.50 40.1 0 0 55.05 22.70
  L 57.01 19.28
  A 0.27 0.27 0.0 0 0 56.64 18.91
  Q 55.31 19.66 54.02 20.40
  Q 53.30 20.82 53.03 20.03
  Q 52.81 19.34 52.43 19.96
  L 50.57 23.05
  Q 49.91 24.16 51.02 23.51
  L 53.04 22.32
  A 0.74 0.73 54.6 0 1 53.97 22.48"
/>
<path stroke="#8c5434" vector-effect="non-scaling-stroke" d="
  M 41.05 53.44
  L 34.02 53.74
  Q 33.52 53.76 33.43 54.25
  L 32.95 56.92"
/>
<path stroke="#874742" vector-effect="non-scaling-stroke" d="
  M 26.81 27.18
  L 28.91 26.91
  Q 29.37 26.86 29.24 27.30
  Q 29.05 27.96 28.35 27.88
  Q 27.65 27.80 27.39 28.45
  L 27.01 29.42
  Q 26.83 29.86 27.30 29.91
  Q 29.68 30.19 31.81 29.15
  Q 32.22 28.95 32.61 29.20
  Q 34.46 30.40 36.44 29.53
  Q 36.92 29.31 37.42 29.51
  Q 39.33 30.26 41.06 29.41
  Q 41.44 29.22 41.86 29.31
  L 46.33 30.19
  A 0.59 0.59 0.0 0 0 46.93 29.29
  Q 45.86 27.69 43.96 27.82
  Q 43.26 27.87 43.74 27.35
  Q 44.43 26.62 45.60 26.79
  Q 46.35 26.90 46.13 26.18
  Q 45.26 23.30 42.26 23.93"
/>
<path stroke="#303233" vector-effect="non-scaling-stroke" d="
  M 42.26 23.93
  Q 42.32 23.33 42.02 23.37"
/>
<path stroke="#874742" vector-effect="non-scaling-stroke" d="
  M 42.02 23.37
  L 42.39 23.24
  A 0.43 0.42 57.9 0 0 42.55 22.53
  Q 40.23 20.29 37.30 21.56
  Q 36.87 21.75 36.44 21.56
  Q 33.22 20.18 30.92 23.04"
/>
<path stroke="#303233" vector-effect="non-scaling-stroke" d="
  M 30.92 23.04
  Q 30.76 22.87 30.48 23.71"
/>
<path stroke="#874742" vector-effect="non-scaling-stroke" d="
  M 30.48 23.71
  Q 27.39 24.25 26.93 27.03"
/>
<path stroke="#7c7021" vector-effect="non-scaling-stroke" d="
  M 25.35 30.90
  L 24.15 30.92
  A 0.27 0.27 0.0 0 0 23.88 31.20
  L 23.97 35.54
  A 1.81 0.80 88.9 0 0 24.80 37.33
  L 24.94 37.33
  A 1.81 0.80 88.9 0 0 25.71 35.50
  L 25.62 31.16
  A 0.27 0.27 0.0 0 0 25.35 30.90"
/>
<path stroke="#303233" vector-effect="non-scaling-stroke" d="
  M 47.35 34.35
  Q 47.38 34.49 48.11 34.74"
/>
<path stroke="#7c7021" vector-effect="non-scaling-stroke" d="
  M 48.11 34.74
  L 48.53 36.69
  A 0.73 0.73 0.0 0 0 49.97 36.66
  Q 50.93 31.09 48.77 30.71"
/>
<path stroke="#303233" vector-effect="non-scaling-stroke" d="
  M 48.77 30.71
  L 47.22 30.98"
/>
<path stroke="#907355" vector-effect="non-scaling-stroke" d="
  M 47.22 30.98
  L 27.15 30.95
  Q 26.47 30.95 26.47 31.63
  L 26.45 33.77
  Q 26.45 34.42 27.01 34.08
  Q 33.02 30.42 36.17 36.66
  A 0.93 0.93 0.0 0 0 37.84 36.64
  Q 40.99 30.08 47.35 34.35"
/>
<path stroke="#977b59" vector-effect="non-scaling-stroke" d="
  M 47.22 30.98
  L 47.35 34.35"
/>
<path stroke="#827825" vector-effect="non-scaling-stroke" d="
  M 48.11 34.74
  L 48.77 30.71"
/>
<path stroke="#888c93" vector-effect="non-scaling-stroke" d="
  M 26.17 39.33
  Q 26.46 40.96 28.81 42.57"
/>
<path stroke="#52778c" vector-effect="non-scaling-stroke" d="
  M 28.81 42.57
  Q 36.92 43.73 34.86 35.54"
/>
<path stroke="#888c93" vector-effect="non-scaling-stroke" d="
  M 34.86 35.54
  Q 33.09 33.83 31.69 33.62"
/>
<path stroke="#52778c" vector-effect="non-scaling-stroke" d="
  M 31.69 33.62
  Q 25.57 33.37 26.17 39.33"
/>
<path stroke="#b0d8f0" vector-effect="non-scaling-stroke" d="
  M 31.69 33.62
  Q 29.60 37.14 26.17 39.33"
/>
<path stroke="#b0d8f0" vector-effect="non-scaling-stroke" d="
  M 34.86 35.54
  Q 32.31 37.13 31.98 38.84"
/>
<path stroke="#888c93" vector-effect="non-scaling-stroke" d="
  M 31.98 38.84
  Q 31.19 39.62 29.54 39.13
  Q 28.81 38.92 29.06 39.64
  Q 29.20 40.05 29.98 40.32"
/>
<path stroke="#b0d8f0" vector-effect="non-scaling-stroke" d="
  M 29.98 40.32
  L 28.81 42.57"
/>
<path stroke="#52778c" vector-effect="non-scaling-stroke" d="
  M 29.98 40.32
  Q 33.76 39.83 31.98 38.84"
/>
<path stroke="#888c93" vector-effect="non-scaling-stroke" d="
  M 38.53 39.22
  Q 39.23 41.40 40.66 42.09"
/>
<path stroke="#52778c" vector-effect="non-scaling-stroke" d="
  M 40.66 42.09
  C 45.07 44.84 49.55 40.12 47.18 35.61"
/>
<path stroke="#888c93" vector-effect="non-scaling-stroke" d="
  M 47.18 35.61
  Q 45.88 34.03 44.36 33.64"
/>
<path stroke="#52778c" vector-effect="non-scaling-stroke" d="
  M 44.36 33.64
  Q 38.16 33.09 38.53 39.22"
/>
<path stroke="#b0d8f0" vector-effect="non-scaling-stroke" d="
  M 44.36 33.64
  Q 42.15 37.11 38.53 39.22"
/>
<path stroke="#b0d8f0" vector-effect="non-scaling-stroke" d="
  M 47.18 35.61
  Q 45.01 37.16 44.27 38.83"
/>
<path stroke="#888c93" vector-effect="non-scaling-stroke" d="
  M 44.27 38.83
  Q 43.44 39.73 41.59 39.04
  A 0.29 0.29 0.0 0 0 41.24 39.45
  Q 41.49 39.89 42.32 40.22"
/>
<path stroke="#b0d8f0" vector-effect="non-scaling-stroke" d="
  M 42.32 40.22
  L 40.66 42.09"
/>
<path stroke="#52778c" vector-effect="non-scaling-stroke" d="
  M 42.32 40.22
  Q 46.39 40.05 44.27 38.83"
/>
<path stroke="#8e684b" vector-effect="non-scaling-stroke" d="
  M 25.80 41.24
  L 25.33 38.10
  A 0.57 0.57 0.0 0 0 24.68 37.62
  L 23.42 37.81
  A 2.28 2.01 -8.6 0 0 21.47 40.14
  L 21.52 40.44
  A 2.28 2.01 -8.6 0 0 24.07 42.08
  L 25.33 41.89
  A 0.57 0.57 0.0 0 0 25.80 41.24"
/>
<path stroke="#907355" vector-effect="non-scaling-stroke" d="
  M 26.15 43.28
  Q 27.59 48.97 31.33 51.55
  C 38.62 56.59 46.79 50.91 47.63 42.47
  Q 47.72 41.62 47.01 42.10
  L 45.61 43.06
  Q 45.16 43.37 44.62 43.44
  Q 38.47 44.33 37.66 38.12
  A 0.74 0.74 0.0 0 0 36.19 38.16
  C 35.82 43.18 31.49 44.96 27.31 42.42
  A 0.78 0.78 0.0 0 0 26.15 43.28"
/>
<path stroke="#8e684b" vector-effect="non-scaling-stroke" d="
  M 48.60 38.31
  L 48.15 41.04
  A 0.81 0.81 0.0 0 0 48.82 41.97
  L 49.80 42.13
  A 2.12 1.98 9.2 0 0 52.21 40.51
  L 52.28 40.10
  A 2.12 1.98 9.2 0 0 50.50 37.80
  L 49.52 37.64
  A 0.81 0.81 0.0 0 0 48.60 38.31"
/>
<path stroke="#8e4f46" vector-effect="non-scaling-stroke" d="
  M 42.02 23.37
  Q 40.60 22.72 39.99 23.11
  Q 39.54 23.40 40.03 23.63
  Q 41.04 24.11 42.26 23.93"
/>
<path stroke="#8e4f46" vector-effect="non-scaling-stroke" d="
  M 30.48 23.71
  Q 32.08 24.19 33.87 23.94
  Q 34.04 23.92 34.03 23.75
  Q 34.03 23.61 34.03 23.47
  A 0.40 0.39 90.0 0 0 33.65 23.08
  L 30.92 23.04"
/>
<path stroke="#8e4f46" vector-effect="non-scaling-stroke" d="
  M 36.53 24.95
  L 36.42 25.55
  A 0.44 0.44 0.0 0 0 36.81 26.08
  L 37.09 26.11
  Q 37.56 26.16 37.52 25.69
  L 37.28 22.47
  A 0.30 0.29 -40.7 0 0 36.70 22.43
  Q 36.52 23.17 36.59 23.95
  Q 36.63 24.46 36.53 24.95"
/>
<path stroke="#8e4f46" vector-effect="non-scaling-stroke" d="
  M 37.96 26.31
  A 1.31 1.31 0.0 0 1 36.34 26.34
  C 35.00 25.34 31.45 24.27 30.04 25.76
  Q 29.37 26.48 30.30 26.17
  Q 34.14 24.91 36.29 28.41
  A 0.66 0.65 -43.8 0 0 37.39 28.43
  Q 39.59 25.19 43.52 26.08
  Q 44.10 26.21 43.75 25.72
  Q 43.37 25.18 42.73 25.09
  C 41.01 24.87 39.40 25.12 37.96 26.31"
/>
<path stroke="#8e4f46" vector-effect="non-scaling-stroke" d="
  M 31.21 27.85
  Q 30.83 27.40 30.26 27.28
  A 0.29 0.28 -18.0 0 0 30.01 27.77
  L 30.66 28.37
  A 0.38 0.38 0.0 0 0 31.21 27.85"
/>
<path stroke="#887c0f" vector-effect="non-scaling-stroke" d="
  M 20.26 27.88
  A 0.60 0.59 -1.8 0 0 19.41 27.09
  L 17.52 28.38
  A 0.36 0.36 0.0 0 0 17.68 29.03
  Q 19.47 29.22 20.26 27.88"
/>
<path stroke="#ec855e" vector-effect="non-scaling-stroke" d="
  M 23.9420 40.9821
  A 0.98 0.71 70.2 0 0 24.2780 39.8195
  A 0.98 0.71 70.2 0 0 23.2780 39.1379
  A 0.98 0.71 70.2 0 0 22.9420 40.3005
  A 0.98 0.71 70.2 0 0 23.9420 40.9821"
/>
<path stroke="#977b59" vector-effect="non-scaling-stroke" d="
  M 35.98 43.62
  L 37.77 43.61
  A 0.33 0.33 0.0 0 0 37.93 43.00
  Q 36.85 42.38 35.81 43.07
  Q 34.98 43.63 35.98 43.62"
/>
<path stroke="#876b4c" vector-effect="non-scaling-stroke" d="
  M 41.83 45.39
  C 37.82 47.96 35.91 47.74 31.61 45.28
  A 0.18 0.17 81.2 0 0 31.41 45.56
  C 33.87 47.91 40.02 49.37 42.17 45.72
  Q 42.70 44.83 41.83 45.39"
/>
<path stroke="#f39d5a" vector-effect="non-scaling-stroke" d="
  M 37.53 49.63
  L 36.46 49.63
  Q 35.73 49.63 36.34 50.03
  Q 37.48 50.79 37.80 50.03
  Q 37.96 49.63 37.53 49.63"
/>
<path stroke="#ec855e" vector-effect="non-scaling-stroke" d="
  M 49.88 39.63
  Q 49.43 39.99 49.68 40.40
  A 0.73 0.73 0.0 0 0 51.03 40.09
  Q 51.10 39.41 50.45 39.20
  Q 50.23 39.13 50.06 39.22
  Q 49.83 39.35 49.88 39.63"
/>
<path stroke="#888646" vector-effect="non-scaling-stroke" d="
  M 59.47 50.23
  L 59.61 50.53
  A 0.24 0.24 0.0 0 0 60.06 50.41
  L 60.02 49.63
  Q 59.99 49.02 59.38 49.01
  L 57.80 48.99
  A 0.26 0.26 0.0 0 0 57.72 49.50
  L 59.03 49.87
  Q 59.33 49.95 59.47 50.23"
/>
<path stroke="#6e7271" vector-effect="non-scaling-stroke" d="
  M 9.14 55.79
  L 16.39 55.66
  Q 17.00 55.65 16.88 55.04
  Q 16.70 54.15 17.15 53.29
  Q 17.40 52.81 17.89 52.59
  L 18.81 52.17
  A 0.44 0.44 0.0 0 0 18.75 51.34
  Q 16.33 50.65 17.37 48.36
  A 0.65 0.65 0.0 0 0 16.56 47.48
  L 15.45 47.89
  A 0.71 0.71 0.0 0 1 14.60 47.59
  L 14.04 46.66
  Q 13.74 46.16 13.16 46.19
  Q 11.98 46.24 11.74 47.26
  A 0.91 0.89 88.5 0 1 11.13 47.92
  Q 10.44 48.13 9.91 47.59
  A 0.60 0.60 0.0 0 0 8.90 48.15
  Q 9.40 50.29 7.83 51.18
  Q 7.21 51.53 7.74 52.00
  Q 9.16 53.26 8.69 55.24
  A 0.45 0.45 0.0 0 0 9.14 55.79"
/>
<path stroke="#6e7271" vector-effect="non-scaling-stroke" d="
  M 16.64 51.65
  A 3.55 3.55 0.0 0 0 13.09 48.10
  A 3.55 3.55 0.0 0 0 9.54 51.65
  A 3.55 3.55 0.0 0 0 13.09 55.20
  A 3.55 3.55 0.0 0 0 16.64 51.65"
/>
<path stroke="#868889" vector-effect="non-scaling-stroke" d="
  M 15.78 51.71
  A 2.73 2.73 0.0 0 0 13.05 48.98
  A 2.73 2.73 0.0 0 0 10.32 51.71
  A 2.73 2.73 0.0 0 0 13.05 54.44
  A 2.73 2.73 0.0 0 0 15.78 51.71"
/>
<path stroke="#925c38" vector-effect="non-scaling-stroke" d="
  M 41.11 53.62
  Q 40.22 54.51 40.49 56.71"
/>
</g>
<path fill="#f5f5f5" d="
  M 0.00 0.00
  L 23.25 0.00
  L 22.95 0.27
  L 21.84 0.19
  A 0.56 0.56 0.0 0 0 21.24 0.67
  Q 20.70 4.60 23.50 7.15
  Q 23.76 7.39 23.70 7.74
  L 23.15 10.85
  Q 22.99 11.72 23.87 11.72
  L 50.01 11.72
  A 0.67 0.66 -84.8 0 0 50.66 11.17
  Q 50.98 9.42 50.10 7.92
  A 1.01 1.01 0.0 0 1 50.04 7.03
  C 51.95 2.63 49.05 0.57 44.93 0.62
  Q 35.70 0.75 26.55 0.40
  Q 25.81 0.17 26.00 0.00
  L 75.00 0.00
  L 75.00 57.00
  L 39.16 57.00
  Q 39.59 56.60 40.49 56.71
  Q 40.73 56.80 40.93 56.78
  A 0.47 0.46 85.8 0 0 41.36 56.27
  L 41.11 53.62
  Q 41.08 53.53 41.05 53.44
  Q 47.40 50.31 48.33 43.38
  Q 48.40 42.82 48.96 42.90
  C 52.95 43.48 54.93 38.87 51.18 37.08
  Q 50.71 36.85 50.71 36.33
  L 50.69 30.83
  Q 50.69 30.31 50.18 30.26
  C 45.02 29.69 49.56 24.46 44.36 23.02
  Q 43.85 22.88 43.49 22.48
  Q 40.92 19.60 37.25 20.83
  Q 36.85 20.96 36.45 20.82
  Q 33.56 19.81 31.72 21.24
  Q 29.80 22.73 28.70 23.40
  C 27.42 24.19 25.93 25.66 26.93 27.03
  Q 26.87 27.11 26.81 27.18
  Q 26.41 30.30 23.79 30.25
  Q 23.25 30.24 23.25 30.78
  L 23.28 36.55
  A 0.64 0.63 -9.1 0 1 22.83 37.17
  C 19.18 38.35 20.52 43.58 25.02 42.75
  A 0.49 0.49 0.0 0 1 25.60 43.19
  Q 26.26 50.05 32.35 53.13
  A 0.67 0.66 21.7 0 1 32.69 53.90
  Q 32.15 55.75 32.95 56.92
  Q 33.56 56.41 34.24 57.00
  L 0.00 57.00
  L 0.00 0.00
  Z
  M 0.76 0.42
  A 0.25 0.25 0.0 0 0 0.51 0.17
  L 0.49 0.17
  A 0.25 0.25 0.0 0 0 0.24 0.42
  L 0.24 56.56
  A 0.25 0.25 0.0 0 0 0.49 56.81
  L 0.51 56.81
  A 0.25 0.25 0.0 0 0 0.76 56.56
  L 0.76 0.42
  Z
  M 74.74 0.43
  A 0.26 0.26 0.0 0 0 74.48 0.17
  L 74.46 0.17
  A 0.26 0.26 0.0 0 0 74.20 0.43
  L 74.20 56.57
  A 0.26 0.26 0.0 0 0 74.46 56.83
  L 74.48 56.83
  A 0.26 0.26 0.0 0 0 74.74 56.57
  L 74.74 0.43
  Z
  M 25.89 15.37
  Q 25.67 14.28 24.84 13.62
  Q 24.19 13.11 24.25 13.94
  L 24.55 18.23
  Q 24.58 18.78 25.12 18.85
  Q 27.28 19.12 27.96 21.18
  A 0.41 0.41 0.0 0 0 28.75 21.00
  L 28.15 16.41
  A 0.74 0.73 -1.9 0 0 27.47 15.78
  L 26.30 15.72
  Q 25.95 15.70 25.89 15.37
  Z
  M 47.35 15.66
  L 46.43 15.72
  A 0.73 0.71 -88.0 0 0 45.77 16.35
  L 45.14 20.98
  A 0.47 0.46 -33.7 0 0 46.05 21.16
  Q 46.60 19.12 48.70 18.95
  Q 49.21 18.90 49.28 18.39
  L 49.84 13.85
  Q 49.94 13.06 49.25 13.47
  Q 48.38 13.99 48.12 15.01
  A 0.86 0.85 -84.8 0 1 47.35 15.66
  Z
  M 19.75 23.19
  L 20.27 23.03
  A 0.83 0.83 0.0 0 1 20.97 23.12
  L 24.73 25.49
  A 0.42 0.42 0.0 0 0 25.31 24.93
  L 21.73 18.77
  Q 21.30 18.04 20.80 18.73
  L 20.44 19.24
  Q 20.08 19.74 19.55 19.42
  L 15.71 17.07
  A 0.37 0.37 0.0 0 0 15.19 17.56
  L 18.93 24.32
  A 0.40 0.40 0.0 0 0 19.61 24.35
  Q 19.90 23.93 19.75 23.19
  Z
  M 53.36 19.27
  L 53.12 18.75
  Q 52.75 17.91 52.28 18.70
  L 48.68 24.70
  A 0.50 0.50 0.0 0 0 49.37 25.38
  L 53.08 23.09
  A 0.60 0.60 0.0 0 1 53.92 23.32
  L 54.39 24.23
  Q 54.70 24.81 55.02 24.23
  L 58.68 17.70
  A 0.43 0.42 -0.9 0 0 58.09 17.13
  L 54.08 19.50
  A 0.51 0.51 0.0 0 1 53.36 19.27
  Z
  M 19.76 29.81
  Q 21.01 28.21 23.04 28.37
  A 0.40 0.40 0.0 0 0 23.21 27.60
  L 19.20 26.13
  A 0.75 0.75 0.0 0 0 18.30 26.45
  Q 17.31 28.12 15.21 27.79
  A 0.47 0.47 0.0 0 0 14.99 28.70
  L 19.02 30.03
  Q 19.47 30.18 19.76 29.81
  Z
  M 62.85 55.24
  Q 63.27 54.83 63.16 54.52
  L 63.69 52.81
  Q 63.84 52.34 64.22 52.02
  Q 66.76 49.89 66.70 47.25
  C 66.50 39.16 54.11 39.53 55.14 48.31
  C 55.53 51.65 59.23 51.81 58.19 55.99
  Q 58.07 56.49 58.58 56.42
  Q 60.98 56.11 63.40 56.73
  Q 63.95 56.87 63.85 56.31
  Q 63.75 55.79 62.85 55.24
  Z
  M 14.90 46.62
  Q 14.23 44.47 11.86 45.52
  A 0.60 0.59 -3.4 0 0 11.53 45.89
  Q 11.16 47.24 10.28 46.76
  Q 9.67 46.43 9.06 46.74
  Q 7.40 47.60 7.97 49.20
  A 0.69 0.69 0.0 0 1 7.58 50.07
  Q 6.18 50.65 6.57 52.16
  Q 6.68 52.58 7.02 52.83
  Q 8.23 53.70 7.79 55.26
  A 0.85 0.85 0.0 0 0 8.26 56.27
  Q 10.43 57.24 12.70 56.42
  A 0.90 0.90 0.0 0 1 13.27 56.39
  Q 15.73 57.09 17.20 56.63
  Q 18.93 56.08 17.84 54.24
  A 0.55 0.55 0.0 0 1 18.19 53.42
  Q 20.30 52.93 19.45 50.85
  Q 19.31 50.50 18.96 50.35
  L 18.31 50.08
  Q 17.82 49.88 18.00 49.38
  Q 18.71 47.40 16.77 46.55
  Q 16.30 46.35 15.91 46.66
  L 15.65 46.85
  Q 15.11 47.27 14.90 46.62
  Z"
/>
<path fill="#f9dd00" d="
  M 23.25 0.00
  L 26.00 0.00
  Q 25.81 0.17 26.55 0.40
  Q 27.16 0.79 27.39 1.46
  Q 26.83 2.25 28.52 2.55
  Q 29.10 2.66 29.99 2.62
  Q 40.13 2.17 49.67 3.35
  C 50.32 6.44 49.00 7.92 45.87 7.96
  Q 37.53 8.05 29.18 7.98
  C 24.79 7.94 21.89 6.20 21.90 1.62
  Q 21.91 0.45 22.95 0.27
  L 23.25 0.00
  Z"
/>
<rect fill="#030602" fill-opacity="0.004" x="0.24" y="0.17" width="0.52" height="56.64" rx="0.25"/>
<path fill="#363a37" d="
  M 22.95 0.27
  Q 21.91 0.45 21.90 1.62
  C 21.89 6.20 24.79 7.94 29.18 7.98
  Q 37.53 8.05 45.87 7.96
  C 49.00 7.92 50.32 6.44 49.67 3.35
  Q 48.70 1.40 45.75 1.52
  Q 37.73 1.85 27.39 1.46
  Q 27.16 0.79 26.55 0.40
  Q 35.70 0.75 44.93 0.62
  C 49.05 0.57 51.95 2.63 50.04 7.03
  A 1.01 1.01 0.0 0 0 50.10 7.92
  Q 50.98 9.42 50.66 11.17
  A 0.67 0.66 -84.8 0 1 50.01 11.72
  L 23.87 11.72
  Q 22.99 11.72 23.15 10.85
  L 23.70 7.74
  Q 23.76 7.39 23.50 7.15
  Q 20.70 4.60 21.24 0.67
  A 0.56 0.56 0.0 0 1 21.84 0.19
  L 22.95 0.27
  Z
  M 48.18 10.26
  Q 48.16 11.24 49.63 10.74
  A 0.83 0.83 0.0 0 0 50.10 9.56
  L 49.52 8.46
  Q 49.25 7.96 48.76 8.23
  Q 48.08 8.60 48.17 9.24
  A 1.21 0.03 -89.2 0 1 48.18 10.26
  Z
  M 23.84 10.29
  A 0.53 0.53 0.0 0 0 24.33 10.95
  L 24.94 10.97
  Q 25.62 11.00 25.63 10.31
  L 25.64 8.72
  A 0.68 0.68 0.0 0 0 24.30 8.54
  L 23.84 10.29
  Z
  M 47.5306 9.6185
  A 0.65 0.65 0.0 0 0 46.8817 8.9673
  L 27.0217 8.9327
  A 0.65 0.65 0.0 0 0 26.3706 9.5815
  L 26.3694 10.2615
  A 0.65 0.65 0.0 0 0 27.0183 10.9127
  L 46.8783 10.9473
  A 0.65 0.65 0.0 0 0 47.5294 10.2985
  L 47.5306 9.6185
  Z"
/>
<rect fill="#030602" fill-opacity="0.004" x="74.20" y="0.17" width="0.54" height="56.66" rx="0.26"/>
<path fill="#f8f16f" d="
  M 27.39 1.46
  Q 37.73 1.85 45.75 1.52
  Q 48.70 1.40 49.67 3.35
  Q 40.13 2.17 29.99 2.62
  Q 29.10 2.66 28.52 2.55
  Q 26.83 2.25 27.39 1.46
  Z"
/>
<path fill="#ceb513" d="
  M 48.17 9.24
  Q 48.08 8.60 48.76 8.23
  Q 49.25 7.96 49.52 8.46
  L 50.10 9.56
  A 0.83 0.83 0.0 0 1 49.63 10.74
  Q 48.16 11.24 48.18 10.26
  A 1.21 0.03 -89.2 0 0 48.17 9.24
  Z"
/>
<path fill="#ceb513" d="
  M 23.84 10.29
  L 24.30 8.54
  A 0.68 0.68 0.0 0 1 25.64 8.72
  L 25.63 10.31
  Q 25.62 11.00 24.94 10.97
  L 24.33 10.95
  A 0.53 0.53 0.0 0 1 23.84 10.29
  Z"
/>
<rect fill="#f3a667" x="-10.58" y="-0.99" transform="translate(36.95,9.94) rotate(0.1)" width="21.16" height="1.98" rx="0.65"/>
<path fill="#171b1d" d="
  M 26.30 15.72
  L 27.47 15.78
  A 0.74 0.73 -1.9 0 1 28.15 16.41
  L 28.75 21.00
  A 0.41 0.41 0.0 0 1 27.96 21.18
  Q 27.28 19.12 25.12 18.85
  Q 24.58 18.78 24.55 18.23
  L 24.25 13.94
  Q 24.19 13.11 24.84 13.62
  Q 25.67 14.28 25.89 15.37
  Q 25.95 15.70 26.30 15.72
  Z
  M 26.07 16.55
  L 25.61 16.12
  A 0.31 0.30 -70.9 0 0 25.10 16.37
  Q 25.22 18.20 27.13 18.46
  Q 27.80 18.55 27.66 17.89
  Q 27.49 17.09 26.65 16.87
  A 1.41 1.39 -15.7 0 1 26.07 16.55
  Z"
/>
<path fill="#363a37" d="
  M 48.12 15.01
  Q 48.38 13.99 49.25 13.47
  Q 49.94 13.06 49.84 13.85
  L 49.28 18.39
  Q 49.21 18.90 48.70 18.95
  Q 46.60 19.12 46.05 21.16
  A 0.47 0.46 -33.7 0 1 45.14 20.98
  L 45.77 16.35
  A 0.73 0.71 -88.0 0 1 46.43 15.72
  L 47.35 15.66
  A 0.86 0.85 -84.8 0 0 48.12 15.01
  Z
  M 46.53 17.25
  A 0.71 0.71 0.0 0 0 47.13 18.53
  Q 48.69 17.94 48.92 16.33
  Q 49.00 15.84 48.56 16.09
  L 46.53 17.25
  Z"
/>
<path fill="#f9dd00" d="
  M 46.53 17.25
  L 48.56 16.09
  Q 49.00 15.84 48.92 16.33
  Q 48.69 17.94 47.13 18.53
  A 0.71 0.71 0.0 0 1 46.53 17.25
  Z"
/>
<path fill="#f9dd00" d="
  M 26.65 16.87
  Q 27.49 17.09 27.66 17.89
  Q 27.80 18.55 27.13 18.46
  Q 25.22 18.20 25.10 16.37
  A 0.31 0.30 -70.9 0 1 25.61 16.12
  L 26.07 16.55
  A 1.41 1.39 -15.7 0 0 26.65 16.87
  Z"
/>
<path fill="#171b1d" d="
  M 19.75 23.19
  Q 19.73 22.73 19.94 22.43
  Q 20.27 21.95 20.79 22.23
  L 23.03 23.42
  Q 23.93 23.90 23.41 23.03
  L 21.73 20.23
  Q 21.47 19.79 21.02 20.04
  Q 20.06 20.56 17.61 19.15
  Q 16.61 18.57 17.14 19.60
  L 18.80 22.78
  Q 18.97 23.10 19.32 23.14
  L 19.75 23.19
  Q 19.90 23.93 19.61 24.35
  A 0.40 0.40 0.0 0 1 18.93 24.32
  L 15.19 17.56
  A 0.37 0.37 0.0 0 1 15.71 17.07
  L 19.55 19.42
  Q 20.08 19.74 20.44 19.24
  L 20.80 18.73
  Q 21.30 18.04 21.73 18.77
  L 25.31 24.93
  A 0.42 0.42 0.0 0 1 24.73 25.49
  L 20.97 23.12
  A 0.83 0.83 0.0 0 0 20.27 23.03
  L 19.75 23.19
  Z"
/>
<path fill="#171b1d" d="
  M 54.08 19.50
  L 58.09 17.13
  A 0.43 0.42 -0.9 0 1 58.68 17.70
  L 55.02 24.23
  Q 54.70 24.81 54.39 24.23
  L 53.92 23.32
  A 0.60 0.60 0.0 0 0 53.08 23.09
  L 49.37 25.38
  A 0.50 0.50 0.0 0 1 48.68 24.70
  L 52.28 18.70
  Q 52.75 17.91 53.12 18.75
  L 53.36 19.27
  A 0.51 0.51 0.0 0 0 54.08 19.50
  Z
  M 53.97 22.48
  L 54.23 22.77
  A 0.51 0.50 40.1 0 0 55.05 22.70
  L 57.01 19.28
  A 0.27 0.27 0.0 0 0 56.64 18.91
  Q 55.31 19.66 54.02 20.40
  Q 53.30 20.82 53.03 20.03
  Q 52.81 19.34 52.43 19.96
  L 50.57 23.05
  Q 49.91 24.16 51.02 23.51
  L 53.04 22.32
  A 0.74 0.73 54.6 0 1 53.97 22.48
  Z"
/>
<path fill="#f9dd00" d="
  M 53.04 22.32
  L 51.02 23.51
  Q 49.91 24.16 50.57 23.05
  L 52.43 19.96
  Q 52.81 19.34 53.03 20.03
  Q 53.30 20.82 54.02 20.40
  Q 55.31 19.66 56.64 18.91
  A 0.27 0.27 0.0 0 1 57.01 19.28
  L 55.05 22.70
  A 0.51 0.50 40.1 0 1 54.23 22.77
  L 53.97 22.48
  A 0.74 0.73 54.6 0 0 53.04 22.32
  Z"
/>
<path fill="#f9dd00" d="
  M 19.75 23.19
  L 19.32 23.14
  Q 18.97 23.10 18.80 22.78
  L 17.14 19.60
  Q 16.61 18.57 17.61 19.15
  Q 20.06 20.56 21.02 20.04
  Q 21.47 19.79 21.73 20.23
  L 23.41 23.03
  Q 23.93 23.90 23.03 23.42
  L 20.79 22.23
  Q 20.27 21.95 19.94 22.43
  Q 19.73 22.73 19.75 23.19
  Z"
/>
<path fill="#292a2f" d="
  M 41.05 53.44
  L 34.02 53.74
  Q 33.52 53.76 33.43 54.25
  L 32.95 56.92
  Q 32.15 55.75 32.69 53.90
  A 0.67 0.66 21.7 0 0 32.35 53.13
  Q 26.26 50.05 25.60 43.19
  A 0.49 0.49 0.0 0 0 25.02 42.75
  C 20.52 43.58 19.18 38.35 22.83 37.17
  A 0.64 0.63 -9.1 0 0 23.28 36.55
  L 23.25 30.78
  Q 23.25 30.24 23.79 30.25
  Q 26.41 30.30 26.81 27.18
  L 28.91 26.91
  Q 29.37 26.86 29.24 27.30
  Q 29.05 27.96 28.35 27.88
  Q 27.65 27.80 27.39 28.45
  L 27.01 29.42
  Q 26.83 29.86 27.30 29.91
  Q 29.68 30.19 31.81 29.15
  Q 32.22 28.95 32.61 29.20
  Q 34.46 30.40 36.44 29.53
  Q 36.92 29.31 37.42 29.51
  Q 39.33 30.26 41.06 29.41
  Q 41.44 29.22 41.86 29.31
  L 46.33 30.19
  A 0.59 0.59 0.0 0 0 46.93 29.29
  Q 45.86 27.69 43.96 27.82
  Q 43.26 27.87 43.74 27.35
  Q 44.43 26.62 45.60 26.79
  Q 46.35 26.90 46.13 26.18
  Q 45.26 23.30 42.26 23.93
  Q 42.32 23.33 42.02 23.37
  L 42.39 23.24
  A 0.43 0.42 57.9 0 0 42.55 22.53
  Q 40.23 20.29 37.30 21.56
  Q 36.87 21.75 36.44 21.56
  Q 33.22 20.18 30.92 23.04
  Q 30.76 22.87 30.48 23.71
  Q 27.39 24.25 26.93 27.03
  C 25.93 25.66 27.42 24.19 28.70 23.40
  Q 29.80 22.73 31.72 21.24
  Q 33.56 19.81 36.45 20.82
  Q 36.85 20.96 37.25 20.83
  Q 40.92 19.60 43.49 22.48
  Q 43.85 22.88 44.36 23.02
  C 49.56 24.46 45.02 29.69 50.18 30.26
  Q 50.69 30.31 50.69 30.83
  L 50.71 36.33
  Q 50.71 36.85 51.18 37.08
  C 54.93 38.87 52.95 43.48 48.96 42.90
  Q 48.40 42.82 48.33 43.38
  Q 47.40 50.31 41.05 53.44
  Z
  M 25.35 30.90
  L 24.15 30.92
  A 0.27 0.27 0.0 0 0 23.88 31.20
  L 23.97 35.54
  A 1.81 0.80 88.9 0 0 24.80 37.33
  L 24.94 37.33
  A 1.81 0.80 88.9 0 0 25.71 35.50
  L 25.62 31.16
  A 0.27 0.27 0.0 0 0 25.35 30.90
  Z
  M 47.35 34.35
  Q 47.38 34.49 48.11 34.74
  L 48.53 36.69
  A 0.73 0.73 0.0 0 0 49.97 36.66
  Q 50.93 31.09 48.77 30.71
  L 47.22 30.98
  L 27.15 30.95
  Q 26.47 30.95 26.47 31.63
  L 26.45 33.77
  Q 26.45 34.42 27.01 34.08
  Q 33.02 30.42 36.17 36.66
  A 0.93 0.93 0.0 0 0 37.84 36.64
  Q 40.99 30.08 47.35 34.35
  Z
  M 26.17 39.33
  Q 26.46 40.96 28.81 42.57
  Q 36.92 43.73 34.86 35.54
  Q 33.09 33.83 31.69 33.62
  Q 25.57 33.37 26.17 39.33
  Z
  M 38.53 39.22
  Q 39.23 41.40 40.66 42.09
  C 45.07 44.84 49.55 40.12 47.18 35.61
  Q 45.88 34.03 44.36 33.64
  Q 38.16 33.09 38.53 39.22
  Z
  M 25.80 41.24
  L 25.33 38.10
  A 0.57 0.57 0.0 0 0 24.68 37.62
  L 23.42 37.81
  A 2.28 2.01 -8.6 0 0 21.47 40.14
  L 21.52 40.44
  A 2.28 2.01 -8.6 0 0 24.07 42.08
  L 25.33 41.89
  A 0.57 0.57 0.0 0 0 25.80 41.24
  Z
  M 26.15 43.28
  Q 27.59 48.97 31.33 51.55
  C 38.62 56.59 46.79 50.91 47.63 42.47
  Q 47.72 41.62 47.01 42.10
  L 45.61 43.06
  Q 45.16 43.37 44.62 43.44
  Q 38.47 44.33 37.66 38.12
  A 0.74 0.74 0.0 0 0 36.19 38.16
  C 35.82 43.18 31.49 44.96 27.31 42.42
  A 0.78 0.78 0.0 0 0 26.15 43.28
  Z
  M 48.60 38.31
  L 48.15 41.04
  A 0.81 0.81 0.0 0 0 48.82 41.97
  L 49.80 42.13
  A 2.12 1.98 9.2 0 0 52.21 40.51
  L 52.28 40.10
  A 2.12 1.98 9.2 0 0 50.50 37.80
  L 49.52 37.64
  A 0.81 0.81 0.0 0 0 48.60 38.31
  Z"
/>
<path fill="#e56454" d="
  M 42.02 23.37
  Q 40.60 22.72 39.99 23.11
  Q 39.54 23.40 40.03 23.63
  Q 41.04 24.11 42.26 23.93
  Q 45.26 23.30 46.13 26.18
  Q 46.35 26.90 45.60 26.79
  Q 44.43 26.62 43.74 27.35
  Q 43.26 27.87 43.96 27.82
  Q 45.86 27.69 46.93 29.29
  A 0.59 0.59 0.0 0 1 46.33 30.19
  L 41.86 29.31
  Q 41.44 29.22 41.06 29.41
  Q 39.33 30.26 37.42 29.51
  Q 36.92 29.31 36.44 29.53
  Q 34.46 30.40 32.61 29.20
  Q 32.22 28.95 31.81 29.15
  Q 29.68 30.19 27.30 29.91
  Q 26.83 29.86 27.01 29.42
  L 27.39 28.45
  Q 27.65 27.80 28.35 27.88
  Q 29.05 27.96 29.24 27.30
  Q 29.37 26.86 28.91 26.91
  L 26.81 27.18
  Q 26.87 27.11 26.93 27.03
  Q 27.39 24.25 30.48 23.71
  Q 32.08 24.19 33.87 23.94
  Q 34.04 23.92 34.03 23.75
  Q 34.03 23.61 34.03 23.47
  A 0.40 0.39 90.0 0 0 33.65 23.08
  L 30.92 23.04
  Q 33.22 20.18 36.44 21.56
  Q 36.87 21.75 37.30 21.56
  Q 40.23 20.29 42.55 22.53
  A 0.43 0.42 57.9 0 1 42.39 23.24
  L 42.02 23.37
  Z
  M 36.53 24.95
  L 36.42 25.55
  A 0.44 0.44 0.0 0 0 36.81 26.08
  L 37.09 26.11
  Q 37.56 26.16 37.52 25.69
  L 37.28 22.47
  A 0.30 0.29 -40.7 0 0 36.70 22.43
  Q 36.52 23.17 36.59 23.95
  Q 36.63 24.46 36.53 24.95
  Z
  M 37.96 26.31
  A 1.31 1.31 0.0 0 1 36.34 26.34
  C 35.00 25.34 31.45 24.27 30.04 25.76
  Q 29.37 26.48 30.30 26.17
  Q 34.14 24.91 36.29 28.41
  A 0.66 0.65 -43.8 0 0 37.39 28.43
  Q 39.59 25.19 43.52 26.08
  Q 44.10 26.21 43.75 25.72
  Q 43.37 25.18 42.73 25.09
  C 41.01 24.87 39.40 25.12 37.96 26.31
  Z
  M 31.21 27.85
  Q 30.83 27.40 30.26 27.28
  A 0.29 0.28 -18.0 0 0 30.01 27.77
  L 30.66 28.37
  A 0.38 0.38 0.0 0 0 31.21 27.85
  Z"
/>
<path fill="#363a37" d="
  M 36.59 23.95
  Q 36.52 23.17 36.70 22.43
  A 0.30 0.29 -40.7 0 1 37.28 22.47
  L 37.52 25.69
  Q 37.56 26.16 37.09 26.11
  L 36.81 26.08
  A 0.44 0.44 0.0 0 1 36.42 25.55
  L 36.53 24.95
  Q 36.63 24.46 36.59 23.95
  Z"
/>
<path fill="#363a37" d="
  M 30.92 23.04
  L 33.65 23.08
  A 0.40 0.39 90.0 0 1 34.03 23.47
  Q 34.03 23.61 34.03 23.75
  Q 34.04 23.92 33.87 23.94
  Q 32.08 24.19 30.48 23.71
  Q 30.76 22.87 30.92 23.04
  Z"
/>
<path fill="#363a37" d="
  M 42.02 23.37
  Q 42.32 23.33 42.26 23.93
  Q 41.04 24.11 40.03 23.63
  Q 39.54 23.40 39.99 23.11
  Q 40.60 22.72 42.02 23.37
  Z"
/>
<path fill="#363a37" d="
  M 37.96 26.31
  C 39.40 25.12 41.01 24.87 42.73 25.09
  Q 43.37 25.18 43.75 25.72
  Q 44.10 26.21 43.52 26.08
  Q 39.59 25.19 37.39 28.43
  A 0.66 0.65 -43.8 0 1 36.29 28.41
  Q 34.14 24.91 30.30 26.17
  Q 29.37 26.48 30.04 25.76
  C 31.45 24.27 35.00 25.34 36.34 26.34
  A 1.31 1.31 0.0 0 0 37.96 26.31
  Z"
/>
<path fill="#171b1d" d="
  M 19.76 29.81
  Q 19.47 30.18 19.02 30.03
  L 14.99 28.70
  A 0.47 0.47 0.0 0 1 15.21 27.79
  Q 17.31 28.12 18.30 26.45
  A 0.75 0.75 0.0 0 1 19.20 26.13
  L 23.21 27.60
  A 0.40 0.40 0.0 0 1 23.04 28.37
  Q 21.01 28.21 19.76 29.81
  Z
  M 20.26 27.88
  A 0.60 0.59 -1.8 0 0 19.41 27.09
  L 17.52 28.38
  A 0.36 0.36 0.0 0 0 17.68 29.03
  Q 19.47 29.22 20.26 27.88
  Z"
/>
<path fill="#f9dd00" d="
  M 20.26 27.88
  Q 19.47 29.22 17.68 29.03
  A 0.36 0.36 0.0 0 1 17.52 28.38
  L 19.41 27.09
  A 0.60 0.59 -1.8 0 1 20.26 27.88
  Z"
/>
<path fill="#363a37" d="
  M 30.66 28.37
  L 30.01 27.77
  A 0.29 0.28 -18.0 0 1 30.26 27.28
  Q 30.83 27.40 31.21 27.85
  A 0.38 0.38 0.0 0 1 30.66 28.37
  Z"
/>
<path fill="#ceb513" d="
  M 25.35 30.90
  A 0.27 0.27 0.0 0 1 25.62 31.16
  L 25.71 35.50
  A 1.81 0.80 88.9 0 1 24.94 37.33
  L 24.80 37.33
  A 1.81 0.80 88.9 0 1 23.97 35.54
  L 23.88 31.20
  A 0.27 0.27 0.0 0 1 24.15 30.92
  L 25.35 30.90
  Z"
/>
<path fill="#f7bb7b" d="
  M 47.22 30.98
  L 47.35 34.35
  Q 40.99 30.08 37.84 36.64
  A 0.93 0.93 0.0 0 1 36.17 36.66
  Q 33.02 30.42 27.01 34.08
  Q 26.45 34.42 26.45 33.77
  L 26.47 31.63
  Q 26.47 30.95 27.15 30.95
  L 47.22 30.98
  Z"
/>
<path fill="#ceb513" d="
  M 48.11 34.74
  L 48.77 30.71
  Q 50.93 31.09 49.97 36.66
  A 0.73 0.73 0.0 0 1 48.53 36.69
  L 48.11 34.74
  Z"
/>
<path fill="#363a37" d="
  M 47.22 30.98
  L 48.77 30.71
  L 48.11 34.74
  Q 47.38 34.49 47.35 34.35
  L 47.22 30.98
  Z"
/>
<path fill="#7ac3e9" d="
  M 31.69 33.62
  Q 29.60 37.14 26.17 39.33
  Q 25.57 33.37 31.69 33.62
  Z"
/>
<path fill="#7ac3e9" d="
  M 44.36 33.64
  Q 42.15 37.11 38.53 39.22
  Q 38.16 33.09 44.36 33.64
  Z"
/>
<path fill="#e6edf7" d="
  M 31.69 33.62
  Q 33.09 33.83 34.86 35.54
  Q 32.31 37.13 31.98 38.84
  Q 31.19 39.62 29.54 39.13
  Q 28.81 38.92 29.06 39.64
  Q 29.20 40.05 29.98 40.32
  L 28.81 42.57
  Q 26.46 40.96 26.17 39.33
  Q 29.60 37.14 31.69 33.62
  Z"
/>
<path fill="#e6edf7" d="
  M 44.36 33.64
  Q 45.88 34.03 47.18 35.61
  Q 45.01 37.16 44.27 38.83
  Q 43.44 39.73 41.59 39.04
  A 0.29 0.29 0.0 0 0 41.24 39.45
  Q 41.49 39.89 42.32 40.22
  L 40.66 42.09
  Q 39.23 41.40 38.53 39.22
  Q 42.15 37.11 44.36 33.64
  Z"
/>
<path fill="#7ac3e9" d="
  M 34.86 35.54
  Q 36.92 43.73 28.81 42.57
  L 29.98 40.32
  Q 33.76 39.83 31.98 38.84
  Q 32.31 37.13 34.86 35.54
  Z"
/>
<path fill="#7ac3e9" d="
  M 47.18 35.61
  C 49.55 40.12 45.07 44.84 40.66 42.09
  L 42.32 40.22
  Q 46.39 40.05 44.27 38.83
  Q 45.01 37.16 47.18 35.61
  Z"
/>
<path fill="#f3a667" d="
  M 25.80 41.24
  A 0.57 0.57 0.0 0 1 25.33 41.89
  L 24.07 42.08
  A 2.28 2.01 -8.6 0 1 21.52 40.44
  L 21.47 40.14
  A 2.28 2.01 -8.6 0 1 23.42 37.81
  L 24.68 37.62
  A 0.57 0.57 0.0 0 1 25.33 38.10
  L 25.80 41.24
  Z
  M 23.9420 40.9821
  A 0.98 0.71 70.2 0 0 24.2780 39.8195
  A 0.98 0.71 70.2 0 0 23.2780 39.1379
  A 0.98 0.71 70.2 0 0 22.9420 40.3005
  A 0.98 0.71 70.2 0 0 23.9420 40.9821
  Z"
/>
<path fill="#f7bb7b" d="
  M 26.15 43.28
  A 0.78 0.78 0.0 0 1 27.31 42.42
  C 31.49 44.96 35.82 43.18 36.19 38.16
  A 0.74 0.74 0.0 0 1 37.66 38.12
  Q 38.47 44.33 44.62 43.44
  Q 45.16 43.37 45.61 43.06
  L 47.01 42.10
  Q 47.72 41.62 47.63 42.47
  C 46.79 50.91 38.62 56.59 31.33 51.55
  Q 27.59 48.97 26.15 43.28
  Z
  M 35.98 43.62
  L 37.77 43.61
  A 0.33 0.33 0.0 0 0 37.93 43.00
  Q 36.85 42.38 35.81 43.07
  Q 34.98 43.63 35.98 43.62
  Z
  M 41.83 45.39
  C 37.82 47.96 35.91 47.74 31.61 45.28
  A 0.18 0.17 81.2 0 0 31.41 45.56
  C 33.87 47.91 40.02 49.37 42.17 45.72
  Q 42.70 44.83 41.83 45.39
  Z
  M 37.53 49.63
  L 36.46 49.63
  Q 35.73 49.63 36.34 50.03
  Q 37.48 50.79 37.80 50.03
  Q 37.96 49.63 37.53 49.63
  Z"
/>
<path fill="#f3a667" d="
  M 48.60 38.31
  A 0.81 0.81 0.0 0 1 49.52 37.64
  L 50.50 37.80
  A 2.12 1.98 9.2 0 1 52.28 40.10
  L 52.21 40.51
  A 2.12 1.98 9.2 0 1 49.80 42.13
  L 48.82 41.97
  A 0.81 0.81 0.0 0 1 48.15 41.04
  L 48.60 38.31
  Z
  M 49.88 39.63
  Q 49.43 39.99 49.68 40.40
  A 0.73 0.73 0.0 0 0 51.03 40.09
  Q 51.10 39.41 50.45 39.20
  Q 50.23 39.13 50.06 39.22
  Q 49.83 39.35 49.88 39.63
  Z"
/>
<path fill="#292a2f" d="
  M 31.98 38.84
  Q 33.76 39.83 29.98 40.32
  Q 29.20 40.05 29.06 39.64
  Q 28.81 38.92 29.54 39.13
  Q 31.19 39.62 31.98 38.84
  Z"
/>
<path fill="#292a2f" d="
  M 44.27 38.83
  Q 46.39 40.05 42.32 40.22
  Q 41.49 39.89 41.24 39.45
  A 0.29 0.29 0.0 0 1 41.59 39.04
  Q 43.44 39.73 44.27 38.83
  Z"
/>
<ellipse fill="#e56454" cx="0.00" cy="0.00" transform="translate(23.61,40.06) rotate(70.2)" rx="0.98" ry="0.71"/>
<path fill="#e56454" d="
  M 49.88 39.63
  Q 49.83 39.35 50.06 39.22
  Q 50.23 39.13 50.45 39.20
  Q 51.10 39.41 51.03 40.09
  A 0.73 0.73 0.0 0 1 49.68 40.40
  Q 49.43 39.99 49.88 39.63
  Z"
/>
<path fill="#171b1d" d="
  M 63.16 54.52
  Q 62.84 54.20 62.67 53.21
  C 63.63 51.30 65.28 50.40 65.75 48.37
  Q 66.76 44.06 61.90 42.15
  Q 53.22 42.84 56.92 50.49
  Q 58.89 52.11 59.09 54.71
  A 0.60 0.60 0.0 0 0 60.28 54.78
  L 61.29 49.79
  Q 61.38 49.33 61.81 49.14
  Q 62.94 48.63 63.93 49.18
  A 0.26 0.26 0.0 0 1 63.78 49.66
  Q 61.31 49.47 61.64 51.49
  L 61.28 54.84
  Q 61.23 55.24 61.64 55.30
  Q 62.27 55.40 62.85 55.24
  Q 63.75 55.79 63.85 56.31
  Q 63.95 56.87 63.40 56.73
  Q 60.98 56.11 58.58 56.42
  Q 58.07 56.49 58.19 55.99
  C 59.23 51.81 55.53 51.65 55.14 48.31
  C 54.11 39.53 66.50 39.16 66.70 47.25
  Q 66.76 49.89 64.22 52.02
  Q 63.84 52.34 63.69 52.81
  L 63.16 54.52
  Z"
/>
<path fill="#f5f5f5" d="
  M 61.90 42.15
  Q 56.05 43.99 56.92 50.49
  Q 53.22 42.84 61.90 42.15
  Z"
/>
<path fill="#f8f16f" d="
  M 61.90 42.15
  Q 66.76 44.06 65.75 48.37
  C 65.28 50.40 63.63 51.30 62.67 53.21
  Q 62.48 53.40 62.24 53.40
  Q 61.69 53.41 61.68 52.87
  L 61.64 51.49
  Q 61.31 49.47 63.78 49.66
  A 0.26 0.26 0.0 0 0 63.93 49.18
  Q 62.94 48.63 61.81 49.14
  Q 61.38 49.33 61.29 49.79
  L 60.28 54.78
  A 0.60 0.60 0.0 0 1 59.09 54.71
  Q 58.89 52.11 56.92 50.49
  Q 56.05 43.99 61.90 42.15
  Z
  M 59.47 50.23
  L 59.61 50.53
  A 0.24 0.24 0.0 0 0 60.06 50.41
  L 60.02 49.63
  Q 59.99 49.02 59.38 49.01
  L 57.80 48.99
  A 0.26 0.26 0.0 0 0 57.72 49.50
  L 59.03 49.87
  Q 59.33 49.95 59.47 50.23
  Z"
/>
<path fill="#363a37" d="
  M 35.98 43.62
  Q 34.98 43.63 35.81 43.07
  Q 36.85 42.38 37.93 43.00
  A 0.33 0.33 0.0 0 1 37.77 43.61
  L 35.98 43.62
  Z"
/>
<path fill="#171b1d" d="
  M 15.65 46.85
  L 15.91 46.66
  Q 16.30 46.35 16.77 46.55
  Q 18.71 47.40 18.00 49.38
  Q 17.82 49.88 18.31 50.08
  L 18.96 50.35
  Q 19.31 50.50 19.45 50.85
  Q 20.30 52.93 18.19 53.42
  A 0.55 0.55 0.0 0 0 17.84 54.24
  Q 18.93 56.08 17.20 56.63
  Q 15.73 57.09 13.27 56.39
  A 0.90 0.90 0.0 0 0 12.70 56.42
  Q 10.43 57.24 8.26 56.27
  A 0.85 0.85 0.0 0 1 7.79 55.26
  Q 8.23 53.70 7.02 52.83
  Q 6.68 52.58 6.57 52.16
  Q 6.18 50.65 7.58 50.07
  A 0.69 0.69 0.0 0 0 7.97 49.20
  Q 7.40 47.60 9.06 46.74
  Q 9.67 46.43 10.28 46.76
  Q 11.16 47.24 11.53 45.89
  A 0.60 0.59 -3.4 0 1 11.86 45.52
  Q 14.23 44.47 14.90 46.62
  Q 15.11 47.27 15.65 46.85
  Z
  M 9.14 55.79
  L 16.39 55.66
  Q 17.00 55.65 16.88 55.04
  Q 16.70 54.15 17.15 53.29
  Q 17.40 52.81 17.89 52.59
  L 18.81 52.17
  A 0.44 0.44 0.0 0 0 18.75 51.34
  Q 16.33 50.65 17.37 48.36
  A 0.65 0.65 0.0 0 0 16.56 47.48
  L 15.45 47.89
  A 0.71 0.71 0.0 0 1 14.60 47.59
  L 14.04 46.66
  Q 13.74 46.16 13.16 46.19
  Q 11.98 46.24 11.74 47.26
  A 0.91 0.89 88.5 0 1 11.13 47.92
  Q 10.44 48.13 9.91 47.59
  A 0.60 0.60 0.0 0 0 8.90 48.15
  Q 9.40 50.29 7.83 51.18
  Q 7.21 51.53 7.74 52.00
  Q 9.16 53.26 8.69 55.24
  A 0.45 0.45 0.0 0 0 9.14 55.79
  Z"
/>
<path fill="#171b1d" d="
  M 31.61 45.28
  C 35.91 47.74 37.82 47.96 41.83 45.39
  Q 42.70 44.83 42.17 45.72
  C 40.02 49.37 33.87 47.91 31.41 45.56
  A 0.18 0.17 81.2 0 1 31.61 45.28
  Z"
/>
<path fill="#c5c9c5" d="
  M 16.39 55.66
  L 9.14 55.79
  A 0.45 0.45 0.0 0 1 8.69 55.24
  Q 9.16 53.26 7.74 52.00
  Q 7.21 51.53 7.83 51.18
  Q 9.40 50.29 8.90 48.15
  A 0.60 0.60 0.0 0 1 9.91 47.59
  Q 10.44 48.13 11.13 47.92
  A 0.91 0.89 88.5 0 0 11.74 47.26
  Q 11.98 46.24 13.16 46.19
  Q 13.74 46.16 14.04 46.66
  L 14.60 47.59
  A 0.71 0.71 0.0 0 0 15.45 47.89
  L 16.56 47.48
  A 0.65 0.65 0.0 0 1 17.37 48.36
  Q 16.33 50.65 18.75 51.34
  A 0.44 0.44 0.0 0 1 18.81 52.17
  L 17.89 52.59
  Q 17.40 52.81 17.15 53.29
  Q 16.70 54.15 16.88 55.04
  Q 17.00 55.65 16.39 55.66
  Z
  M 16.64 51.65
  A 3.55 3.55 0.0 0 0 13.09 48.10
  A 3.55 3.55 0.0 0 0 9.54 51.65
  A 3.55 3.55 0.0 0 0 13.09 55.20
  A 3.55 3.55 0.0 0 0 16.64 51.65
  Z"
/>
<path fill="#171b1d" d="
  M 16.64 51.65
  A 3.55 3.55 0.0 0 1 13.09 55.20
  A 3.55 3.55 0.0 0 1 9.54 51.65
  A 3.55 3.55 0.0 0 1 13.09 48.10
  A 3.55 3.55 0.0 0 1 16.64 51.65
  Z
  M 15.78 51.71
  A 2.73 2.73 0.0 0 0 13.05 48.98
  A 2.73 2.73 0.0 0 0 10.32 51.71
  A 2.73 2.73 0.0 0 0 13.05 54.44
  A 2.73 2.73 0.0 0 0 15.78 51.71
  Z"
/>
<circle fill="#f5f5f5" cx="13.05" cy="51.71" r="2.73"/>
<path fill="#171b1d" d="
  M 59.03 49.87
  L 57.72 49.50
  A 0.26 0.26 0.0 0 1 57.80 48.99
  L 59.38 49.01
  Q 59.99 49.02 60.02 49.63
  L 60.06 50.41
  A 0.24 0.24 0.0 0 1 59.61 50.53
  L 59.47 50.23
  Q 59.33 49.95 59.03 49.87
  Z"
/>
<path fill="#ee7e38" d="
  M 37.53 49.63
  Q 37.96 49.63 37.80 50.03
  Q 37.48 50.79 36.34 50.03
  Q 35.73 49.63 36.46 49.63
  L 37.53 49.63
  Z"
/>
<path fill="#ceb513" d="
  M 61.64 51.49
  L 61.68 52.87
  Q 61.69 53.41 62.24 53.40
  Q 62.48 53.40 62.67 53.21
  Q 62.84 54.20 63.16 54.52
  Q 63.27 54.83 62.85 55.24
  Q 62.27 55.40 61.64 55.30
  Q 61.23 55.24 61.28 54.84
  L 61.64 51.49
  Z"
/>
<path fill="#ee7e38" d="
  M 41.05 53.44
  Q 41.08 53.53 41.11 53.62
  Q 40.22 54.51 40.49 56.71
  Q 39.59 56.60 39.16 57.00
  L 34.24 57.00
  Q 33.56 56.41 32.95 56.92
  L 33.43 54.25
  Q 33.52 53.76 34.02 53.74
  L 41.05 53.44
  Z"
/>
<path fill="#363a37" d="
  M 41.11 53.62
  L 41.36 56.27
  A 0.47 0.46 85.8 0 1 40.93 56.78
  Q 40.73 56.80 40.49 56.71
  Q 40.22 54.51 41.11 53.62
  Z"
/>
</svg>
