<?xml version="1.0" encoding="UTF-8" standalone="no"?>
<!DOCTYPE svg PUBLIC "-//W3C//DTD SVG 1.1//EN" "http://www.w3.org/Graphics/SVG/1.1/DTD/svg11.dtd">
<svg xmlns="http://www.w3.org/2000/svg" version="1.1" viewBox="0.00 0.00 32.00 32.00">
<path fill="#0c8f83" d="
  M 23.74 3.02
  C 28.05 3.03 30.97 8.14 27.54 11.54
  Q 19.81 19.18 12.18 26.97
  Q 11.75 27.41 11.15 27.53
  L 3.52 29.09
  A 0.51 0.51 0.0 0 1 2.92 28.48
  L 4.48 20.76
  Q 4.58 20.28 4.94 19.93
  Q 12.99 12.10 20.78 4.07
  Q 21.81 3.01 23.74 3.02
  Z
  M 19.97 8.24
  L 23.80 12.03
  A 0.30 0.30 0.0 0 0 24.22 12.03
  L 25.87 10.36
  A 3.34 2.88 -45.3 0 0 26.17 5.96
  L 26.01 5.81
  A 3.34 2.88 -45.3 0 0 21.62 6.16
  L 19.97 7.82
  A 0.30 0.30 0.0 0 0 19.97 8.24
  Z
  M 22.37 13.39
  L 18.67 9.67
  A 0.53 0.53 0.0 0 0 17.92 9.67
  L 11.66 15.91
  A 11.71 3.05 -44.9 0 0 5.51 26.34
  L 5.65 26.48
  A 11.71 3.05 -44.9 0 0 16.10 20.38
  L 22.36 14.14
  A 0.53 0.53 0.0 0 0 22.37 13.39
  Z"
/>
</svg>
