<?xml version="1.0" encoding="UTF-8" standalone="no"?>
<!DOCTYPE svg PUBLIC "-//W3C//DTD SVG 1.1//EN" "http://www.w3.org/Graphics/SVG/1.1/DTD/svg11.dtd">
<svg xmlns="http://www.w3.org/2000/svg" version="1.1" viewBox="0.00 0.00 87.00 66.00">
<g stroke-width="2.00" fill="none" stroke-linecap="butt">
<path stroke="#808080" vector-effect="non-scaling-stroke" d="
  M 41.82 0.00
  L 0.78 20.21
  A 0.50 0.50 0.0 0 0 0.76 21.09
  L 41.88 43.60
  A 1.23 1.21 -44.6 0 0 43.05 43.60
  L 81.49 22.70
  Q 82.07 22.39 82.07 23.04
  L 82.14 36.74
  Q 82.14 37.26 81.70 37.54
  C 75.72 41.41 84.56 49.15 87.00 41.37"
/>
<path stroke="#808080" vector-effect="non-scaling-stroke" d="
  M 86.13 66.00
  L 85.69 48.79
  Q 85.69 48.58 85.48 48.58
  L 81.49 48.61
  Q 81.22 48.61 81.21 48.87
  L 80.47 66.00"
/>
<path stroke="#808080" vector-effect="non-scaling-stroke" d="
  M 41.63 48.32
  L 19.24 36.11
  A 0.34 0.34 0.0 0 0 18.73 36.41
  L 18.77 48.80
  Q 18.77 49.28 19.09 49.65
  C 31.68 63.90 52.29 63.88 65.13 49.92
  A 1.36 1.36 0.0 0 0 65.49 49.00
  L 65.52 36.71
  Q 65.52 35.87 64.78 36.27
  L 42.45 48.32
  Q 42.04 48.54 41.63 48.32"
/>
<path stroke="#808080" vector-effect="non-scaling-stroke" d="
  M 42.92 0.00
  L 84.41 19.83
  Q 84.90 20.06 84.90 20.60
  C 84.91 21.33 84.57 22.48 84.57 23.04
  Q 84.55 29.84 84.52 36.68
  Q 84.52 37.19 84.97 37.42
  Q 86.68 38.33 87.00 40.30"
/>
</g>
<path fill="#ffffff" d="
  M 0.00 0.00
  L 41.82 0.00
  L 0.78 20.21
  A 0.50 0.50 0.0 0 0 0.76 21.09
  L 41.88 43.60
  A 1.23 1.21 -44.6 0 0 43.05 43.60
  L 81.49 22.70
  Q 82.07 22.39 82.07 23.04
  L 82.14 36.74
  Q 82.14 37.26 81.70 37.54
  C 75.72 41.41 84.56 49.15 87.00 41.37
  L 87.00 66.00
  L 86.13 66.00
  L 85.69 48.79
  Q 85.69 48.58 85.48 48.58
  L 81.49 48.61
  Q 81.22 48.61 81.21 48.87
  L 80.47 66.00
  L 0.00 66.00
  L 0.00 0.00
  Z
  M 41.63 48.32
  L 19.24 36.11
  A 0.34 0.34 0.0 0 0 18.73 36.41
  L 18.77 48.80
  Q 18.77 49.28 19.09 49.65
  C 31.68 63.90 52.29 63.88 65.13 49.92
  A 1.36 1.36 0.0 0 0 65.49 49.00
  L 65.52 36.71
  Q 65.52 35.87 64.78 36.27
  L 42.45 48.32
  Q 42.04 48.54 41.63 48.32
  Z"
/>
<path fill="#000000" d="
  M 41.82 0.00
  L 42.92 0.00
  L 84.41 19.83
  Q 84.90 20.06 84.90 20.60
  C 84.91 21.33 84.57 22.48 84.57 23.04
  Q 84.55 29.84 84.52 36.68
  Q 84.52 37.19 84.97 37.42
  Q 86.68 38.33 87.00 40.30
  L 87.00 41.37
  C 84.56 49.15 75.72 41.41 81.70 37.54
  Q 82.14 37.26 82.14 36.74
  L 82.07 23.04
  Q 82.07 22.39 81.49 22.70
  L 43.05 43.60
  A 1.23 1.21 -44.6 0 1 41.88 43.60
  L 0.76 21.09
  A 0.50 0.50 0.0 0 1 0.78 20.21
  L 41.82 0.00
  Z"
/>
<path fill="#ffffff" d="
  M 42.92 0.00
  L 87.00 0.00
  L 87.00 40.30
  Q 86.68 38.33 84.97 37.42
  Q 84.52 37.19 84.52 36.68
  Q 84.55 29.84 84.57 23.04
  C 84.57 22.48 84.91 21.33 84.90 20.60
  Q 84.90 20.06 84.41 19.83
  L 42.92 0.00
  Z"
/>
<path fill="#000000" d="
  M 42.45 48.32
  L 64.78 36.27
  Q 65.52 35.87 65.52 36.71
  L 65.49 49.00
  A 1.36 1.36 0.0 0 1 65.13 49.92
  C 52.29 63.88 31.68 63.90 19.09 49.65
  Q 18.77 49.28 18.77 48.80
  L 18.73 36.41
  A 0.34 0.34 0.0 0 1 19.24 36.11
  L 41.63 48.32
  Q 42.04 48.54 42.45 48.32
  Z"
/>
<path fill="#000000" d="
  M 86.13 66.00
  L 80.47 66.00
  L 81.21 48.87
  Q 81.22 48.61 81.49 48.61
  L 85.48 48.58
  Q 85.69 48.58 85.69 48.79
  L 86.13 66.00
  Z"
/>
</svg>
