<?xml version="1.0" encoding="UTF-8" standalone="no"?>
<!DOCTYPE svg PUBLIC "-//W3C//DTD SVG 1.1//EN" "http://www.w3.org/Graphics/SVG/1.1/DTD/svg11.dtd">
<svg xmlns="http://www.w3.org/2000/svg" version="1.1" viewBox="0.00 0.00 52.00 45.00">
<g stroke-width="2.00" fill="none" stroke-linecap="butt">
<path stroke="#803740" vector-effect="non-scaling-stroke" d="
  M 50.94 35.83
  Q 50.12 34.73 50.24 32.98
  Q 50.28 32.40 49.71 32.49
  Q 47.65 32.78 46.40 31.10
  Q 46.14 30.75 45.70 30.75
  L 24.98 30.75
  Q 24.46 30.75 24.46 31.27
  L 24.46 39.28
  Q 24.46 39.85 25.03 39.85
  L 29.26 39.85
  A 0.63 0.62 -83.6 0 0 29.87 39.36
  C 31.90 30.61 43.25 30.35 45.28 39.06
  Q 45.39 39.54 45.86 39.68
  Q 49.75 40.86 50.86 37.46"
/>
<path stroke="#282b30" vector-effect="non-scaling-stroke" d="
  M 42.32 45.00
  Q 46.02 38.56 41.00 35.27
  Q 38.91 33.90 36.33 34.55
  Q 28.81 36.43 32.82 45.00"
/>
<path stroke="#282b30" vector-effect="non-scaling-stroke" d="
  M 17.59 45.00
  Q 21.09 40.08 17.70 36.36
  C 12.00 30.11 3.11 38.23 8.62 45.00"
/>
<path stroke="#6a6a80" vector-effect="non-scaling-stroke" d="
  M 1.03 14.16
  Q 1.76 14.88 1.76 15.51
  Q 1.71 22.07 1.76 28.71
  Q 1.77 29.23 2.29 29.23
  L 12.53 29.21"
/>
<path stroke="#777680" vector-effect="non-scaling-stroke" d="
  M 12.53 29.21
  L 22.49 29.20
  Q 22.95 29.20 22.95 28.74
  L 22.96 10.02
  Q 22.96 9.56 22.50 9.56
  L 11.66 9.61"
/>
<path stroke="#6a6a80" vector-effect="non-scaling-stroke" d="
  M 11.66 9.61
  L 2.74 9.70
  Q 2.17 9.71 1.97 10.25
  L 1.08 12.56"
/>
<path stroke="#803740" vector-effect="non-scaling-stroke" d="
  M 26.54 7.98
  L 32.05 8.00
  A 0.63 0.62 -84.3 0 0 32.66 7.49
  C 33.41 3.79 29.27 4.38 27.17 4.55"
/>
<path stroke="#7c242f" vector-effect="non-scaling-stroke" d="
  M 27.17 4.55
  C 25.24 4.39 21.01 3.92 22.06 7.54
  Q 22.20 8.04 22.72 8.03
  L 26.54 7.98"
/>
<path stroke="#fc5b6f" vector-effect="non-scaling-stroke" d="
  M 27.17 4.55
  L 26.54 7.98"
/>
<path stroke="#777680" vector-effect="non-scaling-stroke" d="
  M 48.13 27.42
  L 49.89 27.36
  A 0.43 0.43 0.0 0 0 50.27 26.76
  L 49.83 25.72
  Q 49.63 25.27 49.13 25.26
  Q 41.17 25.21 33.23 25.25
  C 27.05 25.29 28.72 19.77 28.75 15.73
  A 2.75 2.74 -89.8 0 1 31.49 13.00
  L 37.47 12.99
  Q 37.97 12.99 37.76 12.53
  L 36.57 9.98
  A 0.75 0.74 -12.3 0 0 35.89 9.55
  L 24.97 9.51
  Q 24.46 9.51 24.46 10.03
  L 24.46 28.73
  Q 24.46 29.25 24.98 29.25
  L 45.45 29.25
  Q 45.96 29.25 46.30 28.86
  L 47.11 27.92
  Q 47.51 27.44 48.13 27.42"
/>
<path stroke="#3d677d" vector-effect="non-scaling-stroke" d="
  M 42.16 23.39
  L 38.68 14.98
  A 0.78 0.76 78.5 0 0 37.97 14.50
  L 31.25 14.50
  A 1.00 1.00 0.0 0 0 30.25 15.50
  L 30.25 22.37
  A 1.38 1.37 -90.0 0 0 31.62 23.75
  L 41.93 23.74
  Q 42.31 23.74 42.16 23.39"
/>
<path stroke="#7c784f" vector-effect="non-scaling-stroke" d="
  M 47.81 29.44
  A 0.73 0.72 45.4 0 0 47.81 30.35
  Q 48.46 31.18 49.66 31.04
  A 1.05 1.04 -32.5 0 0 50.09 29.11
  Q 48.75 28.29 47.81 29.44"
/>
<path stroke="#803740" vector-effect="non-scaling-stroke" d="
  M 13.41 32.61
  Q 19.57 33.42 20.86 39.43
  A 1.05 1.05 0.0 0 0 22.93 39.21
  L 22.97 31.28
  Q 22.97 30.77 22.47 30.78
  L 12.95 30.78"
/>
<path stroke="#7c242f" vector-effect="non-scaling-stroke" d="
  M 12.95 30.78
  L 2.33 30.77
  Q 1.82 30.77 1.80 31.28
  C 1.69 34.35 0.51 40.85 4.75 39.83
  Q 5.21 39.72 5.32 39.26
  Q 6.97 32.83 13.41 32.61"
/>
<path stroke="#fc5b6f" vector-effect="non-scaling-stroke" d="
  M 12.95 30.78
  Q 12.67 31.84 13.41 32.61"
/>
<path stroke="#e1e0ff" vector-effect="non-scaling-stroke" d="
  M 11.66 9.61
  L 11.84 12.43"
/>
<path stroke="#6a6a80" vector-effect="non-scaling-stroke" d="
  M 11.84 12.43
  Q 9.08 13.21 9.22 16.09
  Q 9.25 16.62 8.72 16.62
  C 3.67 16.60 4.04 23.03 8.70 22.77
  Q 9.22 22.74 9.22 23.26
  Q 9.22 26.66 12.46 27.00"
/>
<path stroke="#e1e0ff" vector-effect="non-scaling-stroke" d="
  M 12.46 27.00
  Q 12.23 28.13 12.53 29.21"
/>
<path stroke="#777680" vector-effect="non-scaling-stroke" d="
  M 12.46 27.00
  Q 15.38 26.48 15.42 23.27
  Q 15.43 22.72 15.97 22.75
  C 20.52 22.96 20.80 16.69 15.99 16.62
  Q 15.51 16.61 15.48 16.14
  Q 15.24 12.50 11.84 12.43"
/>
<path stroke="#803740" vector-effect="non-scaling-stroke" d="
  M 14.75 18.05
  A 1.09 1.09 0.0 0 1 13.93 17.23
  L 13.35 14.70
  A 1.09 1.09 0.0 0 0 11.23 14.70
  L 10.65 17.23
  A 1.09 1.09 0.0 0 1 9.83 18.05
  L 7.30 18.63
  A 1.09 1.09 0.0 0 0 7.30 20.75
  L 9.83 21.33
  A 1.09 1.09 0.0 0 1 10.65 22.15
  L 11.23 24.68
  A 1.09 1.09 0.0 0 0 13.35 24.68
  L 13.93 22.15
  A 1.09 1.09 0.0 0 1 14.75 21.33
  L 17.28 20.75
  A 1.09 1.09 0.0 0 0 17.28 18.63
  L 14.75 18.05"
/>
<path stroke="#282b30" vector-effect="non-scaling-stroke" d="
  M 16.52 40.45
  A 3.43 3.43 0.0 0 0 13.09 37.02
  A 3.43 3.43 0.0 0 0 9.66 40.45
  A 3.43 3.43 0.0 0 0 13.09 43.88
  A 3.43 3.43 0.0 0 0 16.52 40.45"
/>
<path stroke="#282b30" vector-effect="non-scaling-stroke" d="
  M 41.01 40.48
  A 3.38 3.38 0.0 0 0 37.63 37.10
  A 3.38 3.38 0.0 0 0 34.25 40.48
  A 3.38 3.38 0.0 0 0 37.63 43.86
  A 3.38 3.38 0.0 0 0 41.01 40.48"
/>
<path stroke="#7c784f" vector-effect="non-scaling-stroke" d="
  M 14.94 40.49
  A 1.87 1.87 0.0 0 0 13.07 38.62
  A 1.87 1.87 0.0 0 0 11.20 40.49
  A 1.87 1.87 0.0 0 0 13.07 42.36
  A 1.87 1.87 0.0 0 0 14.94 40.49"
/>
<path stroke="#7c784f" vector-effect="non-scaling-stroke" d="
  M 39.50 40.47
  A 1.87 1.87 0.0 0 0 37.63 38.60
  A 1.87 1.87 0.0 0 0 35.76 40.47
  A 1.87 1.87 0.0 0 0 37.63 42.34
  A 1.87 1.87 0.0 0 0 39.50 40.47"
/>
</g>
<path fill="#000000" d="
  M 23.13 0.00
  L 24.60 0.00
  Q 25.19 0.67 24.65 1.12
  A 0.96 0.95 -46.3 0 1 23.47 1.15
  Q 22.86 0.70 23.13 0.00
  Z"
/>
<path fill="#000000" d="
  M 26.79 0.00
  L 28.07 0.00
  Q 28.15 0.68 27.79 1.05
  A 0.66 0.66 0.0 0 1 26.93 1.12
  Q 26.23 0.60 26.79 0.00
  Z"
/>
<path fill="#000000" d="
  M 29.99 0.00
  L 31.39 0.00
  Q 31.73 1.18 30.62 1.23
  Q 30.13 1.25 29.93 0.80
  Q 29.71 0.31 29.99 0.00
  Z"
/>
<path fill="#000000" d="
  M 50.94 35.83
  Q 50.12 34.73 50.24 32.98
  Q 50.28 32.40 49.71 32.49
  Q 47.65 32.78 46.40 31.10
  Q 46.14 30.75 45.70 30.75
  L 24.98 30.75
  Q 24.46 30.75 24.46 31.27
  L 24.46 39.28
  Q 24.46 39.85 25.03 39.85
  L 29.26 39.85
  A 0.63 0.62 -83.6 0 0 29.87 39.36
  C 31.90 30.61 43.25 30.35 45.28 39.06
  Q 45.39 39.54 45.86 39.68
  Q 49.75 40.86 50.86 37.46
  C 51.66 37.97 52.01 38.79 51.43 39.64
  Q 49.66 42.23 46.17 41.23
  Q 45.65 41.08 45.44 41.58
  L 43.99 45.00
  L 42.32 45.00
  Q 46.02 38.56 41.00 35.27
  Q 38.91 33.90 36.33 34.55
  Q 28.81 36.43 32.82 45.00
  L 31.33 45.00
  L 29.90 41.86
  Q 29.68 41.39 29.17 41.39
  L 21.27 41.38
  Q 20.82 41.38 20.74 41.83
  Q 20.38 43.77 19.23 45.00
  L 17.59 45.00
  Q 21.09 40.08 17.70 36.36
  C 12.00 30.11 3.11 38.23 8.62 45.00
  L 6.69 45.00
  L 5.30 41.62
  A 0.61 0.60 73.4 0 0 4.63 41.25
  Q 0.22 42.10 0.23 38.02
  Q 0.26 26.70 0.26 15.43
  A 1.20 1.18 -22.8 0 1 0.61 14.59
  L 1.03 14.16
  Q 1.76 14.88 1.76 15.51
  Q 1.71 22.07 1.76 28.71
  Q 1.77 29.23 2.29 29.23
  L 12.53 29.21
  L 22.49 29.20
  Q 22.95 29.20 22.95 28.74
  L 22.96 10.02
  Q 22.96 9.56 22.50 9.56
  L 11.66 9.61
  L 2.74 9.70
  Q 2.17 9.71 1.97 10.25
  L 1.08 12.56
  C -1.17 10.84 1.21 8.11 3.50 8.11
  Q 11.75 8.08 20.01 8.01
  Q 20.59 8.00 20.52 7.43
  C 20.19 4.56 21.61 3.09 24.51 3.03
  C 27.75 2.95 34.96 1.63 34.12 7.43
  Q 34.04 7.96 34.59 7.98
  C 37.84 8.06 38.12 9.71 39.15 12.18
  Q 41.45 17.68 43.71 23.20
  Q 43.93 23.75 44.52 23.75
  L 49.03 23.74
  A 2.69 2.69 0.0 0 1 51.72 26.39
  Q 51.79 30.25 51.73 34.30
  C 51.72 34.98 51.43 35.43 50.94 35.83
  Z
  M 26.54 7.98
  L 32.05 8.00
  A 0.63 0.62 -84.3 0 0 32.66 7.49
  C 33.41 3.79 29.27 4.38 27.17 4.55
  C 25.24 4.39 21.01 3.92 22.06 7.54
  Q 22.20 8.04 22.72 8.03
  L 26.54 7.98
  Z
  M 48.13 27.42
  L 49.89 27.36
  A 0.43 0.43 0.0 0 0 50.27 26.76
  L 49.83 25.72
  Q 49.63 25.27 49.13 25.26
  Q 41.17 25.21 33.23 25.25
  C 27.05 25.29 28.72 19.77 28.75 15.73
  A 2.75 2.74 -89.8 0 1 31.49 13.00
  L 37.47 12.99
  Q 37.97 12.99 37.76 12.53
  L 36.57 9.98
  A 0.75 0.74 -12.3 0 0 35.89 9.55
  L 24.97 9.51
  Q 24.46 9.51 24.46 10.03
  L 24.46 28.73
  Q 24.46 29.25 24.98 29.25
  L 45.45 29.25
  Q 45.96 29.25 46.30 28.86
  L 47.11 27.92
  Q 47.51 27.44 48.13 27.42
  Z
  M 42.16 23.39
  L 38.68 14.98
  A 0.78 0.76 78.5 0 0 37.97 14.50
  L 31.25 14.50
  A 1.00 1.00 0.0 0 0 30.25 15.50
  L 30.25 22.37
  A 1.38 1.37 -90.0 0 0 31.62 23.75
  L 41.93 23.74
  Q 42.31 23.74 42.16 23.39
  Z
  M 47.81 29.44
  A 0.73 0.72 45.4 0 0 47.81 30.35
  Q 48.46 31.18 49.66 31.04
  A 1.05 1.04 -32.5 0 0 50.09 29.11
  Q 48.75 28.29 47.81 29.44
  Z
  M 13.41 32.61
  Q 19.57 33.42 20.86 39.43
  A 1.05 1.05 0.0 0 0 22.93 39.21
  L 22.97 31.28
  Q 22.97 30.77 22.47 30.78
  L 12.95 30.78
  L 2.33 30.77
  Q 1.82 30.77 1.80 31.28
  C 1.69 34.35 0.51 40.85 4.75 39.83
  Q 5.21 39.72 5.32 39.26
  Q 6.97 32.83 13.41 32.61
  Z"
/>
<path fill="#f8485d" d="
  M 27.17 4.55
  L 26.54 7.98
  L 22.72 8.03
  Q 22.20 8.04 22.06 7.54
  C 21.01 3.92 25.24 4.39 27.17 4.55
  Z"
/>
<path fill="#ff6e80" d="
  M 27.17 4.55
  C 29.27 4.38 33.41 3.79 32.66 7.49
  A 0.63 0.62 -84.3 0 1 32.05 8.00
  L 26.54 7.98
  L 27.17 4.55
  Z"
/>
<path fill="#d3d3ff" d="
  M 11.66 9.61
  L 11.84 12.43
  Q 9.08 13.21 9.22 16.09
  Q 9.25 16.62 8.72 16.62
  C 3.67 16.60 4.04 23.03 8.70 22.77
  Q 9.22 22.74 9.22 23.26
  Q 9.22 26.66 12.46 27.00
  Q 12.23 28.13 12.53 29.21
  L 2.29 29.23
  Q 1.77 29.23 1.76 28.71
  Q 1.71 22.07 1.76 15.51
  Q 1.76 14.88 1.03 14.16
  L 1.08 12.56
  L 1.97 10.25
  Q 2.17 9.71 2.74 9.70
  L 11.66 9.61
  Z"
/>
<path fill="#eeecff" d="
  M 11.66 9.61
  L 22.50 9.56
  Q 22.96 9.56 22.96 10.02
  L 22.95 28.74
  Q 22.95 29.20 22.49 29.20
  L 12.53 29.21
  Q 12.23 28.13 12.46 27.00
  Q 15.38 26.48 15.42 23.27
  Q 15.43 22.72 15.97 22.75
  C 20.52 22.96 20.80 16.69 15.99 16.62
  Q 15.51 16.61 15.48 16.14
  Q 15.24 12.50 11.84 12.43
  L 11.66 9.61
  Z"
/>
<path fill="#eeecff" d="
  M 47.11 27.92
  L 46.30 28.86
  Q 45.96 29.25 45.45 29.25
  L 24.98 29.25
  Q 24.46 29.25 24.46 28.73
  L 24.46 10.03
  Q 24.46 9.51 24.97 9.51
  L 35.89 9.55
  A 0.75 0.74 -12.3 0 1 36.57 9.98
  L 37.76 12.53
  Q 37.97 12.99 37.47 12.99
  L 31.49 13.00
  A 2.75 2.74 -89.8 0 0 28.75 15.73
  C 28.72 19.77 27.05 25.29 33.23 25.25
  Q 41.17 25.21 49.13 25.26
  Q 49.63 25.27 49.83 25.72
  L 50.27 26.76
  A 0.43 0.43 0.0 0 1 49.89 27.36
  L 48.13 27.42
  Q 47.51 27.44 47.11 27.92
  Z"
/>
<path fill="#000000" d="
  M 11.84 12.43
  Q 15.24 12.50 15.48 16.14
  Q 15.51 16.61 15.99 16.62
  C 20.80 16.69 20.52 22.96 15.97 22.75
  Q 15.43 22.72 15.42 23.27
  Q 15.38 26.48 12.46 27.00
  Q 9.22 26.66 9.22 23.26
  Q 9.22 22.74 8.70 22.77
  C 4.04 23.03 3.67 16.60 8.72 16.62
  Q 9.25 16.62 9.22 16.09
  Q 9.08 13.21 11.84 12.43
  Z
  M 14.75 18.05
  A 1.09 1.09 0.0 0 1 13.93 17.23
  L 13.35 14.70
  A 1.09 1.09 0.0 0 0 11.23 14.70
  L 10.65 17.23
  A 1.09 1.09 0.0 0 1 9.83 18.05
  L 7.30 18.63
  A 1.09 1.09 0.0 0 0 7.30 20.75
  L 9.83 21.33
  A 1.09 1.09 0.0 0 1 10.65 22.15
  L 11.23 24.68
  A 1.09 1.09 0.0 0 0 13.35 24.68
  L 13.93 22.15
  A 1.09 1.09 0.0 0 1 14.75 21.33
  L 17.28 20.75
  A 1.09 1.09 0.0 0 0 17.28 18.63
  L 14.75 18.05
  Z"
/>
<path fill="#ff6e80" d="
  M 14.75 18.05
  L 17.28 18.63
  A 1.09 1.09 0.0 0 1 17.28 20.75
  L 14.75 21.33
  A 1.09 1.09 0.0 0 0 13.93 22.15
  L 13.35 24.68
  A 1.09 1.09 0.0 0 1 11.23 24.68
  L 10.65 22.15
  A 1.09 1.09 0.0 0 0 9.83 21.33
  L 7.30 20.75
  A 1.09 1.09 0.0 0 1 7.30 18.63
  L 9.83 18.05
  A 1.09 1.09 0.0 0 0 10.65 17.23
  L 11.23 14.70
  A 1.09 1.09 0.0 0 1 13.35 14.70
  L 13.93 17.23
  A 1.09 1.09 0.0 0 0 14.75 18.05
  Z"
/>
<path fill="#7acefa" d="
  M 42.16 23.39
  Q 42.31 23.74 41.93 23.74
  L 31.62 23.75
  A 1.38 1.37 90.0 0 1 30.25 22.37
  L 30.25 15.50
  A 1.00 1.00 0.0 0 1 31.25 14.50
  L 37.97 14.50
  A 0.78 0.76 78.5 0 1 38.68 14.98
  L 42.16 23.39
  Z"
/>
<path fill="#f7f09e" d="
  M 47.81 29.44
  Q 48.75 28.29 50.09 29.11
  A 1.05 1.04 -32.5 0 1 49.66 31.04
  Q 48.46 31.18 47.81 30.35
  A 0.73 0.72 45.4 0 1 47.81 29.44
  Z"
/>
<path fill="#f8485d" d="
  M 12.95 30.78
  Q 12.67 31.84 13.41 32.61
  Q 6.97 32.83 5.32 39.26
  Q 5.21 39.72 4.75 39.83
  C 0.51 40.85 1.69 34.35 1.80 31.28
  Q 1.82 30.77 2.33 30.77
  L 12.95 30.78
  Z"
/>
<path fill="#ff6e80" d="
  M 12.95 30.78
  L 22.47 30.78
  Q 22.97 30.77 22.97 31.28
  L 22.93 39.21
  A 1.05 1.05 0.0 0 1 20.86 39.43
  Q 19.57 33.42 13.41 32.61
  Q 12.67 31.84 12.95 30.78
  Z"
/>
<path fill="#ff6e80" d="
  M 50.94 35.83
  Q 51.15 36.69 50.86 37.46
  Q 49.75 40.86 45.86 39.68
  Q 45.39 39.54 45.28 39.06
  C 43.25 30.35 31.90 30.61 29.87 39.36
  A 0.63 0.62 -83.6 0 1 29.26 39.85
  L 25.03 39.85
  Q 24.46 39.85 24.46 39.28
  L 24.46 31.27
  Q 24.46 30.75 24.98 30.75
  L 45.70 30.75
  Q 46.14 30.75 46.40 31.10
  Q 47.65 32.78 49.71 32.49
  Q 50.28 32.40 50.24 32.98
  Q 50.12 34.73 50.94 35.83
  Z"
/>
<path fill="#4f5660" d="
  M 17.59 45.00
  L 8.62 45.00
  C 3.11 38.23 12.00 30.11 17.70 36.36
  Q 21.09 40.08 17.59 45.00
  Z
  M 16.52 40.45
  A 3.43 3.43 0.0 0 0 13.09 37.02
  A 3.43 3.43 0.0 0 0 9.66 40.45
  A 3.43 3.43 0.0 0 0 13.09 43.88
  A 3.43 3.43 0.0 0 0 16.52 40.45
  Z"
/>
<path fill="#4f5660" d="
  M 42.32 45.00
  L 32.82 45.00
  Q 28.81 36.43 36.33 34.55
  Q 38.91 33.90 41.00 35.27
  Q 46.02 38.56 42.32 45.00
  Z
  M 41.01 40.48
  A 3.38 3.38 0.0 0 0 37.63 37.10
  A 3.38 3.38 0.0 0 0 34.25 40.48
  A 3.38 3.38 0.0 0 0 37.63 43.86
  A 3.38 3.38 0.0 0 0 41.01 40.48
  Z"
/>
<path fill="#000000" d="
  M 16.52 40.45
  A 3.43 3.43 0.0 0 1 13.09 43.88
  A 3.43 3.43 0.0 0 1 9.66 40.45
  A 3.43 3.43 0.0 0 1 13.09 37.02
  A 3.43 3.43 0.0 0 1 16.52 40.45
  Z
  M 14.94 40.49
  A 1.87 1.87 0.0 0 0 13.07 38.62
  A 1.87 1.87 0.0 0 0 11.20 40.49
  A 1.87 1.87 0.0 0 0 13.07 42.36
  A 1.87 1.87 0.0 0 0 14.94 40.49
  Z"
/>
<path fill="#000000" d="
  M 41.01 40.48
  A 3.38 3.38 0.0 0 1 37.63 43.86
  A 3.38 3.38 0.0 0 1 34.25 40.48
  A 3.38 3.38 0.0 0 1 37.63 37.10
  A 3.38 3.38 0.0 0 1 41.01 40.48
  Z
  M 39.50 40.47
  A 1.87 1.87 0.0 0 0 37.63 38.60
  A 1.87 1.87 0.0 0 0 35.76 40.47
  A 1.87 1.87 0.0 0 0 37.63 42.34
  A 1.87 1.87 0.0 0 0 39.50 40.47
  Z"
/>
<circle fill="#f7f09e" cx="37.63" cy="40.47" r="1.87"/>
<circle fill="#f7f09e" cx="13.07" cy="40.49" r="1.87"/>
</svg>
