<?xml version="1.0" encoding="UTF-8" standalone="no"?>
<!DOCTYPE svg PUBLIC "-//W3C//DTD SVG 1.1//EN" "http://www.w3.org/Graphics/SVG/1.1/DTD/svg11.dtd">
<svg xmlns="http://www.w3.org/2000/svg" version="1.1" viewBox="0.00 0.00 78.00 56.00">
<g stroke-width="2.00" fill="none" stroke-linecap="butt">
<path stroke="#4eb1b6" stroke-opacity="0.753" vector-effect="non-scaling-stroke" d="
  M 1.02 0.00
  L 1.01 56.00"
/>
<path stroke="#4eb1b6" stroke-opacity="0.753" vector-effect="non-scaling-stroke" d="
  M 76.98 0.00
  L 76.97 56.00"
/>
<path stroke="#689dac" vector-effect="non-scaling-stroke" d="
  M 33.75 5.00
  L 25.11 5.19
  A 0.72 0.72 0.0 0 0 24.41 5.87
  L 24.14 11.42
  Q 24.13 11.71 23.96 11.94
  Q 23.84 12.10 23.72 12.16"
/>
<path stroke="#a4e0e2" vector-effect="non-scaling-stroke" d="
  M 23.72 12.16
  Q 22.67 11.55 21.72 11.91
  Q 21.08 12.16 21.46 12.73
  L 22.17 13.79
  A 0.58 0.58 0.0 0 1 21.90 14.65
  L 19.39 15.60
  A 0.72 0.62 4.5 0 0 19.10 15.81
  Q 18.61 16.44 17.75 16.18
  Q 17.21 16.02 17.00 16.55
  Q 16.63 17.48 15.93 17.05"
/>
<path stroke="#9ddee4" vector-effect="non-scaling-stroke" d="
  M 15.93 17.05
  Q 15.61 16.22 17.06 15.84
  Q 17.62 15.69 17.32 15.20
  L 16.95 14.60
  Q 16.48 13.84 16.12 14.65
  L 15.72 15.54
  Q 15.53 15.96 15.17 15.67
  L 14.88 15.43
  A 0.43 0.42 46.9 0 0 14.37 15.41
  L 10.50 17.96"
/>
<path stroke="#93ced1" vector-effect="non-scaling-stroke" d="
  M 10.50 17.96
  Q 9.54 17.69 8.82 18.67
  Q 8.69 18.84 8.53 18.97
  Q 8.11 19.34 7.98 19.04
  Q 7.78 18.61 7.39 18.87
  Q 6.97 19.15 7.01 19.79"
/>
<path stroke="#7dc4b2" vector-effect="non-scaling-stroke" d="
  M 7.01 19.79
  L 6.54 20.07"
/>
<path stroke="#a4e0e2" vector-effect="non-scaling-stroke" d="
  M 6.54 20.07
  Q 5.57 19.83 5.16 20.34
  Q 4.89 20.68 5.08 21.08
  Q 9.92 31.09 14.89 40.98
  Q 15.41 42.01 16.01 42.20
  Q 16.89 42.48 17.87 41.59"
/>
<path stroke="#689dac" vector-effect="non-scaling-stroke" d="
  M 17.87 41.59
  Q 21.23 42.76 23.61 40.14
  Q 23.98 39.74 23.97 40.29
  L 23.93 42.54
  Q 23.93 42.87 23.59 42.89
  L 18.57 43.09
  A 0.41 0.40 65.5 0 0 18.31 43.79
  Q 20.44 45.79 23.01 44.05
  Q 23.40 43.79 23.88 44.04
  A 0.46 0.46 0.0 0 1 23.78 44.89
  L 20.34 45.76
  Q 19.96 45.86 20.01 46.25
  Q 20.23 47.84 22.83 47.61"
/>
<path stroke="#45a3b5" vector-effect="non-scaling-stroke" d="
  M 22.83 47.61
  L 19.59 52.21
  A 1.54 1.54 0.0 0 0 20.62 54.62
  L 21.56 54.76
  Q 22.26 54.86 22.49 54.19
  Q 23.19 52.09 24.57 51.32"
/>
<path stroke="#5f919b" vector-effect="non-scaling-stroke" d="
  M 24.57 51.32
  Q 25.15 52.15 25.50 52.15
  Q 39.76 52.19 54.25 52.13
  Q 54.85 52.13 55.02 51.56
  Q 55.84 48.80 54.88 45.99"
/>
<path stroke="#a4e0e2" vector-effect="non-scaling-stroke" d="
  M 54.88 45.99
  Q 54.86 45.67 54.85 45.25
  Q 54.83 44.89 54.15 44.85"
/>
<path stroke="#6e8eb1" vector-effect="non-scaling-stroke" d="
  M 54.15 44.85
  Q 55.52 45.16 55.30 43.05
  Q 55.25 42.53 55.76 42.43
  Q 58.10 41.96 60.00 40.44
  Q 60.64 39.93 59.89 39.59
  L 56.48 38.03
  Q 55.88 37.76 55.35 38.15
  L 54.18 38.99"
/>
<path stroke="#a4e0e2" vector-effect="non-scaling-stroke" d="
  M 54.18 38.99
  L 54.01 38.07"
/>
<path stroke="#5f919b" vector-effect="non-scaling-stroke" d="
  M 54.01 38.07
  L 57.03 34.57
  Q 57.66 33.85 56.71 33.97
  L 56.11 34.05
  Q 55.59 34.12 55.52 33.60
  L 55.14 30.73
  A 0.52 0.52 0.0 0 1 55.78 30.16
  L 56.45 30.34
  Q 57.05 30.50 57.10 29.89
  Q 57.31 27.38 56.08 25.17"
/>
<path stroke="#8290a2" vector-effect="non-scaling-stroke" d="
  M 56.08 25.17
  L 56.83 25.11"
/>
<path stroke="#6e8eb1" vector-effect="non-scaling-stroke" d="
  M 56.83 25.11
  Q 58.96 28.01 62.72 28.27"
/>
<path stroke="#8290a2" vector-effect="non-scaling-stroke" d="
  M 62.72 28.27
  L 62.73 28.72"
/>
<path stroke="#6e8eb1" vector-effect="non-scaling-stroke" d="
  M 62.73 28.72
  Q 61.79 28.85 61.52 29.39"
/>
<path stroke="#689dac" vector-effect="non-scaling-stroke" d="
  M 61.52 29.39
  Q 60.04 30.11 59.39 29.89
  A 1.30 1.30 0.0 0 0 57.69 31.34
  Q 57.84 32.22 58.53 32.22
  Q 58.94 32.21 59.43 31.77
  Q 60.51 30.81 61.44 29.80"
/>
<path stroke="#6e8eb1" vector-effect="non-scaling-stroke" d="
  M 61.44 29.80
  L 61.79 29.97
  Q 62.25 30.20 61.90 30.58
  L 60.34 32.31
  Q 59.89 32.80 60.56 32.78
  Q 63.50 32.71 66.19 30.35"
/>
<path stroke="#7dc4b2" vector-effect="non-scaling-stroke" d="
  M 66.19 30.35
  Q 65.63 30.72 65.99 30.01"
/>
<path stroke="#8290a2" vector-effect="non-scaling-stroke" d="
  M 65.99 30.01
  Q 70.05 30.66 70.25 33.40"
/>
<path stroke="#73d3de" vector-effect="non-scaling-stroke" d="
  M 70.25 33.40
  Q 69.97 38.12 70.06 42.82
  C 70.14 47.48 69.04 50.37 63.57 48.48"
/>
<path stroke="#7dc4b2" vector-effect="non-scaling-stroke" d="
  M 63.57 48.48
  Q 63.19 47.57 62.80 47.55
  A 1.47 1.47 0.0 0 0 62.30 50.42
  Q 62.49 50.48 63.26 49.91"
/>
<path stroke="#73d3de" vector-effect="non-scaling-stroke" d="
  M 63.26 49.91
  Q 67.75 51.36 69.95 48.64
  Q 71.25 47.02 71.45 43.04
  Q 71.70 38.14 71.59 33.22"
/>
<path stroke="#8290a2" vector-effect="non-scaling-stroke" d="
  M 71.59 33.22
  Q 71.43 31.50 70.65 30.83
  Q 69.62 29.94 68.58 28.93
  Q 68.18 28.54 68.43 28.04
  C 70.33 24.20 70.36 18.64 64.92 18.07
  A 0.39 0.38 -81.9 0 1 64.58 17.61
  L 65.56 12.30
  Q 65.73 11.34 65.04 12.03
  Q 61.84 15.22 61.91 19.75
  A 0.40 0.40 0.0 0 1 61.16 19.95
  L 59.31 16.54
  Q 58.88 15.75 58.69 16.62
  Q 58.07 19.44 59.19 22.02
  Q 59.29 22.24 59.11 22.42
  L 58.74 22.76
  A 0.34 0.34 0.0 0 1 58.17 22.58
  Q 57.88 20.97 56.43 20.33
  Q 56.06 20.17 56.12 20.57
  L 56.54 23.27
  Q 56.60 23.70 56.22 23.91
  L 55.70 24.19"
/>
<path stroke="#5f919b" vector-effect="non-scaling-stroke" d="
  M 55.70 24.19
  Q 55.50 24.34 55.27 23.96
  Q 55.16 23.78 55.15 23.53
  Q 55.00 19.16 55.41 14.81
  Q 55.46 14.26 55.85 13.87
  L 59.85 9.82
  Q 60.22 9.44 60.58 9.83
  Q 61.53 10.84 62.48 10.21
  Q 64.25 9.03 64.30 7.22
  A 2.65 2.65 0.0 0 0 62.40 4.60
  Q 60.37 4.00 59.52 5.34
  Q 59.35 5.60 58.94 7.79
  Q 58.44 10.50 55.77 11.81
  Q 55.32 12.03 55.31 11.53
  L 55.25 5.83
  A 0.63 0.62 0.5 0 0 54.64 5.22
  L 45.64 5.01"
/>
<path stroke="#a4b492" vector-effect="non-scaling-stroke" d="
  M 45.64 5.01
  Q 41.78 4.50 41.82 2.19
  A 1.85 1.85 0.0 0 0 38.15 1.87
  Q 37.73 4.52 33.75 5.00"
/>
<path stroke="#a57053" vector-effect="non-scaling-stroke" d="
  M 45.64 5.01
  L 46.20 7.27"
/>
<path stroke="#eabe9a" vector-effect="non-scaling-stroke" d="
  M 46.20 7.27
  Q 40.08 8.44 33.72 7.28"
/>
<path stroke="#ae7c64" vector-effect="non-scaling-stroke" d="
  M 33.72 7.28
  L 33.75 5.00"
/>
<path stroke="#834c63" vector-effect="non-scaling-stroke" d="
  M 55.70 24.19
  Q 55.54 24.58 55.69 24.89
  Q 55.73 24.99 55.87 25.05
  Q 56.05 25.14 56.08 25.17"
/>
<path stroke="#a59ca3" vector-effect="non-scaling-stroke" d="
  M 54.01 38.07
  L 54.10 7.44
  A 0.39 0.39 0.0 0 0 53.70 7.05
  L 46.20 7.27"
/>
<path stroke="#b498b9" vector-effect="non-scaling-stroke" d="
  M 54.18 38.99
  L 54.15 44.85"
/>
<path stroke="#a59ca3" vector-effect="non-scaling-stroke" d="
  M 54.88 45.99
  Q 53.86 45.89 53.93 46.25
  Q 54.31 48.30 54.05 50.40
  Q 53.99 50.93 53.45 50.93
  Q 39.82 50.95 26.26 50.83
  Q 25.88 50.82 25.37 50.38"
/>
<path stroke="#8baebd" vector-effect="non-scaling-stroke" d="
  M 25.37 50.38
  Q 27.01 45.97 30.11 42.32
  Q 30.41 41.96 30.87 42.08
  C 35.78 43.35 39.96 40.25 39.92 35.27
  C 39.87 30.53 33.67 27.35 29.74 29.85
  C 26.08 32.16 25.86 36.64 28.08 40.09
  Q 28.35 40.51 28.04 40.90
  L 25.72 43.92"
/>
<path stroke="#aea8b4" vector-effect="non-scaling-stroke" d="
  M 33.72 7.28
  L 26.22 7.07
  Q 25.72 7.06 25.72 7.57
  L 25.72 43.92"
/>
<path stroke="#4f6b87" vector-effect="non-scaling-stroke" d="
  M 25.72 43.92
  Q 24.78 46.07 22.83 47.61"
/>
<path stroke="#aea8b4" vector-effect="non-scaling-stroke" d="
  M 17.87 41.59
  Q 16.71 40.91 16.40 40.30
  Q 16.06 39.62 16.80 39.79
  L 20.32 40.58
  A 0.76 0.74 -66.2 0 0 21.10 40.27
  L 23.86 36.29
  Q 24.12 35.91 24.12 35.44
  Q 23.93 25.15 24.15 14.91
  C 24.17 14.00 23.81 13.09 23.72 12.16"
/>
<path stroke="#978ea6" vector-effect="non-scaling-stroke" d="
  M 71.59 33.22
  Q 70.87 33.59 70.25 33.40"
/>
<path stroke="#a17f7a" vector-effect="non-scaling-stroke" d="
  M 65.99 30.01
  Q 65.08 28.64 63.17 29.13"
/>
<path stroke="#924979" vector-effect="non-scaling-stroke" d="
  M 63.17 29.13
  L 62.73 28.72"
/>
<path stroke="#924979" vector-effect="non-scaling-stroke" d="
  M 62.72 28.27
  L 65.19 27.79"
/>
<path stroke="#8290a2" vector-effect="non-scaling-stroke" d="
  M 65.19 27.79
  Q 66.64 28.88 67.65 26.70
  Q 69.40 22.91 67.09 20.25"
/>
<path stroke="#924979" vector-effect="non-scaling-stroke" d="
  M 67.09 20.25
  L 65.13 19.22"
/>
<path stroke="#8290a2" vector-effect="non-scaling-stroke" d="
  M 65.13 19.22
  Q 62.98 19.40 61.02 23.07"
/>
<path stroke="#924979" vector-effect="non-scaling-stroke" d="
  M 61.02 23.07
  Q 60.71 22.80 60.55 23.19"
/>
<path stroke="#8290a2" vector-effect="non-scaling-stroke" d="
  M 60.55 23.19
  Q 59.47 23.41 59.20 23.94"
/>
<path stroke="#924979" vector-effect="non-scaling-stroke" d="
  M 59.20 23.94
  L 56.83 25.11"
/>
<path stroke="#465f76" vector-effect="non-scaling-stroke" d="
  M 25.37 50.38
  Q 24.52 50.86 24.57 51.32"
/>
<path stroke="#c3cfba" vector-effect="non-scaling-stroke" d="
  M 6.54 20.07
  L 7.13 21.57
  Q 7.37 22.17 7.82 21.72
  Q 7.97 21.57 8.05 21.24"
/>
<path stroke="#d9d9d9" vector-effect="non-scaling-stroke" d="
  M 8.05 21.24
  L 13.27 18.53"
/>
<path stroke="#e3e9ec" vector-effect="non-scaling-stroke" d="
  M 13.27 18.53
  Q 14.63 18.15 15.93 17.05"
/>
<path stroke="#6e8eb1" vector-effect="non-scaling-stroke" d="
  M 65.19 27.79
  L 67.32 24.95
  Q 67.69 24.46 67.08 24.37
  C 64.79 24.03 62.88 25.61 61.40 26.70
  Q 60.88 27.08 60.69 26.47
  Q 60.26 25.13 59.20 23.94"
/>
<path stroke="#6e8eb1" vector-effect="non-scaling-stroke" d="
  M 65.13 19.22
  Q 63.77 20.46 62.41 22.42
  Q 61.98 23.04 61.02 23.07"
/>
<path stroke="#92c2b6" vector-effect="non-scaling-stroke" d="
  M 63.26 49.91
  L 63.57 48.48"
/>
<path stroke="#8d7d89" vector-effect="non-scaling-stroke" d="
  M 63.17 29.13
  Q 64.08 29.92 66.19 30.35"
/>
<path stroke="#785683" vector-effect="non-scaling-stroke" d="
  M 61.44 29.80
  Q 61.56 30.09 61.52 29.39"
/>
<path stroke="#6e8eb1" vector-effect="non-scaling-stroke" d="
  M 67.09 20.25
  Q 65.31 23.68 61.58 24.51
  Q 61.08 24.62 60.91 24.15
  L 60.55 23.19"
/>
<path stroke="#d1d7da" vector-effect="non-scaling-stroke" d="
  M 13.27 18.53
  Q 13.13 17.78 12.73 17.51
  A 0.36 0.36 0.0 0 0 12.18 17.75
  Q 12.07 18.41 11.58 18.84
  Q 11.19 19.19 10.50 17.96"
/>
<path stroke="#b2bda9" vector-effect="non-scaling-stroke" d="
  M 8.05 21.24
  Q 7.83 20.39 7.01 19.79"
/>
<path stroke="#a4e0e2" vector-effect="non-scaling-stroke" d="
  M 20.56 14.76
  Q 21.49 14.00 20.78 13.00
  A 0.53 0.53 0.0 0 0 19.82 13.38
  L 19.99 14.54
  Q 20.07 15.17 20.56 14.76"
/>
<path stroke="#9ddee4" vector-effect="non-scaling-stroke" d="
  M 17.98 13.86
  L 17.85 14.75
  Q 17.73 15.55 18.50 15.32
  Q 19.03 15.16 19.14 14.63
  Q 19.28 13.99 18.72 13.56
  A 0.47 0.47 0.0 0 0 17.98 13.86"
/>
<path stroke="#6e8eb1" vector-effect="non-scaling-stroke" d="
  M 63.22 35.83
  Q 64.19 34.83 62.84 34.46
  L 59.74 33.62
  Q 59.24 33.48 58.92 33.88
  L 57.16 36.08
  Q 56.72 36.64 57.37 36.93
  Q 60.72 38.42 63.22 35.83"
/>
<path stroke="#a4b492" vector-effect="non-scaling-stroke" d="
  M 58.18 48.01
  Q 58.85 47.74 58.75 46.82
  A 1.00 1.00 0.0 0 0 56.80 46.63
  Q 56.56 47.43 57.12 47.86
  Q 57.62 48.24 58.18 48.01"
/>
<path stroke="#c3a36a" vector-effect="non-scaling-stroke" d="
  M 39.25 2.09
  A 0.29 0.29 0.0 0 0 39.02 2.30
  Q 38.85 2.91 39.05 3.50
  A 1.02 0.84 33.2 0 0 40.91 3.30
  Q 40.52 1.90 39.25 2.09"
/>
<path stroke="#9e9aa5" vector-effect="non-scaling-stroke" d="
  M 62.77 7.10
  A 1.15 1.15 0.0 0 0 61.62 5.95
  A 1.15 1.15 0.0 0 0 60.47 7.10
  A 1.15 1.15 0.0 0 0 61.62 8.25
  A 1.15 1.15 0.0 0 0 62.77 7.10"
/>
<path stroke="#f2b5ad" vector-effect="non-scaling-stroke" d="
  M 52.89 10.62
  A 0.62 0.62 0.0 0 0 52.27 10.00
  L 27.49 10.00
  A 0.62 0.62 0.0 0 0 26.87 10.62
  L 26.87 11.66
  A 0.62 0.62 0.0 0 0 27.49 12.28
  L 52.27 12.28
  A 0.62 0.62 0.0 0 0 52.89 11.66
  L 52.89 10.62"
/>
<path stroke="#d9d9d9" vector-effect="non-scaling-stroke" d="
  M 29.56 16.88
  C 31.01 14.45 33.75 16.39 32.37 18.87
  A 0.49 0.49 0.0 0 0 32.50 19.51
  L 34.90 21.30
  Q 35.28 21.59 35.28 21.10
  L 35.20 15.22
  Q 35.19 14.75 34.72 14.75
  L 27.42 14.74
  A 0.57 0.56 -1.4 0 0 26.85 15.33
  L 27.10 20.23
  Q 27.13 20.73 27.63 20.66
  Q 30.54 20.26 29.50 17.85
  A 1.06 1.06 0.0 0 1 29.56 16.88"
/>
<path stroke="#b9dde6" vector-effect="non-scaling-stroke" d="
  M 49.25 44.25
  L 50.83 44.29
  A 0.67 0.66 2.2 0 0 51.52 43.66
  L 51.58 42.41
  A 0.67 0.67 0.0 0 0 50.90 41.70
  L 49.24 41.73
  A 0.49 0.49 0.0 0 1 48.74 41.24
  L 48.75 39.78
  A 1.31 1.30 45.6 0 0 46.14 39.75
  L 46.12 41.11
  Q 46.11 41.71 45.51 41.71
  L 43.89 41.71
  A 0.65 0.65 0.0 0 0 43.23 42.36
  L 43.22 43.70
  A 0.68 0.66 -2.0 0 0 43.95 44.37
  L 45.47 44.23
  Q 46.01 44.18 46.05 44.72
  L 46.21 46.47
  Q 46.26 47.06 46.85 47.09
  L 48.16 47.14
  Q 48.72 47.16 48.73 46.60
  L 48.74 44.75
  Q 48.74 44.24 49.25 44.25"
/>
<path stroke="#d9d9d9" vector-effect="non-scaling-stroke" d="
  M 11.04 25.94
  Q 11.13 27.12 9.52 27.12
  A 0.45 0.45 0.0 0 0 9.12 27.79
  L 9.93 29.22
  A 1.47 1.47 0.0 0 0 12.69 28.51
  Q 12.70 27.16 11.04 25.94"
/>
<path stroke="#d9d9d9" vector-effect="non-scaling-stroke" d="
  M 11.04 25.94
  L 10.33 23.52
  A 0.94 0.94 0.0 0 0 8.80 23.08
  Q 7.45 24.27 8.24 25.75
  Q 8.46 26.15 8.91 26.12
  L 11.04 25.94"
/>
<path stroke="#b498b9" vector-effect="non-scaling-stroke" d="
  M 20.19 36.53
  C 19.03 34.95 18.99 33.59 17.15 32.43
  Q 16.66 32.13 16.76 32.70
  Q 17.27 35.55 19.58 37.15
  A 0.44 0.44 0.0 0 0 20.19 36.53"
/>
<path stroke="#d9d9d9" vector-effect="non-scaling-stroke" d="
  M 14.47 34.79
  L 15.87 35.16
  Q 16.21 35.25 16.10 34.91
  Q 15.73 33.81 13.92 34.64
  Q 13.13 35.00 13.13 35.87
  L 13.13 36.25
  A 0.33 0.33 0.0 0 0 13.79 36.25
  L 13.80 35.30
  Q 13.81 34.62 14.47 34.79"
/>
<path stroke="#b498b9" vector-effect="non-scaling-stroke" d="
  M 19.62 38.13
  L 16.17 36.35
  A 0.38 0.38 0.0 0 0 15.70 36.93
  Q 17.41 38.98 20.05 39.41
  Q 20.53 39.49 20.85 39.12
  Q 22.45 37.29 21.84 34.91
  A 0.43 0.43 0.0 0 0 21.01 34.93
  L 20.44 37.75
  A 0.57 0.56 19.7 0 1 19.62 38.13"
/>
<path stroke="#83acbf" vector-effect="non-scaling-stroke" d="
  M 38.44 35.65
  A 5.27 5.27 0.0 0 0 33.17 30.38
  A 5.27 5.27 0.0 0 0 27.90 35.65
  A 5.27 5.27 0.0 0 0 33.17 40.92
  A 5.27 5.27 0.0 0 0 38.44 35.65"
/>
</g>
<path fill="#2f6a6d" fill-opacity="0.502" d="
  M 0.00 0.00
  L 1.02 0.00
  L 1.01 56.00
  L 0.00 56.00
  L 0.00 0.00
  Z"
/>
<path fill="#5ed5da" d="
  M 1.02 0.00
  L 76.98 0.00
  L 76.97 56.00
  L 1.01 56.00
  L 1.02 0.00
  Z
  M 33.75 5.00
  L 25.11 5.19
  A 0.72 0.72 0.0 0 0 24.41 5.87
  L 24.14 11.42
  Q 24.13 11.71 23.96 11.94
  Q 23.84 12.10 23.72 12.16
  Q 22.67 11.55 21.72 11.91
  Q 21.08 12.16 21.46 12.73
  L 22.17 13.79
  A 0.58 0.58 0.0 0 1 21.90 14.65
  L 19.39 15.60
  A 0.72 0.62 4.5 0 0 19.10 15.81
  Q 18.61 16.44 17.75 16.18
  Q 17.21 16.02 17.00 16.55
  Q 16.63 17.48 15.93 17.05
  Q 15.61 16.22 17.06 15.84
  Q 17.62 15.69 17.32 15.20
  L 16.95 14.60
  Q 16.48 13.84 16.12 14.65
  L 15.72 15.54
  Q 15.53 15.96 15.17 15.67
  L 14.88 15.43
  A 0.43 0.42 46.9 0 0 14.37 15.41
  L 10.50 17.96
  Q 9.54 17.69 8.82 18.67
  Q 8.69 18.84 8.53 18.97
  Q 8.11 19.34 7.98 19.04
  Q 7.78 18.61 7.39 18.87
  Q 6.97 19.15 7.01 19.79
  L 6.54 20.07
  Q 5.57 19.83 5.16 20.34
  Q 4.89 20.68 5.08 21.08
  Q 9.92 31.09 14.89 40.98
  Q 15.41 42.01 16.01 42.20
  Q 16.89 42.48 17.87 41.59
  Q 21.23 42.76 23.61 40.14
  Q 23.98 39.74 23.97 40.29
  L 23.93 42.54
  Q 23.93 42.87 23.59 42.89
  L 18.57 43.09
  A 0.41 0.40 65.5 0 0 18.31 43.79
  Q 20.44 45.79 23.01 44.05
  Q 23.40 43.79 23.88 44.04
  A 0.46 0.46 0.0 0 1 23.78 44.89
  L 20.34 45.76
  Q 19.96 45.86 20.01 46.25
  Q 20.23 47.84 22.83 47.61
  L 19.59 52.21
  A 1.54 1.54 0.0 0 0 20.62 54.62
  L 21.56 54.76
  Q 22.26 54.86 22.49 54.19
  Q 23.19 52.09 24.57 51.32
  Q 25.15 52.15 25.50 52.15
  Q 39.76 52.19 54.25 52.13
  Q 54.85 52.13 55.02 51.56
  Q 55.84 48.80 54.88 45.99
  Q 54.86 45.67 54.85 45.25
  Q 54.83 44.89 54.15 44.85
  Q 55.52 45.16 55.30 43.05
  Q 55.25 42.53 55.76 42.43
  Q 58.10 41.96 60.00 40.44
  Q 60.64 39.93 59.89 39.59
  L 56.48 38.03
  Q 55.88 37.76 55.35 38.15
  L 54.18 38.99
  L 54.01 38.07
  L 57.03 34.57
  Q 57.66 33.85 56.71 33.97
  L 56.11 34.05
  Q 55.59 34.12 55.52 33.60
  L 55.14 30.73
  A 0.52 0.52 0.0 0 1 55.78 30.16
  L 56.45 30.34
  Q 57.05 30.50 57.10 29.89
  Q 57.31 27.38 56.08 25.17
  L 56.83 25.11
  Q 58.96 28.01 62.72 28.27
  L 62.73 28.72
  Q 61.79 28.85 61.52 29.39
  Q 60.04 30.11 59.39 29.89
  A 1.30 1.30 0.0 0 0 57.69 31.34
  Q 57.84 32.22 58.53 32.22
  Q 58.94 32.21 59.43 31.77
  Q 60.51 30.81 61.44 29.80
  L 61.79 29.97
  Q 62.25 30.20 61.90 30.58
  L 60.34 32.31
  Q 59.89 32.80 60.56 32.78
  Q 63.50 32.71 66.19 30.35
  Q 65.63 30.72 65.99 30.01
  Q 70.05 30.66 70.25 33.40
  Q 69.97 38.12 70.06 42.82
  C 70.14 47.48 69.04 50.37 63.57 48.48
  Q 63.19 47.57 62.80 47.55
  A 1.47 1.47 0.0 0 0 62.30 50.42
  Q 62.49 50.48 63.26 49.91
  Q 67.75 51.36 69.95 48.64
  Q 71.25 47.02 71.45 43.04
  Q 71.70 38.14 71.59 33.22
  Q 71.43 31.50 70.65 30.83
  Q 69.62 29.94 68.58 28.93
  Q 68.18 28.54 68.43 28.04
  C 70.33 24.20 70.36 18.64 64.92 18.07
  A 0.39 0.38 -81.9 0 1 64.58 17.61
  L 65.56 12.30
  Q 65.73 11.34 65.04 12.03
  Q 61.84 15.22 61.91 19.75
  A 0.40 0.40 0.0 0 1 61.16 19.95
  L 59.31 16.54
  Q 58.88 15.75 58.69 16.62
  Q 58.07 19.44 59.19 22.02
  Q 59.29 22.24 59.11 22.42
  L 58.74 22.76
  A 0.34 0.34 0.0 0 1 58.17 22.58
  Q 57.88 20.97 56.43 20.33
  Q 56.06 20.17 56.12 20.57
  L 56.54 23.27
  Q 56.60 23.70 56.22 23.91
  L 55.70 24.19
  Q 55.50 24.34 55.27 23.96
  Q 55.16 23.78 55.15 23.53
  Q 55.00 19.16 55.41 14.81
  Q 55.46 14.26 55.85 13.87
  L 59.85 9.82
  Q 60.22 9.44 60.58 9.83
  Q 61.53 10.84 62.48 10.21
  Q 64.25 9.03 64.30 7.22
  A 2.65 2.65 0.0 0 0 62.40 4.60
  Q 60.37 4.00 59.52 5.34
  Q 59.35 5.60 58.94 7.79
  Q 58.44 10.50 55.77 11.81
  Q 55.32 12.03 55.31 11.53
  L 55.25 5.83
  A 0.63 0.62 0.5 0 0 54.64 5.22
  L 45.64 5.01
  Q 41.78 4.50 41.82 2.19
  A 1.85 1.85 0.0 0 0 38.15 1.87
  Q 37.73 4.52 33.75 5.00
  Z
  M 20.56 14.76
  Q 21.49 14.00 20.78 13.00
  A 0.53 0.53 0.0 0 0 19.82 13.38
  L 19.99 14.54
  Q 20.07 15.17 20.56 14.76
  Z
  M 17.98 13.86
  L 17.85 14.75
  Q 17.73 15.55 18.50 15.32
  Q 19.03 15.16 19.14 14.63
  Q 19.28 13.99 18.72 13.56
  A 0.47 0.47 0.0 0 0 17.98 13.86
  Z
  M 63.22 35.83
  Q 64.19 34.83 62.84 34.46
  L 59.74 33.62
  Q 59.24 33.48 58.92 33.88
  L 57.16 36.08
  Q 56.72 36.64 57.37 36.93
  Q 60.72 38.42 63.22 35.83
  Z
  M 58.18 48.01
  Q 58.85 47.74 58.75 46.82
  A 1.00 1.00 0.0 0 0 56.80 46.63
  Q 56.56 47.43 57.12 47.86
  Q 57.62 48.24 58.18 48.01
  Z"
/>
<path fill="#2f6a6d" fill-opacity="0.502" d="
  M 76.98 0.00
  L 78.00 0.00
  L 78.00 56.00
  L 76.97 56.00
  L 76.98 0.00
  Z"
/>
<path fill="#ea9249" d="
  M 45.64 5.01
  L 46.20 7.27
  Q 40.08 8.44 33.72 7.28
  L 33.75 5.00
  Q 37.73 4.52 38.15 1.87
  A 1.85 1.85 0.0 0 1 41.82 2.19
  Q 41.78 4.50 45.64 5.01
  Z
  M 39.25 2.09
  A 0.29 0.29 0.0 0 0 39.02 2.30
  Q 38.85 2.91 39.05 3.50
  A 1.02 0.84 33.2 0 0 40.91 3.30
  Q 40.52 1.90 39.25 2.09
  Z"
/>
<path fill="#9cb38a" d="
  M 39.25 2.09
  Q 40.52 1.90 40.91 3.30
  A 1.02 0.84 33.2 0 1 39.05 3.50
  Q 38.85 2.91 39.02 2.30
  A 0.29 0.29 0.0 0 1 39.25 2.09
  Z"
/>
<path fill="#604d5c" d="
  M 55.70 24.19
  Q 55.54 24.58 55.69 24.89
  Q 55.73 24.99 55.87 25.05
  Q 56.05 25.14 56.08 25.17
  Q 57.31 27.38 57.10 29.89
  Q 57.05 30.50 56.45 30.34
  L 55.78 30.16
  A 0.52 0.52 0.0 0 0 55.14 30.73
  L 55.52 33.60
  Q 55.59 34.12 56.11 34.05
  L 56.71 33.97
  Q 57.66 33.85 57.03 34.57
  L 54.01 38.07
  L 54.10 7.44
  A 0.39 0.39 0.0 0 0 53.70 7.05
  L 46.20 7.27
  L 45.64 5.01
  L 54.64 5.22
  A 0.63 0.62 0.5 0 1 55.25 5.83
  L 55.31 11.53
  Q 55.32 12.03 55.77 11.81
  Q 58.44 10.50 58.94 7.79
  Q 59.35 5.60 59.52 5.34
  Q 60.37 4.00 62.40 4.60
  A 2.65 2.65 0.0 0 1 64.30 7.22
  Q 64.25 9.03 62.48 10.21
  Q 61.53 10.84 60.58 9.83
  Q 60.22 9.44 59.85 9.82
  L 55.85 13.87
  Q 55.46 14.26 55.41 14.81
  Q 55.00 19.16 55.15 23.53
  Q 55.16 23.78 55.27 23.96
  Q 55.50 24.34 55.70 24.19
  Z
  M 62.77 7.10
  A 1.15 1.15 0.0 0 0 61.62 5.95
  A 1.15 1.15 0.0 0 0 60.47 7.10
  A 1.15 1.15 0.0 0 0 61.62 8.25
  A 1.15 1.15 0.0 0 0 62.77 7.10
  Z"
/>
<path fill="#72657e" d="
  M 33.75 5.00
  L 33.72 7.28
  L 26.22 7.07
  Q 25.72 7.06 25.72 7.57
  L 25.72 43.92
  Q 24.78 46.07 22.83 47.61
  Q 20.23 47.84 20.01 46.25
  Q 19.96 45.86 20.34 45.76
  L 23.78 44.89
  A 0.46 0.46 0.0 0 0 23.88 44.04
  Q 23.40 43.79 23.01 44.05
  Q 20.44 45.79 18.31 43.79
  A 0.41 0.40 65.5 0 1 18.57 43.09
  L 23.59 42.89
  Q 23.93 42.87 23.93 42.54
  L 23.97 40.29
  Q 23.98 39.74 23.61 40.14
  Q 21.23 42.76 17.87 41.59
  Q 16.71 40.91 16.40 40.30
  Q 16.06 39.62 16.80 39.79
  L 20.32 40.58
  A 0.76 0.74 -66.2 0 0 21.10 40.27
  L 23.86 36.29
  Q 24.12 35.91 24.12 35.44
  Q 23.93 25.15 24.15 14.91
  C 24.17 14.00 23.81 13.09 23.72 12.16
  Q 23.84 12.10 23.96 11.94
  Q 24.13 11.71 24.14 11.42
  L 24.41 5.87
  A 0.72 0.72 0.0 0 1 25.11 5.19
  L 33.75 5.00
  Z"
/>
<circle fill="#dbe7ed" cx="61.62" cy="7.10" r="1.15"/>
<path fill="#eaeaea" d="
  M 33.72 7.28
  Q 40.08 8.44 46.20 7.27
  L 53.70 7.05
  A 0.39 0.39 0.0 0 1 54.10 7.44
  L 54.01 38.07
  L 54.18 38.99
  L 54.15 44.85
  Q 54.83 44.89 54.85 45.25
  Q 54.86 45.67 54.88 45.99
  Q 53.86 45.89 53.93 46.25
  Q 54.31 48.30 54.05 50.40
  Q 53.99 50.93 53.45 50.93
  Q 39.82 50.95 26.26 50.83
  Q 25.88 50.82 25.37 50.38
  Q 27.01 45.97 30.11 42.32
  Q 30.41 41.96 30.87 42.08
  C 35.78 43.35 39.96 40.25 39.92 35.27
  C 39.87 30.53 33.67 27.35 29.74 29.85
  C 26.08 32.16 25.86 36.64 28.08 40.09
  Q 28.35 40.51 28.04 40.90
  L 25.72 43.92
  L 25.72 7.57
  Q 25.72 7.06 26.22 7.07
  L 33.72 7.28
  Z
  M 52.89 10.62
  A 0.62 0.62 0.0 0 0 52.27 10.00
  L 27.49 10.00
  A 0.62 0.62 0.0 0 0 26.87 10.62
  L 26.87 11.66
  A 0.62 0.62 0.0 0 0 27.49 12.28
  L 52.27 12.28
  A 0.62 0.62 0.0 0 0 52.89 11.66
  L 52.89 10.62
  Z
  M 29.56 16.88
  C 31.01 14.45 33.75 16.39 32.37 18.87
  A 0.49 0.49 0.0 0 0 32.50 19.51
  L 34.90 21.30
  Q 35.28 21.59 35.28 21.10
  L 35.20 15.22
  Q 35.19 14.75 34.72 14.75
  L 27.42 14.74
  A 0.57 0.56 -1.4 0 0 26.85 15.33
  L 27.10 20.23
  Q 27.13 20.73 27.63 20.66
  Q 30.54 20.26 29.50 17.85
  A 1.06 1.06 0.0 0 1 29.56 16.88
  Z
  M 49.25 44.25
  L 50.83 44.29
  A 0.67 0.66 2.2 0 0 51.52 43.66
  L 51.58 42.41
  A 0.67 0.67 0.0 0 0 50.90 41.70
  L 49.24 41.73
  A 0.49 0.49 0.0 0 1 48.74 41.24
  L 48.75 39.78
  A 1.31 1.30 45.6 0 0 46.14 39.75
  L 46.12 41.11
  Q 46.11 41.71 45.51 41.71
  L 43.89 41.71
  A 0.65 0.65 0.0 0 0 43.23 42.36
  L 43.22 43.70
  A 0.68 0.66 -2.0 0 0 43.95 44.37
  L 45.47 44.23
  Q 46.01 44.18 46.05 44.72
  L 46.21 46.47
  Q 46.26 47.06 46.85 47.09
  L 48.16 47.14
  Q 48.72 47.16 48.73 46.60
  L 48.74 44.75
  Q 48.74 44.24 49.25 44.25
  Z"
/>
<rect fill="#fa7f70" x="26.87" y="10.00" width="26.02" height="2.28" rx="0.62"/>
<path fill="#eaeaea" d="
  M 23.72 12.16
  C 23.81 13.09 24.17 14.00 24.15 14.91
  Q 23.93 25.15 24.12 35.44
  Q 24.12 35.91 23.86 36.29
  L 21.10 40.27
  A 0.76 0.74 -66.2 0 1 20.32 40.58
  L 16.80 39.79
  Q 16.06 39.62 16.40 40.30
  Q 16.71 40.91 17.87 41.59
  Q 16.89 42.48 16.01 42.20
  Q 15.41 42.01 14.89 40.98
  Q 9.92 31.09 5.08 21.08
  Q 4.89 20.68 5.16 20.34
  Q 5.57 19.83 6.54 20.07
  L 7.13 21.57
  Q 7.37 22.17 7.82 21.72
  Q 7.97 21.57 8.05 21.24
  L 13.27 18.53
  Q 14.63 18.15 15.93 17.05
  Q 16.63 17.48 17.00 16.55
  Q 17.21 16.02 17.75 16.18
  Q 18.61 16.44 19.10 15.81
  A 0.72 0.62 4.5 0 1 19.39 15.60
  L 21.90 14.65
  A 0.58 0.58 0.0 0 0 22.17 13.79
  L 21.46 12.73
  Q 21.08 12.16 21.72 11.91
  Q 22.67 11.55 23.72 12.16
  Z
  M 11.04 25.94
  Q 11.13 27.12 9.52 27.12
  A 0.45 0.45 0.0 0 0 9.12 27.79
  L 9.93 29.22
  A 1.47 1.47 0.0 0 0 12.69 28.51
  Q 12.70 27.16 11.04 25.94
  L 10.33 23.52
  A 0.94 0.94 0.0 0 0 8.80 23.08
  Q 7.45 24.27 8.24 25.75
  Q 8.46 26.15 8.91 26.12
  L 11.04 25.94
  Z
  M 20.19 36.53
  C 19.03 34.95 18.99 33.59 17.15 32.43
  Q 16.66 32.13 16.76 32.70
  Q 17.27 35.55 19.58 37.15
  A 0.44 0.44 0.0 0 0 20.19 36.53
  Z
  M 14.47 34.79
  L 15.87 35.16
  Q 16.21 35.25 16.10 34.91
  Q 15.73 33.81 13.92 34.64
  Q 13.13 35.00 13.13 35.87
  L 13.13 36.25
  A 0.33 0.33 0.0 0 0 13.79 36.25
  L 13.80 35.30
  Q 13.81 34.62 14.47 34.79
  Z
  M 19.62 38.13
  L 16.17 36.35
  A 0.38 0.38 0.0 0 0 15.70 36.93
  Q 17.41 38.98 20.05 39.41
  Q 20.53 39.49 20.85 39.12
  Q 22.45 37.29 21.84 34.91
  A 0.43 0.43 0.0 0 0 21.01 34.93
  L 20.44 37.75
  A 0.57 0.56 19.7 0 1 19.62 38.13
  Z"
/>
<path fill="#a64b6a" d="
  M 71.59 33.22
  Q 70.87 33.59 70.25 33.40
  Q 70.05 30.66 65.99 30.01
  Q 65.08 28.64 63.17 29.13
  L 62.73 28.72
  L 62.72 28.27
  L 65.19 27.79
  Q 66.64 28.88 67.65 26.70
  Q 69.40 22.91 67.09 20.25
  L 65.13 19.22
  Q 62.98 19.40 61.02 23.07
  Q 60.71 22.80 60.55 23.19
  Q 59.47 23.41 59.20 23.94
  L 56.83 25.11
  L 56.08 25.17
  Q 56.05 25.14 55.87 25.05
  Q 55.73 24.99 55.69 24.89
  Q 55.54 24.58 55.70 24.19
  L 56.22 23.91
  Q 56.60 23.70 56.54 23.27
  L 56.12 20.57
  Q 56.06 20.17 56.43 20.33
  Q 57.88 20.97 58.17 22.58
  A 0.34 0.34 0.0 0 0 58.74 22.76
  L 59.11 22.42
  Q 59.29 22.24 59.19 22.02
  Q 58.07 19.44 58.69 16.62
  Q 58.88 15.75 59.31 16.54
  L 61.16 19.95
  A 0.40 0.40 0.0 0 0 61.91 19.75
  Q 61.84 15.22 65.04 12.03
  Q 65.73 11.34 65.56 12.30
  L 64.58 17.61
  A 0.39 0.38 -81.9 0 0 64.92 18.07
  C 70.36 18.64 70.33 24.20 68.43 28.04
  Q 68.18 28.54 68.58 28.93
  Q 69.62 29.94 70.65 30.83
  Q 71.43 31.50 71.59 33.22
  Z"
/>
<path fill="#eaeaea" d="
  M 20.56 14.76
  Q 20.07 15.17 19.99 14.54
  L 19.82 13.38
  A 0.53 0.53 0.0 0 1 20.78 13.00
  Q 21.49 14.00 20.56 14.76
  Z"
/>
<path fill="#dbe7ed" d="
  M 17.98 13.86
  A 0.47 0.47 0.0 0 1 18.72 13.56
  Q 19.28 13.99 19.14 14.63
  Q 19.03 15.16 18.50 15.32
  Q 17.73 15.55 17.85 14.75
  L 17.98 13.86
  Z"
/>
<path fill="#dbe7ed" d="
  M 15.93 17.05
  Q 14.63 18.15 13.27 18.53
  Q 13.13 17.78 12.73 17.51
  A 0.36 0.36 0.0 0 0 12.18 17.75
  Q 12.07 18.41 11.58 18.84
  Q 11.19 19.19 10.50 17.96
  L 14.37 15.41
  A 0.43 0.42 46.9 0 1 14.88 15.43
  L 15.17 15.67
  Q 15.53 15.96 15.72 15.54
  L 16.12 14.65
  Q 16.48 13.84 16.95 14.60
  L 17.32 15.20
  Q 17.62 15.69 17.06 15.84
  Q 15.61 16.22 15.93 17.05
  Z"
/>
<path fill="#c7c7c7" d="
  M 32.37 18.87
  C 33.75 16.39 31.01 14.45 29.56 16.88
  A 1.06 1.06 0.0 0 0 29.50 17.85
  Q 30.54 20.26 27.63 20.66
  Q 27.13 20.73 27.10 20.23
  L 26.85 15.33
  A 0.57 0.56 -1.4 0 1 27.42 14.74
  L 34.72 14.75
  Q 35.19 14.75 35.20 15.22
  L 35.28 21.10
  Q 35.28 21.59 34.90 21.30
  L 32.50 19.51
  A 0.49 0.49 0.0 0 1 32.37 18.87
  Z"
/>
<path fill="#c7c7c7" d="
  M 13.27 18.53
  L 8.05 21.24
  Q 7.83 20.39 7.01 19.79
  Q 6.97 19.15 7.39 18.87
  Q 7.78 18.61 7.98 19.04
  Q 8.11 19.34 8.53 18.97
  Q 8.69 18.84 8.82 18.67
  Q 9.54 17.69 10.50 17.96
  Q 11.19 19.19 11.58 18.84
  Q 12.07 18.41 12.18 17.75
  A 0.36 0.36 0.0 0 1 12.73 17.51
  Q 13.13 17.78 13.27 18.53
  Z"
/>
<path fill="#5ed5da" d="
  M 65.13 19.22
  Q 63.77 20.46 62.41 22.42
  Q 61.98 23.04 61.02 23.07
  Q 62.98 19.40 65.13 19.22
  Z"
/>
<path fill="#7e4687" d="
  M 65.13 19.22
  L 67.09 20.25
  Q 65.31 23.68 61.58 24.51
  Q 61.08 24.62 60.91 24.15
  L 60.55 23.19
  Q 60.71 22.80 61.02 23.07
  Q 61.98 23.04 62.41 22.42
  Q 63.77 20.46 65.13 19.22
  Z"
/>
<path fill="#9cb38a" d="
  M 7.01 19.79
  Q 7.83 20.39 8.05 21.24
  Q 7.97 21.57 7.82 21.72
  Q 7.37 22.17 7.13 21.57
  L 6.54 20.07
  L 7.01 19.79
  Z"
/>
<path fill="#5ed5da" d="
  M 67.09 20.25
  Q 69.40 22.91 67.65 26.70
  Q 66.64 28.88 65.19 27.79
  L 67.32 24.95
  Q 67.69 24.46 67.08 24.37
  C 64.79 24.03 62.88 25.61 61.40 26.70
  Q 60.88 27.08 60.69 26.47
  Q 60.26 25.13 59.20 23.94
  Q 59.47 23.41 60.55 23.19
  L 60.91 24.15
  Q 61.08 24.62 61.58 24.51
  Q 65.31 23.68 67.09 20.25
  Z"
/>
<path fill="#c7c7c7" d="
  M 11.04 25.94
  L 8.91 26.12
  Q 8.46 26.15 8.24 25.75
  Q 7.45 24.27 8.80 23.08
  A 0.94 0.94 0.0 0 1 10.33 23.52
  L 11.04 25.94
  Z"
/>
<path fill="#7e4687" d="
  M 59.20 23.94
  Q 60.26 25.13 60.69 26.47
  Q 60.88 27.08 61.40 26.70
  C 62.88 25.61 64.79 24.03 67.08 24.37
  Q 67.69 24.46 67.32 24.95
  L 65.19 27.79
  L 62.72 28.27
  Q 58.96 28.01 56.83 25.11
  L 59.20 23.94
  Z"
/>
<path fill="#c7c7c7" d="
  M 11.04 25.94
  Q 12.70 27.16 12.69 28.51
  A 1.47 1.47 0.0 0 1 9.93 29.22
  L 9.12 27.79
  A 0.45 0.45 0.0 0 1 9.52 27.12
  Q 11.13 27.12 11.04 25.94
  Z"
/>
<path fill="#7e4687" d="
  M 62.73 28.72
  L 63.17 29.13
  Q 64.08 29.92 66.19 30.35
  Q 63.50 32.71 60.56 32.78
  Q 59.89 32.80 60.34 32.31
  L 61.90 30.58
  Q 62.25 30.20 61.79 29.97
  L 61.44 29.80
  Q 61.56 30.09 61.52 29.39
  Q 61.79 28.85 62.73 28.72
  Z"
/>
<path fill="#2b7190" d="
  M 25.37 50.38
  Q 24.52 50.86 24.57 51.32
  Q 23.19 52.09 22.49 54.19
  Q 22.26 54.86 21.56 54.76
  L 20.62 54.62
  A 1.54 1.54 0.0 0 1 19.59 52.21
  L 22.83 47.61
  Q 24.78 46.07 25.72 43.92
  L 28.04 40.90
  Q 28.35 40.51 28.08 40.09
  C 25.86 36.64 26.08 32.16 29.74 29.85
  C 33.67 27.35 39.87 30.53 39.92 35.27
  C 39.96 40.25 35.78 43.35 30.87 42.08
  Q 30.41 41.96 30.11 42.32
  Q 27.01 45.97 25.37 50.38
  Z
  M 38.44 35.65
  A 5.27 5.27 0.0 0 0 33.17 30.38
  A 5.27 5.27 0.0 0 0 27.90 35.65
  A 5.27 5.27 0.0 0 0 33.17 40.92
  A 5.27 5.27 0.0 0 0 38.44 35.65
  Z"
/>
<path fill="#9cb38a" d="
  M 63.17 29.13
  Q 65.08 28.64 65.99 30.01
  Q 65.63 30.72 66.19 30.35
  Q 64.08 29.92 63.17 29.13
  Z"
/>
<path fill="#72657e" d="
  M 61.52 29.39
  Q 61.56 30.09 61.44 29.80
  Q 60.51 30.81 59.43 31.77
  Q 58.94 32.21 58.53 32.22
  Q 57.84 32.22 57.69 31.34
  A 1.30 1.30 0.0 0 1 59.39 29.89
  Q 60.04 30.11 61.52 29.39
  Z"
/>
<circle fill="#dbe7ed" cx="33.17" cy="35.65" r="5.27"/>
<path fill="#7e4687" d="
  M 17.15 32.43
  C 18.99 33.59 19.03 34.95 20.19 36.53
  A 0.44 0.44 0.0 0 1 19.58 37.15
  Q 17.27 35.55 16.76 32.70
  Q 16.66 32.13 17.15 32.43
  Z"
/>
<path fill="#7e4687" d="
  M 63.22 35.83
  Q 60.72 38.42 57.37 36.93
  Q 56.72 36.64 57.16 36.08
  L 58.92 33.88
  Q 59.24 33.48 59.74 33.62
  L 62.84 34.46
  Q 64.19 34.83 63.22 35.83
  Z"
/>
<path fill="#88d0e1" d="
  M 71.59 33.22
  Q 71.70 38.14 71.45 43.04
  Q 71.25 47.02 69.95 48.64
  Q 67.75 51.36 63.26 49.91
  L 63.57 48.48
  C 69.04 50.37 70.14 47.48 70.06 42.82
  Q 69.97 38.12 70.25 33.40
  Q 70.87 33.59 71.59 33.22
  Z"
/>
<path fill="#c7c7c7" d="
  M 13.80 35.30
  L 13.79 36.25
  A 0.33 0.33 0.0 0 1 13.13 36.25
  L 13.13 35.87
  Q 13.13 35.00 13.92 34.64
  Q 15.73 33.81 16.10 34.91
  Q 16.21 35.25 15.87 35.16
  L 14.47 34.79
  Q 13.81 34.62 13.80 35.30
  Z"
/>
<path fill="#7e4687" d="
  M 20.44 37.75
  L 21.01 34.93
  A 0.43 0.43 0.0 0 1 21.84 34.91
  Q 22.45 37.29 20.85 39.12
  Q 20.53 39.49 20.05 39.41
  Q 17.41 38.98 15.70 36.93
  A 0.38 0.38 0.0 0 1 16.17 36.35
  L 19.62 38.13
  A 0.57 0.56 19.7 0 0 20.44 37.75
  Z"
/>
<path fill="#7e4687" d="
  M 54.15 44.85
  L 54.18 38.99
  L 55.35 38.15
  Q 55.88 37.76 56.48 38.03
  L 59.89 39.59
  Q 60.64 39.93 60.00 40.44
  Q 58.10 41.96 55.76 42.43
  Q 55.25 42.53 55.30 43.05
  Q 55.52 45.16 54.15 44.85
  Z"
/>
<path fill="#88d0e1" d="
  M 48.74 44.75
  L 48.73 46.60
  Q 48.72 47.16 48.16 47.14
  L 46.85 47.09
  Q 46.26 47.06 46.21 46.47
  L 46.05 44.72
  Q 46.01 44.18 45.47 44.23
  L 43.95 44.37
  A 0.68 0.66 -2.0 0 1 43.22 43.70
  L 43.23 42.36
  A 0.65 0.65 0.0 0 1 43.89 41.71
  L 45.51 41.71
  Q 46.11 41.71 46.12 41.11
  L 46.14 39.75
  A 1.31 1.30 45.6 0 1 48.75 39.78
  L 48.74 41.24
  A 0.49 0.49 0.0 0 0 49.24 41.73
  L 50.90 41.70
  A 0.67 0.67 0.0 0 1 51.58 42.41
  L 51.52 43.66
  A 0.67 0.66 2.2 0 1 50.83 44.29
  L 49.25 44.25
  Q 48.74 44.24 48.74 44.75
  Z"
/>
<path fill="#604d5c" d="
  M 54.88 45.99
  Q 55.84 48.80 55.02 51.56
  Q 54.85 52.13 54.25 52.13
  Q 39.76 52.19 25.50 52.15
  Q 25.15 52.15 24.57 51.32
  Q 24.52 50.86 25.37 50.38
  Q 25.88 50.82 26.26 50.83
  Q 39.82 50.95 53.45 50.93
  Q 53.99 50.93 54.05 50.40
  Q 54.31 48.30 53.93 46.25
  Q 53.86 45.89 54.88 45.99
  Z"
/>
<path fill="#ea9249" d="
  M 57.12 47.86
  Q 56.56 47.43 56.80 46.63
  A 1.00 1.00 0.0 0 1 58.75 46.82
  Q 58.85 47.74 58.18 48.01
  Q 57.62 48.24 57.12 47.86
  Z"
/>
<path fill="#9cb38a" d="
  M 63.57 48.48
  L 63.26 49.91
  Q 62.49 50.48 62.30 50.42
  A 1.47 1.47 0.0 0 1 62.80 47.55
  Q 63.19 47.57 63.57 48.48
  Z"
/>
</svg>
