<?xml version="1.0" encoding="UTF-8" standalone="no"?>
<!DOCTYPE svg PUBLIC "-//W3C//DTD SVG 1.1//EN" "http://www.w3.org/Graphics/SVG/1.1/DTD/svg11.dtd">
<svg xmlns="http://www.w3.org/2000/svg" version="1.1" viewBox="0.00 0.00 302.00 303.00">
<path fill="#619080" d="
  M 149.38 0.00
  L 152.74 0.00
  Q 162.05 1.33 166.98 9.14
  A 0.96 0.93 72.5 0 0 167.79 9.58
  C 180.70 9.27 189.84 8.55 197.80 18.53
  Q 198.12 18.93 198.63 18.93
  Q 217.63 18.96 236.64 18.95
  Q 248.02 18.95 250.33 19.38
  C 261.40 21.43 269.27 31.74 269.27 42.75
  Q 269.25 158.58 269.27 274.42
  Q 269.27 282.72 267.89 286.93
  Q 263.28 300.92 246.89 303.00
  L 54.99 303.00
  Q 38.66 300.82 34.13 287.02
  Q 32.70 282.64 32.70 273.30
  Q 32.76 161.56 32.70 49.80
  Q 32.70 39.37 34.19 34.85
  Q 37.78 23.94 49.00 20.27
  Q 53.08 18.94 60.65 18.94
  Q 82.02 18.96 103.38 18.93
  Q 103.89 18.93 104.20 18.54
  C 112.15 8.54 121.38 9.27 134.24 9.58
  A 0.93 0.93 0.0 0 0 135.04 9.15
  Q 140.04 1.25 149.38 0.00
  Z
  M 116.23 19.85
  C 106.21 24.63 107.65 35.91 108.02 47.00
  Q 108.03 47.48 108.52 47.48
  L 193.51 47.49
  Q 194.09 47.49 194.08 46.91
  C 193.93 37.25 196.34 25.14 185.94 19.96
  Q 183.04 18.52 177.81 18.43
  Q 171.03 18.32 164.24 18.41
  C 160.28 18.47 159.93 13.22 157.15 11.21
  Q 150.71 6.54 144.58 11.41
  C 142.38 13.16 142.03 16.02 139.52 18.04
  Q 139.12 18.37 138.60 18.37
  Q 131.53 18.37 124.52 18.44
  Q 119.10 18.49 116.23 19.85
  Z
  M 245.25 294.07
  C 251.37 294.07 256.54 291.05 258.89 285.99
  Q 260.45 282.63 260.45 273.78
  Q 260.44 160.26 260.45 46.75
  Q 260.45 39.76 259.04 36.48
  Q 255.40 28.02 244.49 27.98
  Q 223.76 27.91 203.03 27.90
  Q 202.52 27.90 202.55 28.41
  Q 203.12 39.52 202.83 50.65
  C 202.72 54.56 201.52 56.29 197.50 56.29
  Q 150.86 56.32 104.23 56.28
  C 100.82 56.27 99.23 54.50 99.17 51.24
  Q 98.93 38.24 99.43 28.40
  Q 99.45 27.90 98.95 27.90
  Q 78.47 27.92 58.01 27.93
  Q 46.75 27.94 43.15 36.02
  Q 41.52 39.68 41.53 50.70
  Q 41.58 164.48 41.52 278.25
  Q 41.52 289.01 49.64 292.54
  Q 53.32 294.14 63.57 294.14
  Q 154.41 294.11 245.25 294.07
  Z"
/>
<circle fill="#619080" cx="151.00" cy="23.43" r="4.38"/>
<path fill="#619080" d="
  M 240.80 46.82
  Q 229.77 46.78 218.75 46.81
  C 211.05 46.83 211.34 38.03 218.00 38.00
  Q 232.07 37.94 245.81 38.00
  A 4.47 4.46 -89.9 0 1 250.26 42.47
  L 250.25 218.19
  A 3.97 3.96 -22.7 0 1 249.10 220.98
  L 186.99 283.04
  A 3.19 3.16 22.2 0 1 184.73 283.98
  L 55.98 283.98
  A 4.25 4.25 0.0 0 1 51.73 279.73
  L 51.73 42.47
  A 4.49 4.48 -0.1 0 1 56.20 37.99
  Q 69.51 37.95 82.49 37.99
  Q 85.87 38.00 87.30 38.99
  C 90.82 41.42 88.73 46.72 84.04 46.76
  Q 72.45 46.86 61.02 46.77
  A 0.47 0.46 -89.4 0 0 60.55 47.24
  L 60.55 274.57
  A 0.52 0.52 0.0 0 0 61.07 275.09
  L 181.99 275.09
  Q 182.43 275.09 182.74 274.78
  L 234.62 222.87
  A 0.34 0.34 0.0 0 0 234.38 222.29
  Q 214.47 222.32 194.50 222.32
  C 189.16 222.31 188.62 225.79 188.63 230.40
  Q 188.64 242.83 188.69 255.24
  C 188.70 258.47 186.36 260.76 183.15 260.09
  C 180.27 259.49 179.78 256.98 179.77 254.22
  Q 179.72 242.81 179.76 231.39
  C 179.79 223.54 181.01 217.65 188.28 214.67
  Q 191.17 213.49 197.36 213.49
  Q 219.08 213.48 240.97 213.48
  A 0.48 0.47 -0.0 0 0 241.45 213.01
  L 241.46 47.48
  Q 241.46 46.82 240.80 46.82
  Z"
/>
<path fill="#619080" d="
  M 113.35 94.79
  Q 122.42 94.92 131.51 94.76
  C 137.74 94.64 138.56 103.91 130.75 103.79
  Q 126.53 103.72 113.23 103.80
  Q 112.70 103.80 112.71 104.33
  Q 112.76 112.94 112.72 121.49
  C 112.69 129.67 103.82 129.44 103.83 121.29
  Q 103.85 112.85 103.85 104.40
  Q 103.85 103.84 103.29 103.83
  Q 93.59 103.68 84.02 103.77
  C 80.09 103.81 78.90 97.42 82.44 95.52
  Q 83.75 94.81 86.68 94.80
  Q 94.84 94.75 102.95 94.85
  A 0.98 0.97 90.0 0 0 103.94 93.85
  Q 103.77 84.43 103.92 74.75
  Q 103.94 73.24 105.48 72.17
  C 107.68 70.63 110.92 71.03 112.15 73.52
  Q 112.75 74.73 112.74 77.58
  Q 112.70 85.89 112.77 94.21
  Q 112.78 94.78 113.35 94.79
  Z"
/>
<rect fill="#619080" x="165.64" y="80.71" width="56.10" height="8.80" rx="4.31"/>
<rect fill="#619080" x="151.44" y="99.61" width="70.30" height="8.86" rx="4.33"/>
<rect fill="#619080" x="165.63" y="118.67" width="56.10" height="8.82" rx="4.32"/>
<rect fill="#619080" x="80.26" y="137.54" width="141.48" height="8.88" rx="4.39"/>
<rect fill="#619080" x="80.26" y="156.58" width="141.48" height="8.88" rx="4.39"/>
<rect fill="#619080" x="80.27" y="175.47" width="141.46" height="8.88" rx="4.39"/>
<rect fill="#619080" x="80.26" y="194.52" width="141.48" height="8.88" rx="4.38"/>
<rect fill="#619080" x="-23.32" y="-4.41" transform="translate(146.23,217.89) rotate(-0.1)" width="46.64" height="8.82" rx="4.30"/>
<rect fill="#619080" x="-13.82" y="-4.40" transform="translate(155.72,236.91) rotate(0.1)" width="27.64" height="8.80" rx="4.24"/>
</svg>
