<?xml version="1.0" encoding="UTF-8" standalone="no"?>
<!DOCTYPE svg PUBLIC "-//W3C//DTD SVG 1.1//EN" "http://www.w3.org/Graphics/SVG/1.1/DTD/svg11.dtd">
<svg xmlns="http://www.w3.org/2000/svg" version="1.1" viewBox="0.00 0.00 412.00 336.00">
<g stroke-width="2.00" fill="none" stroke-linecap="butt">
<path stroke="#a5b27b" vector-effect="non-scaling-stroke" d="
  M 170.92 71.71
  A 10.46 10.46 0.0 0 0 160.46 61.25
  A 10.46 10.46 0.0 0 0 150.00 71.71
  A 10.46 10.46 0.0 0 0 160.46 82.17
  A 10.46 10.46 0.0 0 0 170.92 71.71"
/>
<path stroke="#92ac55" vector-effect="non-scaling-stroke" d="
  M 247.92 66.48
  A 3.46 3.46 0.0 0 0 244.46 63.02
  A 3.46 3.46 0.0 0 0 241.00 66.48
  A 3.46 3.46 0.0 0 0 244.46 69.94
  A 3.46 3.46 0.0 0 0 247.92 66.48"
/>
<path stroke="#92ac55" vector-effect="non-scaling-stroke" d="
  M 233.93 76.97
  A 3.44 3.44 0.0 0 0 230.49 73.53
  A 3.44 3.44 0.0 0 0 227.05 76.97
  A 3.44 3.44 0.0 0 0 230.49 80.41
  A 3.44 3.44 0.0 0 0 233.93 76.97"
/>
<path stroke="#92ac55" vector-effect="non-scaling-stroke" d="
  M 261.93 76.98
  A 3.43 3.43 0.0 0 0 258.50 73.55
  A 3.43 3.43 0.0 0 0 255.07 76.98
  A 3.43 3.43 0.0 0 0 258.50 80.41
  A 3.43 3.43 0.0 0 0 261.93 76.98"
/>
<path stroke="#92ac55" vector-effect="non-scaling-stroke" d="
  M 233.93 90.96
  A 3.44 3.44 0.0 0 0 230.49 87.52
  A 3.44 3.44 0.0 0 0 227.05 90.96
  A 3.44 3.44 0.0 0 0 230.49 94.40
  A 3.44 3.44 0.0 0 0 233.93 90.96"
/>
<path stroke="#92ac55" vector-effect="non-scaling-stroke" d="
  M 261.90 90.97
  A 3.41 3.41 0.0 0 0 258.49 87.56
  A 3.41 3.41 0.0 0 0 255.08 90.97
  A 3.41 3.41 0.0 0 0 258.49 94.38
  A 3.41 3.41 0.0 0 0 261.90 90.97"
/>
<path stroke="#a5b27b" vector-effect="non-scaling-stroke" d="
  M 135.94 96.19
  A 6.97 6.97 0.0 0 0 128.97 89.22
  A 6.97 6.97 0.0 0 0 122.00 96.19
  A 6.97 6.97 0.0 0 0 128.97 103.16
  A 6.97 6.97 0.0 0 0 135.94 96.19"
/>
<path stroke="#92ac55" vector-effect="non-scaling-stroke" d="
  M 247.82 101.48
  A 3.38 3.38 0.0 0 0 244.44 98.10
  A 3.38 3.38 0.0 0 0 241.06 101.48
  A 3.38 3.38 0.0 0 0 244.44 104.86
  A 3.38 3.38 0.0 0 0 247.82 101.48"
/>
<path stroke="#957330" vector-effect="non-scaling-stroke" d="
  M 198.75 139.84
  L 157.08 139.89"
/>
<path stroke="#f4c97c" vector-effect="non-scaling-stroke" d="
  M 157.08 139.89
  L 157.06 131.88
  Q 157.06 131.28 157.66 131.26
  C 160.91 131.16 165.99 130.16 163.13 125.50
  Q 162.87 125.09 162.41 124.92
  C 161.52 124.61 160.66 124.28 159.70 124.27
  Q 142.48 124.14 125.25 124.49
  Q 122.85 124.54 122.35 126.56
  C 121.12 131.46 125.26 130.72 128.31 131.31
  Q 128.91 131.42 128.91 132.03
  L 128.92 155.04
  Q 128.92 155.66 128.35 155.88
  C 115.11 161.01 104.22 169.27 98.49 181.98
  C 78.53 226.25 126.92 270.45 169.13 244.44"
/>
<path stroke="#957330" vector-effect="non-scaling-stroke" d="
  M 169.13 244.44
  Q 169.32 245.14 170.51 245.23
  Q 171.07 245.27 171.04 245.82
  C 170.62 253.93 175.95 252.12 181.51 251.92
  C 185.63 251.77 184.83 248.09 185.07 245.37
  Q 185.11 244.92 185.56 244.92
  L 261.24 244.98
  Q 261.71 244.98 261.76 245.44
  C 262.00 247.42 261.71 251.18 264.26 251.78
  Q 266.04 252.19 271.19 252.02
  C 274.96 251.90 276.97 249.85 275.78 246.08
  A 0.90 0.90 0.0 0 1 276.65 244.91
  C 282.66 245.04 291.62 245.89 296.69 243.20
  C 303.30 239.70 303.95 234.12 303.96 226.60
  Q 303.97 190.79 303.97 155.00
  Q 303.97 141.39 290.03 139.85"
/>
<path stroke="#f4c97c" vector-effect="non-scaling-stroke" d="
  M 290.03 139.85
  L 289.88 131.79
  A 0.66 0.66 0.0 0 1 290.67 131.13
  C 297.77 132.57 299.07 124.18 292.75 124.19
  Q 272.94 124.22 253.11 124.16
  Q 250.55 124.16 249.51 124.82
  C 247.47 126.13 247.54 130.64 250.37 130.92
  Q 252.26 131.11 254.23 131.33
  Q 254.80 131.39 254.78 131.97
  L 254.57 139.85"
/>
<path stroke="#957330" vector-effect="non-scaling-stroke" d="
  M 254.57 139.85
  L 234.23 139.86"
/>
<path stroke="#f4c97c" vector-effect="non-scaling-stroke" d="
  M 234.23 139.86
  L 234.06 131.83
  Q 234.05 131.28 234.60 131.26
  C 238.07 131.12 243.08 130.29 240.01 125.30
  Q 239.74 124.86 239.24 124.72
  C 238.62 124.55 237.65 124.21 237.02 124.21
  Q 216.81 124.14 196.60 124.21
  C 193.44 124.22 190.13 126.91 192.94 130.05
  C 194.08 131.32 196.95 131.21 198.26 131.20
  A 0.64 0.64 0.0 0 1 198.90 131.85
  L 198.75 139.84"
/>
<path stroke="#8a98a1" vector-effect="non-scaling-stroke" d="
  M 234.23 139.86
  L 198.75 139.84"
/>
<path stroke="#957330" vector-effect="non-scaling-stroke" d="
  M 177.56 237.88
  Q 232.74 237.87 287.36 237.87
  C 292.38 237.87 296.97 236.72 296.97 231.00
  Q 296.97 193.77 296.97 156.57
  C 296.97 151.23 295.79 147.24 289.88 147.04"
/>
<path stroke="#8a98a1" vector-effect="non-scaling-stroke" d="
  M 289.88 147.04
  L 254.81 147.02"
/>
<path stroke="#957330" vector-effect="non-scaling-stroke" d="
  M 254.81 147.02
  L 233.99 147.02"
/>
<path stroke="#8a98a1" vector-effect="non-scaling-stroke" d="
  M 233.99 147.02
  L 199.04 147.00"
/>
<path stroke="#957330" vector-effect="non-scaling-stroke" d="
  M 199.04 147.00
  L 157.02 147.01"
/>
<path stroke="#8a98a1" vector-effect="non-scaling-stroke" d="
  M 290.03 139.85
  L 254.57 139.85"
/>
<path stroke="#8a98a1" vector-effect="non-scaling-stroke" d="
  M 157.08 139.89
  L 157.02 147.01"
/>
<path stroke="#f4c97c" vector-effect="non-scaling-stroke" d="
  M 157.02 147.01
  L 156.98 154.88
  Q 156.97 155.72 157.76 156.00
  C 193.35 168.48 203.21 210.36 177.56 237.88"
/>
<path stroke="#8a98a1" vector-effect="non-scaling-stroke" d="
  M 177.56 237.88
  L 169.13 244.44"
/>
<path stroke="#f4c97c" vector-effect="non-scaling-stroke" d="
  M 199.04 147.00
  Q 198.83 174.42 199.00 201.74
  Q 199.05 208.38 200.38 211.56
  C 203.18 218.23 210.44 222.68 217.64 222.11
  C 227.12 221.35 234.00 213.64 233.99 203.99
  Q 233.96 175.60 233.99 147.02"
/>
<path stroke="#f4c97c" vector-effect="non-scaling-stroke" d="
  M 254.81 147.02
  Q 254.79 174.84 254.80 202.50
  Q 254.80 211.07 259.62 216.44
  C 268.18 225.97 284.17 222.83 288.59 211.16
  Q 289.93 207.62 289.90 198.18
  Q 289.84 172.81 289.88 147.04"
/>
<path stroke="#9ad6ec" vector-effect="non-scaling-stroke" d="
  M 149.87 169.70
  A 3.42 3.42 0.0 0 0 146.45 166.28
  A 3.42 3.42 0.0 0 0 143.03 169.70
  A 3.42 3.42 0.0 0 0 146.45 173.12
  A 3.42 3.42 0.0 0 0 149.87 169.70"
/>
<path stroke="#9ad6ec" vector-effect="non-scaling-stroke" d="
  M 135.89 185.44
  A 5.19 5.19 0.0 0 0 130.70 180.25
  A 5.19 5.19 0.0 0 0 125.51 185.44
  A 5.19 5.19 0.0 0 0 130.70 190.63
  A 5.19 5.19 0.0 0 0 135.89 185.44"
/>
<path stroke="#9ad6ec" vector-effect="non-scaling-stroke" d="
  M 134.06 244.00
  C 159.99 249.40 184.80 230.26 184.98 203.15
  Q 184.98 202.60 184.43 202.61
  C 181.37 202.68 178.29 202.94 175.35 202.49
  C 168.32 201.41 160.57 199.54 154.08 199.57
  C 145.08 199.61 135.58 203.98 129.24 205.24
  Q 115.20 208.03 101.55 203.54
  Q 101.01 203.36 101.02 203.93
  C 101.39 223.37 115.37 240.11 134.06 244.00"
/>
<path stroke="#eda198" vector-effect="non-scaling-stroke" d="
  M 211.93 214.08
  C 219.40 217.65 226.97 212.08 226.97 203.99
  Q 226.98 180.59 227.01 173.96
  Q 227.01 173.23 226.36 173.56
  C 218.77 177.37 214.61 168.94 206.50 172.73
  A 0.79 0.79 0.0 0 0 206.04 173.45
  Q 205.92 187.62 206.02 201.70
  C 206.06 207.48 206.73 211.60 211.93 214.08"
/>
<path stroke="#87d0c6" vector-effect="non-scaling-stroke" d="
  M 282.09 173.77
  C 274.96 176.32 273.57 171.74 267.49 171.67
  Q 264.98 171.64 262.71 172.54
  A 1.48 1.47 -10.9 0 0 261.78 173.91
  Q 261.75 189.01 261.91 204.25
  C 262.00 213.49 271.45 218.51 278.90 212.65
  Q 282.76 209.62 282.77 205.75
  Q 282.85 189.79 282.77 174.25
  Q 282.77 173.52 282.09 173.77"
/>
</g>
<path fill="#ffa40b" d="
  M 198.64 0.00
  L 213.48 0.00
  Q 265.13 2.94 305.81 32.89
  C 388.56 93.81 397.45 216.06 323.65 287.79
  Q 278.09 332.06 212.86 336.00
  L 198.76 336.00
  Q 133.35 331.89 87.81 287.32
  C 14.61 215.68 23.57 94.02 105.74 33.19
  Q 146.62 2.92 198.64 0.00
  Z
  M 170.92 71.71
  A 10.46 10.46 0.0 0 0 160.46 61.25
  A 10.46 10.46 0.0 0 0 150.00 71.71
  A 10.46 10.46 0.0 0 0 160.46 82.17
  A 10.46 10.46 0.0 0 0 170.92 71.71
  Z
  M 247.92 66.48
  A 3.46 3.46 0.0 0 0 244.46 63.02
  A 3.46 3.46 0.0 0 0 241.00 66.48
  A 3.46 3.46 0.0 0 0 244.46 69.94
  A 3.46 3.46 0.0 0 0 247.92 66.48
  Z
  M 233.93 76.97
  A 3.44 3.44 0.0 0 0 230.49 73.53
  A 3.44 3.44 0.0 0 0 227.05 76.97
  A 3.44 3.44 0.0 0 0 230.49 80.41
  A 3.44 3.44 0.0 0 0 233.93 76.97
  Z
  M 261.93 76.98
  A 3.43 3.43 0.0 0 0 258.50 73.55
  A 3.43 3.43 0.0 0 0 255.07 76.98
  A 3.43 3.43 0.0 0 0 258.50 80.41
  A 3.43 3.43 0.0 0 0 261.93 76.98
  Z
  M 233.93 90.96
  A 3.44 3.44 0.0 0 0 230.49 87.52
  A 3.44 3.44 0.0 0 0 227.05 90.96
  A 3.44 3.44 0.0 0 0 230.49 94.40
  A 3.44 3.44 0.0 0 0 233.93 90.96
  Z
  M 261.90 90.97
  A 3.41 3.41 0.0 0 0 258.49 87.56
  A 3.41 3.41 0.0 0 0 255.08 90.97
  A 3.41 3.41 0.0 0 0 258.49 94.38
  A 3.41 3.41 0.0 0 0 261.90 90.97
  Z
  M 135.94 96.19
  A 6.97 6.97 0.0 0 0 128.97 89.22
  A 6.97 6.97 0.0 0 0 122.00 96.19
  A 6.97 6.97 0.0 0 0 128.97 103.16
  A 6.97 6.97 0.0 0 0 135.94 96.19
  Z
  M 247.82 101.48
  A 3.38 3.38 0.0 0 0 244.44 98.10
  A 3.38 3.38 0.0 0 0 241.06 101.48
  A 3.38 3.38 0.0 0 0 244.44 104.86
  A 3.38 3.38 0.0 0 0 247.82 101.48
  Z
  M 198.75 139.84
  L 157.08 139.89
  L 157.06 131.88
  Q 157.06 131.28 157.66 131.26
  C 160.91 131.16 165.99 130.16 163.13 125.50
  Q 162.87 125.09 162.41 124.92
  C 161.52 124.61 160.66 124.28 159.70 124.27
  Q 142.48 124.14 125.25 124.49
  Q 122.85 124.54 122.35 126.56
  C 121.12 131.46 125.26 130.72 128.31 131.31
  Q 128.91 131.42 128.91 132.03
  L 128.92 155.04
  Q 128.92 155.66 128.35 155.88
  C 115.11 161.01 104.22 169.27 98.49 181.98
  C 78.53 226.25 126.92 270.45 169.13 244.44
  Q 169.32 245.14 170.51 245.23
  Q 171.07 245.27 171.04 245.82
  C 170.62 253.93 175.95 252.12 181.51 251.92
  C 185.63 251.77 184.83 248.09 185.07 245.37
  Q 185.11 244.92 185.56 244.92
  L 261.24 244.98
  Q 261.71 244.98 261.76 245.44
  C 262.00 247.42 261.71 251.18 264.26 251.78
  Q 266.04 252.19 271.19 252.02
  C 274.96 251.90 276.97 249.85 275.78 246.08
  A 0.90 0.90 0.0 0 1 276.65 244.91
  C 282.66 245.04 291.62 245.89 296.69 243.20
  C 303.30 239.70 303.95 234.12 303.96 226.60
  Q 303.97 190.79 303.97 155.00
  Q 303.97 141.39 290.03 139.85
  L 289.88 131.79
  A 0.66 0.66 0.0 0 1 290.67 131.13
  C 297.77 132.57 299.07 124.18 292.75 124.19
  Q 272.94 124.22 253.11 124.16
  Q 250.55 124.16 249.51 124.82
  C 247.47 126.13 247.54 130.64 250.37 130.92
  Q 252.26 131.11 254.23 131.33
  Q 254.80 131.39 254.78 131.97
  L 254.57 139.85
  L 234.23 139.86
  L 234.06 131.83
  Q 234.05 131.28 234.60 131.26
  C 238.07 131.12 243.08 130.29 240.01 125.30
  Q 239.74 124.86 239.24 124.72
  C 238.62 124.55 237.65 124.21 237.02 124.21
  Q 216.81 124.14 196.60 124.21
  C 193.44 124.22 190.13 126.91 192.94 130.05
  C 194.08 131.32 196.95 131.21 198.26 131.20
  A 0.64 0.64 0.0 0 1 198.90 131.85
  L 198.75 139.84
  Z"
/>
<circle fill="#4bbfeb" cx="160.46" cy="71.71" r="10.46"/>
<circle fill="#25b39e" cx="244.46" cy="66.48" r="3.46"/>
<circle fill="#25b39e" cx="230.49" cy="76.97" r="3.44"/>
<circle fill="#25b39e" cx="258.50" cy="76.98" r="3.43"/>
<circle fill="#25b39e" cx="230.49" cy="90.96" r="3.44"/>
<circle fill="#25b39e" cx="258.49" cy="90.97" r="3.41"/>
<circle fill="#4bbfeb" cx="128.97" cy="96.19" r="6.97"/>
<circle fill="#25b39e" cx="244.44" cy="101.48" r="3.38"/>
<path fill="#e9eded" d="
  M 234.23 139.86
  L 198.75 139.84
  L 198.90 131.85
  A 0.64 0.64 0.0 0 0 198.26 131.20
  C 196.95 131.21 194.08 131.32 192.94 130.05
  C 190.13 126.91 193.44 124.22 196.60 124.21
  Q 216.81 124.14 237.02 124.21
  C 237.65 124.21 238.62 124.55 239.24 124.72
  Q 239.74 124.86 240.01 125.30
  C 243.08 130.29 238.07 131.12 234.60 131.26
  Q 234.05 131.28 234.06 131.83
  L 234.23 139.86
  Z"
/>
<path fill="#e9eded" d="
  M 290.03 139.85
  L 254.57 139.85
  L 254.78 131.97
  Q 254.80 131.39 254.23 131.33
  Q 252.26 131.11 250.37 130.92
  C 247.54 130.64 247.47 126.13 249.51 124.82
  Q 250.55 124.16 253.11 124.16
  Q 272.94 124.22 292.75 124.19
  C 299.07 124.18 297.77 132.57 290.67 131.13
  A 0.66 0.66 0.0 0 0 289.88 131.79
  L 290.03 139.85
  Z"
/>
<path fill="#e9eded" d="
  M 157.08 139.89
  L 157.02 147.01
  L 156.98 154.88
  Q 156.97 155.72 157.76 156.00
  C 193.35 168.48 203.21 210.36 177.56 237.88
  L 169.13 244.44
  C 126.92 270.45 78.53 226.25 98.49 181.98
  C 104.22 169.27 115.11 161.01 128.35 155.88
  Q 128.92 155.66 128.92 155.04
  L 128.91 132.03
  Q 128.91 131.42 128.31 131.31
  C 125.26 130.72 121.12 131.46 122.35 126.56
  Q 122.85 124.54 125.25 124.49
  Q 142.48 124.14 159.70 124.27
  C 160.66 124.28 161.52 124.61 162.41 124.92
  Q 162.87 125.09 163.13 125.50
  C 165.99 130.16 160.91 131.16 157.66 131.26
  Q 157.06 131.28 157.06 131.88
  L 157.08 139.89
  Z
  M 149.87 169.70
  A 3.42 3.42 0.0 0 0 146.45 166.28
  A 3.42 3.42 0.0 0 0 143.03 169.70
  A 3.42 3.42 0.0 0 0 146.45 173.12
  A 3.42 3.42 0.0 0 0 149.87 169.70
  Z
  M 135.89 185.44
  A 5.19 5.19 0.0 0 0 130.70 180.25
  A 5.19 5.19 0.0 0 0 125.51 185.44
  A 5.19 5.19 0.0 0 0 130.70 190.63
  A 5.19 5.19 0.0 0 0 135.89 185.44
  Z
  M 134.06 244.00
  C 159.99 249.40 184.80 230.26 184.98 203.15
  Q 184.98 202.60 184.43 202.61
  C 181.37 202.68 178.29 202.94 175.35 202.49
  C 168.32 201.41 160.57 199.54 154.08 199.57
  C 145.08 199.61 135.58 203.98 129.24 205.24
  Q 115.20 208.03 101.55 203.54
  Q 101.01 203.36 101.02 203.93
  C 101.39 223.37 115.37 240.11 134.06 244.00
  Z"
/>
<path fill="#2b4255" d="
  M 198.75 139.84
  L 234.23 139.86
  L 254.57 139.85
  L 290.03 139.85
  Q 303.97 141.39 303.97 155.00
  Q 303.97 190.79 303.96 226.60
  C 303.95 234.12 303.30 239.70 296.69 243.20
  C 291.62 245.89 282.66 245.04 276.65 244.91
  A 0.90 0.90 0.0 0 0 275.78 246.08
  C 276.97 249.85 274.96 251.90 271.19 252.02
  Q 266.04 252.19 264.26 251.78
  C 261.71 251.18 262.00 247.42 261.76 245.44
  Q 261.71 244.98 261.24 244.98
  L 185.56 244.92
  Q 185.11 244.92 185.07 245.37
  C 184.83 248.09 185.63 251.77 181.51 251.92
  C 175.95 252.12 170.62 253.93 171.04 245.82
  Q 171.07 245.27 170.51 245.23
  Q 169.32 245.14 169.13 244.44
  L 177.56 237.88
  Q 232.74 237.87 287.36 237.87
  C 292.38 237.87 296.97 236.72 296.97 231.00
  Q 296.97 193.77 296.97 156.57
  C 296.97 151.23 295.79 147.24 289.88 147.04
  L 254.81 147.02
  L 233.99 147.02
  L 199.04 147.00
  L 157.02 147.01
  L 157.08 139.89
  L 198.75 139.84
  Z"
/>
<path fill="#ffa40b" d="
  M 157.02 147.01
  L 199.04 147.00
  Q 198.83 174.42 199.00 201.74
  Q 199.05 208.38 200.38 211.56
  C 203.18 218.23 210.44 222.68 217.64 222.11
  C 227.12 221.35 234.00 213.64 233.99 203.99
  Q 233.96 175.60 233.99 147.02
  L 254.81 147.02
  Q 254.79 174.84 254.80 202.50
  Q 254.80 211.07 259.62 216.44
  C 268.18 225.97 284.17 222.83 288.59 211.16
  Q 289.93 207.62 289.90 198.18
  Q 289.84 172.81 289.88 147.04
  C 295.79 147.24 296.97 151.23 296.97 156.57
  Q 296.97 193.77 296.97 231.00
  C 296.97 236.72 292.38 237.87 287.36 237.87
  Q 232.74 237.87 177.56 237.88
  C 203.21 210.36 193.35 168.48 157.76 156.00
  Q 156.97 155.72 156.98 154.88
  L 157.02 147.01
  Z"
/>
<path fill="#e9eded" d="
  M 199.04 147.00
  L 233.99 147.02
  Q 233.96 175.60 233.99 203.99
  C 234.00 213.64 227.12 221.35 217.64 222.11
  C 210.44 222.68 203.18 218.23 200.38 211.56
  Q 199.05 208.38 199.00 201.74
  Q 198.83 174.42 199.04 147.00
  Z
  M 211.93 214.08
  C 219.40 217.65 226.97 212.08 226.97 203.99
  Q 226.98 180.59 227.01 173.96
  Q 227.01 173.23 226.36 173.56
  C 218.77 177.37 214.61 168.94 206.50 172.73
  A 0.79 0.79 0.0 0 0 206.04 173.45
  Q 205.92 187.62 206.02 201.70
  C 206.06 207.48 206.73 211.60 211.93 214.08
  Z"
/>
<path fill="#e9eded" d="
  M 254.81 147.02
  L 289.88 147.04
  Q 289.84 172.81 289.90 198.18
  Q 289.93 207.62 288.59 211.16
  C 284.17 222.83 268.18 225.97 259.62 216.44
  Q 254.80 211.07 254.80 202.50
  Q 254.79 174.84 254.81 147.02
  Z
  M 282.09 173.77
  C 274.96 176.32 273.57 171.74 267.49 171.67
  Q 264.98 171.64 262.71 172.54
  A 1.48 1.47 -10.9 0 0 261.78 173.91
  Q 261.75 189.01 261.91 204.25
  C 262.00 213.49 271.45 218.51 278.90 212.65
  Q 282.76 209.62 282.77 205.75
  Q 282.85 189.79 282.77 174.25
  Q 282.77 173.52 282.09 173.77
  Z"
/>
<circle fill="#4bbfeb" cx="146.45" cy="169.70" r="3.42"/>
<path fill="#f05542" d="
  M 211.93 214.08
  C 206.73 211.60 206.06 207.48 206.02 201.70
  Q 205.92 187.62 206.04 173.45
  A 0.79 0.79 0.0 0 1 206.50 172.73
  C 214.61 168.94 218.77 177.37 226.36 173.56
  Q 227.01 173.23 227.01 173.96
  Q 226.98 180.59 226.97 203.99
  C 226.97 212.08 219.40 217.65 211.93 214.08
  Z"
/>
<path fill="#25b39e" d="
  M 282.09 173.77
  Q 282.77 173.52 282.77 174.25
  Q 282.85 189.79 282.77 205.75
  Q 282.76 209.62 278.90 212.65
  C 271.45 218.51 262.00 213.49 261.91 204.25
  Q 261.75 189.01 261.78 173.91
  A 1.48 1.47 -10.9 0 1 262.71 172.54
  Q 264.98 171.64 267.49 171.67
  C 273.57 171.74 274.96 176.32 282.09 173.77
  Z"
/>
<circle fill="#4bbfeb" cx="130.70" cy="185.44" r="5.19"/>
<path fill="#4bbfeb" d="
  M 184.98 203.15
  C 184.80 230.26 159.99 249.40 134.06 244.00
  C 115.37 240.11 101.39 223.37 101.02 203.93
  Q 101.01 203.36 101.55 203.54
  Q 115.20 208.03 129.24 205.24
  C 135.58 203.98 145.08 199.61 154.08 199.57
  C 160.57 199.54 168.32 201.41 175.35 202.49
  C 178.29 202.94 181.37 202.68 184.43 202.61
  Q 184.98 202.60 184.98 203.15
  Z"
/>
</svg>
