<?xml version="1.0" encoding="UTF-8" standalone="no"?>
<!DOCTYPE svg PUBLIC "-//W3C//DTD SVG 1.1//EN" "http://www.w3.org/Graphics/SVG/1.1/DTD/svg11.dtd">
<svg xmlns="http://www.w3.org/2000/svg" version="1.1" viewBox="0.00 0.00 195.00 220.00">
<g stroke-width="2.00" fill="none" stroke-linecap="butt">
<path stroke="#938f8a" vector-effect="non-scaling-stroke" d="
  M 52.09 71.46
  Q 51.24 72.29 49.99 72.63"
/>
<path stroke="#fde4d0" vector-effect="non-scaling-stroke" d="
  M 49.99 72.63
  Q 45.45 70.76 43.15 73.79
  Q 41.77 75.60 41.40 79.45
  Q 40.32 90.57 47.21 100.79
  Q 49.06 103.52 52.23 103.25"
/>
<path stroke="#b49d88" vector-effect="non-scaling-stroke" d="
  M 52.23 103.25
  C 52.92 118.36 60.36 128.34 70.69 138.58
  C 72.77 140.64 75.62 142.86 78.05 145.19"
/>
<path stroke="#aaa9aa" vector-effect="non-scaling-stroke" d="
  M 78.05 145.19
  C 65.78 146.07 56.37 153.42 51.98 164.75
  Q 51.80 165.21 51.31 165.29
  Q 39.99 167.17 37.10 177.64
  Q 32.15 195.58 47.34 206.49
  Q 47.80 206.82 47.27 207.03
  L 39.23 210.16"
/>
<path stroke="#ededed" vector-effect="non-scaling-stroke" d="
  M 39.23 210.16
  L 36.06 210.19
  A 1.62 1.61 -12.0 0 0 34.59 212.45
  Q 35.90 215.48 40.03 211.84"
/>
<path stroke="#aaa9aa" vector-effect="non-scaling-stroke" d="
  M 40.03 211.84
  Q 44.83 210.90 49.38 208.50
  A 1.05 1.02 -44.7 0 1 50.33 208.49
  Q 55.28 210.96 60.55 211.95"
/>
<path stroke="#ededed" vector-effect="non-scaling-stroke" d="
  M 60.55 211.95
  Q 62.37 214.39 64.92 213.89
  Q 66.29 213.62 65.96 212.26
  L 65.70 211.21
  Q 65.34 209.75 63.85 209.98
  Q 62.28 210.23 60.77 209.92"
/>
<path stroke="#aaa9aa" vector-effect="non-scaling-stroke" d="
  M 60.77 209.92
  L 52.80 207.06
  Q 52.25 206.86 52.77 206.58
  Q 62.21 201.45 65.21 190.98"
/>
<path stroke="#ededed" vector-effect="non-scaling-stroke" d="
  M 65.21 190.98
  Q 69.29 193.17 72.18 197.09
  A 2.70 2.68 -55.6 0 1 72.61 199.43
  C 70.84 205.71 74.15 209.43 77.13 214.50
  Q 77.39 214.94 77.90 214.93
  L 90.29 214.71"
/>
<path stroke="#8fb8db" vector-effect="non-scaling-stroke" d="
  M 90.29 214.71
  Q 91.02 214.80 91.34 214.97"
/>
<path stroke="#9d9e9f" vector-effect="non-scaling-stroke" d="
  M 91.34 214.97
  L 106.02 214.90"
/>
<path stroke="#8fb8db" vector-effect="non-scaling-stroke" d="
  M 106.02 214.90
  Q 107.36 215.18 107.56 214.50
  Q 111.85 199.83 119.19 171.59"
/>
<path stroke="#9dc8e5" vector-effect="non-scaling-stroke" d="
  M 119.19 171.59
  Q 120.43 166.87 122.03 161.55
  C 123.16 157.81 122.81 154.67 122.50 150.92
  Q 122.46 150.38 121.92 150.38
  Q 120.99 150.38 119.84 151.23"
/>
<path stroke="#fde4d0" vector-effect="non-scaling-stroke" d="
  M 119.84 151.23
  Q 118.96 148.16 121.43 147.15"
/>
<path stroke="#b7b6b7" vector-effect="non-scaling-stroke" d="
  M 121.43 147.15
  C 132.43 148.87 140.43 155.74 143.46 166.49"
/>
<path stroke="#ededed" vector-effect="non-scaling-stroke" d="
  M 143.46 166.49
  L 129.67 163.55
  A 0.20 0.20 0.0 0 0 129.45 163.82
  C 131.12 167.81 131.65 172.78 132.48 176.05
  Q 133.74 181.00 134.74 186.07
  A 2.92 2.91 -28.0 0 1 133.93 188.70
  L 126.29 196.26
  A 2.22 2.22 0.0 0 0 125.93 198.94
  Q 127.21 201.16 128.31 203.40
  Q 129.25 205.32 128.65 206.25
  Q 125.95 210.43 123.29 214.34
  A 0.60 0.59 16.8 0 0 123.79 215.27
  L 184.80 214.89
  Q 185.43 214.89 185.32 214.27
  C 185.11 213.02 184.27 211.48 184.04 210.55
  Q 181.15 198.62 177.18 187.01
  C 174.28 178.52 172.20 172.49 163.48 170.59
  Q 152.35 168.16 146.32 167.41"
/>
<path stroke="#b7b6b7" vector-effect="non-scaling-stroke" d="
  M 146.32 167.41
  Q 142.96 153.39 130.42 147.18
  C 127.31 145.64 123.66 144.95 120.12 144.13"
/>
<path stroke="#b49d88" vector-effect="non-scaling-stroke" d="
  M 120.12 144.13
  Q 121.30 143.51 122.11 142.84
  Q 131.93 134.72 139.04 124.24
  C 143.55 117.59 144.22 112.01 145.49 104.31"
/>
<path stroke="#fde4d0" vector-effect="non-scaling-stroke" d="
  M 145.49 104.31
  Q 149.40 103.20 151.22 100.51
  C 156.16 93.17 158.72 84.71 156.41 75.90
  C 155.96 74.18 154.27 72.43 152.35 72.12
  Q 149.64 71.67 147.64 72.63"
/>
<path stroke="#938f8a" vector-effect="non-scaling-stroke" d="
  M 147.64 72.63
  Q 146.01 72.40 145.80 71.26"
/>
<path stroke="#b49d88" vector-effect="non-scaling-stroke" d="
  M 145.80 71.26
  Q 145.75 54.59 143.64 38.02
  Q 142.68 30.50 141.73 27.74
  C 137.59 15.77 127.51 7.29 115.50 4.45
  Q 108.44 2.79 96.93 3.02
  Q 68.38 3.61 47.11 23.65
  A 0.38 0.37 42.2 0 0 47.14 24.22
  C 54.81 30.03 52.37 51.31 52.27 59.68
  Q 52.19 65.75 52.09 71.46"
/>
<path stroke="#472d13" vector-effect="non-scaling-stroke" d="
  M 145.80 71.26
  Q 143.79 71.40 143.19 72.75
  Q 142.47 74.38 139.99 75.60"
/>
<path stroke="#b28259" vector-effect="non-scaling-stroke" d="
  M 139.99 75.60
  Q 138.97 62.65 136.21 51.56
  Q 135.18 47.44 132.77 44.00
  C 127.14 35.93 113.85 40.96 106.16 41.52
  Q 93.30 42.46 80.84 39.00
  C 69.11 35.75 62.37 47.12 60.25 56.50
  Q 58.83 62.79 57.55 74.61"
/>
<path stroke="#472d13" vector-effect="non-scaling-stroke" d="
  M 57.55 74.61
  L 52.09 71.46"
/>
<path stroke="#91745a" vector-effect="non-scaling-stroke" d="
  M 147.64 72.63
  L 145.15 76.10"
/>
<path stroke="#472d13" vector-effect="non-scaling-stroke" d="
  M 145.15 76.10
  L 141.25 80.27"
/>
<path stroke="#91745a" vector-effect="non-scaling-stroke" d="
  M 141.25 80.27
  Q 140.29 79.64 139.80 81.51
  C 138.75 85.50 136.58 94.01 132.17 95.43
  C 127.10 97.06 114.17 98.10 109.77 93.46
  C 107.15 90.71 106.49 86.92 105.71 83.39
  A 1.91 1.89 -82.1 0 0 104.78 82.15
  Q 98.80 78.83 92.97 82.26
  C 91.36 83.20 90.98 86.25 90.17 88.71
  C 87.81 95.90 82.96 96.64 76.05 96.60
  C 69.92 96.56 62.99 96.82 60.30 89.71
  Q 58.67 85.40 57.68 80.88
  Q 57.60 80.49 57.21 80.40
  Q 56.96 80.34 56.86 80.56"
/>
<path stroke="#472d13" vector-effect="non-scaling-stroke" d="
  M 56.86 80.56
  Q 56.37 80.65 56.04 80.49
  Q 55.78 80.38 55.58 79.90
  Q 54.42 77.17 52.47 76.66"
/>
<path stroke="#91745a" vector-effect="non-scaling-stroke" d="
  M 52.47 76.66
  Q 52.18 75.26 49.99 72.63"
/>
<path stroke="#91745a" vector-effect="non-scaling-stroke" d="
  M 139.99 75.60
  Q 139.36 77.47 134.97 76.30
  C 128.96 74.70 121.99 75.07 115.81 75.31
  C 112.07 75.46 108.44 76.62 104.71 77.41
  A 1.27 1.26 -78.0 0 0 103.93 77.92
  Q 103.55 78.46 102.99 78.33
  Q 98.37 77.21 94.66 78.51
  Q 94.13 78.69 93.72 78.32
  L 93.03 77.69
  A 1.27 1.16 70.3 0 0 92.54 77.43
  C 89.57 76.64 86.81 75.61 83.80 75.35
  Q 71.14 74.24 58.40 76.83
  A 0.76 0.76 0.0 0 1 57.50 76.22
  Q 57.36 75.45 57.55 74.61"
/>
<path stroke="#b28259" vector-effect="non-scaling-stroke" d="
  M 52.47 76.66
  Q 51.63 90.57 52.23 103.25"
/>
<path stroke="#6c5440" vector-effect="non-scaling-stroke" d="
  M 120.12 144.13
  L 118.89 145.41"
/>
<path stroke="#b28259" vector-effect="non-scaling-stroke" d="
  M 118.89 145.41
  C 106.86 155.12 91.59 154.83 79.35 146.05"
/>
<path stroke="#5e4733" vector-effect="non-scaling-stroke" d="
  M 79.35 146.05
  L 78.05 145.19"
/>
<path stroke="#b28259" vector-effect="non-scaling-stroke" d="
  M 56.86 80.56
  C 56.28 89.08 54.40 112.55 66.74 115.06
  C 71.29 115.98 72.55 115.51 75.82 112.03
  C 81.25 106.24 90.52 101.47 98.35 105.49
  A 1.05 1.04 -42.7 0 0 99.25 105.52
  C 107.76 101.90 116.70 106.10 122.56 112.50
  C 125.16 115.34 127.12 116.23 130.76 115.21
  C 143.02 111.78 141.78 92.19 141.25 80.27"
/>
<path stroke="#b28259" vector-effect="non-scaling-stroke" d="
  M 145.49 104.31
  Q 146.79 90.84 145.15 76.10"
/>
<path stroke="#9badb6" vector-effect="non-scaling-stroke" d="
  M 119.84 151.23
  L 99.30 164.58
  A 0.38 0.37 -45.7 0 1 98.90 164.59
  L 78.25 151.34"
/>
<path stroke="#fde4d0" vector-effect="non-scaling-stroke" d="
  M 78.25 151.34
  Q 79.11 147.50 76.78 147.78"
/>
<path stroke="#a88e7a" vector-effect="non-scaling-stroke" d="
  M 79.35 146.05
  Q 77.73 148.54 76.78 147.78"
/>
<path stroke="#aaa9aa" vector-effect="non-scaling-stroke" d="
  M 76.78 147.78
  Q 60.64 150.07 54.70 165.00
  Q 54.50 165.51 55.02 165.67
  Q 62.38 168.05 64.63 176.52"
/>
<path stroke="#979797" vector-effect="non-scaling-stroke" d="
  M 64.63 176.52
  Q 66.30 183.55 65.21 190.98"
/>
<path stroke="#979797" vector-effect="non-scaling-stroke" d="
  M 60.77 209.92
  Q 61.51 210.87 60.55 211.95"
/>
<path stroke="#979797" vector-effect="non-scaling-stroke" d="
  M 40.03 211.84
  Q 39.11 211.60 39.23 210.16"
/>
<path stroke="#a5a4a4" vector-effect="non-scaling-stroke" d="
  M 146.32 167.41
  Q 148.11 177.38 147.44 186.67
  A 1.37 1.36 -76.6 0 0 148.27 188.03
  Q 149.97 188.73 151.85 189.94
  C 158.43 194.21 157.52 203.34 151.27 207.31
  C 144.46 211.62 135.73 206.29 135.74 198.24
  C 135.75 192.34 139.00 190.28 143.80 188.00
  A 1.49 1.47 -10.7 0 0 144.64 186.79
  Q 145.47 176.13 143.46 166.49"
/>
<path stroke="#b59b87" vector-effect="non-scaling-stroke" d="
  M 121.43 147.15
  L 118.89 145.41"
/>
<path stroke="#2d81c1" vector-effect="non-scaling-stroke" d="
  M 119.19 171.59
  L 113.58 177.89
  A 0.94 0.92 26.7 0 1 112.68 178.18
  Q 110.18 177.59 109.04 175.89"
/>
<path stroke="#2c5874" vector-effect="non-scaling-stroke" d="
  M 109.04 175.89
  L 99.38 166.04
  Q 98.95 165.60 98.52 166.05
  L 88.87 176.24"
/>
<path stroke="#2d81c1" vector-effect="non-scaling-stroke" d="
  M 88.87 176.24
  L 86.04 177.95
  Q 84.97 178.60 84.21 177.59
  L 80.03 172.05
  A 0.59 0.58 64.0 0 0 79.40 171.83
  Q 78.64 172.04 78.97 172.46"
/>
<path stroke="#8bb6d3" vector-effect="non-scaling-stroke" d="
  M 78.97 172.46
  L 75.07 155.97"
/>
<path stroke="#9dc8e5" vector-effect="non-scaling-stroke" d="
  M 78.25 151.34
  Q 77.44 150.66 76.40 150.59
  A 0.84 0.84 0.0 0 0 75.50 151.35
  L 75.07 155.97"
/>
<path stroke="#ededed" vector-effect="non-scaling-stroke" d="
  M 75.07 155.97
  Q 72.58 158.17 69.88 160.78
  C 69.01 161.62 68.22 163.46 68.02 164.65
  C 67.50 167.88 66.23 170.76 65.71 173.92
  Q 65.45 175.49 64.63 176.52"
/>
<path stroke="#7ca6c8" vector-effect="non-scaling-stroke" d="
  M 78.97 172.46
  L 90.29 214.71"
/>
<path stroke="#1d4869" vector-effect="non-scaling-stroke" d="
  M 109.04 175.89
  Q 106.50 180.18 102.78 183.19"
/>
<path stroke="#2b2e2d" vector-effect="non-scaling-stroke" d="
  M 102.78 183.19
  L 95.39 183.43"
/>
<path stroke="#1d4869" vector-effect="non-scaling-stroke" d="
  M 95.39 183.43
  L 88.87 176.24"
/>
<path stroke="#2c577a" vector-effect="non-scaling-stroke" d="
  M 95.39 183.43
  Q 93.79 198.01 93.73 201.75
  C 93.65 205.76 94.09 210.56 92.58 213.05
  Q 92.03 213.95 91.34 214.97"
/>
<path stroke="#2c577a" vector-effect="non-scaling-stroke" d="
  M 106.02 214.90
  L 106.45 214.71
  Q 106.56 214.66 106.37 214.00
  Q 106.32 213.82 106.13 213.77
  Q 105.76 213.68 105.72 213.29
  L 102.78 183.19"
/>
<path stroke="#b28259" vector-effect="non-scaling-stroke" d="
  M 78.08 71.80
  C 81.30 72.08 86.20 74.34 88.09 73.88
  Q 89.81 73.47 88.48 72.31
  C 85.06 69.33 83.37 66.90 78.43 66.26
  C 72.76 65.53 66.02 69.51 62.36 73.69
  Q 60.25 76.10 63.09 74.62
  C 67.35 72.40 73.09 71.36 78.08 71.80"
/>
<path stroke="#b28259" vector-effect="non-scaling-stroke" d="
  M 109.24 74.49
  C 119.19 71.57 125.78 70.13 135.85 75.22
  Q 136.57 75.59 136.17 74.89
  C 133.96 71.08 128.13 67.83 124.48 66.79
  C 118.05 64.94 113.40 67.65 109.22 72.48
  Q 108.62 73.17 108.72 74.14
  Q 108.77 74.62 109.24 74.49"
/>
<path stroke="#91745a" vector-effect="non-scaling-stroke" d="
  M 74.71 88.34
  C 72.36 86.41 71.70 81.60 75.01 79.73
  Q 77.66 78.23 74.62 78.32
  Q 67.34 78.52 60.18 80.01
  Q 59.71 80.11 59.75 80.59
  Q 60.22 86.86 63.55 92.16
  A 2.94 2.93 -8.4 0 0 65.27 93.43
  C 72.11 95.28 76.71 96.54 83.52 94.05
  C 89.21 91.98 89.23 85.55 90.37 80.85
  Q 90.51 80.26 89.92 80.14
  L 81.21 78.33
  Q 80.85 78.26 80.72 78.59
  Q 80.64 78.80 80.71 78.97
  C 80.95 79.53 82.71 79.96 83.20 80.98
  C 86.00 86.80 79.44 92.24 74.71 88.34"
/>
<path stroke="#91745a" vector-effect="non-scaling-stroke" d="
  M 117.17 78.79
  Q 112.01 78.89 107.33 80.38
  Q 106.86 80.53 107.05 80.99
  Q 107.51 82.07 107.53 83.25
  C 107.66 94.53 117.54 97.08 126.70 94.91
  C 130.13 94.10 134.50 93.40 135.58 89.26
  Q 136.70 84.97 138.10 80.74
  Q 138.26 80.26 137.76 80.16
  Q 129.78 78.53 121.21 78.55"
/>
<path stroke="#342417" vector-effect="non-scaling-stroke" d="
  M 121.21 78.55
  Q 119.48 78.23 117.17 78.79"
/>
<path stroke="#9e7a5d" vector-effect="non-scaling-stroke" d="
  M 121.21 78.55
  Q 127.54 82.41 123.72 87.48
  C 119.11 93.60 108.25 85.04 117.17 78.79"
/>
<path stroke="#a15e34" vector-effect="non-scaling-stroke" d="
  M 116.02 114.73
  Q 112.06 111.55 106.57 112.14"
/>
<path stroke="#b28259" vector-effect="non-scaling-stroke" d="
  M 106.57 112.14
  L 99.10 110.52
  Q 98.61 110.41 98.14 110.59
  C 94.40 112.01 90.87 112.12 86.93 112.50
  C 84.89 112.69 82.05 114.03 81.04 115.87
  C 76.94 123.30 85.46 129.84 91.61 131.93
  A 1.42 1.37 44.0 0 0 92.50 131.93
  Q 96.34 130.66 98.44 127.20
  A 0.51 0.51 0.0 0 1 99.30 127.19
  C 100.41 128.90 104.05 132.70 106.38 131.88
  C 113.15 129.51 121.55 122.76 116.02 114.73"
/>
<path stroke="#eaa57b" vector-effect="non-scaling-stroke" d="
  M 106.57 112.14
  Q 107.46 112.11 107.73 112.82
  A 0.65 0.65 0.0 0 1 107.17 113.69
  C 104.26 113.86 101.42 114.51 98.59 114.39
  Q 92.92 114.16 86.91 113.83
  A 2.02 1.95 -54.5 0 0 86.04 113.99
  Q 82.52 115.50 86.00 118.51
  C 89.54 121.58 93.46 124.44 98.19 124.82
  Q 107.09 125.55 113.28 118.53
  Q 114.41 117.25 116.02 114.73"
/>
<path stroke="#ecc0ab" vector-effect="non-scaling-stroke" d="
  M 111.81 116.22
  C 103.88 117.10 94.93 117.07 87.17 115.64
  Q 85.20 115.28 86.58 116.73
  C 91.46 121.84 100.69 122.47 106.84 120.14
  C 109.23 119.23 110.87 118.69 112.20 116.90
  A 0.43 0.43 0.0 0 0 111.81 116.22"
/>
<path stroke="#b7b6b7" vector-effect="non-scaling-stroke" d="
  M 150.99 198.36
  A 4.92 4.92 0.0 0 0 146.07 193.44
  A 4.92 4.92 0.0 0 0 141.15 198.36
  A 4.92 4.92 0.0 0 0 146.07 203.28
  A 4.92 4.92 0.0 0 0 150.99 198.36"
/>
<path stroke="#aaa9aa" vector-effect="non-scaling-stroke" d="
  M 50.35 205.16
  Q 58.00 201.61 61.41 194.56
  C 64.25 188.69 63.86 177.17 59.96 171.99
  C 55.56 166.13 48.42 166.84 43.49 171.38
  C 38.96 175.54 37.75 182.52 38.35 188.42
  C 39.06 195.56 43.45 201.32 49.36 205.10
  Q 49.83 205.40 50.35 205.16"
/>
</g>
<path fill="#ffffff" d="
  M 0.00 0.00
  L 195.00 0.00
  L 195.00 220.00
  L 0.00 220.00
  L 0.00 0.00
  Z
  M 52.09 71.46
  Q 51.24 72.29 49.99 72.63
  Q 45.45 70.76 43.15 73.79
  Q 41.77 75.60 41.40 79.45
  Q 40.32 90.57 47.21 100.79
  Q 49.06 103.52 52.23 103.25
  C 52.92 118.36 60.36 128.34 70.69 138.58
  C 72.77 140.64 75.62 142.86 78.05 145.19
  C 65.78 146.07 56.37 153.42 51.98 164.75
  Q 51.80 165.21 51.31 165.29
  Q 39.99 167.17 37.10 177.64
  Q 32.15 195.58 47.34 206.49
  Q 47.80 206.82 47.27 207.03
  L 39.23 210.16
  L 36.06 210.19
  A 1.62 1.61 -12.0 0 0 34.59 212.45
  Q 35.90 215.48 40.03 211.84
  Q 44.83 210.90 49.38 208.50
  A 1.05 1.02 -44.7 0 1 50.33 208.49
  Q 55.28 210.96 60.55 211.95
  Q 62.37 214.39 64.92 213.89
  Q 66.29 213.62 65.96 212.26
  L 65.70 211.21
  Q 65.34 209.75 63.85 209.98
  Q 62.28 210.23 60.77 209.92
  L 52.80 207.06
  Q 52.25 206.86 52.77 206.58
  Q 62.21 201.45 65.21 190.98
  Q 69.29 193.17 72.18 197.09
  A 2.70 2.68 -55.6 0 1 72.61 199.43
  C 70.84 205.71 74.15 209.43 77.13 214.50
  Q 77.39 214.94 77.90 214.93
  L 90.29 214.71
  Q 91.02 214.80 91.34 214.97
  L 106.02 214.90
  Q 107.36 215.18 107.56 214.50
  Q 111.85 199.83 119.19 171.59
  Q 120.43 166.87 122.03 161.55
  C 123.16 157.81 122.81 154.67 122.50 150.92
  Q 122.46 150.38 121.92 150.38
  Q 120.99 150.38 119.84 151.23
  Q 118.96 148.16 121.43 147.15
  C 132.43 148.87 140.43 155.74 143.46 166.49
  L 129.67 163.55
  A 0.20 0.20 0.0 0 0 129.45 163.82
  C 131.12 167.81 131.65 172.78 132.48 176.05
  Q 133.74 181.00 134.74 186.07
  A 2.92 2.91 -28.0 0 1 133.93 188.70
  L 126.29 196.26
  A 2.22 2.22 0.0 0 0 125.93 198.94
  Q 127.21 201.16 128.31 203.40
  Q 129.25 205.32 128.65 206.25
  Q 125.95 210.43 123.29 214.34
  A 0.60 0.59 16.8 0 0 123.79 215.27
  L 184.80 214.89
  Q 185.43 214.89 185.32 214.27
  C 185.11 213.02 184.27 211.48 184.04 210.55
  Q 181.15 198.62 177.18 187.01
  C 174.28 178.52 172.20 172.49 163.48 170.59
  Q 152.35 168.16 146.32 167.41
  Q 142.96 153.39 130.42 147.18
  C 127.31 145.64 123.66 144.95 120.12 144.13
  Q 121.30 143.51 122.11 142.84
  Q 131.93 134.72 139.04 124.24
  C 143.55 117.59 144.22 112.01 145.49 104.31
  Q 149.40 103.20 151.22 100.51
  C 156.16 93.17 158.72 84.71 156.41 75.90
  C 155.96 74.18 154.27 72.43 152.35 72.12
  Q 149.64 71.67 147.64 72.63
  Q 146.01 72.40 145.80 71.26
  Q 145.75 54.59 143.64 38.02
  Q 142.68 30.50 141.73 27.74
  C 137.59 15.77 127.51 7.29 115.50 4.45
  Q 108.44 2.79 96.93 3.02
  Q 68.38 3.61 47.11 23.65
  A 0.38 0.37 42.2 0 0 47.14 24.22
  C 54.81 30.03 52.37 51.31 52.27 59.68
  Q 52.19 65.75 52.09 71.46
  Z"
/>
<path fill="#683b11" d="
  M 145.80 71.26
  Q 143.79 71.40 143.19 72.75
  Q 142.47 74.38 139.99 75.60
  Q 138.97 62.65 136.21 51.56
  Q 135.18 47.44 132.77 44.00
  C 127.14 35.93 113.85 40.96 106.16 41.52
  Q 93.30 42.46 80.84 39.00
  C 69.11 35.75 62.37 47.12 60.25 56.50
  Q 58.83 62.79 57.55 74.61
  L 52.09 71.46
  Q 52.19 65.75 52.27 59.68
  C 52.37 51.31 54.81 30.03 47.14 24.22
  A 0.38 0.37 42.2 0 1 47.11 23.65
  Q 68.38 3.61 96.93 3.02
  Q 108.44 2.79 115.50 4.45
  C 127.51 7.29 137.59 15.77 141.73 27.74
  Q 142.68 30.50 143.64 38.02
  Q 145.75 54.59 145.80 71.26
  Z"
/>
<path fill="#fbc9a0" d="
  M 139.99 75.60
  Q 139.36 77.47 134.97 76.30
  C 128.96 74.70 121.99 75.07 115.81 75.31
  C 112.07 75.46 108.44 76.62 104.71 77.41
  A 1.27 1.26 -78.0 0 0 103.93 77.92
  Q 103.55 78.46 102.99 78.33
  Q 98.37 77.21 94.66 78.51
  Q 94.13 78.69 93.72 78.32
  L 93.03 77.69
  A 1.27 1.16 70.3 0 0 92.54 77.43
  C 89.57 76.64 86.81 75.61 83.80 75.35
  Q 71.14 74.24 58.40 76.83
  A 0.76 0.76 0.0 0 1 57.50 76.22
  Q 57.36 75.45 57.55 74.61
  Q 58.83 62.79 60.25 56.50
  C 62.37 47.12 69.11 35.75 80.84 39.00
  Q 93.30 42.46 106.16 41.52
  C 113.85 40.96 127.14 35.93 132.77 44.00
  Q 135.18 47.44 136.21 51.56
  Q 138.97 62.65 139.99 75.60
  Z
  M 78.08 71.80
  C 81.30 72.08 86.20 74.34 88.09 73.88
  Q 89.81 73.47 88.48 72.31
  C 85.06 69.33 83.37 66.90 78.43 66.26
  C 72.76 65.53 66.02 69.51 62.36 73.69
  Q 60.25 76.10 63.09 74.62
  C 67.35 72.40 73.09 71.36 78.08 71.80
  Z
  M 109.24 74.49
  C 119.19 71.57 125.78 70.13 135.85 75.22
  Q 136.57 75.59 136.17 74.89
  C 133.96 71.08 128.13 67.83 124.48 66.79
  C 118.05 64.94 113.40 67.65 109.22 72.48
  Q 108.62 73.17 108.72 74.14
  Q 108.77 74.62 109.24 74.49
  Z"
/>
<path fill="#683b11" d="
  M 78.08 71.80
  C 73.09 71.36 67.35 72.40 63.09 74.62
  Q 60.25 76.10 62.36 73.69
  C 66.02 69.51 72.76 65.53 78.43 66.26
  C 83.37 66.90 85.06 69.33 88.48 72.31
  Q 89.81 73.47 88.09 73.88
  C 86.20 74.34 81.30 72.08 78.08 71.80
  Z"
/>
<path fill="#683b11" d="
  M 135.85 75.22
  C 125.78 70.13 119.19 71.57 109.24 74.49
  Q 108.77 74.62 108.72 74.14
  Q 108.62 73.17 109.22 72.48
  C 113.40 67.65 118.05 64.94 124.48 66.79
  C 128.13 67.83 133.96 71.08 136.17 74.89
  Q 136.57 75.59 135.85 75.22
  Z"
/>
<path fill="#261e14" d="
  M 145.80 71.26
  Q 146.01 72.40 147.64 72.63
  L 145.15 76.10
  L 141.25 80.27
  Q 140.29 79.64 139.80 81.51
  C 138.75 85.50 136.58 94.01 132.17 95.43
  C 127.10 97.06 114.17 98.10 109.77 93.46
  C 107.15 90.71 106.49 86.92 105.71 83.39
  A 1.91 1.89 -82.1 0 0 104.78 82.15
  Q 98.80 78.83 92.97 82.26
  C 91.36 83.20 90.98 86.25 90.17 88.71
  C 87.81 95.90 82.96 96.64 76.05 96.60
  C 69.92 96.56 62.99 96.82 60.30 89.71
  Q 58.67 85.40 57.68 80.88
  Q 57.60 80.49 57.21 80.40
  Q 56.96 80.34 56.86 80.56
  Q 56.37 80.65 56.04 80.49
  Q 55.78 80.38 55.58 79.90
  Q 54.42 77.17 52.47 76.66
  Q 52.18 75.26 49.99 72.63
  Q 51.24 72.29 52.09 71.46
  L 57.55 74.61
  Q 57.36 75.45 57.50 76.22
  A 0.76 0.76 0.0 0 0 58.40 76.83
  Q 71.14 74.24 83.80 75.35
  C 86.81 75.61 89.57 76.64 92.54 77.43
  A 1.27 1.16 70.3 0 1 93.03 77.69
  L 93.72 78.32
  Q 94.13 78.69 94.66 78.51
  Q 98.37 77.21 102.99 78.33
  Q 103.55 78.46 103.93 77.92
  A 1.27 1.26 -78.0 0 1 104.71 77.41
  C 108.44 76.62 112.07 75.46 115.81 75.31
  C 121.99 75.07 128.96 74.70 134.97 76.30
  Q 139.36 77.47 139.99 75.60
  Q 142.47 74.38 143.19 72.75
  Q 143.79 71.40 145.80 71.26
  Z
  M 74.71 88.34
  C 72.36 86.41 71.70 81.60 75.01 79.73
  Q 77.66 78.23 74.62 78.32
  Q 67.34 78.52 60.18 80.01
  Q 59.71 80.11 59.75 80.59
  Q 60.22 86.86 63.55 92.16
  A 2.94 2.93 -8.4 0 0 65.27 93.43
  C 72.11 95.28 76.71 96.54 83.52 94.05
  C 89.21 91.98 89.23 85.55 90.37 80.85
  Q 90.51 80.26 89.92 80.14
  L 81.21 78.33
  Q 80.85 78.26 80.72 78.59
  Q 80.64 78.80 80.71 78.97
  C 80.95 79.53 82.71 79.96 83.20 80.98
  C 86.00 86.80 79.44 92.24 74.71 88.34
  Z
  M 117.17 78.79
  Q 112.01 78.89 107.33 80.38
  Q 106.86 80.53 107.05 80.99
  Q 107.51 82.07 107.53 83.25
  C 107.66 94.53 117.54 97.08 126.70 94.91
  C 130.13 94.10 134.50 93.40 135.58 89.26
  Q 136.70 84.97 138.10 80.74
  Q 138.26 80.26 137.76 80.16
  Q 129.78 78.53 121.21 78.55
  Q 119.48 78.23 117.17 78.79
  Z"
/>
<path fill="#fbc9a0" d="
  M 49.99 72.63
  Q 52.18 75.26 52.47 76.66
  Q 51.63 90.57 52.23 103.25
  Q 49.06 103.52 47.21 100.79
  Q 40.32 90.57 41.40 79.45
  Q 41.77 75.60 43.15 73.79
  Q 45.45 70.76 49.99 72.63
  Z"
/>
<path fill="#fbc9a0" d="
  M 145.49 104.31
  Q 146.79 90.84 145.15 76.10
  L 147.64 72.63
  Q 149.64 71.67 152.35 72.12
  C 154.27 72.43 155.96 74.18 156.41 75.90
  C 158.72 84.71 156.16 93.17 151.22 100.51
  Q 149.40 103.20 145.49 104.31
  Z"
/>
<path fill="#683b11" d="
  M 145.15 76.10
  Q 146.79 90.84 145.49 104.31
  C 144.22 112.01 143.55 117.59 139.04 124.24
  Q 131.93 134.72 122.11 142.84
  Q 121.30 143.51 120.12 144.13
  L 118.89 145.41
  C 106.86 155.12 91.59 154.83 79.35 146.05
  L 78.05 145.19
  C 75.62 142.86 72.77 140.64 70.69 138.58
  C 60.36 128.34 52.92 118.36 52.23 103.25
  Q 51.63 90.57 52.47 76.66
  Q 54.42 77.17 55.58 79.90
  Q 55.78 80.38 56.04 80.49
  Q 56.37 80.65 56.86 80.56
  C 56.28 89.08 54.40 112.55 66.74 115.06
  C 71.29 115.98 72.55 115.51 75.82 112.03
  C 81.25 106.24 90.52 101.47 98.35 105.49
  A 1.05 1.04 -42.7 0 0 99.25 105.52
  C 107.76 101.90 116.70 106.10 122.56 112.50
  C 125.16 115.34 127.12 116.23 130.76 115.21
  C 143.02 111.78 141.78 92.19 141.25 80.27
  L 145.15 76.10
  Z
  M 116.02 114.73
  Q 112.06 111.55 106.57 112.14
  L 99.10 110.52
  Q 98.61 110.41 98.14 110.59
  C 94.40 112.01 90.87 112.12 86.93 112.50
  C 84.89 112.69 82.05 114.03 81.04 115.87
  C 76.94 123.30 85.46 129.84 91.61 131.93
  A 1.42 1.37 44.0 0 0 92.50 131.93
  Q 96.34 130.66 98.44 127.20
  A 0.51 0.51 0.0 0 1 99.30 127.19
  C 100.41 128.90 104.05 132.70 106.38 131.88
  C 113.15 129.51 121.55 122.76 116.02 114.73
  Z"
/>
<path fill="#fbc9a0" d="
  M 75.01 79.73
  C 71.70 81.60 72.36 86.41 74.71 88.34
  C 79.44 92.24 86.00 86.80 83.20 80.98
  C 82.71 79.96 80.95 79.53 80.71 78.97
  Q 80.64 78.80 80.72 78.59
  Q 80.85 78.26 81.21 78.33
  L 89.92 80.14
  Q 90.51 80.26 90.37 80.85
  C 89.23 85.55 89.21 91.98 83.52 94.05
  C 76.71 96.54 72.11 95.28 65.27 93.43
  A 2.94 2.93 -8.4 0 1 63.55 92.16
  Q 60.22 86.86 59.75 80.59
  Q 59.71 80.11 60.18 80.01
  Q 67.34 78.52 74.62 78.32
  Q 77.66 78.23 75.01 79.73
  Z"
/>
<path fill="#412a1a" d="
  M 121.21 78.55
  Q 127.54 82.41 123.72 87.48
  C 119.11 93.60 108.25 85.04 117.17 78.79
  Q 119.48 78.23 121.21 78.55
  Z"
/>
<path fill="#fbc9a0" d="
  M 121.21 78.55
  Q 129.78 78.53 137.76 80.16
  Q 138.26 80.26 138.10 80.74
  Q 136.70 84.97 135.58 89.26
  C 134.50 93.40 130.13 94.10 126.70 94.91
  C 117.54 97.08 107.66 94.53 107.53 83.25
  Q 107.51 82.07 107.05 80.99
  Q 106.86 80.53 107.33 80.38
  Q 112.01 78.89 117.17 78.79
  C 108.25 85.04 119.11 93.60 123.72 87.48
  Q 127.54 82.41 121.21 78.55
  Z"
/>
<path fill="#fbc9a0" d="
  M 141.25 80.27
  C 141.78 92.19 143.02 111.78 130.76 115.21
  C 127.12 116.23 125.16 115.34 122.56 112.50
  C 116.70 106.10 107.76 101.90 99.25 105.52
  A 1.05 1.04 -42.7 0 1 98.35 105.49
  C 90.52 101.47 81.25 106.24 75.82 112.03
  C 72.55 115.51 71.29 115.98 66.74 115.06
  C 54.40 112.55 56.28 89.08 56.86 80.56
  Q 56.96 80.34 57.21 80.40
  Q 57.60 80.49 57.68 80.88
  Q 58.67 85.40 60.30 89.71
  C 62.99 96.82 69.92 96.56 76.05 96.60
  C 82.96 96.64 87.81 95.90 90.17 88.71
  C 90.98 86.25 91.36 83.20 92.97 82.26
  Q 98.80 78.83 104.78 82.15
  A 1.91 1.89 -82.1 0 1 105.71 83.39
  C 106.49 86.92 107.15 90.71 109.77 93.46
  C 114.17 98.10 127.10 97.06 132.17 95.43
  C 136.58 94.01 138.75 85.50 139.80 81.51
  Q 140.29 79.64 141.25 80.27
  Z"
/>
<path fill="#fbc9a0" d="
  M 106.57 112.14
  Q 107.46 112.11 107.73 112.82
  A 0.65 0.65 0.0 0 1 107.17 113.69
  C 104.26 113.86 101.42 114.51 98.59 114.39
  Q 92.92 114.16 86.91 113.83
  A 2.02 1.95 -54.5 0 0 86.04 113.99
  Q 82.52 115.50 86.00 118.51
  C 89.54 121.58 93.46 124.44 98.19 124.82
  Q 107.09 125.55 113.28 118.53
  Q 114.41 117.25 116.02 114.73
  C 121.55 122.76 113.15 129.51 106.38 131.88
  C 104.05 132.70 100.41 128.90 99.30 127.19
  A 0.51 0.51 0.0 0 0 98.44 127.20
  Q 96.34 130.66 92.50 131.93
  A 1.42 1.37 44.0 0 1 91.61 131.93
  C 85.46 129.84 76.94 123.30 81.04 115.87
  C 82.05 114.03 84.89 112.69 86.93 112.50
  C 90.87 112.12 94.40 112.01 98.14 110.59
  Q 98.61 110.41 99.10 110.52
  L 106.57 112.14
  Z"
/>
<path fill="#d98156" d="
  M 106.57 112.14
  Q 112.06 111.55 116.02 114.73
  Q 114.41 117.25 113.28 118.53
  Q 107.09 125.55 98.19 124.82
  C 93.46 124.44 89.54 121.58 86.00 118.51
  Q 82.52 115.50 86.04 113.99
  A 2.02 1.95 -54.5 0 1 86.91 113.83
  Q 92.92 114.16 98.59 114.39
  C 101.42 114.51 104.26 113.86 107.17 113.69
  A 0.65 0.65 0.0 0 0 107.73 112.82
  Q 107.46 112.11 106.57 112.14
  Z
  M 111.81 116.22
  C 103.88 117.10 94.93 117.07 87.17 115.64
  Q 85.20 115.28 86.58 116.73
  C 91.46 121.84 100.69 122.47 106.84 120.14
  C 109.23 119.23 110.87 118.69 112.20 116.90
  A 0.43 0.43 0.0 0 0 111.81 116.22
  Z"
/>
<path fill="#ffffff" d="
  M 87.17 115.64
  C 94.93 117.07 103.88 117.10 111.81 116.22
  A 0.43 0.43 0.0 0 1 112.20 116.90
  C 110.87 118.69 109.23 119.23 106.84 120.14
  C 100.69 122.47 91.46 121.84 86.58 116.73
  Q 85.20 115.28 87.17 115.64
  Z"
/>
<path fill="#6f6d6e" d="
  M 120.12 144.13
  C 123.66 144.95 127.31 145.64 130.42 147.18
  Q 142.96 153.39 146.32 167.41
  Q 148.11 177.38 147.44 186.67
  A 1.37 1.36 -76.6 0 0 148.27 188.03
  Q 149.97 188.73 151.85 189.94
  C 158.43 194.21 157.52 203.34 151.27 207.31
  C 144.46 211.62 135.73 206.29 135.74 198.24
  C 135.75 192.34 139.00 190.28 143.80 188.00
  A 1.49 1.47 -10.7 0 0 144.64 186.79
  Q 145.47 176.13 143.46 166.49
  C 140.43 155.74 132.43 148.87 121.43 147.15
  L 118.89 145.41
  L 120.12 144.13
  Z
  M 150.99 198.36
  A 4.92 4.92 0.0 0 0 146.07 193.44
  A 4.92 4.92 0.0 0 0 141.15 198.36
  A 4.92 4.92 0.0 0 0 146.07 203.28
  A 4.92 4.92 0.0 0 0 150.99 198.36
  Z"
/>
<path fill="#545354" d="
  M 78.05 145.19
  L 79.35 146.05
  Q 77.73 148.54 76.78 147.78
  Q 60.64 150.07 54.70 165.00
  Q 54.50 165.51 55.02 165.67
  Q 62.38 168.05 64.63 176.52
  Q 66.30 183.55 65.21 190.98
  Q 62.21 201.45 52.77 206.58
  Q 52.25 206.86 52.80 207.06
  L 60.77 209.92
  Q 61.51 210.87 60.55 211.95
  Q 55.28 210.96 50.33 208.49
  A 1.05 1.02 -44.7 0 0 49.38 208.50
  Q 44.83 210.90 40.03 211.84
  Q 39.11 211.60 39.23 210.16
  L 47.27 207.03
  Q 47.80 206.82 47.34 206.49
  Q 32.15 195.58 37.10 177.64
  Q 39.99 167.17 51.31 165.29
  Q 51.80 165.21 51.98 164.75
  C 56.37 153.42 65.78 146.07 78.05 145.19
  Z
  M 50.35 205.16
  Q 58.00 201.61 61.41 194.56
  C 64.25 188.69 63.86 177.17 59.96 171.99
  C 55.56 166.13 48.42 166.84 43.49 171.38
  C 38.96 175.54 37.75 182.52 38.35 188.42
  C 39.06 195.56 43.45 201.32 49.36 205.10
  Q 49.83 205.40 50.35 205.16
  Z"
/>
<path fill="#fbc9a0" d="
  M 118.89 145.41
  L 121.43 147.15
  Q 118.96 148.16 119.84 151.23
  L 99.30 164.58
  A 0.38 0.37 -45.7 0 1 98.90 164.59
  L 78.25 151.34
  Q 79.11 147.50 76.78 147.78
  Q 77.73 148.54 79.35 146.05
  C 91.59 154.83 106.86 155.12 118.89 145.41
  Z"
/>
<path fill="#ffffff" d="
  M 76.78 147.78
  Q 79.11 147.50 78.25 151.34
  Q 77.44 150.66 76.40 150.59
  A 0.84 0.84 0.0 0 0 75.50 151.35
  L 75.07 155.97
  Q 72.58 158.17 69.88 160.78
  C 69.01 161.62 68.22 163.46 68.02 164.65
  C 67.50 167.88 66.23 170.76 65.71 173.92
  Q 65.45 175.49 64.63 176.52
  Q 62.38 168.05 55.02 165.67
  Q 54.50 165.51 54.70 165.00
  Q 60.64 150.07 76.78 147.78
  Z"
/>
<path fill="#3b91cb" d="
  M 119.19 171.59
  L 113.58 177.89
  A 0.94 0.92 26.7 0 1 112.68 178.18
  Q 110.18 177.59 109.04 175.89
  L 99.38 166.04
  Q 98.95 165.60 98.52 166.05
  L 88.87 176.24
  L 86.04 177.95
  Q 84.97 178.60 84.21 177.59
  L 80.03 172.05
  A 0.59 0.58 64.0 0 0 79.40 171.83
  Q 78.64 172.04 78.97 172.46
  L 75.07 155.97
  L 75.50 151.35
  A 0.84 0.84 0.0 0 1 76.40 150.59
  Q 77.44 150.66 78.25 151.34
  L 98.90 164.59
  A 0.38 0.37 -45.7 0 0 99.30 164.58
  L 119.84 151.23
  Q 120.99 150.38 121.92 150.38
  Q 122.46 150.38 122.50 150.92
  C 122.81 154.67 123.16 157.81 122.03 161.55
  Q 120.43 166.87 119.19 171.59
  Z"
/>
<path fill="#dadada" d="
  M 75.07 155.97
  L 78.97 172.46
  L 90.29 214.71
  L 77.90 214.93
  Q 77.39 214.94 77.13 214.50
  C 74.15 209.43 70.84 205.71 72.61 199.43
  A 2.70 2.68 -55.6 0 0 72.18 197.09
  Q 69.29 193.17 65.21 190.98
  Q 66.30 183.55 64.63 176.52
  Q 65.45 175.49 65.71 173.92
  C 66.23 170.76 67.50 167.88 68.02 164.65
  C 68.22 163.46 69.01 161.62 69.88 160.78
  Q 72.58 158.17 75.07 155.97
  Z"
/>
<path fill="#dadada" d="
  M 143.46 166.49
  Q 145.47 176.13 144.64 186.79
  A 1.49 1.47 -10.7 0 1 143.80 188.00
  C 139.00 190.28 135.75 192.34 135.74 198.24
  C 135.73 206.29 144.46 211.62 151.27 207.31
  C 157.52 203.34 158.43 194.21 151.85 189.94
  Q 149.97 188.73 148.27 188.03
  A 1.37 1.36 -76.6 0 1 147.44 186.67
  Q 148.11 177.38 146.32 167.41
  Q 152.35 168.16 163.48 170.59
  C 172.20 172.49 174.28 178.52 177.18 187.01
  Q 181.15 198.62 184.04 210.55
  C 184.27 211.48 185.11 213.02 185.32 214.27
  Q 185.43 214.89 184.80 214.89
  L 123.79 215.27
  A 0.60 0.59 16.8 0 1 123.29 214.34
  Q 125.95 210.43 128.65 206.25
  Q 129.25 205.32 128.31 203.40
  Q 127.21 201.16 125.93 198.94
  A 2.22 2.22 0.0 0 1 126.29 196.26
  L 133.93 188.70
  A 2.92 2.91 -28.0 0 0 134.74 186.07
  Q 133.74 181.00 132.48 176.05
  C 131.65 172.78 131.12 167.81 129.45 163.82
  A 0.20 0.20 0.0 0 1 129.67 163.55
  L 143.46 166.49
  Z"
/>
<path fill="#1c1e1c" d="
  M 109.04 175.89
  Q 106.50 180.18 102.78 183.19
  L 95.39 183.43
  L 88.87 176.24
  L 98.52 166.05
  Q 98.95 165.60 99.38 166.04
  L 109.04 175.89
  Z"
/>
<path fill="#ffffff" d="
  M 50.35 205.16
  Q 49.83 205.40 49.36 205.10
  C 43.45 201.32 39.06 195.56 38.35 188.42
  C 37.75 182.52 38.96 175.54 43.49 171.38
  C 48.42 166.84 55.56 166.13 59.96 171.99
  C 63.86 177.17 64.25 188.69 61.41 194.56
  Q 58.00 201.61 50.35 205.16
  Z"
/>
<path fill="#1e71b6" d="
  M 88.87 176.24
  L 95.39 183.43
  Q 93.79 198.01 93.73 201.75
  C 93.65 205.76 94.09 210.56 92.58 213.05
  Q 92.03 213.95 91.34 214.97
  Q 91.02 214.80 90.29 214.71
  L 78.97 172.46
  Q 78.64 172.04 79.40 171.83
  A 0.59 0.58 64.0 0 1 80.03 172.05
  L 84.21 177.59
  Q 84.97 178.60 86.04 177.95
  L 88.87 176.24
  Z"
/>
<path fill="#1e71b6" d="
  M 119.19 171.59
  Q 111.85 199.83 107.56 214.50
  Q 107.36 215.18 106.02 214.90
  L 106.45 214.71
  Q 106.56 214.66 106.37 214.00
  Q 106.32 213.82 106.13 213.77
  Q 105.76 213.68 105.72 213.29
  L 102.78 183.19
  Q 106.50 180.18 109.04 175.89
  Q 110.18 177.59 112.68 178.18
  A 0.94 0.92 26.7 0 0 113.58 177.89
  L 119.19 171.59
  Z"
/>
<path fill="#3a3d3e" d="
  M 102.78 183.19
  L 105.72 213.29
  Q 105.76 213.68 106.13 213.77
  Q 106.32 213.82 106.37 214.00
  Q 106.56 214.66 106.45 214.71
  L 106.02 214.90
  L 91.34 214.97
  Q 92.03 213.95 92.58 213.05
  C 94.09 210.56 93.65 205.76 93.73 201.75
  Q 93.79 198.01 95.39 183.43
  L 102.78 183.19
  Z"
/>
<circle fill="#ffffff" cx="146.07" cy="198.36" r="4.92"/>
<path fill="#dadada" d="
  M 60.77 209.92
  Q 62.28 210.23 63.85 209.98
  Q 65.34 209.75 65.70 211.21
  L 65.96 212.26
  Q 66.29 213.62 64.92 213.89
  Q 62.37 214.39 60.55 211.95
  Q 61.51 210.87 60.77 209.92
  Z"
/>
<path fill="#dadada" d="
  M 39.23 210.16
  Q 39.11 211.60 40.03 211.84
  Q 35.90 215.48 34.59 212.45
  A 1.62 1.61 -12.0 0 1 36.06 210.19
  L 39.23 210.16
  Z"
/>
</svg>
