<?xml version="1.0" encoding="UTF-8" standalone="no"?>
<!DOCTYPE svg PUBLIC "-//W3C//DTD SVG 1.1//EN" "http://www.w3.org/Graphics/SVG/1.1/DTD/svg11.dtd">
<svg xmlns="http://www.w3.org/2000/svg" version="1.1" viewBox="0.00 0.00 195.00 220.00">
<g stroke-width="2.00" fill="none" stroke-linecap="butt">
<path stroke="#f3f3f4" vector-effect="non-scaling-stroke" d="
  M 191.41 220.00
  Q 192.32 219.33 191.64 218.35
  C 178.93 200.08 164.13 183.02 149.31 166.57
  Q 148.99 166.21 148.91 165.74
  L 148.73 164.75"
/>
<path stroke="#a0928a" vector-effect="non-scaling-stroke" d="
  M 148.73 164.75
  C 167.63 154.61 169.14 123.05 168.50 104.75
  Q 167.50 75.75 157.74 48.50
  Q 152.57 34.05 143.70 23.32
  C 140.87 19.91 134.45 14.82 129.62 14.32
  C 123.34 13.68 117.77 14.64 111.43 13.20
  C 104.57 11.64 98.96 11.03 91.75 12.06
  C 71.30 15.00 52.85 24.06 45.61 45.21
  Q 42.54 54.18 41.83 59.30
  Q 39.00 79.71 35.65 100.04
  C 34.42 107.48 34.09 115.32 33.25 123.00
  Q 32.37 131.12 34.72 143.50
  C 35.75 148.97 38.84 155.19 43.72 158.15
  Q 45.12 158.99 46.67 160.00"
/>
<path stroke="#c9a7a1" vector-effect="non-scaling-stroke" d="
  M 46.67 160.00
  L 38.32 160.78
  A 1.00 1.00 0.0 0 1 37.48 160.43
  Q 36.62 159.42 35.49 159.60
  Q 22.69 161.71 9.80 163.36
  A 1.00 0.99 8.6 0 0 9.02 163.93
  L 8.49 165.11
  Q 8.31 165.50 7.88 165.59
  L 0.00 167.10"
/>
<path stroke="#94857e" vector-effect="non-scaling-stroke" d="
  M 148.73 164.75
  Q 148.16 165.03 147.83 164.66
  Q 137.60 153.26 134.80 150.43
  Q 129.92 145.49 122.16 145.69
  Q 121.68 145.70 121.75 146.17
  L 124.13 162.55"
/>
<path stroke="#a0928a" vector-effect="non-scaling-stroke" d="
  M 124.13 162.55
  C 125.22 171.37 124.48 184.31 116.09 189.63"
/>
<path stroke="#8c700c" vector-effect="non-scaling-stroke" d="
  M 116.09 189.63
  Q 109.68 191.86 103.45 191.47
  A 2.80 2.78 -65.0 0 0 101.33 192.25
  C 98.26 195.25 96.28 199.93 97.56 204.20
  Q 98.11 206.04 101.36 210.10
  Q 105.14 214.82 108.36 220.00"
/>
<path stroke="#8c700c" vector-effect="non-scaling-stroke" d="
  M 106.16 220.00
  Q 103.45 215.61 100.14 211.59
  Q 96.73 207.45 95.97 205.09
  Q 93.79 198.28 99.10 192.36
  A 0.43 0.43 0.0 0 0 98.83 191.65
  Q 91.04 190.83 84.09 187.07"
/>
<path stroke="#a0928a" vector-effect="non-scaling-stroke" d="
  M 84.09 187.07
  C 77.07 181.69 75.76 174.38 76.56 165.73"
/>
<path stroke="#94857e" vector-effect="non-scaling-stroke" d="
  M 76.56 165.73
  Q 76.60 160.89 78.13 156.32"
/>
<path stroke="#897a74" vector-effect="non-scaling-stroke" d="
  M 78.13 156.32
  L 79.41 151.42
  Q 80.59 146.91 78.03 150.82
  C 76.82 152.68 75.37 154.28 73.31 155.54
  Q 68.22 158.67 63.63 162.50
  Q 63.26 162.82 62.79 162.96
  Q 62.11 163.15 61.84 163.21"
/>
<path stroke="#a0928a" vector-effect="non-scaling-stroke" d="
  M 61.84 163.21
  L 52.25 161.73"
/>
<path stroke="#6a392c" vector-effect="non-scaling-stroke" d="
  M 52.25 161.73
  Q 52.11 160.57 51.63 159.86
  Q 51.31 159.40 50.75 159.47
  L 46.67 160.00"
/>
<path stroke="#875b3f" vector-effect="non-scaling-stroke" d="
  M 55.62 94.54
  Q 52.61 88.83 50.62 83.80
  C 49.67 81.38 49.42 78.54 48.51 75.78"
/>
<path stroke="#997263" vector-effect="non-scaling-stroke" d="
  M 48.51 75.78
  Q 48.50 75.18 48.16 74.25
  Q 48.00 73.82 47.60 74.04
  Q 43.72 76.14 43.34 79.62
  C 42.33 88.92 49.44 99.04 59.37 99.56
  Q 59.88 99.58 60.07 100.05
  Q 68.70 120.56 90.24 125.77"
/>
<path stroke="#9b5442" vector-effect="non-scaling-stroke" d="
  M 90.24 125.77
  L 90.10 138.09"
/>
<path stroke="#a0928a" vector-effect="non-scaling-stroke" d="
  M 90.10 138.09
  Q 86.74 141.33 83.91 144.77
  Q 82.45 146.56 81.68 149.20
  C 79.94 155.23 78.36 158.97 77.71 166.75
  Q 77.22 172.64 79.00 178.24
  Q 80.11 181.76 84.31 185.85"
/>
<path stroke="#8c700c" vector-effect="non-scaling-stroke" d="
  M 84.31 185.85
  Q 99.24 193.26 116.06 187.93"
/>
<path stroke="#a0928a" vector-effect="non-scaling-stroke" d="
  M 116.06 187.93
  C 126.89 178.42 122.07 159.98 120.56 147.88
  Q 120.28 145.62 118.99 144.03
  Q 116.35 140.76 113.02 138.14"
/>
<path stroke="#9b5442" vector-effect="non-scaling-stroke" d="
  M 113.02 138.14
  Q 112.69 137.59 112.63 136.72
  C 112.45 134.02 111.56 127.46 112.43 125.14"
/>
<path stroke="#997263" vector-effect="non-scaling-stroke" d="
  M 112.43 125.14
  C 125.96 121.17 137.34 110.92 141.27 97.08
  A 1.06 1.06 0.0 0 1 142.33 96.31
  C 155.31 96.75 166.03 71.73 150.23 69.15
  Q 149.76 69.07 149.65 69.54
  Q 149.19 71.57 149.44 73.71"
/>
<path stroke="#875b3f" vector-effect="non-scaling-stroke" d="
  M 149.44 73.71
  Q 147.91 82.56 143.81 90.50
  Q 143.44 91.21 143.98 92.68"
/>
<path stroke="#997263" vector-effect="non-scaling-stroke" d="
  M 143.98 92.68
  Q 143.99 92.80 143.78 92.86
  Q 143.52 92.93 143.45 92.67
  Q 142.94 90.87 143.33 89.00
  Q 146.00 76.30 143.73 63.52
  Q 143.65 63.03 143.24 62.76
  C 134.09 56.70 126.85 46.74 121.71 36.74
  A 0.31 0.31 0.0 0 0 121.21 36.66
  C 111.86 46.26 98.22 54.53 86.13 60.13
  Q 82.36 61.87 79.00 62.71
  Q 76.76 63.27 79.07 63.14
  Q 81.85 62.97 83.61 63.32
  Q 88.30 64.24 83.58 64.95
  C 78.09 65.78 73.73 66.22 68.82 68.97
  Q 67.26 69.85 68.25 68.36
  Q 69.48 66.51 72.09 65.44
  Q 72.28 65.36 72.22 65.17
  L 72.12 64.88
  Q 72.12 64.87 72.11 64.87
  Q 63.87 66.90 55.39 66.70
  Q 54.95 66.69 54.92 67.13
  C 54.36 76.29 55.55 82.53 56.95 90.49
  C 57.35 92.79 58.38 94.96 59.17 97.25
  Q 59.51 98.23 58.76 97.52
  L 55.62 94.54"
/>
<path stroke="#dfa98e" vector-effect="non-scaling-stroke" d="
  M 143.98 92.68
  C 150.55 92.05 159.09 76.52 150.78 74.13
  Q 150.54 74.06 150.22 74.25
  Q 149.88 74.45 149.73 74.40
  Q 149.45 74.30 149.44 73.71"
/>
<path stroke="#f2a291" vector-effect="non-scaling-stroke" d="
  M 112.43 125.14
  Q 112.47 125.36 112.05 125.26
  Q 111.72 125.18 111.40 125.28
  Q 100.99 128.55 90.24 125.77"
/>
<path stroke="#dfa98e" vector-effect="non-scaling-stroke" d="
  M 48.51 75.78
  Q 44.31 89.27 55.62 94.54"
/>
<path stroke="#fac2b8" vector-effect="non-scaling-stroke" d="
  M 113.02 138.14
  L 112.05 138.40"
/>
<path stroke="#f2a291" vector-effect="non-scaling-stroke" d="
  M 112.05 138.40
  C 105.84 141.58 101.32 143.93 94.37 140.60
  Q 92.64 139.77 90.92 139.14"
/>
<path stroke="#fac2b8" vector-effect="non-scaling-stroke" d="
  M 90.92 139.14
  Q 90.38 138.81 90.10 138.09"
/>
<path stroke="#f8e0d9" vector-effect="non-scaling-stroke" d="
  M 90.92 139.14
  Q 89.68 141.99 89.89 143.49"
/>
<path stroke="#ebde81" vector-effect="non-scaling-stroke" d="
  M 89.89 143.49
  L 84.31 185.85"
/>
<path stroke="#ebde81" vector-effect="non-scaling-stroke" d="
  M 116.06 187.93
  L 112.81 144.82"
/>
<path stroke="#f8e0d9" vector-effect="non-scaling-stroke" d="
  M 112.81 144.82
  Q 113.20 142.00 112.05 138.40"
/>
<path stroke="#e3be5b" vector-effect="non-scaling-stroke" d="
  M 112.81 144.82
  Q 111.28 145.93 109.91 147.13
  C 103.72 152.57 93.78 150.84 89.89 143.49"
/>
<path stroke="#997263" vector-effect="non-scaling-stroke" d="
  M 126.33 68.59
  A 0.50 0.47 -40.4 0 0 126.73 68.61
  Q 127.35 68.37 126.69 67.82
  C 122.36 64.19 114.43 61.15 109.33 65.07
  Q 108.68 65.58 109.50 65.52
  Q 118.32 64.92 126.33 68.59"
/>
<path stroke="#7b615a" vector-effect="non-scaling-stroke" d="
  M 121.11 72.12
  C 112.33 68.68 108.59 78.39 112.97 84.78"
/>
<path stroke="#dfa98e" vector-effect="non-scaling-stroke" d="
  M 112.97 84.78
  C 113.94 88.46 120.60 88.79 122.11 85.14"
/>
<path stroke="#7b615a" vector-effect="non-scaling-stroke" d="
  M 122.11 85.14
  Q 126.16 81.52 124.23 75.69"
/>
<path stroke="#c1877b" vector-effect="non-scaling-stroke" d="
  M 124.23 75.69
  Q 124.15 74.89 124.74 74.32
  A 0.99 0.95 -72.8 0 1 125.10 74.12
  L 126.76 73.68
  Q 127.90 73.37 126.84 72.84
  L 126.01 72.42
  Q 125.42 72.13 125.19 71.78
  Q 125.02 71.52 125.18 71.24
  Q 125.67 70.41 124.54 70.83
  L 121.11 72.12"
/>
<path stroke="#4c2822" vector-effect="non-scaling-stroke" d="
  M 124.23 75.69
  Q 123.53 74.95 123.32 73.85
  Q 123.22 73.34 122.77 73.08
  L 121.11 72.12"
/>
<path stroke="#694a35" vector-effect="non-scaling-stroke" d="
  M 122.11 85.14
  C 117.85 87.64 116.94 86.02 112.97 84.78"
/>
<path stroke="#7b615a" vector-effect="non-scaling-stroke" d="
  M 70.17 77.03
  Q 68.66 83.36 74.27 86.42
  C 82.39 90.85 87.69 76.24 79.42 72.32
  C 77.97 71.63 75.60 71.50 74.29 72.31
  Q 70.94 74.36 67.24 75.71
  Q 66.54 75.97 67.28 76.02
  L 69.57 76.20
  A 0.67 0.67 0.0 0 1 70.17 77.03"
/>
<path stroke="#c1877b" vector-effect="non-scaling-stroke" d="
  M 69.6863 74.0548
  A 0.99 0.55 51.5 0 0 69.5004 72.9376
  A 0.99 0.55 51.5 0 0 68.4537 72.5052
  A 0.99 0.55 51.5 0 0 68.6396 73.6224
  A 0.99 0.55 51.5 0 0 69.6863 74.0548"
/>
<path stroke="#f2a291" vector-effect="non-scaling-stroke" d="
  M 96.56 82.96
  A 1.58 1.58 0.0 0 1 95.05 84.45
  Q 93.45 84.53 91.92 84.91
  C 86.68 86.20 87.34 95.66 92.70 95.93
  Q 97.04 96.15 99.38 93.40
  C 102.17 90.11 101.49 81.79 101.15 77.57
  Q 101.03 76.06 99.51 76.01
  L 98.39 75.97
  Q 96.95 75.92 96.87 77.36
  L 96.56 82.96"
/>
<path stroke="#f2ae96" vector-effect="non-scaling-stroke" d="
  M 133.0584 96.0302
  A 7.17 6.99 1.2 0 0 126.0364 88.8915
  A 7.17 6.99 1.2 0 0 118.7216 95.7298
  A 7.17 6.99 1.2 0 0 125.7436 102.8685
  A 7.17 6.99 1.2 0 0 133.0584 96.0302"
/>
<path stroke="#f2ae96" vector-effect="non-scaling-stroke" d="
  M 82.75 102.32
  A 7.08 7.08 0.0 0 0 75.67 95.24
  A 7.08 7.08 0.0 0 0 68.59 102.32
  A 7.08 7.08 0.0 0 0 75.67 109.40
  A 7.08 7.08 0.0 0 0 82.75 102.32"
/>
<path stroke="#f2a291" vector-effect="non-scaling-stroke" d="
  M 111.86 101.37
  C 103.30 105.40 96.00 104.09 87.08 102.85
  Q 85.77 102.67 85.89 103.99
  C 86.63 112.00 91.49 115.68 99.11 115.76
  C 107.41 115.84 114.71 111.65 113.36 102.18
  Q 113.16 100.76 111.86 101.37"
/>
<path stroke="#828180" vector-effect="non-scaling-stroke" d="
  M 118.90 76.86
  A 2.77 2.77 0.0 0 0 116.13 74.09
  A 2.77 2.77 0.0 0 0 113.36 76.86
  A 2.77 2.77 0.0 0 0 116.13 79.63
  A 2.77 2.77 0.0 0 0 118.90 76.86"
/>
<path stroke="#828180" vector-effect="non-scaling-stroke" d="
  M 77.81 77.36
  A 2.83 2.83 0.0 0 0 74.98 74.53
  A 2.83 2.83 0.0 0 0 72.15 77.36
  A 2.83 2.83 0.0 0 0 74.98 80.19
  A 2.83 2.83 0.0 0 0 77.81 77.36"
/>
<path stroke="#fac2b8" vector-effect="non-scaling-stroke" d="
  M 89.38 109.49
  Q 91.19 113.20 95.24 113.93
  C 102.30 115.22 112.74 113.48 111.86 103.69
  A 0.69 0.68 -18.0 0 0 110.83 103.17
  C 105.40 106.40 96.50 105.87 90.77 105.06
  Q 86.94 104.52 88.64 107.99
  L 89.38 109.49"
/>
<path stroke="#f3f3f4" vector-effect="non-scaling-stroke" d="
  M 161.39 220.00
  Q 160.70 219.95 160.22 219.73
  A 0.71 0.71 0.0 0 1 159.80 219.00
  C 159.92 218.07 160.03 217.28 159.56 216.41
  C 153.30 204.87 146.16 193.87 139.70 182.84
  Q 136.17 176.82 138.44 183.42
  Q 144.08 199.81 145.79 220.00"
/>
<path stroke="#f3f3f4" vector-effect="non-scaling-stroke" d="
  M 130.48 220.00
  Q 128.77 217.12 127.73 213.62
  Q 126.91 210.85 126.97 206.79
  Q 127.47 175.26 127.16 164.13
  Q 127.13 162.83 125.39 161.45
  Q 125.01 161.14 124.57 161.38
  Q 124.01 161.68 124.13 162.55"
/>
<path stroke="#dcdbde" vector-effect="non-scaling-stroke" d="
  M 78.13 156.32
  Q 78.10 155.32 77.73 154.70
  Q 77.26 153.90 76.36 154.12
  Q 74.70 154.54 74.89 155.27
  Q 74.98 155.61 74.78 155.91
  C 67.43 167.06 63.09 178.58 59.83 192.28
  Q 59.70 192.81 59.39 193.08
  Q 58.84 193.55 58.31 193.37
  Q 57.86 193.22 57.68 193.65
  Q 57.47 194.14 57.42 195.06"
/>
<path stroke="#b28f8b" vector-effect="non-scaling-stroke" d="
  M 57.42 195.06
  L 54.37 174.02"
/>
<path stroke="#e8e8e9" vector-effect="non-scaling-stroke" d="
  M 54.37 174.02
  L 61.84 163.21"
/>
<path stroke="#f3f3f4" vector-effect="non-scaling-stroke" d="
  M 76.56 165.73
  L 76.36 162.24
  Q 76.33 161.79 75.94 162.02
  C 73.30 163.53 73.42 166.99 73.78 169.99
  Q 75.86 187.57 77.13 205.24
  C 77.43 209.51 75.08 217.49 71.16 220.00"
/>
<path stroke="#f3f3f4" vector-effect="non-scaling-stroke" d="
  M 55.31 220.00
  L 56.71 208.26"
/>
<path stroke="#bc9a96" vector-effect="non-scaling-stroke" d="
  M 56.71 208.26
  Q 57.16 204.91 57.77 201.64
  C 58.20 199.29 57.80 197.32 57.42 195.06"
/>
<path stroke="#c9a7a1" vector-effect="non-scaling-stroke" d="
  M 52.25 161.73
  L 54.37 174.02"
/>
<path stroke="#c9a7a1" vector-effect="non-scaling-stroke" d="
  M 56.71 208.26
  L 49.78 163.59
  A 0.78 0.78 0.0 0 0 48.76 162.97
  Q 43.97 164.58 38.89 164.75
  Q 38.31 164.77 38.25 165.36
  Q 38.12 166.82 38.47 168.24
  A 0.81 0.80 78.9 0 1 37.81 169.23
  L 10.93 173.37
  A 0.97 0.96 84.8 0 1 9.82 172.44
  L 9.75 170.26
  A 1.06 1.06 0.0 0 0 8.48 169.25
  L 0.00 170.98"
/>
<path stroke="#ebde81" vector-effect="non-scaling-stroke" d="
  M 118.48 220.00
  L 116.09 189.63"
/>
<path stroke="#ebde81" vector-effect="non-scaling-stroke" d="
  M 84.09 187.07
  L 79.52 219.23
  A 0.45 0.45 0.0 0 0 79.93 219.74
  Q 80.44 219.79 80.64 220.00"
/>
<path stroke="#828180" vector-effect="non-scaling-stroke" d="
  M 9.42 220.00
  L 9.77 219.67
  Q 10.08 219.39 9.83 219.05
  L 9.61 218.75"
/>
<path stroke="#e6c9b4" vector-effect="non-scaling-stroke" d="
  M 9.61 218.75
  Q 9.77 217.76 9.53 216.78"
/>
<path stroke="#f3f3f4" vector-effect="non-scaling-stroke" d="
  M 9.53 216.78
  Q 9.18 216.26 9.05 215.80
  Q 8.92 215.35 9.39 215.27
  L 51.24 208.32
  Q 54.46 207.79 51.16 207.16
  Q 50.70 207.07 49.25 207.30
  Q 30.42 210.22 11.49 212.50
  Q 8.70 212.84 7.07 211.89"
/>
<path stroke="#828180" vector-effect="non-scaling-stroke" d="
  M 7.07 211.89
  L 6.64 210.93"
/>
<path stroke="#f8e0d9" vector-effect="non-scaling-stroke" d="
  M 6.64 210.93
  C 6.87 208.57 5.91 206.38 6.59 204.03
  A 1.43 1.43 0.0 0 0 6.16 202.56
  Q 5.42 201.92 4.49 201.67
  A 0.50 0.50 0.0 0 1 4.18 200.94
  C 4.57 200.28 5.15 199.57 5.34 198.89
  Q 6.14 196.08 3.92 195.64
  Q 2.38 195.33 3.13 193.96
  Q 5.08 190.34 1.51 188.08"
/>
<path stroke="#e6c9b4" vector-effect="non-scaling-stroke" d="
  M 1.51 188.08
  L 0.66 179.20
  A 0.13 0.12 44.7 0 0 0.41 179.20
  L 0.00 185.01"
/>
<path stroke="#f3f3f4" vector-effect="non-scaling-stroke" d="
  M 47.0995 176.2344
  A 0.71 0.71 0.0 0 0 46.2892 175.6414
  L 4.8429 182.0576
  A 0.71 0.71 0.0 0 0 4.2499 182.8679
  L 4.2805 183.0656
  A 0.71 0.71 0.0 0 0 5.0908 183.6586
  L 46.5371 177.2424
  A 0.71 0.71 0.0 0 0 47.1301 176.4321
  L 47.0995 176.2344"
/>
<path stroke="#f3f3f4" vector-effect="non-scaling-stroke" d="
  M 48.7268 186.8370
  A 0.81 0.81 0.0 0 0 47.8059 186.1556
  L 6.4057 192.3429
  A 0.81 0.81 0.0 0 0 5.7244 193.2637
  L 5.7332 193.3230
  A 0.81 0.81 0.0 0 0 6.6541 194.0044
  L 48.0543 187.8171
  A 0.81 0.81 0.0 0 0 48.7356 186.8963
  L 48.7268 186.8370"
/>
<path stroke="#f3f3f4" vector-effect="non-scaling-stroke" d="
  M 7.78 202.97
  L 8.02 204.54
  A 0.23 0.23 0.0 0 0 8.29 204.73
  L 8.48 204.70
  A 42.81 1.00 -8.9 0 0 50.62 197.08
  L 50.62 197.05
  A 42.81 1.00 -8.9 0 0 8.17 202.68
  L 7.97 202.71
  A 0.23 0.23 0.0 0 0 7.78 202.97"
/>
<path stroke="#dfa98e" vector-effect="non-scaling-stroke" d="
  M 1.51 188.08
  Q 1.77 188.74 0.47 189.38"
/>
<path stroke="#e6c9b4" vector-effect="non-scaling-stroke" d="
  M 0.47 189.38
  L 0.00 187.97"
/>
<path stroke="#7b615a" vector-effect="non-scaling-stroke" d="
  M 6.64 210.93
  C 3.47 210.67 3.56 213.37 2.13 215.21
  Q 1.83 215.59 1.81 216.07
  L 1.65 218.80"
/>
<path stroke="#f8e0d9" vector-effect="non-scaling-stroke" d="
  M 1.65 218.80
  L 1.53 218.13
  Q 1.51 218.00 1.38 218.00
  Q 1.23 218.00 1.09 218.00
  Q 0.86 218.00 0.83 217.78
  L 0.00 212.99"
/>
<path stroke="#f8e0d9" vector-effect="non-scaling-stroke" d="
  M 0.00 191.50
  L 0.47 189.38"
/>
<path stroke="#dabca9" vector-effect="non-scaling-stroke" d="
  M 9.53 216.78
  L 8.72 216.54"
/>
<path stroke="#767475" vector-effect="non-scaling-stroke" d="
  M 8.72 216.54
  Q 7.53 214.43 7.07 211.89"
/>
<path stroke="#694a35" vector-effect="non-scaling-stroke" d="
  M 8.72 216.54
  Q 8.77 217.81 9.61 218.75"
/>
<path stroke="#828180" vector-effect="non-scaling-stroke" d="
  M 1.73 220.00
  Q 1.55 219.38 1.65 218.80"
/>
</g>
<path fill="#ffffff" d="
  M 0.00 0.00
  L 195.00 0.00
  L 195.00 220.00
  L 191.41 220.00
  Q 192.32 219.33 191.64 218.35
  C 178.93 200.08 164.13 183.02 149.31 166.57
  Q 148.99 166.21 148.91 165.74
  L 148.73 164.75
  C 167.63 154.61 169.14 123.05 168.50 104.75
  Q 167.50 75.75 157.74 48.50
  Q 152.57 34.05 143.70 23.32
  C 140.87 19.91 134.45 14.82 129.62 14.32
  C 123.34 13.68 117.77 14.64 111.43 13.20
  C 104.57 11.64 98.96 11.03 91.75 12.06
  C 71.30 15.00 52.85 24.06 45.61 45.21
  Q 42.54 54.18 41.83 59.30
  Q 39.00 79.71 35.65 100.04
  C 34.42 107.48 34.09 115.32 33.25 123.00
  Q 32.37 131.12 34.72 143.50
  C 35.75 148.97 38.84 155.19 43.72 158.15
  Q 45.12 158.99 46.67 160.00
  L 38.32 160.78
  A 1.00 1.00 0.0 0 1 37.48 160.43
  Q 36.62 159.42 35.49 159.60
  Q 22.69 161.71 9.80 163.36
  A 1.00 0.99 8.6 0 0 9.02 163.93
  L 8.49 165.11
  Q 8.31 165.50 7.88 165.59
  L 0.00 167.10
  L 0.00 0.00
  Z"
/>
<path fill="#412414" d="
  M 148.73 164.75
  Q 148.16 165.03 147.83 164.66
  Q 137.60 153.26 134.80 150.43
  Q 129.92 145.49 122.16 145.69
  Q 121.68 145.70 121.75 146.17
  L 124.13 162.55
  C 125.22 171.37 124.48 184.31 116.09 189.63
  Q 109.68 191.86 103.45 191.47
  A 2.80 2.78 -65.0 0 0 101.33 192.25
  C 98.26 195.25 96.28 199.93 97.56 204.20
  Q 98.11 206.04 101.36 210.10
  Q 105.14 214.82 108.36 220.00
  L 106.16 220.00
  Q 103.45 215.61 100.14 211.59
  Q 96.73 207.45 95.97 205.09
  Q 93.79 198.28 99.10 192.36
  A 0.43 0.43 0.0 0 0 98.83 191.65
  Q 91.04 190.83 84.09 187.07
  C 77.07 181.69 75.76 174.38 76.56 165.73
  Q 76.60 160.89 78.13 156.32
  L 79.41 151.42
  Q 80.59 146.91 78.03 150.82
  C 76.82 152.68 75.37 154.28 73.31 155.54
  Q 68.22 158.67 63.63 162.50
  Q 63.26 162.82 62.79 162.96
  Q 62.11 163.15 61.84 163.21
  L 52.25 161.73
  Q 52.11 160.57 51.63 159.86
  Q 51.31 159.40 50.75 159.47
  L 46.67 160.00
  Q 45.12 158.99 43.72 158.15
  C 38.84 155.19 35.75 148.97 34.72 143.50
  Q 32.37 131.12 33.25 123.00
  C 34.09 115.32 34.42 107.48 35.65 100.04
  Q 39.00 79.71 41.83 59.30
  Q 42.54 54.18 45.61 45.21
  C 52.85 24.06 71.30 15.00 91.75 12.06
  C 98.96 11.03 104.57 11.64 111.43 13.20
  C 117.77 14.64 123.34 13.68 129.62 14.32
  C 134.45 14.82 140.87 19.91 143.70 23.32
  Q 152.57 34.05 157.74 48.50
  Q 167.50 75.75 168.50 104.75
  C 169.14 123.05 167.63 154.61 148.73 164.75
  Z
  M 55.62 94.54
  Q 52.61 88.83 50.62 83.80
  C 49.67 81.38 49.42 78.54 48.51 75.78
  Q 48.50 75.18 48.16 74.25
  Q 48.00 73.82 47.60 74.04
  Q 43.72 76.14 43.34 79.62
  C 42.33 88.92 49.44 99.04 59.37 99.56
  Q 59.88 99.58 60.07 100.05
  Q 68.70 120.56 90.24 125.77
  L 90.10 138.09
  Q 86.74 141.33 83.91 144.77
  Q 82.45 146.56 81.68 149.20
  C 79.94 155.23 78.36 158.97 77.71 166.75
  Q 77.22 172.64 79.00 178.24
  Q 80.11 181.76 84.31 185.85
  Q 99.24 193.26 116.06 187.93
  C 126.89 178.42 122.07 159.98 120.56 147.88
  Q 120.28 145.62 118.99 144.03
  Q 116.35 140.76 113.02 138.14
  Q 112.69 137.59 112.63 136.72
  C 112.45 134.02 111.56 127.46 112.43 125.14
  C 125.96 121.17 137.34 110.92 141.27 97.08
  A 1.06 1.06 0.0 0 1 142.33 96.31
  C 155.31 96.75 166.03 71.73 150.23 69.15
  Q 149.76 69.07 149.65 69.54
  Q 149.19 71.57 149.44 73.71
  Q 147.91 82.56 143.81 90.50
  Q 143.44 91.21 143.98 92.68
  Q 143.99 92.80 143.78 92.86
  Q 143.52 92.93 143.45 92.67
  Q 142.94 90.87 143.33 89.00
  Q 146.00 76.30 143.73 63.52
  Q 143.65 63.03 143.24 62.76
  C 134.09 56.70 126.85 46.74 121.71 36.74
  A 0.31 0.31 0.0 0 0 121.21 36.66
  C 111.86 46.26 98.22 54.53 86.13 60.13
  Q 82.36 61.87 79.00 62.71
  Q 76.76 63.27 79.07 63.14
  Q 81.85 62.97 83.61 63.32
  Q 88.30 64.24 83.58 64.95
  C 78.09 65.78 73.73 66.22 68.82 68.97
  Q 67.26 69.85 68.25 68.36
  Q 69.48 66.51 72.09 65.44
  Q 72.28 65.36 72.22 65.17
  L 72.12 64.88
  Q 72.12 64.87 72.11 64.87
  Q 63.87 66.90 55.39 66.70
  Q 54.95 66.69 54.92 67.13
  C 54.36 76.29 55.55 82.53 56.95 90.49
  C 57.35 92.79 58.38 94.96 59.17 97.25
  Q 59.51 98.23 58.76 97.52
  L 55.62 94.54
  Z"
/>
<path fill="#f0c0b2" d="
  M 143.98 92.68
  C 150.55 92.05 159.09 76.52 150.78 74.13
  Q 150.54 74.06 150.22 74.25
  Q 149.88 74.45 149.73 74.40
  Q 149.45 74.30 149.44 73.71
  Q 149.19 71.57 149.65 69.54
  Q 149.76 69.07 150.23 69.15
  C 166.03 71.73 155.31 96.75 142.33 96.31
  A 1.06 1.06 0.0 0 0 141.27 97.08
  C 137.34 110.92 125.96 121.17 112.43 125.14
  Q 112.47 125.36 112.05 125.26
  Q 111.72 125.18 111.40 125.28
  Q 100.99 128.55 90.24 125.77
  Q 68.70 120.56 60.07 100.05
  Q 59.88 99.58 59.37 99.56
  C 49.44 99.04 42.33 88.92 43.34 79.62
  Q 43.72 76.14 47.60 74.04
  Q 48.00 73.82 48.16 74.25
  Q 48.50 75.18 48.51 75.78
  Q 44.31 89.27 55.62 94.54
  L 58.76 97.52
  Q 59.51 98.23 59.17 97.25
  C 58.38 94.96 57.35 92.79 56.95 90.49
  C 55.55 82.53 54.36 76.29 54.92 67.13
  Q 54.95 66.69 55.39 66.70
  Q 63.87 66.90 72.11 64.87
  Q 72.12 64.87 72.12 64.88
  L 72.22 65.17
  Q 72.28 65.36 72.09 65.44
  Q 69.48 66.51 68.25 68.36
  Q 67.26 69.85 68.82 68.97
  C 73.73 66.22 78.09 65.78 83.58 64.95
  Q 88.30 64.24 83.61 63.32
  Q 81.85 62.97 79.07 63.14
  Q 76.76 63.27 79.00 62.71
  Q 82.36 61.87 86.13 60.13
  C 98.22 54.53 111.86 46.26 121.21 36.66
  A 0.31 0.31 0.0 0 1 121.71 36.74
  C 126.85 46.74 134.09 56.70 143.24 62.76
  Q 143.65 63.03 143.73 63.52
  Q 146.00 76.30 143.33 89.00
  Q 142.94 90.87 143.45 92.67
  Q 143.52 92.93 143.78 92.86
  Q 143.99 92.80 143.98 92.68
  Z
  M 126.33 68.59
  A 0.50 0.47 -40.4 0 0 126.73 68.61
  Q 127.35 68.37 126.69 67.82
  C 122.36 64.19 114.43 61.15 109.33 65.07
  Q 108.68 65.58 109.50 65.52
  Q 118.32 64.92 126.33 68.59
  Z
  M 121.11 72.12
  C 112.33 68.68 108.59 78.39 112.97 84.78
  C 113.94 88.46 120.60 88.79 122.11 85.14
  Q 126.16 81.52 124.23 75.69
  Q 124.15 74.89 124.74 74.32
  A 0.99 0.95 -72.8 0 1 125.10 74.12
  L 126.76 73.68
  Q 127.90 73.37 126.84 72.84
  L 126.01 72.42
  Q 125.42 72.13 125.19 71.78
  Q 125.02 71.52 125.18 71.24
  Q 125.67 70.41 124.54 70.83
  L 121.11 72.12
  Z
  M 70.17 77.03
  Q 68.66 83.36 74.27 86.42
  C 82.39 90.85 87.69 76.24 79.42 72.32
  C 77.97 71.63 75.60 71.50 74.29 72.31
  Q 70.94 74.36 67.24 75.71
  Q 66.54 75.97 67.28 76.02
  L 69.57 76.20
  A 0.67 0.67 0.0 0 1 70.17 77.03
  Z
  M 69.6863 74.0548
  A 0.99 0.55 51.5 0 0 69.5004 72.9376
  A 0.99 0.55 51.5 0 0 68.4537 72.5052
  A 0.99 0.55 51.5 0 0 68.6396 73.6224
  A 0.99 0.55 51.5 0 0 69.6863 74.0548
  Z
  M 96.56 82.96
  A 1.58 1.58 0.0 0 1 95.05 84.45
  Q 93.45 84.53 91.92 84.91
  C 86.68 86.20 87.34 95.66 92.70 95.93
  Q 97.04 96.15 99.38 93.40
  C 102.17 90.11 101.49 81.79 101.15 77.57
  Q 101.03 76.06 99.51 76.01
  L 98.39 75.97
  Q 96.95 75.92 96.87 77.36
  L 96.56 82.96
  Z
  M 133.0584 96.0302
  A 7.17 6.99 1.2 0 0 126.0364 88.8915
  A 7.17 6.99 1.2 0 0 118.7216 95.7298
  A 7.17 6.99 1.2 0 0 125.7436 102.8685
  A 7.17 6.99 1.2 0 0 133.0584 96.0302
  Z
  M 82.75 102.32
  A 7.08 7.08 0.0 0 0 75.67 95.24
  A 7.08 7.08 0.0 0 0 68.59 102.32
  A 7.08 7.08 0.0 0 0 75.67 109.40
  A 7.08 7.08 0.0 0 0 82.75 102.32
  Z
  M 111.86 101.37
  C 103.30 105.40 96.00 104.09 87.08 102.85
  Q 85.77 102.67 85.89 103.99
  C 86.63 112.00 91.49 115.68 99.11 115.76
  C 107.41 115.84 114.71 111.65 113.36 102.18
  Q 113.16 100.76 111.86 101.37
  Z"
/>
<path fill="#412414" d="
  M 126.33 68.59
  Q 118.32 64.92 109.50 65.52
  Q 108.68 65.58 109.33 65.07
  C 114.43 61.15 122.36 64.19 126.69 67.82
  Q 127.35 68.37 126.73 68.61
  A 0.50 0.47 -40.4 0 1 126.33 68.59
  Z"
/>
<path fill="#924e43" d="
  M 124.23 75.69
  Q 123.53 74.95 123.32 73.85
  Q 123.22 73.34 122.77 73.08
  L 121.11 72.12
  L 124.54 70.83
  Q 125.67 70.41 125.18 71.24
  Q 125.02 71.52 125.19 71.78
  Q 125.42 72.13 126.01 72.42
  L 126.84 72.84
  Q 127.90 73.37 126.76 73.68
  L 125.10 74.12
  A 0.99 0.95 -72.8 0 0 124.74 74.32
  Q 124.15 74.89 124.23 75.69
  Z"
/>
<path fill="#050201" d="
  M 121.11 72.12
  L 122.77 73.08
  Q 123.22 73.34 123.32 73.85
  Q 123.53 74.95 124.23 75.69
  Q 126.16 81.52 122.11 85.14
  C 117.85 87.64 116.94 86.02 112.97 84.78
  C 108.59 78.39 112.33 68.68 121.11 72.12
  Z
  M 118.90 76.86
  A 2.77 2.77 0.0 0 0 116.13 74.09
  A 2.77 2.77 0.0 0 0 113.36 76.86
  A 2.77 2.77 0.0 0 0 116.13 79.63
  A 2.77 2.77 0.0 0 0 118.90 76.86
  Z"
/>
<path fill="#050201" d="
  M 70.17 77.03
  A 0.67 0.67 0.0 0 0 69.57 76.20
  L 67.28 76.02
  Q 66.54 75.97 67.24 75.71
  Q 70.94 74.36 74.29 72.31
  C 75.60 71.50 77.97 71.63 79.42 72.32
  C 87.69 76.24 82.39 90.85 74.27 86.42
  Q 68.66 83.36 70.17 77.03
  Z
  M 77.81 77.36
  A 2.83 2.83 0.0 0 0 74.98 74.53
  A 2.83 2.83 0.0 0 0 72.15 77.36
  A 2.83 2.83 0.0 0 0 74.98 80.19
  A 2.83 2.83 0.0 0 0 77.81 77.36
  Z"
/>
<ellipse fill="#924e43" cx="0.00" cy="0.00" transform="translate(69.07,73.28) rotate(51.5)" rx="0.99" ry="0.55"/>
<path fill="#cd9269" d="
  M 149.44 73.71
  Q 149.45 74.30 149.73 74.40
  Q 149.88 74.45 150.22 74.25
  Q 150.54 74.06 150.78 74.13
  C 159.09 76.52 150.55 92.05 143.98 92.68
  Q 143.44 91.21 143.81 90.50
  Q 147.91 82.56 149.44 73.71
  Z"
/>
<circle fill="#ffffff" cx="116.13" cy="76.86" r="2.77"/>
<circle fill="#ffffff" cx="74.98" cy="77.36" r="2.83"/>
<path fill="#cd9269" d="
  M 48.51 75.78
  C 49.42 78.54 49.67 81.38 50.62 83.80
  Q 52.61 88.83 55.62 94.54
  Q 44.31 89.27 48.51 75.78
  Z"
/>
<path fill="#f48470" d="
  M 96.56 82.96
  L 96.87 77.36
  Q 96.95 75.92 98.39 75.97
  L 99.51 76.01
  Q 101.03 76.06 101.15 77.57
  C 101.49 81.79 102.17 90.11 99.38 93.40
  Q 97.04 96.15 92.70 95.93
  C 87.34 95.66 86.68 86.20 91.92 84.91
  Q 93.45 84.53 95.05 84.45
  A 1.58 1.58 0.0 0 0 96.56 82.96
  Z"
/>
<path fill="#cd9269" d="
  M 112.97 84.78
  C 116.94 86.02 117.85 87.64 122.11 85.14
  C 120.60 88.79 113.94 88.46 112.97 84.78
  Z"
/>
<ellipse fill="#f39c79" cx="0.00" cy="0.00" transform="translate(125.89,95.88) rotate(1.2)" rx="7.17" ry="6.99"/>
<circle fill="#f39c79" cx="75.67" cy="102.32" r="7.08"/>
<path fill="#f48470" d="
  M 87.08 102.85
  C 96.00 104.09 103.30 105.40 111.86 101.37
  Q 113.16 100.76 113.36 102.18
  C 114.71 111.65 107.41 115.84 99.11 115.76
  C 91.49 115.68 86.63 112.00 85.89 103.99
  Q 85.77 102.67 87.08 102.85
  Z
  M 89.38 109.49
  Q 91.19 113.20 95.24 113.93
  C 102.30 115.22 112.74 113.48 111.86 103.69
  A 0.69 0.68 -18.0 0 0 110.83 103.17
  C 105.40 106.40 96.50 105.87 90.77 105.06
  Q 86.94 104.52 88.64 107.99
  L 89.38 109.49
  Z"
/>
<path fill="#ffffff" d="
  M 89.38 109.49
  L 88.64 107.99
  Q 86.94 104.52 90.77 105.06
  C 96.50 105.87 105.40 106.40 110.83 103.17
  A 0.69 0.68 -18.0 0 1 111.86 103.69
  C 112.74 113.48 102.30 115.22 95.24 113.93
  Q 91.19 113.20 89.38 109.49
  Z"
/>
<path fill="#f48470" d="
  M 112.43 125.14
  C 111.56 127.46 112.45 134.02 112.63 136.72
  Q 112.69 137.59 113.02 138.14
  L 112.05 138.40
  C 105.84 141.58 101.32 143.93 94.37 140.60
  Q 92.64 139.77 90.92 139.14
  Q 90.38 138.81 90.10 138.09
  L 90.24 125.77
  Q 100.99 128.55 111.40 125.28
  Q 111.72 125.18 112.05 125.26
  Q 112.47 125.36 112.43 125.14
  Z"
/>
<path fill="#ffffff" d="
  M 90.10 138.09
  Q 90.38 138.81 90.92 139.14
  Q 89.68 141.99 89.89 143.49
  L 84.31 185.85
  Q 80.11 181.76 79.00 178.24
  Q 77.22 172.64 77.71 166.75
  C 78.36 158.97 79.94 155.23 81.68 149.20
  Q 82.45 146.56 83.91 144.77
  Q 86.74 141.33 90.10 138.09
  Z"
/>
<path fill="#ffffff" d="
  M 113.02 138.14
  Q 116.35 140.76 118.99 144.03
  Q 120.28 145.62 120.56 147.88
  C 122.07 159.98 126.89 178.42 116.06 187.93
  L 112.81 144.82
  Q 113.20 142.00 112.05 138.40
  L 113.02 138.14
  Z"
/>
<path fill="#f0c0b2" d="
  M 112.05 138.40
  Q 113.20 142.00 112.81 144.82
  Q 111.28 145.93 109.91 147.13
  C 103.72 152.57 93.78 150.84 89.89 143.49
  Q 89.68 141.99 90.92 139.14
  Q 92.64 139.77 94.37 140.60
  C 101.32 143.93 105.84 141.58 112.05 138.40
  Z"
/>
<path fill="#d6bc03" d="
  M 89.89 143.49
  C 93.78 150.84 103.72 152.57 109.91 147.13
  Q 111.28 145.93 112.81 144.82
  L 116.06 187.93
  Q 99.24 193.26 84.31 185.85
  L 89.89 143.49
  Z"
/>
<path fill="#e6e6e8" d="
  M 148.73 164.75
  L 148.91 165.74
  Q 148.99 166.21 149.31 166.57
  C 164.13 183.02 178.93 200.08 191.64 218.35
  Q 192.32 219.33 191.41 220.00
  L 161.39 220.00
  Q 160.70 219.95 160.22 219.73
  A 0.71 0.71 0.0 0 1 159.80 219.00
  C 159.92 218.07 160.03 217.28 159.56 216.41
  C 153.30 204.87 146.16 193.87 139.70 182.84
  Q 136.17 176.82 138.44 183.42
  Q 144.08 199.81 145.79 220.00
  L 130.48 220.00
  Q 128.77 217.12 127.73 213.62
  Q 126.91 210.85 126.97 206.79
  Q 127.47 175.26 127.16 164.13
  Q 127.13 162.83 125.39 161.45
  Q 125.01 161.14 124.57 161.38
  Q 124.01 161.68 124.13 162.55
  L 121.75 146.17
  Q 121.68 145.70 122.16 145.69
  Q 129.92 145.49 134.80 150.43
  Q 137.60 153.26 147.83 164.66
  Q 148.16 165.03 148.73 164.75
  Z"
/>
<path fill="#d1d0d3" d="
  M 78.13 156.32
  Q 78.10 155.32 77.73 154.70
  Q 77.26 153.90 76.36 154.12
  Q 74.70 154.54 74.89 155.27
  Q 74.98 155.61 74.78 155.91
  C 67.43 167.06 63.09 178.58 59.83 192.28
  Q 59.70 192.81 59.39 193.08
  Q 58.84 193.55 58.31 193.37
  Q 57.86 193.22 57.68 193.65
  Q 57.47 194.14 57.42 195.06
  L 54.37 174.02
  L 61.84 163.21
  Q 62.11 163.15 62.79 162.96
  Q 63.26 162.82 63.63 162.50
  Q 68.22 158.67 73.31 155.54
  C 75.37 154.28 76.82 152.68 78.03 150.82
  Q 80.59 146.91 79.41 151.42
  L 78.13 156.32
  Z"
/>
<path fill="#e6e6e8" d="
  M 78.13 156.32
  Q 76.60 160.89 76.56 165.73
  L 76.36 162.24
  Q 76.33 161.79 75.94 162.02
  C 73.30 163.53 73.42 166.99 73.78 169.99
  Q 75.86 187.57 77.13 205.24
  C 77.43 209.51 75.08 217.49 71.16 220.00
  L 55.31 220.00
  L 56.71 208.26
  Q 57.16 204.91 57.77 201.64
  C 58.20 199.29 57.80 197.32 57.42 195.06
  Q 57.47 194.14 57.68 193.65
  Q 57.86 193.22 58.31 193.37
  Q 58.84 193.55 59.39 193.08
  Q 59.70 192.81 59.83 192.28
  C 63.09 178.58 67.43 167.06 74.78 155.91
  Q 74.98 155.61 74.89 155.27
  Q 74.70 154.54 76.36 154.12
  Q 77.26 153.90 77.73 154.70
  Q 78.10 155.32 78.13 156.32
  Z"
/>
<path fill="#924e43" d="
  M 46.67 160.00
  L 50.75 159.47
  Q 51.31 159.40 51.63 159.86
  Q 52.11 160.57 52.25 161.73
  L 54.37 174.02
  L 57.42 195.06
  C 57.80 197.32 58.20 199.29 57.77 201.64
  Q 57.16 204.91 56.71 208.26
  L 49.78 163.59
  A 0.78 0.78 0.0 0 0 48.76 162.97
  Q 43.97 164.58 38.89 164.75
  Q 38.31 164.77 38.25 165.36
  Q 38.12 166.82 38.47 168.24
  A 0.81 0.80 78.9 0 1 37.81 169.23
  L 10.93 173.37
  A 0.97 0.96 84.8 0 1 9.82 172.44
  L 9.75 170.26
  A 1.06 1.06 0.0 0 0 8.48 169.25
  L 0.00 170.98
  L 0.00 167.10
  L 7.88 165.59
  Q 8.31 165.50 8.49 165.11
  L 9.02 163.93
  A 1.00 0.99 8.6 0 1 9.80 163.36
  Q 22.69 161.71 35.49 159.60
  Q 36.62 159.42 37.48 160.43
  A 1.00 1.00 0.0 0 0 38.32 160.78
  L 46.67 160.00
  Z"
/>
<path fill="#ffffff" d="
  M 130.48 220.00
  L 118.48 220.00
  L 116.09 189.63
  C 124.48 184.31 125.22 171.37 124.13 162.55
  Q 124.01 161.68 124.57 161.38
  Q 125.01 161.14 125.39 161.45
  Q 127.13 162.83 127.16 164.13
  Q 127.47 175.26 126.97 206.79
  Q 126.91 210.85 127.73 213.62
  Q 128.77 217.12 130.48 220.00
  Z"
/>
<path fill="#ffffff" d="
  M 76.56 165.73
  C 75.76 174.38 77.07 181.69 84.09 187.07
  L 79.52 219.23
  A 0.45 0.45 0.0 0 0 79.93 219.74
  Q 80.44 219.79 80.64 220.00
  L 71.16 220.00
  C 75.08 217.49 77.43 209.51 77.13 205.24
  Q 75.86 187.57 73.78 169.99
  C 73.42 166.99 73.30 163.53 75.94 162.02
  Q 76.33 161.79 76.36 162.24
  L 76.56 165.73
  Z"
/>
<path fill="#ffffff" d="
  M 52.25 161.73
  L 61.84 163.21
  L 54.37 174.02
  L 52.25 161.73
  Z"
/>
<path fill="#ffffff" d="
  M 56.71 208.26
  L 55.31 220.00
  L 9.42 220.00
  L 9.77 219.67
  Q 10.08 219.39 9.83 219.05
  L 9.61 218.75
  Q 9.77 217.76 9.53 216.78
  Q 9.18 216.26 9.05 215.80
  Q 8.92 215.35 9.39 215.27
  L 51.24 208.32
  Q 54.46 207.79 51.16 207.16
  Q 50.70 207.07 49.25 207.30
  Q 30.42 210.22 11.49 212.50
  Q 8.70 212.84 7.07 211.89
  L 6.64 210.93
  C 6.87 208.57 5.91 206.38 6.59 204.03
  A 1.43 1.43 0.0 0 0 6.16 202.56
  Q 5.42 201.92 4.49 201.67
  A 0.50 0.50 0.0 0 1 4.18 200.94
  C 4.57 200.28 5.15 199.57 5.34 198.89
  Q 6.14 196.08 3.92 195.64
  Q 2.38 195.33 3.13 193.96
  Q 5.08 190.34 1.51 188.08
  L 0.66 179.20
  A 0.13 0.12 44.7 0 0 0.41 179.20
  L 0.00 185.01
  L 0.00 170.98
  L 8.48 169.25
  A 1.06 1.06 0.0 0 1 9.75 170.26
  L 9.82 172.44
  A 0.97 0.96 84.8 0 0 10.93 173.37
  L 37.81 169.23
  A 0.81 0.80 78.9 0 0 38.47 168.24
  Q 38.12 166.82 38.25 165.36
  Q 38.31 164.77 38.89 164.75
  Q 43.97 164.58 48.76 162.97
  A 0.78 0.78 0.0 0 1 49.78 163.59
  L 56.71 208.26
  Z
  M 47.0995 176.2344
  A 0.71 0.71 0.0 0 0 46.2892 175.6414
  L 4.8429 182.0576
  A 0.71 0.71 0.0 0 0 4.2499 182.8679
  L 4.2805 183.0656
  A 0.71 0.71 0.0 0 0 5.0908 183.6586
  L 46.5371 177.2424
  A 0.71 0.71 0.0 0 0 47.1301 176.4321
  L 47.0995 176.2344
  Z
  M 48.7268 186.8370
  A 0.81 0.81 0.0 0 0 47.8059 186.1556
  L 6.4057 192.3429
  A 0.81 0.81 0.0 0 0 5.7244 193.2637
  L 5.7332 193.3230
  A 0.81 0.81 0.0 0 0 6.6541 194.0044
  L 48.0543 187.8171
  A 0.81 0.81 0.0 0 0 48.7356 186.8963
  L 48.7268 186.8370
  Z
  M 7.78 202.97
  L 8.02 204.54
  A 0.23 0.23 0.0 0 0 8.29 204.73
  L 8.48 204.70
  A 42.81 1.00 -8.9 0 0 50.62 197.08
  L 50.62 197.05
  A 42.81 1.00 -8.9 0 0 8.17 202.68
  L 7.97 202.71
  A 0.23 0.23 0.0 0 0 7.78 202.97
  Z"
/>
<rect fill="#e6e6e8" x="-21.68" y="-0.81" transform="translate(25.69,179.65) rotate(-8.8)" width="43.36" height="1.62" rx="0.71"/>
<path fill="#cd9269" d="
  M 1.51 188.08
  Q 1.77 188.74 0.47 189.38
  L 0.00 187.97
  L 0.00 185.01
  L 0.41 179.20
  A 0.13 0.12 44.7 0 1 0.66 179.20
  L 1.51 188.08
  Z"
/>
<path fill="#ffffff" d="
  M 161.39 220.00
  L 145.79 220.00
  Q 144.08 199.81 138.44 183.42
  Q 136.17 176.82 139.70 182.84
  C 146.16 193.87 153.30 204.87 159.56 216.41
  C 160.03 217.28 159.92 218.07 159.80 219.00
  A 0.71 0.71 0.0 0 0 160.22 219.73
  Q 160.70 219.95 161.39 220.00
  Z"
/>
<rect fill="#e6e6e8" x="-21.74" y="-0.84" transform="translate(27.23,190.08) rotate(-8.5)" width="43.48" height="1.68" rx="0.81"/>
<path fill="#d6bc03" d="
  M 84.09 187.07
  Q 91.04 190.83 98.83 191.65
  A 0.43 0.43 0.0 0 1 99.10 192.36
  Q 93.79 198.28 95.97 205.09
  Q 96.73 207.45 100.14 211.59
  Q 103.45 215.61 106.16 220.00
  L 80.64 220.00
  Q 80.44 219.79 79.93 219.74
  A 0.45 0.45 0.0 0 1 79.52 219.23
  L 84.09 187.07
  Z"
/>
<path fill="#f0c0b2" d="
  M 1.51 188.08
  Q 5.08 190.34 3.13 193.96
  Q 2.38 195.33 3.92 195.64
  Q 6.14 196.08 5.34 198.89
  C 5.15 199.57 4.57 200.28 4.18 200.94
  A 0.50 0.50 0.0 0 0 4.49 201.67
  Q 5.42 201.92 6.16 202.56
  A 1.43 1.43 0.0 0 1 6.59 204.03
  C 5.91 206.38 6.87 208.57 6.64 210.93
  C 3.47 210.67 3.56 213.37 2.13 215.21
  Q 1.83 215.59 1.81 216.07
  L 1.65 218.80
  L 1.53 218.13
  Q 1.51 218.00 1.38 218.00
  Q 1.23 218.00 1.09 218.00
  Q 0.86 218.00 0.83 217.78
  L 0.00 212.99
  L 0.00 191.50
  L 0.47 189.38
  Q 1.77 188.74 1.51 188.08
  Z"
/>
<path fill="#ffffff" d="
  M 0.00 187.97
  L 0.47 189.38
  L 0.00 191.50
  L 0.00 187.97
  Z"
/>
<path fill="#d6bc03" d="
  M 116.09 189.63
  L 118.48 220.00
  L 108.36 220.00
  Q 105.14 214.82 101.36 210.10
  Q 98.11 206.04 97.56 204.20
  C 96.28 199.93 98.26 195.25 101.33 192.25
  A 2.80 2.78 -65.0 0 1 103.45 191.47
  Q 109.68 191.86 116.09 189.63
  Z"
/>
<path fill="#e6e6e8" d="
  M 7.78 202.97
  A 0.23 0.23 0.0 0 1 7.97 202.71
  L 8.17 202.68
  A 42.81 1.00 -8.9 0 1 50.62 197.05
  L 50.62 197.08
  A 42.81 1.00 -8.9 0 1 8.48 204.70
  L 8.29 204.73
  A 0.23 0.23 0.0 0 1 8.02 204.54
  L 7.78 202.97
  Z"
/>
<path fill="#e6e6e8" d="
  M 9.53 216.78
  L 8.72 216.54
  Q 7.53 214.43 7.07 211.89
  Q 8.70 212.84 11.49 212.50
  Q 30.42 210.22 49.25 207.30
  Q 50.70 207.07 51.16 207.16
  Q 54.46 207.79 51.24 208.32
  L 9.39 215.27
  Q 8.92 215.35 9.05 215.80
  Q 9.18 216.26 9.53 216.78
  Z"
/>
<path fill="#050201" d="
  M 6.64 210.93
  L 7.07 211.89
  Q 7.53 214.43 8.72 216.54
  Q 8.77 217.81 9.61 218.75
  L 9.83 219.05
  Q 10.08 219.39 9.77 219.67
  L 9.42 220.00
  L 1.73 220.00
  Q 1.55 219.38 1.65 218.80
  L 1.81 216.07
  Q 1.83 215.59 2.13 215.21
  C 3.56 213.37 3.47 210.67 6.64 210.93
  Z"
/>
<path fill="#ffffff" d="
  M 0.00 212.99
  L 0.83 217.78
  Q 0.86 218.00 1.09 218.00
  Q 1.23 218.00 1.38 218.00
  Q 1.51 218.00 1.53 218.13
  L 1.65 218.80
  Q 1.55 219.38 1.73 220.00
  L 0.00 220.00
  L 0.00 212.99
  Z"
/>
<path fill="#cd9269" d="
  M 8.72 216.54
  L 9.53 216.78
  Q 9.77 217.76 9.61 218.75
  Q 8.77 217.81 8.72 216.54
  Z"
/>
</svg>
