<?xml version="1.0" encoding="UTF-8" standalone="no"?>
<!DOCTYPE svg PUBLIC "-//W3C//DTD SVG 1.1//EN" "http://www.w3.org/Graphics/SVG/1.1/DTD/svg11.dtd">
<svg xmlns="http://www.w3.org/2000/svg" version="1.1" viewBox="0.00 0.00 195.00 220.00">
<g stroke-width="2.00" fill="none" stroke-linecap="butt">
<path stroke="#9d918b" vector-effect="non-scaling-stroke" d="
  M 74.35 0.00
  C 64.13 1.65 48.82 8.92 51.96 21.92
  Q 52.08 22.39 51.86 22.83
  C 45.48 35.24 44.44 52.45 46.01 65.85"
/>
<path stroke="#fee4d0" vector-effect="non-scaling-stroke" d="
  M 46.01 65.85
  Q 36.20 62.63 33.90 70.20
  C 31.60 77.80 35.54 92.59 41.52 97.93
  C 43.20 99.43 45.10 99.36 47.24 99.33
  A 1.18 1.17 85.8 0 1 48.41 100.35
  C 49.53 108.99 52.03 119.68 58.85 125.66
  Q 65.52 131.50 72.54 136.95
  Q 73.28 137.52 73.98 138.79"
/>
<path stroke="#f6d5bf" vector-effect="non-scaling-stroke" d="
  M 73.98 138.79
  Q 74.82 142.56 74.28 144.51"
/>
<path stroke="#a4a5a4" vector-effect="non-scaling-stroke" d="
  M 74.28 144.51
  Q 60.14 146.12 51.46 155.90
  C 48.90 158.80 47.19 162.70 45.42 166.34
  Q 45.19 166.81 44.66 166.88
  Q 34.55 168.05 30.44 177.21
  C 24.49 190.47 28.98 203.11 40.28 211.63
  A 0.55 0.55 0.0 0 1 40.15 212.58
  L 30.94 216.36"
/>
<path stroke="#b8b7b8" vector-effect="non-scaling-stroke" d="
  M 30.94 216.36
  Q 28.26 216.47 27.25 216.69
  Q 26.56 216.84 26.25 217.48
  Q 25.99 218.00 26.57 217.95
  L 31.95 217.54"
/>
<path stroke="#a4a5a4" vector-effect="non-scaling-stroke" d="
  M 31.95 217.54
  Q 37.70 216.57 42.64 213.63
  Q 43.06 213.38 43.49 213.62
  Q 51.24 217.86 60.11 218.42
  Q 61.46 218.51 60.56 217.50
  Q 59.74 216.58 58.01 216.71
  Q 57.48 216.74 56.99 216.55
  L 46.91 212.70
  A 0.58 0.57 38.5 0 1 46.79 211.69
  C 53.56 207.08 58.25 202.44 59.81 193.75"
/>
<path stroke="#ededee" vector-effect="non-scaling-stroke" d="
  M 59.81 193.75
  Q 63.34 197.18 66.40 200.09
  Q 68.16 201.76 67.79 203.50
  C 66.90 207.59 66.67 209.54 68.75 213.40
  Q 70.21 216.10 71.72 218.77
  A 1.21 1.21 0.0 0 0 72.46 219.34
  L 74.89 220.00"
/>
<path stroke="#9d918b" vector-effect="non-scaling-stroke" d="
  M 118.00 0.00
  C 127.24 1.23 138.29 6.79 141.23 16.63
  C 141.98 19.13 141.26 21.54 142.36 24.26
  C 148.00 38.16 148.55 51.39 147.53 66.56"
/>
<path stroke="#9c765b" vector-effect="non-scaling-stroke" d="
  M 147.53 66.56
  L 145.96 78.99
  Q 145.81 80.15 145.27 79.11
  Q 143.00 74.74 141.75 69.49
  C 141.19 67.15 140.23 65.04 139.56 62.72
  Q 135.90 49.99 132.32 37.24
  Q 131.64 34.80 130.48 32.75
  A 0.59 0.59 0.0 0 0 129.68 32.53
  C 123.70 35.96 117.98 37.20 110.57 38.39
  C 95.20 40.88 76.66 39.90 62.63 32.45
  A 0.23 0.22 20.3 0 0 62.30 32.60
  Q 61.78 35.18 61.04 37.74
  Q 56.57 53.15 51.88 68.49
  C 50.89 71.72 49.86 75.98 48.57 78.64
  Q 47.44 80.97 47.19 78.39
  L 46.01 65.85"
/>
<path stroke="#ededee" vector-effect="non-scaling-stroke" d="
  M 190.97 220.00
  Q 187.70 208.31 184.39 196.87
  Q 183.32 193.18 178.96 182.54
  C 175.59 174.33 171.57 173.75 163.67 171.65
  C 158.64 170.31 153.41 169.83 148.20 168.64"
/>
<path stroke="#b8b7b8" vector-effect="non-scaling-stroke" d="
  M 148.20 168.64
  C 145.19 154.99 133.86 144.92 119.76 144.13"
/>
<path stroke="#f6d5bf" vector-effect="non-scaling-stroke" d="
  M 119.76 144.13
  L 119.33 139.92"
/>
<path stroke="#fee4d0" vector-effect="non-scaling-stroke" d="
  M 119.33 139.92
  Q 119.91 137.63 121.17 136.66
  Q 127.85 131.51 134.23 125.99
  C 141.61 119.60 143.84 108.60 145.28 100.01
  Q 145.36 99.54 145.83 99.50
  C 148.45 99.27 150.59 99.57 152.48 97.24
  Q 160.98 86.72 160.01 73.82
  C 159.41 65.90 155.51 62.11 147.53 66.56"
/>
<path stroke="#f5ba90" vector-effect="non-scaling-stroke" d="
  M 119.33 139.92
  Q 119.39 139.45 119.20 139.02
  A 0.42 0.42 0.0 0 0 118.52 138.89
  C 116.71 140.62 115.16 142.29 112.98 143.44
  Q 103.57 148.35 92.75 147.22
  Q 82.27 146.13 73.98 138.79"
/>
<path stroke="#9c765b" vector-effect="non-scaling-stroke" d="
  M 85.87 67.86
  C 77.88 55.04 64.79 59.76 56.12 68.27
  A 0.40 0.40 0.0 0 0 56.20 68.90
  Q 56.54 69.10 56.99 68.90
  Q 62.46 66.53 68.32 65.91
  C 73.80 65.34 79.41 66.88 84.74 68.52
  Q 85.38 68.72 85.80 68.35
  A 0.39 0.38 -37.5 0 0 85.87 67.86"
/>
<path stroke="#9c765b" vector-effect="non-scaling-stroke" d="
  M 108.64 68.44
  C 118.15 65.59 126.79 64.55 135.89 68.86
  Q 138.61 70.15 136.55 67.96
  C 131.45 62.56 123.53 58.32 115.93 60.72
  C 112.45 61.82 109.60 64.82 107.33 67.69
  A 0.41 0.41 0.0 0 0 107.46 68.31
  Q 108.05 68.61 108.64 68.44"
/>
<path stroke="#9c765b" vector-effect="non-scaling-stroke" d="
  M 80.21 77.93
  A 6.10 6.10 0.0 0 0 74.11 71.83
  A 6.10 6.10 0.0 0 0 68.01 77.93
  A 6.10 6.10 0.0 0 0 74.11 84.03
  A 6.10 6.10 0.0 0 0 80.21 77.93"
/>
<path stroke="#9c765b" vector-effect="non-scaling-stroke" d="
  M 125.10 77.95
  A 6.14 6.14 0.0 0 0 118.96 71.81
  A 6.14 6.14 0.0 0 0 112.82 77.95
  A 6.14 6.14 0.0 0 0 118.96 84.09
  A 6.14 6.14 0.0 0 0 125.10 77.95"
/>
<path stroke="#f5ba90" vector-effect="non-scaling-stroke" d="
  M 76.57 109.34
  L 81.94 111.22
  Q 83.68 111.82 85.52 112.03
  L 97.22 113.35"
/>
<path stroke="#fee4d0" vector-effect="non-scaling-stroke" d="
  M 97.22 113.35
  Q 90.46 114.21 83.98 112.39
  A 0.69 0.67 -73.2 0 0 83.14 112.85
  L 82.94 113.46"
/>
<path stroke="#f5ba90" vector-effect="non-scaling-stroke" d="
  M 82.94 113.46
  Q 82.36 112.37 81.49 111.79
  Q 80.96 111.43 80.74 112.03
  Q 80.31 113.16 81.33 114.19
  C 87.40 120.34 91.17 123.19 100.51 121.99
  Q 107.91 121.04 112.97 114.48
  Q 114.31 112.75 113.69 111.22
  Q 113.51 110.77 113.90 110.50
  L 115.23 109.58"
/>
<path stroke="#9c765b" vector-effect="non-scaling-stroke" d="
  M 115.23 109.58
  L 119.43 108.70
  Q 122.24 108.11 119.39 107.78
  Q 117.80 107.60 115.92 107.17
  C 111.62 106.19 109.27 102.10 105.01 101.10
  Q 101.14 100.19 97.20 101.36
  A 1.60 1.59 45.3 0 1 96.26 101.35
  Q 91.71 99.99 87.30 101.33
  C 83.34 102.53 81.01 106.83 76.75 107.34
  Q 75.05 107.55 73.75 107.95
  Q 72.91 108.21 73.69 108.62
  Q 74.86 109.24 76.57 109.34"
/>
<path stroke="#94674b" vector-effect="non-scaling-stroke" d="
  M 115.23 109.58
  Q 108.61 110.04 102.00 109.57
  C 99.58 109.40 98.54 108.19 97.07 106.75
  A 0.58 0.57 -46.0 0 0 96.24 106.77
  Q 94.05 109.19 92.02 109.45
  Q 86.56 110.12 76.57 109.34"
/>
<path stroke="#f6d5bf" vector-effect="non-scaling-stroke" d="
  M 82.94 113.46
  C 90.51 119.72 103.08 121.37 110.75 114.34
  Q 112.92 112.35 109.98 112.54
  C 109.38 112.58 108.11 113.35 107.12 113.45
  Q 102.13 113.94 97.22 113.35"
/>
<path stroke="#af8d78" vector-effect="non-scaling-stroke" d="
  M 119.76 144.13
  Q 118.91 145.07 119.21 146.01"
/>
<path stroke="#f5ba90" vector-effect="non-scaling-stroke" d="
  M 119.21 146.01
  Q 118.95 146.27 118.85 146.81
  Q 118.76 147.30 118.29 147.45
  C 114.90 148.47 111.01 150.19 107.47 150.21
  C 98.97 150.25 89.84 152.16 81.62 149.65
  Q 76.24 148.01 74.57 147.69"
/>
<path stroke="#f6d5bf" vector-effect="non-scaling-stroke" d="
  M 74.57 147.69
  Q 74.55 147.92 73.80 147.60"
/>
<path stroke="#9b7b64" vector-effect="non-scaling-stroke" d="
  M 73.80 147.60
  L 74.28 144.51"
/>
<path stroke="#a5a5a7" vector-effect="non-scaling-stroke" d="
  M 148.20 168.64
  Q 148.57 171.16 149.12 173.57
  C 150.35 178.98 150.10 184.85 150.02 190.52
  A 1.49 1.49 0.0 0 0 150.93 191.91
  C 156.49 194.28 160.18 197.61 159.35 204.24
  C 158.19 213.66 146.99 217.34 140.36 210.65
  C 137.18 207.45 135.92 202.77 137.67 198.44
  C 139.26 194.53 142.83 192.80 146.35 191.50
  A 0.73 0.72 -7.9 0 0 146.82 190.89
  Q 148.02 178.77 145.45 167.70"
/>
<path stroke="#b8b7b8" vector-effect="non-scaling-stroke" d="
  M 145.45 167.70
  Q 139.70 149.88 121.10 146.67"
/>
<path stroke="#b69c89" vector-effect="non-scaling-stroke" d="
  M 121.10 146.67
  Q 120.24 146.55 119.21 146.01"
/>
<path stroke="#b8b7b8" vector-effect="non-scaling-stroke" d="
  M 153.5185 200.9804
  A 5.64 5.36 -18.5 0 0 146.4692 197.6870
  A 5.64 5.36 -18.5 0 0 142.8215 204.5596
  A 5.64 5.36 -18.5 0 0 149.8708 207.8530
  A 5.64 5.36 -18.5 0 0 153.5185 200.9804"
/>
<path stroke="#a4a5a4" vector-effect="non-scaling-stroke" d="
  M 73.80 147.60
  C 62.04 147.32 52.00 156.34 47.99 166.85
  A 0.28 0.27 -73.2 0 0 48.18 167.22
  C 54.10 168.74 57.35 173.09 59.23 178.99"
/>
<path stroke="#929293" vector-effect="non-scaling-stroke" d="
  M 59.23 178.99
  Q 60.90 186.45 59.81 193.75"
/>
<path stroke="#5d5d5d" vector-effect="non-scaling-stroke" d="
  M 31.95 217.54
  Q 31.15 217.23 30.94 216.36"
/>
<path stroke="#a4a5a4" vector-effect="non-scaling-stroke" d="
  M 31.00 182.51
  C 27.99 193.95 33.22 204.30 42.67 210.56
  A 1.13 1.13 0.0 0 0 43.87 210.59
  C 48.86 207.62 54.35 203.26 56.29 197.51
  C 58.85 189.93 58.88 173.24 49.26 170.05
  C 40.07 167.00 33.15 174.39 31.00 182.51"
/>
<path stroke="#fee4d0" vector-effect="non-scaling-stroke" d="
  M 121.10 146.67
  Q 117.65 147.86 119.62 151.21"
/>
<path stroke="#f0927d" vector-effect="non-scaling-stroke" d="
  M 119.62 151.21
  Q 110.36 157.41 100.74 163.74
  C 98.50 165.21 97.17 166.41 94.53 164.72
  Q 84.05 158.00 73.26 150.70"
/>
<path stroke="#fee4d0" vector-effect="non-scaling-stroke" d="
  M 73.26 150.70
  Q 74.74 150.64 74.57 147.69"
/>
<path stroke="#ededee" vector-effect="non-scaling-stroke" d="
  M 145.45 167.70
  Q 138.22 166.91 131.37 164.75
  Q 130.41 164.45 130.48 165.46
  C 130.75 169.63 132.57 173.64 133.24 177.54
  Q 134.18 182.99 135.75 188.29
  Q 136.60 191.16 135.07 192.54
  Q 130.98 196.21 127.14 200.14
  C 125.34 201.99 126.88 204.87 128.02 206.79
  C 129.58 209.42 129.79 210.42 128.12 212.90
  Q 126.12 215.86 123.99 218.86
  Q 123.60 219.41 124.26 219.56
  L 126.14 220.00"
/>
<path stroke="#f1adac" vector-effect="non-scaling-stroke" d="
  M 105.66 220.00
  Q 106.63 219.54 106.78 219.00
  Q 113.71 192.74 120.84 166.54
  Q 121.55 163.96 122.09 161.33
  C 122.80 157.91 122.37 154.40 122.44 150.86
  Q 122.46 150.03 121.69 150.35
  L 119.62 151.21"
/>
<path stroke="#f1adac" vector-effect="non-scaling-stroke" d="
  M 73.26 150.70
  Q 71.54 148.68 70.19 156.25"
/>
<path stroke="#ededee" vector-effect="non-scaling-stroke" d="
  M 70.19 156.25
  Q 68.25 158.50 65.73 161.06
  C 64.51 162.30 63.39 164.30 63.14 165.75
  Q 62.02 172.34 59.23 178.99"
/>
<path stroke="#904d68" vector-effect="non-scaling-stroke" d="
  M 104.66 220.00
  Q 103.16 210.51 102.36 198.50
  Q 102.01 193.13 100.88 188.19"
/>
<path stroke="#863f5c" vector-effect="non-scaling-stroke" d="
  M 100.88 188.19
  Q 101.08 186.28 101.59 185.84
  Q 105.22 182.69 107.61 178.59
  A 1.07 1.06 -53.0 0 0 107.43 177.28
  L 97.61 167.81
  A 1.15 1.15 0.0 0 0 96.00 167.82
  L 86.63 177.00
  A 1.80 1.79 52.4 0 0 86.35 179.21
  Q 88.59 182.92 92.26 185.81"
/>
<path stroke="#904d68" vector-effect="non-scaling-stroke" d="
  M 92.26 185.81
  C 92.88 192.79 91.73 200.42 90.75 209.34
  C 90.40 212.53 90.67 216.43 90.10 220.00"
/>
<path stroke="#df9b9b" vector-effect="non-scaling-stroke" d="
  M 88.16 220.00
  Q 87.08 219.75 86.68 218.26
  Q 78.29 187.12 70.19 156.25"
/>
<path stroke="#32306b" vector-effect="non-scaling-stroke" d="
  M 100.88 188.19
  Q 97.66 185.81 95.50 186.01
  Q 93.40 186.21 92.26 185.81"
/>
</g>
<path fill="#ffffff" d="
  M 0.00 0.00
  L 74.35 0.00
  C 64.13 1.65 48.82 8.92 51.96 21.92
  Q 52.08 22.39 51.86 22.83
  C 45.48 35.24 44.44 52.45 46.01 65.85
  Q 36.20 62.63 33.90 70.20
  C 31.60 77.80 35.54 92.59 41.52 97.93
  C 43.20 99.43 45.10 99.36 47.24 99.33
  A 1.18 1.17 85.8 0 1 48.41 100.35
  C 49.53 108.99 52.03 119.68 58.85 125.66
  Q 65.52 131.50 72.54 136.95
  Q 73.28 137.52 73.98 138.79
  Q 74.82 142.56 74.28 144.51
  Q 60.14 146.12 51.46 155.90
  C 48.90 158.80 47.19 162.70 45.42 166.34
  Q 45.19 166.81 44.66 166.88
  Q 34.55 168.05 30.44 177.21
  C 24.49 190.47 28.98 203.11 40.28 211.63
  A 0.55 0.55 0.0 0 1 40.15 212.58
  L 30.94 216.36
  Q 28.26 216.47 27.25 216.69
  Q 26.56 216.84 26.25 217.48
  Q 25.99 218.00 26.57 217.95
  L 31.95 217.54
  Q 37.70 216.57 42.64 213.63
  Q 43.06 213.38 43.49 213.62
  Q 51.24 217.86 60.11 218.42
  Q 61.46 218.51 60.56 217.50
  Q 59.74 216.58 58.01 216.71
  Q 57.48 216.74 56.99 216.55
  L 46.91 212.70
  A 0.58 0.57 38.5 0 1 46.79 211.69
  C 53.56 207.08 58.25 202.44 59.81 193.75
  Q 63.34 197.18 66.40 200.09
  Q 68.16 201.76 67.79 203.50
  C 66.90 207.59 66.67 209.54 68.75 213.40
  Q 70.21 216.10 71.72 218.77
  A 1.21 1.21 0.0 0 0 72.46 219.34
  L 74.89 220.00
  L 0.00 220.00
  L 0.00 0.00
  Z"
/>
<path fill="#3b2316" d="
  M 74.35 0.00
  L 118.00 0.00
  C 127.24 1.23 138.29 6.79 141.23 16.63
  C 141.98 19.13 141.26 21.54 142.36 24.26
  C 148.00 38.16 148.55 51.39 147.53 66.56
  L 145.96 78.99
  Q 145.81 80.15 145.27 79.11
  Q 143.00 74.74 141.75 69.49
  C 141.19 67.15 140.23 65.04 139.56 62.72
  Q 135.90 49.99 132.32 37.24
  Q 131.64 34.80 130.48 32.75
  A 0.59 0.59 0.0 0 0 129.68 32.53
  C 123.70 35.96 117.98 37.20 110.57 38.39
  C 95.20 40.88 76.66 39.90 62.63 32.45
  A 0.23 0.22 20.3 0 0 62.30 32.60
  Q 61.78 35.18 61.04 37.74
  Q 56.57 53.15 51.88 68.49
  C 50.89 71.72 49.86 75.98 48.57 78.64
  Q 47.44 80.97 47.19 78.39
  L 46.01 65.85
  C 44.44 52.45 45.48 35.24 51.86 22.83
  Q 52.08 22.39 51.96 21.92
  C 48.82 8.92 64.13 1.65 74.35 0.00
  Z"
/>
<path fill="#ffffff" d="
  M 118.00 0.00
  L 195.00 0.00
  L 195.00 220.00
  L 190.97 220.00
  Q 187.70 208.31 184.39 196.87
  Q 183.32 193.18 178.96 182.54
  C 175.59 174.33 171.57 173.75 163.67 171.65
  C 158.64 170.31 153.41 169.83 148.20 168.64
  C 145.19 154.99 133.86 144.92 119.76 144.13
  L 119.33 139.92
  Q 119.91 137.63 121.17 136.66
  Q 127.85 131.51 134.23 125.99
  C 141.61 119.60 143.84 108.60 145.28 100.01
  Q 145.36 99.54 145.83 99.50
  C 148.45 99.27 150.59 99.57 152.48 97.24
  Q 160.98 86.72 160.01 73.82
  C 159.41 65.90 155.51 62.11 147.53 66.56
  C 148.55 51.39 148.00 38.16 142.36 24.26
  C 141.26 21.54 141.98 19.13 141.23 16.63
  C 138.29 6.79 127.24 1.23 118.00 0.00
  Z"
/>
<path fill="#fcc9a0" d="
  M 147.53 66.56
  C 155.51 62.11 159.41 65.90 160.01 73.82
  Q 160.98 86.72 152.48 97.24
  C 150.59 99.57 148.45 99.27 145.83 99.50
  Q 145.36 99.54 145.28 100.01
  C 143.84 108.60 141.61 119.60 134.23 125.99
  Q 127.85 131.51 121.17 136.66
  Q 119.91 137.63 119.33 139.92
  Q 119.39 139.45 119.20 139.02
  A 0.42 0.42 0.0 0 0 118.52 138.89
  C 116.71 140.62 115.16 142.29 112.98 143.44
  Q 103.57 148.35 92.75 147.22
  Q 82.27 146.13 73.98 138.79
  Q 73.28 137.52 72.54 136.95
  Q 65.52 131.50 58.85 125.66
  C 52.03 119.68 49.53 108.99 48.41 100.35
  A 1.18 1.17 85.8 0 0 47.24 99.33
  C 45.10 99.36 43.20 99.43 41.52 97.93
  C 35.54 92.59 31.60 77.80 33.90 70.20
  Q 36.20 62.63 46.01 65.85
  L 47.19 78.39
  Q 47.44 80.97 48.57 78.64
  C 49.86 75.98 50.89 71.72 51.88 68.49
  Q 56.57 53.15 61.04 37.74
  Q 61.78 35.18 62.30 32.60
  A 0.23 0.22 20.3 0 1 62.63 32.45
  C 76.66 39.90 95.20 40.88 110.57 38.39
  C 117.98 37.20 123.70 35.96 129.68 32.53
  A 0.59 0.59 0.0 0 1 130.48 32.75
  Q 131.64 34.80 132.32 37.24
  Q 135.90 49.99 139.56 62.72
  C 140.23 65.04 141.19 67.15 141.75 69.49
  Q 143.00 74.74 145.27 79.11
  Q 145.81 80.15 145.96 78.99
  L 147.53 66.56
  Z
  M 85.87 67.86
  C 77.88 55.04 64.79 59.76 56.12 68.27
  A 0.40 0.40 0.0 0 0 56.20 68.90
  Q 56.54 69.10 56.99 68.90
  Q 62.46 66.53 68.32 65.91
  C 73.80 65.34 79.41 66.88 84.74 68.52
  Q 85.38 68.72 85.80 68.35
  A 0.39 0.38 -37.5 0 0 85.87 67.86
  Z
  M 108.64 68.44
  C 118.15 65.59 126.79 64.55 135.89 68.86
  Q 138.61 70.15 136.55 67.96
  C 131.45 62.56 123.53 58.32 115.93 60.72
  C 112.45 61.82 109.60 64.82 107.33 67.69
  A 0.41 0.41 0.0 0 0 107.46 68.31
  Q 108.05 68.61 108.64 68.44
  Z
  M 80.21 77.93
  A 6.10 6.10 0.0 0 0 74.11 71.83
  A 6.10 6.10 0.0 0 0 68.01 77.93
  A 6.10 6.10 0.0 0 0 74.11 84.03
  A 6.10 6.10 0.0 0 0 80.21 77.93
  Z
  M 125.10 77.95
  A 6.14 6.14 0.0 0 0 118.96 71.81
  A 6.14 6.14 0.0 0 0 112.82 77.95
  A 6.14 6.14 0.0 0 0 118.96 84.09
  A 6.14 6.14 0.0 0 0 125.10 77.95
  Z
  M 76.57 109.34
  L 81.94 111.22
  Q 83.68 111.82 85.52 112.03
  L 97.22 113.35
  Q 90.46 114.21 83.98 112.39
  A 0.69 0.67 -73.2 0 0 83.14 112.85
  L 82.94 113.46
  Q 82.36 112.37 81.49 111.79
  Q 80.96 111.43 80.74 112.03
  Q 80.31 113.16 81.33 114.19
  C 87.40 120.34 91.17 123.19 100.51 121.99
  Q 107.91 121.04 112.97 114.48
  Q 114.31 112.75 113.69 111.22
  Q 113.51 110.77 113.90 110.50
  L 115.23 109.58
  L 119.43 108.70
  Q 122.24 108.11 119.39 107.78
  Q 117.80 107.60 115.92 107.17
  C 111.62 106.19 109.27 102.10 105.01 101.10
  Q 101.14 100.19 97.20 101.36
  A 1.60 1.59 45.3 0 1 96.26 101.35
  Q 91.71 99.99 87.30 101.33
  C 83.34 102.53 81.01 106.83 76.75 107.34
  Q 75.05 107.55 73.75 107.95
  Q 72.91 108.21 73.69 108.62
  Q 74.86 109.24 76.57 109.34
  Z"
/>
<path fill="#3b2316" d="
  M 56.12 68.27
  C 64.79 59.76 77.88 55.04 85.87 67.86
  A 0.39 0.38 -37.5 0 1 85.80 68.35
  Q 85.38 68.72 84.74 68.52
  C 79.41 66.88 73.80 65.34 68.32 65.91
  Q 62.46 66.53 56.99 68.90
  Q 56.54 69.10 56.20 68.90
  A 0.40 0.40 0.0 0 1 56.12 68.27
  Z"
/>
<path fill="#3b2316" d="
  M 108.64 68.44
  Q 108.05 68.61 107.46 68.31
  A 0.41 0.41 0.0 0 1 107.33 67.69
  C 109.60 64.82 112.45 61.82 115.93 60.72
  C 123.53 58.32 131.45 62.56 136.55 67.96
  Q 138.61 70.15 135.89 68.86
  C 126.79 64.55 118.15 65.59 108.64 68.44
  Z"
/>
<circle fill="#3b2316" cx="74.11" cy="77.93" r="6.10"/>
<circle fill="#3b2316" cx="118.96" cy="77.95" r="6.14"/>
<path fill="#3b2316" d="
  M 115.23 109.58
  Q 108.61 110.04 102.00 109.57
  C 99.58 109.40 98.54 108.19 97.07 106.75
  A 0.58 0.57 -46.0 0 0 96.24 106.77
  Q 94.05 109.19 92.02 109.45
  Q 86.56 110.12 76.57 109.34
  Q 74.86 109.24 73.69 108.62
  Q 72.91 108.21 73.75 107.95
  Q 75.05 107.55 76.75 107.34
  C 81.01 106.83 83.34 102.53 87.30 101.33
  Q 91.71 99.99 96.26 101.35
  A 1.60 1.59 45.3 0 0 97.20 101.36
  Q 101.14 100.19 105.01 101.10
  C 109.27 102.10 111.62 106.19 115.92 107.17
  Q 117.80 107.60 119.39 107.78
  Q 122.24 108.11 119.43 108.70
  L 115.23 109.58
  Z"
/>
<path fill="#edab7f" d="
  M 115.23 109.58
  L 113.90 110.50
  Q 113.51 110.77 113.69 111.22
  Q 114.31 112.75 112.97 114.48
  Q 107.91 121.04 100.51 121.99
  C 91.17 123.19 87.40 120.34 81.33 114.19
  Q 80.31 113.16 80.74 112.03
  Q 80.96 111.43 81.49 111.79
  Q 82.36 112.37 82.94 113.46
  C 90.51 119.72 103.08 121.37 110.75 114.34
  Q 112.92 112.35 109.98 112.54
  C 109.38 112.58 108.11 113.35 107.12 113.45
  Q 102.13 113.94 97.22 113.35
  L 85.52 112.03
  Q 83.68 111.82 81.94 111.22
  L 76.57 109.34
  Q 86.56 110.12 92.02 109.45
  Q 94.05 109.19 96.24 106.77
  A 0.58 0.57 -46.0 0 1 97.07 106.75
  C 98.54 108.19 99.58 109.40 102.00 109.57
  Q 108.61 110.04 115.23 109.58
  Z"
/>
<path fill="#ffffff" d="
  M 97.22 113.35
  Q 102.13 113.94 107.12 113.45
  C 108.11 113.35 109.38 112.58 109.98 112.54
  Q 112.92 112.35 110.75 114.34
  C 103.08 121.37 90.51 119.72 82.94 113.46
  L 83.14 112.85
  A 0.69 0.67 -73.2 0 1 83.98 112.39
  Q 90.46 114.21 97.22 113.35
  Z"
/>
<path fill="#edab7f" d="
  M 119.33 139.92
  L 119.76 144.13
  Q 118.91 145.07 119.21 146.01
  Q 118.95 146.27 118.85 146.81
  Q 118.76 147.30 118.29 147.45
  C 114.90 148.47 111.01 150.19 107.47 150.21
  C 98.97 150.25 89.84 152.16 81.62 149.65
  Q 76.24 148.01 74.57 147.69
  Q 74.55 147.92 73.80 147.60
  L 74.28 144.51
  Q 74.82 142.56 73.98 138.79
  Q 82.27 146.13 92.75 147.22
  Q 103.57 148.35 112.98 143.44
  C 115.16 142.29 116.71 140.62 118.52 138.89
  A 0.42 0.42 0.0 0 1 119.20 139.02
  Q 119.39 139.45 119.33 139.92
  Z"
/>
<path fill="#706f71" d="
  M 119.76 144.13
  C 133.86 144.92 145.19 154.99 148.20 168.64
  Q 148.57 171.16 149.12 173.57
  C 150.35 178.98 150.10 184.85 150.02 190.52
  A 1.49 1.49 0.0 0 0 150.93 191.91
  C 156.49 194.28 160.18 197.61 159.35 204.24
  C 158.19 213.66 146.99 217.34 140.36 210.65
  C 137.18 207.45 135.92 202.77 137.67 198.44
  C 139.26 194.53 142.83 192.80 146.35 191.50
  A 0.73 0.72 -7.9 0 0 146.82 190.89
  Q 148.02 178.77 145.45 167.70
  Q 139.70 149.88 121.10 146.67
  Q 120.24 146.55 119.21 146.01
  Q 118.91 145.07 119.76 144.13
  Z
  M 153.5185 200.9804
  A 5.64 5.36 -18.5 0 0 146.4692 197.6870
  A 5.64 5.36 -18.5 0 0 142.8215 204.5596
  A 5.64 5.36 -18.5 0 0 149.8708 207.8530
  A 5.64 5.36 -18.5 0 0 153.5185 200.9804
  Z"
/>
<path fill="#494a49" d="
  M 74.28 144.51
  L 73.80 147.60
  C 62.04 147.32 52.00 156.34 47.99 166.85
  A 0.28 0.27 -73.2 0 0 48.18 167.22
  C 54.10 168.74 57.35 173.09 59.23 178.99
  Q 60.90 186.45 59.81 193.75
  C 58.25 202.44 53.56 207.08 46.79 211.69
  A 0.58 0.57 38.5 0 0 46.91 212.70
  L 56.99 216.55
  Q 57.48 216.74 58.01 216.71
  Q 59.74 216.58 60.56 217.50
  Q 61.46 218.51 60.11 218.42
  Q 51.24 217.86 43.49 213.62
  Q 43.06 213.38 42.64 213.63
  Q 37.70 216.57 31.95 217.54
  Q 31.15 217.23 30.94 216.36
  L 40.15 212.58
  A 0.55 0.55 0.0 0 0 40.28 211.63
  C 28.98 203.11 24.49 190.47 30.44 177.21
  Q 34.55 168.05 44.66 166.88
  Q 45.19 166.81 45.42 166.34
  C 47.19 162.70 48.90 158.80 51.46 155.90
  Q 60.14 146.12 74.28 144.51
  Z
  M 31.00 182.51
  C 27.99 193.95 33.22 204.30 42.67 210.56
  A 1.13 1.13 0.0 0 0 43.87 210.59
  C 48.86 207.62 54.35 203.26 56.29 197.51
  C 58.85 189.93 58.88 173.24 49.26 170.05
  C 40.07 167.00 33.15 174.39 31.00 182.51
  Z"
/>
<path fill="#fcc9a0" d="
  M 119.21 146.01
  Q 120.24 146.55 121.10 146.67
  Q 117.65 147.86 119.62 151.21
  Q 110.36 157.41 100.74 163.74
  C 98.50 165.21 97.17 166.41 94.53 164.72
  Q 84.05 158.00 73.26 150.70
  Q 74.74 150.64 74.57 147.69
  Q 76.24 148.01 81.62 149.65
  C 89.84 152.16 98.97 150.25 107.47 150.21
  C 111.01 150.19 114.90 148.47 118.29 147.45
  Q 118.76 147.30 118.85 146.81
  Q 118.95 146.27 119.21 146.01
  Z"
/>
<path fill="#ffffff" d="
  M 121.10 146.67
  Q 139.70 149.88 145.45 167.70
  Q 138.22 166.91 131.37 164.75
  Q 130.41 164.45 130.48 165.46
  C 130.75 169.63 132.57 173.64 133.24 177.54
  Q 134.18 182.99 135.75 188.29
  Q 136.60 191.16 135.07 192.54
  Q 130.98 196.21 127.14 200.14
  C 125.34 201.99 126.88 204.87 128.02 206.79
  C 129.58 209.42 129.79 210.42 128.12 212.90
  Q 126.12 215.86 123.99 218.86
  Q 123.60 219.41 124.26 219.56
  L 126.14 220.00
  L 105.66 220.00
  Q 106.63 219.54 106.78 219.00
  Q 113.71 192.74 120.84 166.54
  Q 121.55 163.96 122.09 161.33
  C 122.80 157.91 122.37 154.40 122.44 150.86
  Q 122.46 150.03 121.69 150.35
  L 119.62 151.21
  Q 117.65 147.86 121.10 146.67
  Z"
/>
<path fill="#ffffff" d="
  M 73.80 147.60
  Q 74.55 147.92 74.57 147.69
  Q 74.74 150.64 73.26 150.70
  Q 71.54 148.68 70.19 156.25
  Q 68.25 158.50 65.73 161.06
  C 64.51 162.30 63.39 164.30 63.14 165.75
  Q 62.02 172.34 59.23 178.99
  C 57.35 173.09 54.10 168.74 48.18 167.22
  A 0.28 0.27 -73.2 0 1 47.99 166.85
  C 52.00 156.34 62.04 147.32 73.80 147.60
  Z"
/>
<path fill="#e35b59" d="
  M 105.66 220.00
  L 104.66 220.00
  Q 103.16 210.51 102.36 198.50
  Q 102.01 193.13 100.88 188.19
  Q 101.08 186.28 101.59 185.84
  Q 105.22 182.69 107.61 178.59
  A 1.07 1.06 -53.0 0 0 107.43 177.28
  L 97.61 167.81
  A 1.15 1.15 0.0 0 0 96.00 167.82
  L 86.63 177.00
  A 1.80 1.79 52.4 0 0 86.35 179.21
  Q 88.59 182.92 92.26 185.81
  C 92.88 192.79 91.73 200.42 90.75 209.34
  C 90.40 212.53 90.67 216.43 90.10 220.00
  L 88.16 220.00
  Q 87.08 219.75 86.68 218.26
  Q 78.29 187.12 70.19 156.25
  Q 71.54 148.68 73.26 150.70
  Q 84.05 158.00 94.53 164.72
  C 97.17 166.41 98.50 165.21 100.74 163.74
  Q 110.36 157.41 119.62 151.21
  L 121.69 150.35
  Q 122.46 150.03 122.44 150.86
  C 122.37 154.40 122.80 157.91 122.09 161.33
  Q 121.55 163.96 120.84 166.54
  Q 113.71 192.74 106.78 219.00
  Q 106.63 219.54 105.66 220.00
  Z"
/>
<path fill="#dadadc" d="
  M 70.19 156.25
  Q 78.29 187.12 86.68 218.26
  Q 87.08 219.75 88.16 220.00
  L 74.89 220.00
  L 72.46 219.34
  A 1.21 1.21 0.0 0 1 71.72 218.77
  Q 70.21 216.10 68.75 213.40
  C 66.67 209.54 66.90 207.59 67.79 203.50
  Q 68.16 201.76 66.40 200.09
  Q 63.34 197.18 59.81 193.75
  Q 60.90 186.45 59.23 178.99
  Q 62.02 172.34 63.14 165.75
  C 63.39 164.30 64.51 162.30 65.73 161.06
  Q 68.25 158.50 70.19 156.25
  Z"
/>
<path fill="#dadadc" d="
  M 145.45 167.70
  Q 148.02 178.77 146.82 190.89
  A 0.73 0.72 -7.9 0 1 146.35 191.50
  C 142.83 192.80 139.26 194.53 137.67 198.44
  C 135.92 202.77 137.18 207.45 140.36 210.65
  C 146.99 217.34 158.19 213.66 159.35 204.24
  C 160.18 197.61 156.49 194.28 150.93 191.91
  A 1.49 1.49 0.0 0 1 150.02 190.52
  C 150.10 184.85 150.35 178.98 149.12 173.57
  Q 148.57 171.16 148.20 168.64
  C 153.41 169.83 158.64 170.31 163.67 171.65
  C 171.57 173.75 175.59 174.33 178.96 182.54
  Q 183.32 193.18 184.39 196.87
  Q 187.70 208.31 190.97 220.00
  L 126.14 220.00
  L 124.26 219.56
  Q 123.60 219.41 123.99 218.86
  Q 126.12 215.86 128.12 212.90
  C 129.79 210.42 129.58 209.42 128.02 206.79
  C 126.88 204.87 125.34 201.99 127.14 200.14
  Q 130.98 196.21 135.07 192.54
  Q 136.60 191.16 135.75 188.29
  Q 134.18 182.99 133.24 177.54
  C 132.57 173.64 130.75 169.63 130.48 165.46
  Q 130.41 164.45 131.37 164.75
  Q 138.22 166.91 145.45 167.70
  Z"
/>
<path fill="#28225f" d="
  M 100.88 188.19
  Q 97.66 185.81 95.50 186.01
  Q 93.40 186.21 92.26 185.81
  Q 88.59 182.92 86.35 179.21
  A 1.80 1.79 52.4 0 1 86.63 177.00
  L 96.00 167.82
  A 1.15 1.15 0.0 0 1 97.61 167.81
  L 107.43 177.28
  A 1.07 1.06 -53.0 0 1 107.61 178.59
  Q 105.22 182.69 101.59 185.84
  Q 101.08 186.28 100.88 188.19
  Z"
/>
<path fill="#ffffff" d="
  M 42.67 210.56
  C 33.22 204.30 27.99 193.95 31.00 182.51
  C 33.15 174.39 40.07 167.00 49.26 170.05
  C 58.88 173.24 58.85 189.93 56.29 197.51
  C 54.35 203.26 48.86 207.62 43.87 210.59
  A 1.13 1.13 0.0 0 1 42.67 210.56
  Z"
/>
<path fill="#3c3e77" d="
  M 92.26 185.81
  Q 93.40 186.21 95.50 186.01
  Q 97.66 185.81 100.88 188.19
  Q 102.01 193.13 102.36 198.50
  Q 103.16 210.51 104.66 220.00
  L 90.10 220.00
  C 90.67 216.43 90.40 212.53 90.75 209.34
  C 91.73 200.42 92.88 192.79 92.26 185.81
  Z"
/>
<ellipse fill="#ffffff" cx="0.00" cy="0.00" transform="translate(148.17,202.77) rotate(-18.5)" rx="5.64" ry="5.36"/>
<path fill="#706f71" d="
  M 30.94 216.36
  Q 31.15 217.23 31.95 217.54
  L 26.57 217.95
  Q 25.99 218.00 26.25 217.48
  Q 26.56 216.84 27.25 216.69
  Q 28.26 216.47 30.94 216.36
  Z"
/>
</svg>
