<?xml version="1.0" encoding="UTF-8" standalone="no"?>
<!DOCTYPE svg PUBLIC "-//W3C//DTD SVG 1.1//EN" "http://www.w3.org/Graphics/SVG/1.1/DTD/svg11.dtd">
<svg xmlns="http://www.w3.org/2000/svg" version="1.1" viewBox="0.00 0.00 195.00 220.00">
<g stroke-width="2.00" fill="none" stroke-linecap="butt">
<path stroke="#ededed" vector-effect="non-scaling-stroke" d="
  M 192.45 220.00
  Q 193.20 219.85 193.60 219.57
  Q 194.03 219.28 193.89 218.78
  Q 187.70 196.68 185.43 190.25
  Q 182.05 180.68 179.97 177.76
  C 173.91 169.25 160.60 169.82 151.20 168.02"
/>
<path stroke="#b7b7b7" vector-effect="non-scaling-stroke" d="
  M 151.20 168.02
  Q 145.22 145.96 122.39 142.76"
/>
<path stroke="#fedabd" vector-effect="non-scaling-stroke" d="
  M 122.39 142.76
  Q 121.88 141.30 121.99 138.15"
/>
<path stroke="#9c928b" vector-effect="non-scaling-stroke" d="
  M 121.99 138.15
  L 122.67 136.25"
/>
<path stroke="#fedabd" vector-effect="non-scaling-stroke" d="
  M 122.67 136.25
  Q 132.66 128.39 137.32 124.06
  C 144.72 117.21 146.30 107.60 148.31 98.18
  A 0.92 0.91 10.1 0 1 149.34 97.47
  C 156.37 98.52 159.91 89.16 161.84 83.82
  C 163.55 79.08 163.52 73.89 162.90 69.02
  C 161.98 61.94 155.48 61.37 150.35 64.56
  A 0.50 0.50 0.0 0 1 149.58 64.11
  Q 150.16 53.80 148.63 43.23"
/>
<path stroke="#d9d8da" vector-effect="non-scaling-stroke" d="
  M 148.63 43.23
  L 151.41 42.65
  Q 151.85 42.56 151.84 42.11
  L 151.71 32.42
  Q 151.70 31.64 150.92 31.57
  L 146.31 31.13"
/>
<path stroke="#fedabd" vector-effect="non-scaling-stroke" d="
  M 146.31 31.13
  Q 143.37 24.33 139.12 18.90
  C 127.34 3.84 111.81 -0.41 93.00 0.79
  C 75.99 1.88 56.88 14.50 52.37 31.37"
/>
<path stroke="#d9d8da" vector-effect="non-scaling-stroke" d="
  M 52.37 31.37
  L 47.32 31.68
  Q 46.83 31.71 46.83 32.19
  L 46.81 41.82
  Q 46.80 42.29 47.20 42.53
  Q 48.29 43.21 49.53 43.21"
/>
<path stroke="#fedabd" vector-effect="non-scaling-stroke" d="
  M 49.53 43.21
  Q 48.03 53.24 48.83 62.92
  A 0.86 0.86 0.0 0 1 47.69 63.81
  C 36.44 59.93 35.05 67.91 35.37 76.47
  C 35.62 83.11 38.58 89.18 42.19 94.58
  C 44.32 97.76 46.62 97.08 49.65 97.50
  Q 50.13 97.57 50.19 98.04
  Q 51.45 107.78 55.33 116.74
  C 56.77 120.06 59.08 122.22 61.70 124.54
  Q 68.18 130.24 75.29 135.59"
/>
<path stroke="#9c928b" vector-effect="non-scaling-stroke" d="
  M 75.29 135.59
  L 76.55 138.43"
/>
<path stroke="#fedabd" vector-effect="non-scaling-stroke" d="
  M 76.55 138.43
  Q 77.13 141.83 75.98 143.55"
/>
<path stroke="#a0a0a0" vector-effect="non-scaling-stroke" d="
  M 75.98 143.55
  Q 54.99 146.10 47.29 165.50
  Q 47.10 165.97 46.59 166.01
  Q 37.91 166.73 33.45 174.25
  C 26.48 185.98 29.11 199.30 38.81 208.20
  Q 40.44 209.69 42.11 211.29
  Q 42.46 211.62 42.01 211.80
  L 32.01 215.85
  A 0.58 0.55 -52.8 0 1 31.70 215.90
  Q 29.51 215.63 27.87 216.94
  A 0.50 0.50 0.0 0 0 28.21 217.83
  Q 36.92 217.16 44.57 213.06
  Q 45.02 212.82 45.46 213.06
  Q 50.22 215.66 55.43 216.84"
/>
<path stroke="#d9d8da" vector-effect="non-scaling-stroke" d="
  M 55.43 216.84
  Q 58.07 218.36 62.35 218.28
  A 0.76 0.76 0.0 0 0 63.00 217.16
  L 62.84 216.85
  Q 62.32 215.90 61.24 215.94
  Q 58.18 216.04 57.10 215.45"
/>
<path stroke="#a0a0a0" vector-effect="non-scaling-stroke" d="
  M 57.10 215.45
  L 47.96 211.92
  Q 47.41 211.70 47.92 211.40
  C 54.92 207.20 59.93 201.97 61.59 193.77"
/>
<path stroke="#ededed" vector-effect="non-scaling-stroke" d="
  M 61.59 193.77
  Q 65.33 196.17 68.47 199.28
  C 70.77 201.57 69.49 204.50 69.43 207.23
  C 69.36 211.10 71.97 215.23 73.58 218.75
  Q 73.79 219.21 74.29 219.30
  L 78.24 220.00"
/>
<path stroke="#d8b398" vector-effect="non-scaling-stroke" d="
  M 146.31 31.13
  L 134.64 30.96"
/>
<path stroke="#fedabd" vector-effect="non-scaling-stroke" d="
  M 134.64 30.96
  C 128.30 15.95 107.81 15.66 101.35 30.93"
/>
<path stroke="#d8b398" vector-effect="non-scaling-stroke" d="
  M 101.35 30.93
  C 99.38 31.19 97.64 31.61 95.70 31.62
  Q 74.22 31.70 52.37 31.37"
/>
<path stroke="#d9d8da" vector-effect="non-scaling-stroke" d="
  M 134.64 30.96
  Q 136.65 36.06 134.96 42.80"
/>
<path stroke="#fedabd" vector-effect="non-scaling-stroke" d="
  M 134.96 42.80
  Q 132.67 49.16 125.67 53.06
  Q 122.39 54.89 117.26 54.77
  C 109.39 54.57 103.88 49.93 101.39 43.09"
/>
<path stroke="#d9d8da" vector-effect="non-scaling-stroke" d="
  M 101.39 43.09
  Q 98.93 37.85 101.35 30.93"
/>
<path stroke="#a0a0a0" vector-effect="non-scaling-stroke" d="
  M 123.56 37.25
  A 5.55 5.55 0.0 0 0 118.01 31.70
  A 5.55 5.55 0.0 0 0 112.46 37.25
  A 5.55 5.55 0.0 0 0 118.01 42.80
  A 5.55 5.55 0.0 0 0 123.56 37.25"
/>
<path stroke="#d8b398" vector-effect="non-scaling-stroke" d="
  M 148.63 43.23
  L 134.96 42.80"
/>
<path stroke="#d8b398" vector-effect="non-scaling-stroke" d="
  M 101.39 43.09
  Q 81.37 43.10 61.25 42.76
  Q 58.38 42.71 49.53 43.21"
/>
<path stroke="#9b6d49" vector-effect="non-scaling-stroke" d="
  M 122.67 136.25
  C 123.43 127.00 124.55 109.97 116.18 104.52
  Q 110.13 100.59 102.48 101.67
  Q 100.56 101.94 99.77 103.44
  A 0.66 0.66 0.0 0 1 98.63 103.49
  C 96.39 100.07 87.13 101.88 84.17 103.30
  Q 77.55 106.47 76.27 114.38
  Q 74.59 124.78 75.29 135.59"
/>
<path stroke="#9b6d49" vector-effect="non-scaling-stroke" d="
  M 58.97 66.94
  C 67.86 62.81 76.77 62.81 86.11 66.03
  Q 89.07 67.05 87.31 64.47
  C 83.19 58.45 76.59 56.46 69.77 58.67
  C 64.93 60.24 62.02 63.11 58.16 66.14
  A 0.49 0.48 44.6 0 0 58.17 66.90
  Q 58.51 67.15 58.97 66.94"
/>
<path stroke="#9b6d49" vector-effect="non-scaling-stroke" d="
  M 124.51 58.09
  C 118.64 57.19 112.96 60.86 110.04 65.69
  A 0.50 0.49 -61.0 0 0 110.24 66.39
  Q 110.74 66.65 111.39 66.42
  C 120.99 62.93 130.16 62.39 138.87 67.06
  A 0.56 0.56 0.0 0 0 139.69 66.48
  Q 139.56 65.66 138.79 64.96
  Q 132.68 59.35 124.51 58.09"
/>
<path stroke="#9b6d49" vector-effect="non-scaling-stroke" d="
  M 82.66 75.91
  A 6.17 6.17 0.0 0 0 76.49 69.74
  A 6.17 6.17 0.0 0 0 70.32 75.91
  A 6.17 6.17 0.0 0 0 76.49 82.08
  A 6.17 6.17 0.0 0 0 82.66 75.91"
/>
<path stroke="#9b6d49" vector-effect="non-scaling-stroke" d="
  M 127.69 76.00
  A 6.04 6.04 0.0 0 0 121.65 69.96
  A 6.04 6.04 0.0 0 0 115.61 76.00
  A 6.04 6.04 0.0 0 0 121.65 82.04
  A 6.04 6.04 0.0 0 0 127.69 76.00"
/>
<path stroke="#9b6d49" vector-effect="non-scaling-stroke" d="
  M 121.99 138.15
  C 116.43 144.85 105.12 151.08 95.83 149.62
  C 89.22 148.58 80.79 143.65 76.55 138.43"
/>
<path stroke="#9b6d49" vector-effect="non-scaling-stroke" d="
  M 103.14 122.91
  C 102.45 125.22 101.26 126.15 103.37 128.38
  C 107.18 132.40 112.88 134.46 116.40 128.61
  C 119.33 123.72 119.47 118.28 118.71 112.62
  C 118.21 108.89 116.58 107.83 113.00 107.81
  C 108.86 107.78 104.07 108.32 100.28 106.43
  C 98.41 105.50 97.01 106.92 95.46 107.28
  C 91.77 108.15 87.08 107.76 83.25 107.82
  C 81.74 107.84 80.50 108.58 80.07 110.17
  C 78.57 115.74 78.32 127.27 83.79 131.22
  C 87.85 134.14 93.73 130.61 95.80 126.72
  C 96.96 124.55 94.67 124.13 95.03 122.52
  Q 95.15 121.99 95.66 122.18
  C 97.81 123.01 100.42 122.52 102.71 122.37
  Q 103.32 122.33 103.14 122.91"
/>
<path stroke="#ec9965" vector-effect="non-scaling-stroke" d="
  M 102.14 120.49
  C 108.59 119.63 110.89 117.97 115.15 112.89
  Q 116.83 110.90 115.00 109.89
  Q 113.15 108.87 112.00 108.93
  Q 106.25 109.23 100.50 109.35
  C 95.60 109.45 89.28 108.64 83.48 108.92
  A 0.97 0.96 80.6 0 0 82.60 110.16
  C 83.67 113.82 86.72 115.16 89.39 117.41
  Q 91.71 119.38 93.85 119.96
  Q 97.89 121.06 102.14 120.49"
/>
<path stroke="#edbea7" vector-effect="non-scaling-stroke" d="
  M 85.62 112.14
  C 92.35 118.93 105.54 118.38 112.98 113.24
  Q 113.80 112.67 114.12 111.86
  A 0.40 0.40 0.0 0 0 113.73 111.32
  Q 99.95 112.20 86.20 110.91
  Q 84.20 110.72 85.62 112.14"
/>
<path stroke="#b69275" vector-effect="non-scaling-stroke" d="
  M 122.39 142.76
  Q 121.25 143.65 122.36 145.20"
/>
<path stroke="#fedabd" vector-effect="non-scaling-stroke" d="
  M 122.36 145.20
  Q 122.03 150.12 122.70 154.93
  Q 122.80 155.64 123.97 158.87
  Q 124.93 161.49 123.39 163.37"
/>
<path stroke="#d8b398" vector-effect="non-scaling-stroke" d="
  M 123.39 163.37
  Q 117.77 170.52 112.80 174.54
  C 104.13 181.54 93.97 180.70 84.89 174.99
  C 82.86 173.71 81.14 171.70 79.20 170.05
  C 77.77 168.84 76.78 167.21 75.29 165.95"
/>
<path stroke="#ecc8ab" vector-effect="non-scaling-stroke" d="
  M 75.29 165.95
  Q 73.33 162.21 74.21 160.35"
/>
<path stroke="#fedabd" vector-effect="non-scaling-stroke" d="
  M 74.21 160.35
  Q 76.59 154.64 76.71 147.50
  Q 76.74 145.83 75.24 145.89"
/>
<path stroke="#9f7b5e" vector-effect="non-scaling-stroke" d="
  M 75.24 145.89
  Q 76.43 145.45 75.98 143.55"
/>
<path stroke="#a5a4a5" vector-effect="non-scaling-stroke" d="
  M 151.20 168.02
  Q 151.57 171.43 152.04 174.78
  Q 153.07 182.09 152.63 189.40
  A 1.61 1.60 13.6 0 0 153.59 190.97
  C 155.28 191.70 157.29 192.49 158.63 193.68
  C 166.75 200.87 160.86 214.13 150.13 213.43
  C 140.52 212.80 136.43 201.87 142.19 194.73
  C 143.66 192.90 146.10 191.85 148.22 190.94
  A 2.13 2.13 0.0 0 0 149.50 189.28
  Q 150.19 184.67 149.98 180.00
  Q 149.79 175.81 148.20 166.53"
/>
<path stroke="#b7b7b7" vector-effect="non-scaling-stroke" d="
  M 148.20 166.53
  Q 141.98 147.94 122.36 145.20"
/>
<path stroke="#b7b7b7" vector-effect="non-scaling-stroke" d="
  M 156.4832 201.4609
  A 5.56 5.28 -6.6 0 0 150.3531 196.8550
  A 5.56 5.28 -6.6 0 0 145.4368 202.7391
  A 5.56 5.28 -6.6 0 0 151.5669 207.3450
  A 5.56 5.28 -6.6 0 0 156.4832 201.4609"
/>
<path stroke="#a0a0a0" vector-effect="non-scaling-stroke" d="
  M 75.24 145.89
  Q 57.01 148.62 49.78 165.53
  Q 49.60 165.95 50.05 166.06
  C 56.15 167.57 58.96 172.35 61.22 177.90"
/>
<path stroke="#8e8e8e" vector-effect="non-scaling-stroke" d="
  M 61.22 177.90
  Q 62.59 185.61 61.59 193.77"
/>
<path stroke="#7a797b" vector-effect="non-scaling-stroke" d="
  M 57.10 215.45
  Q 57.30 216.70 55.43 216.84"
/>
<path stroke="#a0a0a0" vector-effect="non-scaling-stroke" d="
  M 32.98 180.93
  C 30.01 193.13 34.26 203.34 44.75 210.02
  Q 45.15 210.27 45.56 210.03
  C 50.87 206.90 56.44 202.60 58.17 197.26
  C 60.97 188.65 61.11 169.98 48.60 168.57
  C 40.72 167.68 34.72 173.77 32.98 180.93"
/>
<path stroke="#ededed" vector-effect="non-scaling-stroke" d="
  M 148.20 166.53
  Q 140.81 166.28 134.33 163.91
  A 0.99 0.99 0.0 0 0 133.03 165.06
  Q 134.52 171.51 136.00 177.66
  C 136.73 180.67 137.19 184.90 138.35 188.47
  C 139.24 191.23 136.93 192.44 135.14 193.82
  C 132.85 195.59 131.25 197.89 128.90 199.69
  A 2.10 2.10 0.0 0 0 128.48 202.58
  Q 130.96 206.00 131.81 210.12
  Q 131.93 210.67 131.60 211.13
  L 125.70 219.31
  Q 125.50 219.59 125.85 219.64
  L 128.50 220.00"
/>
<path stroke="#d9d8da" vector-effect="non-scaling-stroke" d="
  M 104.89 220.00
  L 108.07 219.63
  A 0.76 0.74 -85.8 0 0 108.70 219.07
  L 123.39 163.37"
/>
<path stroke="#ededed" vector-effect="non-scaling-stroke" d="
  M 74.21 160.35
  Q 72.61 159.44 72.68 158.18
  Q 72.83 155.33 70.86 157.40
  C 69.13 159.22 66.79 160.55 65.30 163.30
  C 64.13 165.48 64.39 168.10 63.91 170.26
  Q 63.21 173.41 61.22 177.90"
/>
<path stroke="#c7c6c7" vector-effect="non-scaling-stroke" d="
  M 75.29 165.95
  C 75.71 171.13 77.88 176.61 78.83 180.26
  Q 83.95 200.00 89.33 219.71"
/>
<path stroke="#ededed" vector-effect="non-scaling-stroke" d="
  M 89.33 219.71
  Q 88.93 219.71 88.23 220.00"
/>
<path stroke="#d9d8da" vector-effect="non-scaling-stroke" d="
  M 96.66 220.00
  L 89.33 219.71"
/>
</g>
<path fill="#ffffff" d="
  M 0.00 0.00
  L 195.00 0.00
  L 195.00 220.00
  L 192.45 220.00
  Q 193.20 219.85 193.60 219.57
  Q 194.03 219.28 193.89 218.78
  Q 187.70 196.68 185.43 190.25
  Q 182.05 180.68 179.97 177.76
  C 173.91 169.25 160.60 169.82 151.20 168.02
  Q 145.22 145.96 122.39 142.76
  Q 121.88 141.30 121.99 138.15
  L 122.67 136.25
  Q 132.66 128.39 137.32 124.06
  C 144.72 117.21 146.30 107.60 148.31 98.18
  A 0.92 0.91 10.1 0 1 149.34 97.47
  C 156.37 98.52 159.91 89.16 161.84 83.82
  C 163.55 79.08 163.52 73.89 162.90 69.02
  C 161.98 61.94 155.48 61.37 150.35 64.56
  A 0.50 0.50 0.0 0 1 149.58 64.11
  Q 150.16 53.80 148.63 43.23
  L 151.41 42.65
  Q 151.85 42.56 151.84 42.11
  L 151.71 32.42
  Q 151.70 31.64 150.92 31.57
  L 146.31 31.13
  Q 143.37 24.33 139.12 18.90
  C 127.34 3.84 111.81 -0.41 93.00 0.79
  C 75.99 1.88 56.88 14.50 52.37 31.37
  L 47.32 31.68
  Q 46.83 31.71 46.83 32.19
  L 46.81 41.82
  Q 46.80 42.29 47.20 42.53
  Q 48.29 43.21 49.53 43.21
  Q 48.03 53.24 48.83 62.92
  A 0.86 0.86 0.0 0 1 47.69 63.81
  C 36.44 59.93 35.05 67.91 35.37 76.47
  C 35.62 83.11 38.58 89.18 42.19 94.58
  C 44.32 97.76 46.62 97.08 49.65 97.50
  Q 50.13 97.57 50.19 98.04
  Q 51.45 107.78 55.33 116.74
  C 56.77 120.06 59.08 122.22 61.70 124.54
  Q 68.18 130.24 75.29 135.59
  L 76.55 138.43
  Q 77.13 141.83 75.98 143.55
  Q 54.99 146.10 47.29 165.50
  Q 47.10 165.97 46.59 166.01
  Q 37.91 166.73 33.45 174.25
  C 26.48 185.98 29.11 199.30 38.81 208.20
  Q 40.44 209.69 42.11 211.29
  Q 42.46 211.62 42.01 211.80
  L 32.01 215.85
  A 0.58 0.55 -52.8 0 1 31.70 215.90
  Q 29.51 215.63 27.87 216.94
  A 0.50 0.50 0.0 0 0 28.21 217.83
  Q 36.92 217.16 44.57 213.06
  Q 45.02 212.82 45.46 213.06
  Q 50.22 215.66 55.43 216.84
  Q 58.07 218.36 62.35 218.28
  A 0.76 0.76 0.0 0 0 63.00 217.16
  L 62.84 216.85
  Q 62.32 215.90 61.24 215.94
  Q 58.18 216.04 57.10 215.45
  L 47.96 211.92
  Q 47.41 211.70 47.92 211.40
  C 54.92 207.20 59.93 201.97 61.59 193.77
  Q 65.33 196.17 68.47 199.28
  C 70.77 201.57 69.49 204.50 69.43 207.23
  C 69.36 211.10 71.97 215.23 73.58 218.75
  Q 73.79 219.21 74.29 219.30
  L 78.24 220.00
  L 0.00 220.00
  L 0.00 0.00
  Z"
/>
<path fill="#fdb57b" d="
  M 146.31 31.13
  L 134.64 30.96
  C 128.30 15.95 107.81 15.66 101.35 30.93
  C 99.38 31.19 97.64 31.61 95.70 31.62
  Q 74.22 31.70 52.37 31.37
  C 56.88 14.50 75.99 1.88 93.00 0.79
  C 111.81 -0.41 127.34 3.84 139.12 18.90
  Q 143.37 24.33 146.31 31.13
  Z"
/>
<path fill="#ffffff" d="
  M 134.64 30.96
  Q 136.65 36.06 134.96 42.80
  Q 132.67 49.16 125.67 53.06
  Q 122.39 54.89 117.26 54.77
  C 109.39 54.57 103.88 49.93 101.39 43.09
  Q 98.93 37.85 101.35 30.93
  C 107.81 15.66 128.30 15.95 134.64 30.96
  Z
  M 123.56 37.25
  A 5.55 5.55 0.0 0 0 118.01 31.70
  A 5.55 5.55 0.0 0 0 112.46 37.25
  A 5.55 5.55 0.0 0 0 118.01 42.80
  A 5.55 5.55 0.0 0 0 123.56 37.25
  Z"
/>
<path fill="#b3b1b4" d="
  M 146.31 31.13
  L 150.92 31.57
  Q 151.70 31.64 151.71 32.42
  L 151.84 42.11
  Q 151.85 42.56 151.41 42.65
  L 148.63 43.23
  L 134.96 42.80
  Q 136.65 36.06 134.64 30.96
  L 146.31 31.13
  Z"
/>
<path fill="#b3b1b4" d="
  M 101.35 30.93
  Q 98.93 37.85 101.39 43.09
  Q 81.37 43.10 61.25 42.76
  Q 58.38 42.71 49.53 43.21
  Q 48.29 43.21 47.20 42.53
  Q 46.80 42.29 46.81 41.82
  L 46.83 32.19
  Q 46.83 31.71 47.32 31.68
  L 52.37 31.37
  Q 74.22 31.70 95.70 31.62
  C 97.64 31.61 99.38 31.19 101.35 30.93
  Z"
/>
<circle fill="#414141" cx="118.01" cy="37.25" r="5.55"/>
<path fill="#fdb57b" d="
  M 134.96 42.80
  L 148.63 43.23
  Q 150.16 53.80 149.58 64.11
  A 0.50 0.50 0.0 0 0 150.35 64.56
  C 155.48 61.37 161.98 61.94 162.90 69.02
  C 163.52 73.89 163.55 79.08 161.84 83.82
  C 159.91 89.16 156.37 98.52 149.34 97.47
  A 0.92 0.91 10.1 0 0 148.31 98.18
  C 146.30 107.60 144.72 117.21 137.32 124.06
  Q 132.66 128.39 122.67 136.25
  C 123.43 127.00 124.55 109.97 116.18 104.52
  Q 110.13 100.59 102.48 101.67
  Q 100.56 101.94 99.77 103.44
  A 0.66 0.66 0.0 0 1 98.63 103.49
  C 96.39 100.07 87.13 101.88 84.17 103.30
  Q 77.55 106.47 76.27 114.38
  Q 74.59 124.78 75.29 135.59
  Q 68.18 130.24 61.70 124.54
  C 59.08 122.22 56.77 120.06 55.33 116.74
  Q 51.45 107.78 50.19 98.04
  Q 50.13 97.57 49.65 97.50
  C 46.62 97.08 44.32 97.76 42.19 94.58
  C 38.58 89.18 35.62 83.11 35.37 76.47
  C 35.05 67.91 36.44 59.93 47.69 63.81
  A 0.86 0.86 0.0 0 0 48.83 62.92
  Q 48.03 53.24 49.53 43.21
  Q 58.38 42.71 61.25 42.76
  Q 81.37 43.10 101.39 43.09
  C 103.88 49.93 109.39 54.57 117.26 54.77
  Q 122.39 54.89 125.67 53.06
  Q 132.67 49.16 134.96 42.80
  Z
  M 58.97 66.94
  C 67.86 62.81 76.77 62.81 86.11 66.03
  Q 89.07 67.05 87.31 64.47
  C 83.19 58.45 76.59 56.46 69.77 58.67
  C 64.93 60.24 62.02 63.11 58.16 66.14
  A 0.49 0.48 44.6 0 0 58.17 66.90
  Q 58.51 67.15 58.97 66.94
  Z
  M 124.51 58.09
  C 118.64 57.19 112.96 60.86 110.04 65.69
  A 0.50 0.49 -61.0 0 0 110.24 66.39
  Q 110.74 66.65 111.39 66.42
  C 120.99 62.93 130.16 62.39 138.87 67.06
  A 0.56 0.56 0.0 0 0 139.69 66.48
  Q 139.56 65.66 138.79 64.96
  Q 132.68 59.35 124.51 58.09
  Z
  M 82.66 75.91
  A 6.17 6.17 0.0 0 0 76.49 69.74
  A 6.17 6.17 0.0 0 0 70.32 75.91
  A 6.17 6.17 0.0 0 0 76.49 82.08
  A 6.17 6.17 0.0 0 0 82.66 75.91
  Z
  M 127.69 76.00
  A 6.04 6.04 0.0 0 0 121.65 69.96
  A 6.04 6.04 0.0 0 0 115.61 76.00
  A 6.04 6.04 0.0 0 0 121.65 82.04
  A 6.04 6.04 0.0 0 0 127.69 76.00
  Z"
/>
<path fill="#392416" d="
  M 86.11 66.03
  C 76.77 62.81 67.86 62.81 58.97 66.94
  Q 58.51 67.15 58.17 66.90
  A 0.49 0.48 44.6 0 1 58.16 66.14
  C 62.02 63.11 64.93 60.24 69.77 58.67
  C 76.59 56.46 83.19 58.45 87.31 64.47
  Q 89.07 67.05 86.11 66.03
  Z"
/>
<path fill="#392416" d="
  M 110.04 65.69
  C 112.96 60.86 118.64 57.19 124.51 58.09
  Q 132.68 59.35 138.79 64.96
  Q 139.56 65.66 139.69 66.48
  A 0.56 0.56 0.0 0 1 138.87 67.06
  C 130.16 62.39 120.99 62.93 111.39 66.42
  Q 110.74 66.65 110.24 66.39
  A 0.50 0.49 -61.0 0 1 110.04 65.69
  Z"
/>
<circle fill="#392416" cx="76.49" cy="75.91" r="6.17"/>
<circle fill="#392416" cx="121.65" cy="76.00" r="6.04"/>
<path fill="#392416" d="
  M 122.67 136.25
  L 121.99 138.15
  C 116.43 144.85 105.12 151.08 95.83 149.62
  C 89.22 148.58 80.79 143.65 76.55 138.43
  L 75.29 135.59
  Q 74.59 124.78 76.27 114.38
  Q 77.55 106.47 84.17 103.30
  C 87.13 101.88 96.39 100.07 98.63 103.49
  A 0.66 0.66 0.0 0 0 99.77 103.44
  Q 100.56 101.94 102.48 101.67
  Q 110.13 100.59 116.18 104.52
  C 124.55 109.97 123.43 127.00 122.67 136.25
  Z
  M 103.14 122.91
  C 102.45 125.22 101.26 126.15 103.37 128.38
  C 107.18 132.40 112.88 134.46 116.40 128.61
  C 119.33 123.72 119.47 118.28 118.71 112.62
  C 118.21 108.89 116.58 107.83 113.00 107.81
  C 108.86 107.78 104.07 108.32 100.28 106.43
  C 98.41 105.50 97.01 106.92 95.46 107.28
  C 91.77 108.15 87.08 107.76 83.25 107.82
  C 81.74 107.84 80.50 108.58 80.07 110.17
  C 78.57 115.74 78.32 127.27 83.79 131.22
  C 87.85 134.14 93.73 130.61 95.80 126.72
  C 96.96 124.55 94.67 124.13 95.03 122.52
  Q 95.15 121.99 95.66 122.18
  C 97.81 123.01 100.42 122.52 102.71 122.37
  Q 103.32 122.33 103.14 122.91
  Z"
/>
<path fill="#fdb57b" d="
  M 102.71 122.37
  C 100.42 122.52 97.81 123.01 95.66 122.18
  Q 95.15 121.99 95.03 122.52
  C 94.67 124.13 96.96 124.55 95.80 126.72
  C 93.73 130.61 87.85 134.14 83.79 131.22
  C 78.32 127.27 78.57 115.74 80.07 110.17
  C 80.50 108.58 81.74 107.84 83.25 107.82
  C 87.08 107.76 91.77 108.15 95.46 107.28
  C 97.01 106.92 98.41 105.50 100.28 106.43
  C 104.07 108.32 108.86 107.78 113.00 107.81
  C 116.58 107.83 118.21 108.89 118.71 112.62
  C 119.47 118.28 119.33 123.72 116.40 128.61
  C 112.88 134.46 107.18 132.40 103.37 128.38
  C 101.26 126.15 102.45 125.22 103.14 122.91
  Q 103.32 122.33 102.71 122.37
  Z
  M 102.14 120.49
  C 108.59 119.63 110.89 117.97 115.15 112.89
  Q 116.83 110.90 115.00 109.89
  Q 113.15 108.87 112.00 108.93
  Q 106.25 109.23 100.50 109.35
  C 95.60 109.45 89.28 108.64 83.48 108.92
  A 0.97 0.96 80.6 0 0 82.60 110.16
  C 83.67 113.82 86.72 115.16 89.39 117.41
  Q 91.71 119.38 93.85 119.96
  Q 97.89 121.06 102.14 120.49
  Z"
/>
<path fill="#db7d4f" d="
  M 102.14 120.49
  Q 97.89 121.06 93.85 119.96
  Q 91.71 119.38 89.39 117.41
  C 86.72 115.16 83.67 113.82 82.60 110.16
  A 0.97 0.96 80.6 0 1 83.48 108.92
  C 89.28 108.64 95.60 109.45 100.50 109.35
  Q 106.25 109.23 112.00 108.93
  Q 113.15 108.87 115.00 109.89
  Q 116.83 110.90 115.15 112.89
  C 110.89 117.97 108.59 119.63 102.14 120.49
  Z
  M 85.62 112.14
  C 92.35 118.93 105.54 118.38 112.98 113.24
  Q 113.80 112.67 114.12 111.86
  A 0.40 0.40 0.0 0 0 113.73 111.32
  Q 99.95 112.20 86.20 110.91
  Q 84.20 110.72 85.62 112.14
  Z"
/>
<path fill="#ffffff" d="
  M 112.98 113.24
  C 105.54 118.38 92.35 118.93 85.62 112.14
  Q 84.20 110.72 86.20 110.91
  Q 99.95 112.20 113.73 111.32
  A 0.40 0.40 0.0 0 1 114.12 111.86
  Q 113.80 112.67 112.98 113.24
  Z"
/>
<path fill="#fdb57b" d="
  M 121.99 138.15
  Q 121.88 141.30 122.39 142.76
  Q 121.25 143.65 122.36 145.20
  Q 122.03 150.12 122.70 154.93
  Q 122.80 155.64 123.97 158.87
  Q 124.93 161.49 123.39 163.37
  Q 117.77 170.52 112.80 174.54
  C 104.13 181.54 93.97 180.70 84.89 174.99
  C 82.86 173.71 81.14 171.70 79.20 170.05
  C 77.77 168.84 76.78 167.21 75.29 165.95
  Q 73.33 162.21 74.21 160.35
  Q 76.59 154.64 76.71 147.50
  Q 76.74 145.83 75.24 145.89
  Q 76.43 145.45 75.98 143.55
  Q 77.13 141.83 76.55 138.43
  C 80.79 143.65 89.22 148.58 95.83 149.62
  C 105.12 151.08 116.43 144.85 121.99 138.15
  Z"
/>
<path fill="#6f6e6f" d="
  M 122.39 142.76
  Q 145.22 145.96 151.20 168.02
  Q 151.57 171.43 152.04 174.78
  Q 153.07 182.09 152.63 189.40
  A 1.61 1.60 13.6 0 0 153.59 190.97
  C 155.28 191.70 157.29 192.49 158.63 193.68
  C 166.75 200.87 160.86 214.13 150.13 213.43
  C 140.52 212.80 136.43 201.87 142.19 194.73
  C 143.66 192.90 146.10 191.85 148.22 190.94
  A 2.13 2.13 0.0 0 0 149.50 189.28
  Q 150.19 184.67 149.98 180.00
  Q 149.79 175.81 148.20 166.53
  Q 141.98 147.94 122.36 145.20
  Q 121.25 143.65 122.39 142.76
  Z
  M 156.4832 201.4609
  A 5.56 5.28 -6.6 0 0 150.3531 196.8550
  A 5.56 5.28 -6.6 0 0 145.4368 202.7391
  A 5.56 5.28 -6.6 0 0 151.5669 207.3450
  A 5.56 5.28 -6.6 0 0 156.4832 201.4609
  Z"
/>
<path fill="#414141" d="
  M 75.98 143.55
  Q 76.43 145.45 75.24 145.89
  Q 57.01 148.62 49.78 165.53
  Q 49.60 165.95 50.05 166.06
  C 56.15 167.57 58.96 172.35 61.22 177.90
  Q 62.59 185.61 61.59 193.77
  C 59.93 201.97 54.92 207.20 47.92 211.40
  Q 47.41 211.70 47.96 211.92
  L 57.10 215.45
  Q 57.30 216.70 55.43 216.84
  Q 50.22 215.66 45.46 213.06
  Q 45.02 212.82 44.57 213.06
  Q 36.92 217.16 28.21 217.83
  A 0.50 0.50 0.0 0 1 27.87 216.94
  Q 29.51 215.63 31.70 215.90
  A 0.58 0.55 -52.8 0 0 32.01 215.85
  L 42.01 211.80
  Q 42.46 211.62 42.11 211.29
  Q 40.44 209.69 38.81 208.20
  C 29.11 199.30 26.48 185.98 33.45 174.25
  Q 37.91 166.73 46.59 166.01
  Q 47.10 165.97 47.29 165.50
  Q 54.99 146.10 75.98 143.55
  Z
  M 32.98 180.93
  C 30.01 193.13 34.26 203.34 44.75 210.02
  Q 45.15 210.27 45.56 210.03
  C 50.87 206.90 56.44 202.60 58.17 197.26
  C 60.97 188.65 61.11 169.98 48.60 168.57
  C 40.72 167.68 34.72 173.77 32.98 180.93
  Z"
/>
<path fill="#ffffff" d="
  M 122.36 145.20
  Q 141.98 147.94 148.20 166.53
  Q 140.81 166.28 134.33 163.91
  A 0.99 0.99 0.0 0 0 133.03 165.06
  Q 134.52 171.51 136.00 177.66
  C 136.73 180.67 137.19 184.90 138.35 188.47
  C 139.24 191.23 136.93 192.44 135.14 193.82
  C 132.85 195.59 131.25 197.89 128.90 199.69
  A 2.10 2.10 0.0 0 0 128.48 202.58
  Q 130.96 206.00 131.81 210.12
  Q 131.93 210.67 131.60 211.13
  L 125.70 219.31
  Q 125.50 219.59 125.85 219.64
  L 128.50 220.00
  L 104.89 220.00
  L 108.07 219.63
  A 0.76 0.74 -85.8 0 0 108.70 219.07
  L 123.39 163.37
  Q 124.93 161.49 123.97 158.87
  Q 122.80 155.64 122.70 154.93
  Q 122.03 150.12 122.36 145.20
  Z"
/>
<path fill="#ffffff" d="
  M 75.24 145.89
  Q 76.74 145.83 76.71 147.50
  Q 76.59 154.64 74.21 160.35
  Q 72.61 159.44 72.68 158.18
  Q 72.83 155.33 70.86 157.40
  C 69.13 159.22 66.79 160.55 65.30 163.30
  C 64.13 165.48 64.39 168.10 63.91 170.26
  Q 63.21 173.41 61.22 177.90
  C 58.96 172.35 56.15 167.57 50.05 166.06
  Q 49.60 165.95 49.78 165.53
  Q 57.01 148.62 75.24 145.89
  Z"
/>
<path fill="#dadada" d="
  M 74.21 160.35
  Q 73.33 162.21 75.29 165.95
  C 75.71 171.13 77.88 176.61 78.83 180.26
  Q 83.95 200.00 89.33 219.71
  Q 88.93 219.71 88.23 220.00
  L 78.24 220.00
  L 74.29 219.30
  Q 73.79 219.21 73.58 218.75
  C 71.97 215.23 69.36 211.10 69.43 207.23
  C 69.49 204.50 70.77 201.57 68.47 199.28
  Q 65.33 196.17 61.59 193.77
  Q 62.59 185.61 61.22 177.90
  Q 63.21 173.41 63.91 170.26
  C 64.39 168.10 64.13 165.48 65.30 163.30
  C 66.79 160.55 69.13 159.22 70.86 157.40
  Q 72.83 155.33 72.68 158.18
  Q 72.61 159.44 74.21 160.35
  Z"
/>
<path fill="#b3b1b4" d="
  M 123.39 163.37
  L 108.70 219.07
  A 0.76 0.74 -85.8 0 1 108.07 219.63
  L 104.89 220.00
  L 96.66 220.00
  L 89.33 219.71
  Q 83.95 200.00 78.83 180.26
  C 77.88 176.61 75.71 171.13 75.29 165.95
  C 76.78 167.21 77.77 168.84 79.20 170.05
  C 81.14 171.70 82.86 173.71 84.89 174.99
  C 93.97 180.70 104.13 181.54 112.80 174.54
  Q 117.77 170.52 123.39 163.37
  Z"
/>
<path fill="#dadada" d="
  M 148.20 166.53
  Q 149.79 175.81 149.98 180.00
  Q 150.19 184.67 149.50 189.28
  A 2.13 2.13 0.0 0 1 148.22 190.94
  C 146.10 191.85 143.66 192.90 142.19 194.73
  C 136.43 201.87 140.52 212.80 150.13 213.43
  C 160.86 214.13 166.75 200.87 158.63 193.68
  C 157.29 192.49 155.28 191.70 153.59 190.97
  A 1.61 1.60 13.6 0 1 152.63 189.40
  Q 153.07 182.09 152.04 174.78
  Q 151.57 171.43 151.20 168.02
  C 160.60 169.82 173.91 169.25 179.97 177.76
  Q 182.05 180.68 185.43 190.25
  Q 187.70 196.68 193.89 218.78
  Q 194.03 219.28 193.60 219.57
  Q 193.20 219.85 192.45 220.00
  L 128.50 220.00
  L 125.85 219.64
  Q 125.50 219.59 125.70 219.31
  L 131.60 211.13
  Q 131.93 210.67 131.81 210.12
  Q 130.96 206.00 128.48 202.58
  A 2.10 2.10 0.0 0 1 128.90 199.69
  C 131.25 197.89 132.85 195.59 135.14 193.82
  C 136.93 192.44 139.24 191.23 138.35 188.47
  C 137.19 184.90 136.73 180.67 136.00 177.66
  Q 134.52 171.51 133.03 165.06
  A 0.99 0.99 0.0 0 1 134.33 163.91
  Q 140.81 166.28 148.20 166.53
  Z"
/>
<path fill="#ffffff" d="
  M 44.75 210.02
  C 34.26 203.34 30.01 193.13 32.98 180.93
  C 34.72 173.77 40.72 167.68 48.60 168.57
  C 61.11 169.98 60.97 188.65 58.17 197.26
  C 56.44 202.60 50.87 206.90 45.56 210.03
  Q 45.15 210.27 44.75 210.02
  Z"
/>
<ellipse fill="#ffffff" cx="0.00" cy="0.00" transform="translate(150.96,202.10) rotate(-6.6)" rx="5.56" ry="5.28"/>
<path fill="#b3b1b4" d="
  M 57.10 215.45
  Q 58.18 216.04 61.24 215.94
  Q 62.32 215.90 62.84 216.85
  L 63.00 217.16
  A 0.76 0.76 0.0 0 1 62.35 218.28
  Q 58.07 218.36 55.43 216.84
  Q 57.30 216.70 57.10 215.45
  Z"
/>
<path fill="#ffffff" d="
  M 89.33 219.71
  L 96.66 220.00
  L 88.23 220.00
  Q 88.93 219.71 89.33 219.71
  Z"
/>
</svg>
