<?xml version="1.0" encoding="UTF-8" standalone="no"?>
<!DOCTYPE svg PUBLIC "-//W3C//DTD SVG 1.1//EN" "http://www.w3.org/Graphics/SVG/1.1/DTD/svg11.dtd">
<svg xmlns="http://www.w3.org/2000/svg" version="1.1" viewBox="0.00 0.00 58.00 60.00">
<g stroke-width="2.00" fill="none" stroke-linecap="butt">
<path stroke="#f9d38d" vector-effect="non-scaling-stroke" d="
  M 28.91 0.00
  L 28.94 29.37
  Q 28.95 29.94 28.38 29.94
  L 0.00 29.91"
/>
<path stroke="#f9d38d" vector-effect="non-scaling-stroke" d="
  M 10.14 12.76
  Q 9.76 14.85 11.49 15.73
  Q 12.65 16.32 13.04 15.52"
/>
<path stroke="#ae834f" vector-effect="non-scaling-stroke" d="
  M 13.04 15.52
  Q 13.63 16.04 13.95 15.69
  Q 15.71 13.73 17.31 12.05
  A 0.60 0.59 65.3 0 1 18.33 12.43
  C 18.77 19.79 12.68 18.76 7.77 18.77
  Q 7.28 18.77 7.27 19.27
  L 7.26 20.43
  A 0.67 0.67 0.0 0 0 7.93 21.10
  L 9.53 21.09
  A 0.54 0.54 0.0 0 1 9.63 22.16
  Q 8.82 22.31 8.01 22.15
  A 0.62 0.62 0.0 0 0 7.27 22.76
  L 7.28 23.70
  Q 7.28 24.37 7.95 24.37
  L 19.78 24.38
  Q 20.44 24.39 20.50 23.72
  L 20.57 22.79
  A 0.52 0.52 0.0 0 0 20.04 22.22
  L 17.45 22.24
  A 1.08 1.08 0.0 0 1 16.95 20.19
  Q 21.50 17.87 20.50 12.24
  Q 19.71 7.82 16.64 6.06
  Q 16.14 5.77 15.76 6.21
  L 10.14 12.76"
/>
<path stroke="#a79b90" vector-effect="non-scaling-stroke" d="
  M 13.04 15.52
  L 10.14 12.76"
/>
<path stroke="#f9d38d" vector-effect="non-scaling-stroke" d="
  M 58.00 30.09
  L 29.55 30.05
  Q 29.03 30.05 29.03 30.58
  L 29.03 60.00"
/>
<path stroke="#a79b90" vector-effect="non-scaling-stroke" d="
  M 48.93 22.01
  Q 51.07 22.20 53.48 24.33
  A 0.74 0.74 0.0 0 0 54.57 23.34
  Q 53.67 22.11 51.50 20.82"
/>
<path stroke="#9fc7bf" vector-effect="non-scaling-stroke" d="
  M 51.50 20.82
  C 53.91 18.01 56.67 10.77 51.84 8.85
  Q 47.53 7.14 44.43 5.38
  Q 43.98 5.12 43.51 5.34
  C 40.34 6.83 35.78 6.97 33.81 10.06
  Q 33.57 10.45 33.57 10.91
  L 33.63 19.57
  A 0.83 0.81 -77.5 0 0 34.08 20.29
  L 37.50 22.01
  A 0.63 0.57 81.4 0 1 37.66 22.14
  Q 39.85 24.65 43.17 24.80
  Q 43.66 24.82 44.10 24.58
  L 48.93 22.01"
/>
<path stroke="#547780" vector-effect="non-scaling-stroke" d="
  M 51.50 20.82
  L 47.96 18.86
  A 0.54 0.54 0.0 0 0 47.25 19.04
  L 47.12 19.25
  Q 46.78 19.77 47.34 20.02
  Q 49.27 20.90 48.93 22.01"
/>
<path stroke="#a79b90" vector-effect="non-scaling-stroke" d="
  M 19.20 51.97
  Q 21.08 52.67 22.89 54.43
  A 1.02 1.01 61.6 0 0 23.79 54.70
  Q 25.64 54.32 24.25 53.25
  Q 22.73 52.08 21.25 51.00"
/>
<path stroke="#f1a597" vector-effect="non-scaling-stroke" d="
  M 21.25 51.00
  Q 24.98 46.97 24.20 41.12
  Q 24.13 40.62 23.75 40.28
  Q 21.54 38.31 18.68 37.60
  C 16.76 37.11 15.90 36.29 14.45 35.14
  Q 14.01 34.80 13.54 35.10
  C 11.88 36.15 11.03 36.77 8.90 37.01
  Q 5.46 37.40 3.34 40.37
  A 1.15 1.14 55.8 0 0 3.17 41.29
  Q 4.12 44.99 3.33 48.73
  A 1.54 1.54 0.0 0 0 4.30 50.50
  C 7.03 51.50 9.05 53.97 11.32 54.65
  C 14.06 55.46 14.93 53.74 16.97 52.91
  Q 18.03 52.47 19.20 51.97"
/>
<path stroke="#a65558" vector-effect="non-scaling-stroke" d="
  M 21.25 51.00
  L 17.36 48.12"
/>
<path stroke="#ee9598" vector-effect="non-scaling-stroke" d="
  M 17.36 48.12
  Q 18.99 43.77 15.95 40.82
  Q 15.40 40.29 15.04 40.95
  Q 13.81 43.16 15.99 43.74
  A 0.60 0.60 0.0 0 1 16.17 44.82
  Q 15.00 45.59 15.39 46.98
  A 0.49 0.49 0.0 0 1 14.69 47.54
  L 11.29 45.76"
/>
<path stroke="#f78d56" vector-effect="non-scaling-stroke" d="
  M 11.29 45.76
  Q 10.91 43.83 8.70 44.23
  Q 8.22 44.32 8.03 44.77
  L 7.85 45.19
  Q 7.66 45.66 7.19 45.47
  L 5.87 44.93
  Q 5.80 44.91 5.81 44.98
  L 5.90 46.32
  A 0.43 0.42 -23.1 0 0 6.61 46.60
  Q 7.78 45.57 8.10 47.04
  A 0.79 0.79 0.0 0 0 8.81 47.67
  Q 10.25 47.79 10.35 49.31
  Q 10.37 49.58 10.60 49.44
  L 11.11 49.12
  A 0.18 0.17 -31.7 0 0 11.17 48.90
  Q 10.40 47.47 11.60 46.41"
/>
<path stroke="#ee9598" vector-effect="non-scaling-stroke" d="
  M 11.60 46.41
  L 14.68 48.23
  Q 15.16 48.52 14.91 49.02
  Q 14.33 50.15 13.07 50.33
  A 0.37 0.36 -79.7 0 1 12.70 49.79
  Q 13.04 49.17 12.53 48.62
  Q 12.07 48.12 11.94 48.79
  Q 11.79 49.60 12.35 50.22
  A 0.75 0.74 -10.1 0 1 11.52 51.41
  Q 8.99 50.40 7.42 48.34
  Q 7.26 48.13 7.00 48.13
  Q 6.87 48.12 6.74 48.12
  A 0.28 0.28 0.0 0 0 6.51 48.57
  Q 10.37 53.73 16.03 49.95"
/>
<path stroke="#a65558" vector-effect="non-scaling-stroke" d="
  M 16.03 49.95
  Q 18.13 50.30 19.20 51.97"
/>
<path stroke="#a48b91" vector-effect="non-scaling-stroke" d="
  M 17.36 48.12
  Q 17.05 49.14 16.03 49.95"
/>
<path stroke="#f6c38f" vector-effect="non-scaling-stroke" d="
  M 11.60 46.41
  Q 11.64 47.10 11.29 45.76"
/>
<path stroke="#84b9be" vector-effect="non-scaling-stroke" d="
  M 47.85 15.33
  A 5.92 5.92 0.0 0 0 41.93 9.41
  A 5.92 5.92 0.0 0 0 36.01 15.33
  A 5.92 5.92 0.0 0 0 41.93 21.25
  A 5.92 5.92 0.0 0 0 47.85 15.33"
/>
<path stroke="#a79b90" vector-effect="non-scaling-stroke" d="
  M 14.50 21.90
  A 1.10 1.10 0.0 0 0 13.40 20.80
  A 1.10 1.10 0.0 0 0 12.30 21.90
  A 1.10 1.10 0.0 0 0 13.40 23.00
  A 1.10 1.10 0.0 0 0 14.50 21.90"
/>
<path stroke="#f78d56" vector-effect="non-scaling-stroke" d="
  M 47.67 40.96
  Q 43.70 43.03 40.45 46.74
  A 0.30 0.30 0.0 0 0 40.84 47.19
  L 48.32 42.16
  A 0.63 0.60 81.6 0 0 48.58 41.79
  L 48.76 41.11"
/>
<path stroke="#fdd99a" vector-effect="non-scaling-stroke" d="
  M 48.76 41.11
  L 54.54 37.12
  A 0.60 0.60 0.0 0 0 53.91 36.10
  Q 50.62 37.95 47.67 40.96"
/>
<path stroke="#f5aba3" vector-effect="non-scaling-stroke" d="
  M 48.76 41.11
  L 47.67 40.96"
/>
<path stroke="#fdd99a" vector-effect="non-scaling-stroke" d="
  M 46.74 51.31
  A 0.63 0.63 0.0 0 0 46.11 50.68
  L 33.69 50.68
  A 0.63 0.63 0.0 0 0 33.06 51.31
  L 33.06 53.77
  A 0.63 0.63 0.0 0 0 33.69 54.40
  L 46.11 54.40
  A 0.63 0.63 0.0 0 0 46.74 53.77
  L 46.74 51.31"
/>
<path stroke="#ee9598" vector-effect="non-scaling-stroke" d="
  M 10.46 40.87
  L 10.13 42.58
  Q 9.99 43.29 10.70 43.41
  L 12.21 43.68
  Q 12.69 43.76 12.66 43.28
  L 12.65 42.89
  A 0.31 0.30 -12.5 0 0 12.23 42.63
  L 11.58 42.89
  Q 10.73 43.22 10.69 42.32
  L 10.62 41.07
  A 0.54 0.53 13.9 0 1 11.43 40.59
  Q 12.70 41.35 13.27 40.08
  Q 13.64 39.27 12.75 39.29
  L 9.88 39.36
  A 0.25 0.25 0.0 0 0 9.73 39.81
  L 10.20 40.17
  Q 10.55 40.44 10.46 40.87"
/>
<path stroke="#ee9598" vector-effect="non-scaling-stroke" d="
  M 7.86 40.89
  L 6.25 42.80
  Q 5.69 43.45 6.55 43.41
  L 8.26 43.33
  A 0.47 0.47 0.0 0 0 8.70 42.75
  L 8.30 41.00
  Q 8.19 40.50 7.86 40.89"
/>
<path stroke="#ee9598" vector-effect="non-scaling-stroke" d="
  M 14.8866 45.0401
  A 0.84 0.38 22.4 0 0 14.2548 44.3687
  A 0.84 0.38 22.4 0 0 13.3334 44.3999
  A 0.84 0.38 22.4 0 0 13.9652 45.0713
  A 0.84 0.38 22.4 0 0 14.8866 45.0401"
/>
<path stroke="#f5aba3" vector-effect="non-scaling-stroke" d="
  M 41.8492 52.5444
  A 1.95 1.03 1.6 0 0 39.9288 51.4604
  A 1.95 1.03 1.6 0 0 37.9508 52.4356
  A 1.95 1.03 1.6 0 0 39.8712 53.5196
  A 1.95 1.03 1.6 0 0 41.8492 52.5444"
/>
</g>
<path fill="#ffbb4c" d="
  M 0.00 0.00
  L 28.91 0.00
  L 28.94 29.37
  Q 28.95 29.94 28.38 29.94
  L 0.00 29.91
  L 0.00 0.00
  Z
  M 10.14 12.76
  Q 9.76 14.85 11.49 15.73
  Q 12.65 16.32 13.04 15.52
  Q 13.63 16.04 13.95 15.69
  Q 15.71 13.73 17.31 12.05
  A 0.60 0.59 65.3 0 1 18.33 12.43
  C 18.77 19.79 12.68 18.76 7.77 18.77
  Q 7.28 18.77 7.27 19.27
  L 7.26 20.43
  A 0.67 0.67 0.0 0 0 7.93 21.10
  L 9.53 21.09
  A 0.54 0.54 0.0 0 1 9.63 22.16
  Q 8.82 22.31 8.01 22.15
  A 0.62 0.62 0.0 0 0 7.27 22.76
  L 7.28 23.70
  Q 7.28 24.37 7.95 24.37
  L 19.78 24.38
  Q 20.44 24.39 20.50 23.72
  L 20.57 22.79
  A 0.52 0.52 0.0 0 0 20.04 22.22
  L 17.45 22.24
  A 1.08 1.08 0.0 0 1 16.95 20.19
  Q 21.50 17.87 20.50 12.24
  Q 19.71 7.82 16.64 6.06
  Q 16.14 5.77 15.76 6.21
  L 10.14 12.76
  Z"
/>
<path fill="#f2ebce" d="
  M 28.91 0.00
  L 58.00 0.00
  L 58.00 30.09
  L 29.55 30.05
  Q 29.03 30.05 29.03 30.58
  L 29.03 60.00
  L 0.00 60.00
  L 0.00 29.91
  L 28.38 29.94
  Q 28.95 29.94 28.94 29.37
  L 28.91 0.00
  Z
  M 48.93 22.01
  Q 51.07 22.20 53.48 24.33
  A 0.74 0.74 0.0 0 0 54.57 23.34
  Q 53.67 22.11 51.50 20.82
  C 53.91 18.01 56.67 10.77 51.84 8.85
  Q 47.53 7.14 44.43 5.38
  Q 43.98 5.12 43.51 5.34
  C 40.34 6.83 35.78 6.97 33.81 10.06
  Q 33.57 10.45 33.57 10.91
  L 33.63 19.57
  A 0.83 0.81 -77.5 0 0 34.08 20.29
  L 37.50 22.01
  A 0.63 0.57 81.4 0 1 37.66 22.14
  Q 39.85 24.65 43.17 24.80
  Q 43.66 24.82 44.10 24.58
  L 48.93 22.01
  Z
  M 19.20 51.97
  Q 21.08 52.67 22.89 54.43
  A 1.02 1.01 61.6 0 0 23.79 54.70
  Q 25.64 54.32 24.25 53.25
  Q 22.73 52.08 21.25 51.00
  Q 24.98 46.97 24.20 41.12
  Q 24.13 40.62 23.75 40.28
  Q 21.54 38.31 18.68 37.60
  C 16.76 37.11 15.90 36.29 14.45 35.14
  Q 14.01 34.80 13.54 35.10
  C 11.88 36.15 11.03 36.77 8.90 37.01
  Q 5.46 37.40 3.34 40.37
  A 1.15 1.14 55.8 0 0 3.17 41.29
  Q 4.12 44.99 3.33 48.73
  A 1.54 1.54 0.0 0 0 4.30 50.50
  C 7.03 51.50 9.05 53.97 11.32 54.65
  C 14.06 55.46 14.93 53.74 16.97 52.91
  Q 18.03 52.47 19.20 51.97
  Z"
/>
<path fill="#4ba3af" d="
  M 51.50 20.82
  L 47.96 18.86
  A 0.54 0.54 0.0 0 0 47.25 19.04
  L 47.12 19.25
  Q 46.78 19.77 47.34 20.02
  Q 49.27 20.90 48.93 22.01
  L 44.10 24.58
  Q 43.66 24.82 43.17 24.80
  Q 39.85 24.65 37.66 22.14
  A 0.63 0.57 81.4 0 0 37.50 22.01
  L 34.08 20.29
  A 0.83 0.81 -77.5 0 1 33.63 19.57
  L 33.57 10.91
  Q 33.57 10.45 33.81 10.06
  C 35.78 6.97 40.34 6.83 43.51 5.34
  Q 43.98 5.12 44.43 5.38
  Q 47.53 7.14 51.84 8.85
  C 56.67 10.77 53.91 18.01 51.50 20.82
  Z
  M 47.85 15.33
  A 5.92 5.92 0.0 0 0 41.93 9.41
  A 5.92 5.92 0.0 0 0 36.01 15.33
  A 5.92 5.92 0.0 0 0 41.93 21.25
  A 5.92 5.92 0.0 0 0 47.85 15.33
  Z"
/>
<path fill="#5c4b51" d="
  M 13.04 15.52
  L 10.14 12.76
  L 15.76 6.21
  Q 16.14 5.77 16.64 6.06
  Q 19.71 7.82 20.50 12.24
  Q 21.50 17.87 16.95 20.19
  A 1.08 1.08 0.0 0 0 17.45 22.24
  L 20.04 22.22
  A 0.52 0.52 0.0 0 1 20.57 22.79
  L 20.50 23.72
  Q 20.44 24.39 19.78 24.38
  L 7.95 24.37
  Q 7.28 24.37 7.28 23.70
  L 7.27 22.76
  A 0.62 0.62 0.0 0 1 8.01 22.15
  Q 8.82 22.31 9.63 22.16
  A 0.54 0.54 0.0 0 0 9.53 21.09
  L 7.93 21.10
  A 0.67 0.67 0.0 0 1 7.26 20.43
  L 7.27 19.27
  Q 7.28 18.77 7.77 18.77
  C 12.68 18.76 18.77 19.79 18.33 12.43
  A 0.60 0.59 65.3 0 0 17.31 12.05
  Q 15.71 13.73 13.95 15.69
  Q 13.63 16.04 13.04 15.52
  Z
  M 14.50 21.90
  A 1.10 1.10 0.0 0 0 13.40 20.80
  A 1.10 1.10 0.0 0 0 12.30 21.90
  A 1.10 1.10 0.0 0 0 13.40 23.00
  A 1.10 1.10 0.0 0 0 14.50 21.90
  Z"
/>
<circle fill="#bdcfcd" cx="41.93" cy="15.33" r="5.92"/>
<path fill="#f2ebce" d="
  M 10.14 12.76
  L 13.04 15.52
  Q 12.65 16.32 11.49 15.73
  Q 9.76 14.85 10.14 12.76
  Z"
/>
<path fill="#5c4b51" d="
  M 51.50 20.82
  Q 53.67 22.11 54.57 23.34
  A 0.74 0.74 0.0 0 1 53.48 24.33
  Q 51.07 22.20 48.93 22.01
  Q 49.27 20.90 47.34 20.02
  Q 46.78 19.77 47.12 19.25
  L 47.25 19.04
  A 0.54 0.54 0.0 0 1 47.96 18.86
  L 51.50 20.82
  Z"
/>
<circle fill="#f2ebce" cx="13.40" cy="21.90" r="1.10"/>
<path fill="#ffbb4c" d="
  M 58.00 30.09
  L 58.00 60.00
  L 29.03 60.00
  L 29.03 30.58
  Q 29.03 30.05 29.55 30.05
  L 58.00 30.09
  Z
  M 47.67 40.96
  Q 43.70 43.03 40.45 46.74
  A 0.30 0.30 0.0 0 0 40.84 47.19
  L 48.32 42.16
  A 0.63 0.60 81.6 0 0 48.58 41.79
  L 48.76 41.11
  L 54.54 37.12
  A 0.60 0.60 0.0 0 0 53.91 36.10
  Q 50.62 37.95 47.67 40.96
  Z
  M 46.74 51.31
  A 0.63 0.63 0.0 0 0 46.11 50.68
  L 33.69 50.68
  A 0.63 0.63 0.0 0 0 33.06 51.31
  L 33.06 53.77
  A 0.63 0.63 0.0 0 0 33.69 54.40
  L 46.11 54.40
  A 0.63 0.63 0.0 0 0 46.74 53.77
  L 46.74 51.31
  Z"
/>
<path fill="#ef5f5f" d="
  M 21.25 51.00
  L 17.36 48.12
  Q 18.99 43.77 15.95 40.82
  Q 15.40 40.29 15.04 40.95
  Q 13.81 43.16 15.99 43.74
  A 0.60 0.60 0.0 0 1 16.17 44.82
  Q 15.00 45.59 15.39 46.98
  A 0.49 0.49 0.0 0 1 14.69 47.54
  L 11.29 45.76
  Q 10.91 43.83 8.70 44.23
  Q 8.22 44.32 8.03 44.77
  L 7.85 45.19
  Q 7.66 45.66 7.19 45.47
  L 5.87 44.93
  Q 5.80 44.91 5.81 44.98
  L 5.90 46.32
  A 0.43 0.42 -23.1 0 0 6.61 46.60
  Q 7.78 45.57 8.10 47.04
  A 0.79 0.79 0.0 0 0 8.81 47.67
  Q 10.25 47.79 10.35 49.31
  Q 10.37 49.58 10.60 49.44
  L 11.11 49.12
  A 0.18 0.17 -31.7 0 0 11.17 48.90
  Q 10.40 47.47 11.60 46.41
  L 14.68 48.23
  Q 15.16 48.52 14.91 49.02
  Q 14.33 50.15 13.07 50.33
  A 0.37 0.36 -79.7 0 1 12.70 49.79
  Q 13.04 49.17 12.53 48.62
  Q 12.07 48.12 11.94 48.79
  Q 11.79 49.60 12.35 50.22
  A 0.75 0.74 -10.1 0 1 11.52 51.41
  Q 8.99 50.40 7.42 48.34
  Q 7.26 48.13 7.00 48.13
  Q 6.87 48.12 6.74 48.12
  A 0.28 0.28 0.0 0 0 6.51 48.57
  Q 10.37 53.73 16.03 49.95
  Q 18.13 50.30 19.20 51.97
  Q 18.03 52.47 16.97 52.91
  C 14.93 53.74 14.06 55.46 11.32 54.65
  C 9.05 53.97 7.03 51.50 4.30 50.50
  A 1.54 1.54 0.0 0 1 3.33 48.73
  Q 4.12 44.99 3.17 41.29
  A 1.15 1.14 55.8 0 1 3.34 40.37
  Q 5.46 37.40 8.90 37.01
  C 11.03 36.77 11.88 36.15 13.54 35.10
  Q 14.01 34.80 14.45 35.14
  C 15.90 36.29 16.76 37.11 18.68 37.60
  Q 21.54 38.31 23.75 40.28
  Q 24.13 40.62 24.20 41.12
  Q 24.98 46.97 21.25 51.00
  Z
  M 10.46 40.87
  L 10.13 42.58
  Q 9.99 43.29 10.70 43.41
  L 12.21 43.68
  Q 12.69 43.76 12.66 43.28
  L 12.65 42.89
  A 0.31 0.30 -12.5 0 0 12.23 42.63
  L 11.58 42.89
  Q 10.73 43.22 10.69 42.32
  L 10.62 41.07
  A 0.54 0.53 13.9 0 1 11.43 40.59
  Q 12.70 41.35 13.27 40.08
  Q 13.64 39.27 12.75 39.29
  L 9.88 39.36
  A 0.25 0.25 0.0 0 0 9.73 39.81
  L 10.20 40.17
  Q 10.55 40.44 10.46 40.87
  Z
  M 7.86 40.89
  L 6.25 42.80
  Q 5.69 43.45 6.55 43.41
  L 8.26 43.33
  A 0.47 0.47 0.0 0 0 8.70 42.75
  L 8.30 41.00
  Q 8.19 40.50 7.86 40.89
  Z
  M 14.8866 45.0401
  A 0.84 0.38 22.4 0 0 14.2548 44.3687
  A 0.84 0.38 22.4 0 0 13.3334 44.3999
  A 0.84 0.38 22.4 0 0 13.9652 45.0713
  A 0.84 0.38 22.4 0 0 14.8866 45.0401
  Z"
/>
<path fill="#fbf7e7" d="
  M 48.76 41.11
  L 47.67 40.96
  Q 50.62 37.95 53.91 36.10
  A 0.60 0.60 0.0 0 1 54.54 37.12
  L 48.76 41.11
  Z"
/>
<path fill="#eccbd1" d="
  M 10.20 40.17
  L 9.73 39.81
  A 0.25 0.25 0.0 0 1 9.88 39.36
  L 12.75 39.29
  Q 13.64 39.27 13.27 40.08
  Q 12.70 41.35 11.43 40.59
  A 0.54 0.53 13.9 0 0 10.62 41.07
  L 10.69 42.32
  Q 10.73 43.22 11.58 42.89
  L 12.23 42.63
  A 0.31 0.30 -12.5 0 1 12.65 42.89
  L 12.66 43.28
  Q 12.69 43.76 12.21 43.68
  L 10.70 43.41
  Q 9.99 43.29 10.13 42.58
  L 10.46 40.87
  Q 10.55 40.44 10.20 40.17
  Z"
/>
<path fill="#eccbd1" d="
  M 8.30 41.00
  L 8.70 42.75
  A 0.47 0.47 0.0 0 1 8.26 43.33
  L 6.55 43.41
  Q 5.69 43.45 6.25 42.80
  L 7.86 40.89
  Q 8.19 40.50 8.30 41.00
  Z"
/>
<path fill="#eccbd1" d="
  M 17.36 48.12
  Q 17.05 49.14 16.03 49.95
  Q 10.37 53.73 6.51 48.57
  A 0.28 0.28 0.0 0 1 6.74 48.12
  Q 6.87 48.12 7.00 48.13
  Q 7.26 48.13 7.42 48.34
  Q 8.99 50.40 11.52 51.41
  A 0.75 0.74 -10.1 0 0 12.35 50.22
  Q 11.79 49.60 11.94 48.79
  Q 12.07 48.12 12.53 48.62
  Q 13.04 49.17 12.70 49.79
  A 0.37 0.36 -79.7 0 0 13.07 50.33
  Q 14.33 50.15 14.91 49.02
  Q 15.16 48.52 14.68 48.23
  L 11.60 46.41
  Q 11.64 47.10 11.29 45.76
  L 14.69 47.54
  A 0.49 0.49 0.0 0 0 15.39 46.98
  Q 15.00 45.59 16.17 44.82
  A 0.60 0.60 0.0 0 0 15.99 43.74
  Q 13.81 43.16 15.04 40.95
  Q 15.40 40.29 15.95 40.82
  Q 18.99 43.77 17.36 48.12
  Z"
/>
<path fill="#ef5f5f" d="
  M 47.67 40.96
  L 48.76 41.11
  L 48.58 41.79
  A 0.63 0.60 81.6 0 1 48.32 42.16
  L 40.84 47.19
  A 0.30 0.30 0.0 0 1 40.45 46.74
  Q 43.70 43.03 47.67 40.96
  Z"
/>
<path fill="#ffbb4c" d="
  M 11.29 45.76
  Q 11.64 47.10 11.60 46.41
  Q 10.40 47.47 11.17 48.90
  A 0.18 0.17 -31.7 0 1 11.11 49.12
  L 10.60 49.44
  Q 10.37 49.58 10.35 49.31
  Q 10.25 47.79 8.81 47.67
  A 0.79 0.79 0.0 0 1 8.10 47.04
  Q 7.78 45.57 6.61 46.60
  A 0.43 0.42 -23.1 0 1 5.90 46.32
  L 5.81 44.98
  Q 5.80 44.91 5.87 44.93
  L 7.19 45.47
  Q 7.66 45.66 7.85 45.19
  L 8.03 44.77
  Q 8.22 44.32 8.70 44.23
  Q 10.91 43.83 11.29 45.76
  Z"
/>
<ellipse fill="#eccbd1" cx="0.00" cy="0.00" transform="translate(14.11,44.72) rotate(22.4)" rx="0.84" ry="0.38"/>
<path fill="#5c4b51" d="
  M 17.36 48.12
  L 21.25 51.00
  Q 22.73 52.08 24.25 53.25
  Q 25.64 54.32 23.79 54.70
  A 1.02 1.01 61.6 0 1 22.89 54.43
  Q 21.08 52.67 19.20 51.97
  Q 18.13 50.30 16.03 49.95
  Q 17.05 49.14 17.36 48.12
  Z"
/>
<path fill="#fbf7e7" d="
  M 46.74 53.77
  A 0.63 0.63 0.0 0 1 46.11 54.40
  L 33.69 54.40
  A 0.63 0.63 0.0 0 1 33.06 53.77
  L 33.06 51.31
  A 0.63 0.63 0.0 0 1 33.69 50.68
  L 46.11 50.68
  A 0.63 0.63 0.0 0 1 46.74 51.31
  L 46.74 53.77
  Z
  M 41.8492 52.5444
  A 1.95 1.03 1.6 0 0 39.9288 51.4604
  A 1.95 1.03 1.6 0 0 37.9508 52.4356
  A 1.95 1.03 1.6 0 0 39.8712 53.5196
  A 1.95 1.03 1.6 0 0 41.8492 52.5444
  Z"
/>
<ellipse fill="#ef5f5f" cx="0.00" cy="0.00" transform="translate(39.90,52.49) rotate(1.6)" rx="1.95" ry="1.03"/>
</svg>
