<?xml version="1.0" encoding="UTF-8" standalone="no"?>
<!DOCTYPE svg PUBLIC "-//W3C//DTD SVG 1.1//EN" "http://www.w3.org/Graphics/SVG/1.1/DTD/svg11.dtd">
<svg xmlns="http://www.w3.org/2000/svg" version="1.1" viewBox="0.00 0.00 32.00 32.00">
<path fill="#0a9287" d="
  M 32.00 13.39
  L 32.00 14.05
  Q 31.35 14.74 30.41 14.05
  Q 23.48 8.94 16.41 3.89
  Q 16.00 3.59 15.59 3.89
  Q 8.57 9.01 1.66 14.08
  Q 1.22 14.40 0.86 14.39
  Q 0.34 14.37 0.00 13.94
  L 0.00 13.37
  L 15.55 1.98
  Q 16.00 1.65 16.45 1.98
  L 32.00 13.39
  Z"
/>
<path fill="#0a9287" d="
  M 26.79 28.04
  Q 26.82 21.82 26.83 15.61
  Q 26.83 15.16 27.01 14.92
  Q 27.33 14.48 27.91 14.59
  A 0.70 0.70 0.0 0 1 28.48 15.28
  L 28.48 29.51
  A 0.74 0.74 0.0 0 1 27.74 30.25
  L 19.26 30.25
  Q 18.60 30.25 18.57 29.59
  Q 18.37 25.86 18.56 22.27
  C 18.79 17.83 13.35 17.93 13.49 21.75
  Q 13.64 25.68 13.43 29.59
  Q 13.39 30.25 12.74 30.25
  L 4.26 30.25
  A 0.74 0.74 0.0 0 1 3.52 29.51
  L 3.52 15.26
  A 0.64 0.64 0.0 0 1 4.15 14.62
  Q 5.22 14.62 5.21 15.50
  Q 5.18 21.80 5.19 28.09
  Q 5.19 28.63 5.72 28.62
  L 11.30 28.60
  Q 11.89 28.60 11.88 28.01
  Q 11.76 22.71 11.88 21.00
  C 12.12 17.43 16.76 15.97 19.04 18.61
  C 20.76 20.61 20.16 25.45 20.12 28.04
  Q 20.11 28.63 20.70 28.62
  L 26.22 28.60
  Q 26.79 28.60 26.79 28.04
  Z"
/>
</svg>
