<?xml version="1.0" encoding="UTF-8" standalone="no"?>
<!DOCTYPE svg PUBLIC "-//W3C//DTD SVG 1.1//EN" "http://www.w3.org/Graphics/SVG/1.1/DTD/svg11.dtd">
<svg xmlns="http://www.w3.org/2000/svg" version="1.1" viewBox="0.00 0.00 171.00 93.00">
<g stroke-width="2.00" fill="none" stroke-linecap="butt">
<path stroke="#bab9ba" vector-effect="non-scaling-stroke" d="
  M 73.04 0.97
  Q 73.26 1.32 72.53 1.76"
/>
<path stroke="#9d918b" vector-effect="non-scaling-stroke" d="
  M 72.53 1.76
  Q 69.29 2.87 66.93 5.57"
/>
<path stroke="#bab9ba" vector-effect="non-scaling-stroke" d="
  M 66.93 5.57
  Q 65.50 7.52 66.17 10.96"
/>
<path stroke="#9d918b" vector-effect="non-scaling-stroke" d="
  M 66.17 10.96
  Q 62.90 18.54 63.90 27.39"
/>
<path stroke="#fee6d3" vector-effect="non-scaling-stroke" d="
  M 63.90 27.39
  Q 62.77 28.11 61.50 28.07
  A 2.61 2.61 0.0 0 0 58.83 30.31
  Q 57.92 36.85 62.05 41.90
  Q 62.38 42.31 62.90 42.34
  L 64.44 42.46
  A 0.73 0.73 0.0 0 1 65.12 43.20
  C 64.98 50.50 68.92 53.21 74.05 57.43
  C 75.23 58.40 76.36 59.96 75.09 61.23"
/>
<path stroke="#bab9ba" vector-effect="non-scaling-stroke" d="
  M 75.09 61.23
  Q 66.86 62.53 63.65 69.90
  A 1.02 1.02 0.0 0 1 62.93 70.49
  Q 58.78 71.39 57.32 74.56
  Q 53.43 83.01 60.96 88.97
  A 0.42 0.42 0.0 0 1 60.79 89.71
  Q 59.08 90.12 57.87 91.35
  Q 57.49 91.73 56.96 91.70
  Q 56.13 91.64 55.37 91.97
  Q 54.43 92.38 55.46 92.38
  L 62.50 92.38
  A 0.06 0.05 47.0 0 0 62.50 92.27
  L 60.85 92.06
  Q 59.04 91.82 60.70 91.06
  Q 63.42 89.81 65.99 91.66
  Q 66.05 91.70 65.99 91.75
  L 65.72 92.03
  Q 65.56 92.19 65.79 92.21
  L 70.41 92.57
  Q 71.45 92.66 70.55 92.12
  Q 69.75 91.64 69.00 91.68
  Q 68.06 91.74 67.68 91.20
  Q 67.44 90.86 67.07 90.68
  L 64.99 89.70
  Q 64.38 89.41 64.95 89.05
  Q 68.64 86.67 69.80 82.70"
/>
<path stroke="#ededee" vector-effect="non-scaling-stroke" d="
  M 69.80 82.70
  Q 71.90 83.27 73.00 85.10
  Q 73.27 85.54 73.13 86.04
  Q 72.20 89.58 74.99 92.17
  Q 75.46 92.61 76.10 92.62
  L 80.71 92.75"
/>
<path stroke="#e9a5a5" vector-effect="non-scaling-stroke" d="
  M 80.71 92.75
  Q 81.53 93.01 82.22 92.73"
/>
<path stroke="#9d9ebb" vector-effect="non-scaling-stroke" d="
  M 82.22 92.73
  Q 82.23 92.87 82.25 93.00"
/>
<path stroke="#9d918b" vector-effect="non-scaling-stroke" d="
  M 95.41 0.99
  C 98.62 1.87 104.90 5.38 103.91 9.21
  Q 103.79 9.68 103.97 10.14
  Q 107.39 18.78 106.39 28.26"
/>
<path stroke="#9c785f" vector-effect="non-scaling-stroke" d="
  M 106.39 28.26
  Q 106.52 30.86 105.78 33.37
  Q 105.53 34.23 105.20 33.40
  C 102.91 27.69 101.31 21.37 99.77 15.28
  A 0.77 0.77 0.0 0 0 98.75 14.75
  Q 85.02 19.99 71.33 14.82
  Q 70.88 14.65 70.74 15.11
  L 65.21 33.75
  A 0.35 0.35 0.0 0 1 64.53 33.68
  L 63.90 27.39"
/>
<path stroke="#584b46" vector-effect="non-scaling-stroke" d="
  M 66.17 10.96
  Q 67.02 8.79 66.93 5.57"
/>
<path stroke="#584b46" vector-effect="non-scaling-stroke" d="
  M 72.53 1.76
  Q 74.03 1.64 74.99 1.03"
/>
<path stroke="#9d9ebb" vector-effect="non-scaling-stroke" d="
  M 88.50 93.00
  Q 88.69 92.84 89.07 92.73"
/>
<path stroke="#e9a5a5" vector-effect="non-scaling-stroke" d="
  M 89.07 92.73
  Q 89.36 92.73 89.48 92.65
  Q 89.53 92.63 89.58 92.33
  C 90.61 86.44 92.53 81.27 93.93 75.13"
/>
<path stroke="#f4afae" vector-effect="non-scaling-stroke" d="
  M 93.93 75.13
  Q 95.70 70.87 95.85 64.75
  Q 95.87 64.09 95.27 63.91"
/>
<path stroke="#fee6d3" vector-effect="non-scaling-stroke" d="
  M 95.27 63.91
  Q 94.99 63.41 95.18 62.82
  Q 95.35 62.33 95.86 62.37
  L 96.21 62.41"
/>
<path stroke="#bab9ba" vector-effect="non-scaling-stroke" d="
  M 96.21 62.41
  Q 103.11 64.26 105.32 70.74"
/>
<path stroke="#ededee" vector-effect="non-scaling-stroke" d="
  M 105.32 70.74
  Q 102.39 70.68 99.93 69.68
  A 0.47 0.47 0.0 0 0 99.29 70.22
  L 101.55 80.00
  A 0.96 0.94 -29.9 0 1 101.31 80.86
  L 98.26 84.09
  A 2.25 2.23 53.1 0 0 97.90 86.68
  L 98.61 88.05
  A 1.10 1.08 -47.2 0 1 98.64 88.99
  L 97.18 92.17
  Q 96.93 92.70 97.52 92.70
  L 124.20 92.70
  Q 124.71 92.70 124.46 92.26
  C 122.40 88.61 121.24 74.64 116.14 73.34
  Q 111.57 72.18 106.90 71.11"
/>
<path stroke="#bab9ba" vector-effect="non-scaling-stroke" d="
  M 106.90 71.11
  Q 104.56 62.47 95.20 60.94"
/>
<path stroke="#fee6d3" vector-effect="non-scaling-stroke" d="
  M 95.20 60.94
  Q 94.09 58.92 95.88 57.59
  C 102.08 52.94 104.25 50.59 105.33 43.10
  A 0.72 0.71 -88.9 0 1 105.96 42.49
  C 112.25 41.81 114.93 24.84 106.39 28.26"
/>
<path stroke="#b8a08e" vector-effect="non-scaling-stroke" d="
  M 95.20 60.94
  Q 94.98 61.01 94.80 61.15
  Q 94.40 61.47 94.81 61.77
  Q 95.40 62.22 96.21 62.41"
/>
<path stroke="#f29682" vector-effect="non-scaling-stroke" d="
  M 95.27 63.91
  L 86.71 69.43
  A 2.66 2.65 -44.5 0 1 83.79 69.41
  L 75.73 64.02"
/>
<path stroke="#fee6d3" vector-effect="non-scaling-stroke" d="
  M 75.73 64.02
  Q 75.68 63.16 75.37 62.74"
/>
<path stroke="#b8a08e" vector-effect="non-scaling-stroke" d="
  M 75.37 62.74
  Q 75.77 62.26 75.86 61.79
  Q 75.94 61.35 75.51 61.26
  Q 75.26 61.20 75.09 61.23"
/>
<path stroke="#9c785f" vector-effect="non-scaling-stroke" d="
  M 68.94 29.28
  Q 75.71 27.77 79.40 29.31
  Q 81.04 29.99 80.10 28.48
  C 77.39 24.11 71.62 25.69 68.73 28.92
  Q 68.28 29.43 68.94 29.28"
/>
<path stroke="#9c785f" vector-effect="non-scaling-stroke" d="
  M 90.56 29.27
  C 94.33 28.36 97.44 27.98 101.09 29.49
  Q 102.31 30.00 101.47 28.98
  C 98.75 25.65 92.80 24.24 90.07 28.59
  Q 89.47 29.54 90.56 29.27"
/>
<path stroke="#9c785f" vector-effect="non-scaling-stroke" d="
  M 78.31 33.43
  A 2.60 2.60 0.0 0 0 75.71 30.83
  A 2.60 2.60 0.0 0 0 73.11 33.43
  A 2.60 2.60 0.0 0 0 75.71 36.03
  A 2.60 2.60 0.0 0 0 78.31 33.43"
/>
<path stroke="#9c785f" vector-effect="non-scaling-stroke" d="
  M 97.10 33.41
  A 2.61 2.61 0.0 0 0 94.49 30.80
  A 2.61 2.61 0.0 0 0 91.88 33.41
  A 2.61 2.61 0.0 0 0 94.49 36.02
  A 2.61 2.61 0.0 0 0 97.10 33.41"
/>
<path stroke="#9c785f" vector-effect="non-scaling-stroke" d="
  M 76.60 46.65
  C 78.68 46.91 82.51 47.20 84.46 45.99
  Q 84.89 45.72 85.37 45.90
  Q 89.48 47.49 93.88 46.57
  Q 94.52 46.43 93.96 46.09
  L 88.97 43.10
  A 0.88 0.83 -28.2 0 0 88.53 42.98
  L 81.66 42.97
  A 1.49 1.43 -64.0 0 0 80.73 43.31
  Q 78.81 44.91 76.49 45.81
  Q 74.88 46.44 76.60 46.65"
/>
<path stroke="#fee6d3" vector-effect="non-scaling-stroke" d="
  M 90.32 48.29
  L 80.52 48.45
  A 0.04 0.04 0.0 0 0 80.49 48.49
  L 80.49 48.55
  A 4.85 1.96 -0.9 0 0 85.37 50.43
  L 85.55 50.43
  A 4.85 1.96 -0.9 0 0 90.36 48.39
  L 90.36 48.33
  A 0.04 0.04 0.0 0 0 90.32 48.29"
/>
<path stroke="#a7a7a9" vector-effect="non-scaling-stroke" d="
  M 106.90 71.11
  L 107.49 80.28
  A 1.25 1.24 -81.1 0 0 108.27 81.36
  C 113.08 83.26 112.27 90.10 107.11 90.31
  C 101.44 90.53 99.90 83.15 105.38 81.13
  A 0.82 0.80 83.3 0 0 105.91 80.44
  Q 106.40 75.46 105.32 70.74"
/>
<path stroke="#bab9ba" vector-effect="non-scaling-stroke" d="
  M 108.9328 84.7678
  A 2.37 2.18 -20.3 0 0 105.9537 83.5454
  A 2.37 2.18 -20.3 0 0 104.4872 86.4122
  A 2.37 2.18 -20.3 0 0 107.4663 87.6346
  A 2.37 2.18 -20.3 0 0 108.9328 84.7678"
/>
<path stroke="#bab9ba" vector-effect="non-scaling-stroke" d="
  M 75.37 62.74
  Q 69.01 63.18 65.35 69.41
  A 1.09 1.09 0.0 0 0 65.96 71.00
  Q 68.17 71.69 69.41 74.84"
/>
<path stroke="#a7a7a9" vector-effect="non-scaling-stroke" d="
  M 69.41 74.84
  Q 70.71 78.50 69.80 82.70"
/>
<path stroke="#bab9ba" vector-effect="non-scaling-stroke" d="
  M 58.53 75.53
  C 56.13 80.22 58.16 85.47 62.39 88.42
  Q 62.79 88.70 63.23 88.47
  Q 69.56 85.01 68.65 77.52
  C 67.90 71.35 61.49 69.74 58.53 75.53"
/>
<path stroke="#f4afae" vector-effect="non-scaling-stroke" d="
  M 75.73 64.02
  Q 74.32 63.90 74.17 65.44"
/>
<path stroke="#ededee" vector-effect="non-scaling-stroke" d="
  M 74.17 65.44
  Q 70.88 69.16 69.41 74.84"
/>
<path stroke="#de5554" vector-effect="non-scaling-stroke" d="
  M 93.93 75.13
  Q 89.89 76.58 89.86 75.41"
/>
<path stroke="#924e6a" vector-effect="non-scaling-stroke" d="
  M 89.86 75.41
  L 85.87 71.34
  A 0.98 0.98 0.0 0 0 84.48 71.33
  L 81.03 74.69"
/>
<path stroke="#de5554" vector-effect="non-scaling-stroke" d="
  M 81.03 74.69
  Q 80.64 74.48 80.30 75.55
  Q 80.11 76.15 79.50 76.05
  Q 78.44 75.87 77.92 75.00
  A 0.81 0.67 -53.0 0 0 76.62 75.31
  Q 76.54 75.50 76.66 76.21"
/>
<path stroke="#e19d9d" vector-effect="non-scaling-stroke" d="
  M 76.66 76.21
  L 74.17 65.44"
/>
<path stroke="#d79394" vector-effect="non-scaling-stroke" d="
  M 76.66 76.21
  Q 80.10 88.61 80.87 91.75
  Q 80.93 91.99 80.71 92.75"
/>
<path stroke="#874461" vector-effect="non-scaling-stroke" d="
  M 89.86 75.41
  L 87.36 78.35
  Q 87.03 78.75 87.07 79.26
  L 88.18 91.52
  Q 88.22 91.91 88.53 92.16
  Q 88.89 92.44 89.07 92.73"
/>
<path stroke="#874461" vector-effect="non-scaling-stroke" d="
  M 82.22 92.73
  L 83.51 79.86
  A 1.31 1.28 29.3 0 0 83.24 78.94
  Q 81.53 76.76 81.03 74.69"
/>
</g>
<path fill="#ffffff" d="
  M 0.00 0.92
  L 73.04 0.97
  Q 73.26 1.32 72.53 1.76
  Q 69.29 2.87 66.93 5.57
  Q 65.50 7.52 66.17 10.96
  Q 62.90 18.54 63.90 27.39
  Q 62.77 28.11 61.50 28.07
  A 2.61 2.61 0.0 0 0 58.83 30.31
  Q 57.92 36.85 62.05 41.90
  Q 62.38 42.31 62.90 42.34
  L 64.44 42.46
  A 0.73 0.73 0.0 0 1 65.12 43.20
  C 64.98 50.50 68.92 53.21 74.05 57.43
  C 75.23 58.40 76.36 59.96 75.09 61.23
  Q 66.86 62.53 63.65 69.90
  A 1.02 1.02 0.0 0 1 62.93 70.49
  Q 58.78 71.39 57.32 74.56
  Q 53.43 83.01 60.96 88.97
  A 0.42 0.42 0.0 0 1 60.79 89.71
  Q 59.08 90.12 57.87 91.35
  Q 57.49 91.73 56.96 91.70
  Q 56.13 91.64 55.37 91.97
  Q 54.43 92.38 55.46 92.38
  L 62.50 92.38
  A 0.06 0.05 47.0 0 0 62.50 92.27
  L 60.85 92.06
  Q 59.04 91.82 60.70 91.06
  Q 63.42 89.81 65.99 91.66
  Q 66.05 91.70 65.99 91.75
  L 65.72 92.03
  Q 65.56 92.19 65.79 92.21
  L 70.41 92.57
  Q 71.45 92.66 70.55 92.12
  Q 69.75 91.64 69.00 91.68
  Q 68.06 91.74 67.68 91.20
  Q 67.44 90.86 67.07 90.68
  L 64.99 89.70
  Q 64.38 89.41 64.95 89.05
  Q 68.64 86.67 69.80 82.70
  Q 71.90 83.27 73.00 85.10
  Q 73.27 85.54 73.13 86.04
  Q 72.20 89.58 74.99 92.17
  Q 75.46 92.61 76.10 92.62
  L 80.71 92.75
  Q 81.53 93.01 82.22 92.73
  Q 82.23 92.87 82.25 93.00
  L 0.00 93.00
  L 0.00 0.92
  Z"
/>
<path fill="#3b2316" d="
  M 95.41 0.99
  C 98.62 1.87 104.90 5.38 103.91 9.21
  Q 103.79 9.68 103.97 10.14
  Q 107.39 18.78 106.39 28.26
  Q 106.52 30.86 105.78 33.37
  Q 105.53 34.23 105.20 33.40
  C 102.91 27.69 101.31 21.37 99.77 15.28
  A 0.77 0.77 0.0 0 0 98.75 14.75
  Q 85.02 19.99 71.33 14.82
  Q 70.88 14.65 70.74 15.11
  L 65.21 33.75
  A 0.35 0.35 0.0 0 1 64.53 33.68
  L 63.90 27.39
  Q 62.90 18.54 66.17 10.96
  Q 67.02 8.79 66.93 5.57
  Q 69.29 2.87 72.53 1.76
  Q 74.03 1.64 74.99 1.03
  L 95.41 0.99
  Z"
/>
<path fill="#ffffff" d="
  M 171.00 0.95
  L 171.00 93.00
  L 88.50 93.00
  Q 88.69 92.84 89.07 92.73
  Q 89.36 92.73 89.48 92.65
  Q 89.53 92.63 89.58 92.33
  C 90.61 86.44 92.53 81.27 93.93 75.13
  Q 95.70 70.87 95.85 64.75
  Q 95.87 64.09 95.27 63.91
  Q 94.99 63.41 95.18 62.82
  Q 95.35 62.33 95.86 62.37
  L 96.21 62.41
  Q 103.11 64.26 105.32 70.74
  Q 102.39 70.68 99.93 69.68
  A 0.47 0.47 0.0 0 0 99.29 70.22
  L 101.55 80.00
  A 0.96 0.94 -29.9 0 1 101.31 80.86
  L 98.26 84.09
  A 2.25 2.23 53.1 0 0 97.90 86.68
  L 98.61 88.05
  A 1.10 1.08 -47.2 0 1 98.64 88.99
  L 97.18 92.17
  Q 96.93 92.70 97.52 92.70
  L 124.20 92.70
  Q 124.71 92.70 124.46 92.26
  C 122.40 88.61 121.24 74.64 116.14 73.34
  Q 111.57 72.18 106.90 71.11
  Q 104.56 62.47 95.20 60.94
  Q 94.09 58.92 95.88 57.59
  C 102.08 52.94 104.25 50.59 105.33 43.10
  A 0.72 0.71 -88.9 0 1 105.96 42.49
  C 112.25 41.81 114.93 24.84 106.39 28.26
  Q 107.39 18.78 103.97 10.14
  Q 103.79 9.68 103.91 9.21
  C 104.90 5.38 98.62 1.87 95.41 0.99
  L 171.00 0.95
  Z"
/>
<path fill="#747375" d="
  M 73.04 0.97
  L 74.99 1.03
  Q 74.03 1.64 72.53 1.76
  Q 73.26 1.32 73.04 0.97
  Z"
/>
<path fill="#747375" d="
  M 66.93 5.57
  Q 67.02 8.79 66.17 10.96
  Q 65.50 7.52 66.93 5.57
  Z"
/>
<path fill="#fccca7" d="
  M 106.39 28.26
  C 114.93 24.84 112.25 41.81 105.96 42.49
  A 0.72 0.71 -88.9 0 0 105.33 43.10
  C 104.25 50.59 102.08 52.94 95.88 57.59
  Q 94.09 58.92 95.20 60.94
  Q 94.98 61.01 94.80 61.15
  Q 94.40 61.47 94.81 61.77
  Q 95.40 62.22 96.21 62.41
  L 95.86 62.37
  Q 95.35 62.33 95.18 62.82
  Q 94.99 63.41 95.27 63.91
  L 86.71 69.43
  A 2.66 2.65 -44.5 0 1 83.79 69.41
  L 75.73 64.02
  Q 75.68 63.16 75.37 62.74
  Q 75.77 62.26 75.86 61.79
  Q 75.94 61.35 75.51 61.26
  Q 75.26 61.20 75.09 61.23
  C 76.36 59.96 75.23 58.40 74.05 57.43
  C 68.92 53.21 64.98 50.50 65.12 43.20
  A 0.73 0.73 0.0 0 0 64.44 42.46
  L 62.90 42.34
  Q 62.38 42.31 62.05 41.90
  Q 57.92 36.85 58.83 30.31
  A 2.61 2.61 0.0 0 1 61.50 28.07
  Q 62.77 28.11 63.90 27.39
  L 64.53 33.68
  A 0.35 0.35 0.0 0 0 65.21 33.75
  L 70.74 15.11
  Q 70.88 14.65 71.33 14.82
  Q 85.02 19.99 98.75 14.75
  A 0.77 0.77 0.0 0 1 99.77 15.28
  C 101.31 21.37 102.91 27.69 105.20 33.40
  Q 105.53 34.23 105.78 33.37
  Q 106.52 30.86 106.39 28.26
  Z
  M 68.94 29.28
  Q 75.71 27.77 79.40 29.31
  Q 81.04 29.99 80.10 28.48
  C 77.39 24.11 71.62 25.69 68.73 28.92
  Q 68.28 29.43 68.94 29.28
  Z
  M 90.56 29.27
  C 94.33 28.36 97.44 27.98 101.09 29.49
  Q 102.31 30.00 101.47 28.98
  C 98.75 25.65 92.80 24.24 90.07 28.59
  Q 89.47 29.54 90.56 29.27
  Z
  M 78.31 33.43
  A 2.60 2.60 0.0 0 0 75.71 30.83
  A 2.60 2.60 0.0 0 0 73.11 33.43
  A 2.60 2.60 0.0 0 0 75.71 36.03
  A 2.60 2.60 0.0 0 0 78.31 33.43
  Z
  M 97.10 33.41
  A 2.61 2.61 0.0 0 0 94.49 30.80
  A 2.61 2.61 0.0 0 0 91.88 33.41
  A 2.61 2.61 0.0 0 0 94.49 36.02
  A 2.61 2.61 0.0 0 0 97.10 33.41
  Z
  M 76.60 46.65
  C 78.68 46.91 82.51 47.20 84.46 45.99
  Q 84.89 45.72 85.37 45.90
  Q 89.48 47.49 93.88 46.57
  Q 94.52 46.43 93.96 46.09
  L 88.97 43.10
  A 0.88 0.83 -28.2 0 0 88.53 42.98
  L 81.66 42.97
  A 1.49 1.43 -64.0 0 0 80.73 43.31
  Q 78.81 44.91 76.49 45.81
  Q 74.88 46.44 76.60 46.65
  Z
  M 90.32 48.29
  L 80.52 48.45
  A 0.04 0.04 0.0 0 0 80.49 48.49
  L 80.49 48.55
  A 4.85 1.96 -0.9 0 0 85.37 50.43
  L 85.55 50.43
  A 4.85 1.96 -0.9 0 0 90.36 48.39
  L 90.36 48.33
  A 0.04 0.04 0.0 0 0 90.32 48.29
  Z"
/>
<path fill="#3b2316" d="
  M 68.94 29.28
  Q 68.28 29.43 68.73 28.92
  C 71.62 25.69 77.39 24.11 80.10 28.48
  Q 81.04 29.99 79.40 29.31
  Q 75.71 27.77 68.94 29.28
  Z"
/>
<path fill="#3b2316" d="
  M 101.09 29.49
  C 97.44 27.98 94.33 28.36 90.56 29.27
  Q 89.47 29.54 90.07 28.59
  C 92.80 24.24 98.75 25.65 101.47 28.98
  Q 102.31 30.00 101.09 29.49
  Z"
/>
<circle fill="#3b2316" cx="75.71" cy="33.43" r="2.60"/>
<circle fill="#3b2316" cx="94.49" cy="33.41" r="2.61"/>
<path fill="#3b2316" d="
  M 84.46 45.99
  C 82.51 47.20 78.68 46.91 76.60 46.65
  Q 74.88 46.44 76.49 45.81
  Q 78.81 44.91 80.73 43.31
  A 1.49 1.43 -64.0 0 1 81.66 42.97
  L 88.53 42.98
  A 0.88 0.83 -28.2 0 1 88.97 43.10
  L 93.96 46.09
  Q 94.52 46.43 93.88 46.57
  Q 89.48 47.49 85.37 45.90
  Q 84.89 45.72 84.46 45.99
  Z"
/>
<path fill="#ffffff" d="
  M 90.32 48.29
  A 0.04 0.04 0.0 0 1 90.36 48.33
  L 90.36 48.39
  A 4.85 1.96 -0.9 0 1 85.55 50.43
  L 85.37 50.43
  A 4.85 1.96 -0.9 0 1 80.49 48.55
  L 80.49 48.49
  A 0.04 0.04 0.0 0 1 80.52 48.45
  L 90.32 48.29
  Z"
/>
<path fill="#747375" d="
  M 95.20 60.94
  Q 104.56 62.47 106.90 71.11
  L 107.49 80.28
  A 1.25 1.24 -81.1 0 0 108.27 81.36
  C 113.08 83.26 112.27 90.10 107.11 90.31
  C 101.44 90.53 99.90 83.15 105.38 81.13
  A 0.82 0.80 83.3 0 0 105.91 80.44
  Q 106.40 75.46 105.32 70.74
  Q 103.11 64.26 96.21 62.41
  Q 95.40 62.22 94.81 61.77
  Q 94.40 61.47 94.80 61.15
  Q 94.98 61.01 95.20 60.94
  Z
  M 108.9328 84.7678
  A 2.37 2.18 -20.3 0 0 105.9537 83.5454
  A 2.37 2.18 -20.3 0 0 104.4872 86.4122
  A 2.37 2.18 -20.3 0 0 107.4663 87.6346
  A 2.37 2.18 -20.3 0 0 108.9328 84.7678
  Z"
/>
<path fill="#747375" d="
  M 75.09 61.23
  Q 75.26 61.20 75.51 61.26
  Q 75.94 61.35 75.86 61.79
  Q 75.77 62.26 75.37 62.74
  Q 69.01 63.18 65.35 69.41
  A 1.09 1.09 0.0 0 0 65.96 71.00
  Q 68.17 71.69 69.41 74.84
  Q 70.71 78.50 69.80 82.70
  Q 68.64 86.67 64.95 89.05
  Q 64.38 89.41 64.99 89.70
  L 67.07 90.68
  Q 67.44 90.86 67.68 91.20
  Q 68.06 91.74 69.00 91.68
  Q 69.75 91.64 70.55 92.12
  Q 71.45 92.66 70.41 92.57
  L 65.79 92.21
  Q 65.56 92.19 65.72 92.03
  L 65.99 91.75
  Q 66.05 91.70 65.99 91.66
  Q 63.42 89.81 60.70 91.06
  Q 59.04 91.82 60.85 92.06
  L 62.50 92.27
  A 0.06 0.05 47.0 0 1 62.50 92.38
  L 55.46 92.38
  Q 54.43 92.38 55.37 91.97
  Q 56.13 91.64 56.96 91.70
  Q 57.49 91.73 57.87 91.35
  Q 59.08 90.12 60.79 89.71
  A 0.42 0.42 0.0 0 0 60.96 88.97
  Q 53.43 83.01 57.32 74.56
  Q 58.78 71.39 62.93 70.49
  A 1.02 1.02 0.0 0 0 63.65 69.90
  Q 66.86 62.53 75.09 61.23
  Z
  M 58.53 75.53
  C 56.13 80.22 58.16 85.47 62.39 88.42
  Q 62.79 88.70 63.23 88.47
  Q 69.56 85.01 68.65 77.52
  C 67.90 71.35 61.49 69.74 58.53 75.53
  Z"
/>
<path fill="#ffffff" d="
  M 75.37 62.74
  Q 75.68 63.16 75.73 64.02
  Q 74.32 63.90 74.17 65.44
  Q 70.88 69.16 69.41 74.84
  Q 68.17 71.69 65.96 71.00
  A 1.09 1.09 0.0 0 1 65.35 69.41
  Q 69.01 63.18 75.37 62.74
  Z"
/>
<path fill="#e85f5d" d="
  M 75.73 64.02
  L 83.79 69.41
  A 2.66 2.65 -44.5 0 0 86.71 69.43
  L 95.27 63.91
  Q 95.87 64.09 95.85 64.75
  Q 95.70 70.87 93.93 75.13
  Q 89.89 76.58 89.86 75.41
  L 85.87 71.34
  A 0.98 0.98 0.0 0 0 84.48 71.33
  L 81.03 74.69
  Q 80.64 74.48 80.30 75.55
  Q 80.11 76.15 79.50 76.05
  Q 78.44 75.87 77.92 75.00
  A 0.81 0.67 -53.0 0 0 76.62 75.31
  Q 76.54 75.50 76.66 76.21
  L 74.17 65.44
  Q 74.32 63.90 75.73 64.02
  Z"
/>
<path fill="#dadadc" d="
  M 74.17 65.44
  L 76.66 76.21
  Q 80.10 88.61 80.87 91.75
  Q 80.93 91.99 80.71 92.75
  L 76.10 92.62
  Q 75.46 92.61 74.99 92.17
  Q 72.20 89.58 73.13 86.04
  Q 73.27 85.54 73.00 85.10
  Q 71.90 83.27 69.80 82.70
  Q 70.71 78.50 69.41 74.84
  Q 70.88 69.16 74.17 65.44
  Z"
/>
<path fill="#dadadc" d="
  M 105.32 70.74
  Q 106.40 75.46 105.91 80.44
  A 0.82 0.80 83.3 0 1 105.38 81.13
  C 99.90 83.15 101.44 90.53 107.11 90.31
  C 112.27 90.10 113.08 83.26 108.27 81.36
  A 1.25 1.24 -81.1 0 1 107.49 80.28
  L 106.90 71.11
  Q 111.57 72.18 116.14 73.34
  C 121.24 74.64 122.40 88.61 124.46 92.26
  Q 124.71 92.70 124.20 92.70
  L 97.52 92.70
  Q 96.93 92.70 97.18 92.17
  L 98.64 88.99
  A 1.10 1.08 -47.2 0 0 98.61 88.05
  L 97.90 86.68
  A 2.25 2.23 53.1 0 1 98.26 84.09
  L 101.31 80.86
  A 0.96 0.94 -29.9 0 0 101.55 80.00
  L 99.29 70.22
  A 0.47 0.47 0.0 0 1 99.93 69.68
  Q 102.39 70.68 105.32 70.74
  Z"
/>
<path fill="#3b3d77" d="
  M 89.86 75.41
  L 87.36 78.35
  Q 87.03 78.75 87.07 79.26
  L 88.18 91.52
  Q 88.22 91.91 88.53 92.16
  Q 88.89 92.44 89.07 92.73
  Q 88.69 92.84 88.50 93.00
  L 82.25 93.00
  Q 82.23 92.87 82.22 92.73
  L 83.51 79.86
  A 1.31 1.28 29.3 0 0 83.24 78.94
  Q 81.53 76.76 81.03 74.69
  L 84.48 71.33
  A 0.98 0.98 0.0 0 1 85.87 71.34
  L 89.86 75.41
  Z"
/>
<path fill="#ffffff" d="
  M 62.39 88.42
  C 58.16 85.47 56.13 80.22 58.53 75.53
  C 61.49 69.74 67.90 71.35 68.65 77.52
  Q 69.56 85.01 63.23 88.47
  Q 62.79 88.70 62.39 88.42
  Z"
/>
<path fill="#d34b4b" d="
  M 81.03 74.69
  Q 81.53 76.76 83.24 78.94
  A 1.31 1.28 29.3 0 1 83.51 79.86
  L 82.22 92.73
  Q 81.53 93.01 80.71 92.75
  Q 80.93 91.99 80.87 91.75
  Q 80.10 88.61 76.66 76.21
  Q 76.54 75.50 76.62 75.31
  A 0.81 0.67 -53.0 0 1 77.92 75.00
  Q 78.44 75.87 79.50 76.05
  Q 80.11 76.15 80.30 75.55
  Q 80.64 74.48 81.03 74.69
  Z"
/>
<path fill="#d34b4b" d="
  M 93.93 75.13
  C 92.53 81.27 90.61 86.44 89.58 92.33
  Q 89.53 92.63 89.48 92.65
  Q 89.36 92.73 89.07 92.73
  Q 88.89 92.44 88.53 92.16
  Q 88.22 91.91 88.18 91.52
  L 87.07 79.26
  Q 87.03 78.75 87.36 78.35
  L 89.86 75.41
  Q 89.89 76.58 93.93 75.13
  Z"
/>
<ellipse fill="#ffffff" cx="0.00" cy="0.00" transform="translate(106.71,85.59) rotate(-20.3)" rx="2.37" ry="2.18"/>
</svg>
