<?xml version="1.0" encoding="UTF-8" standalone="no"?>
<!DOCTYPE svg PUBLIC "-//W3C//DTD SVG 1.1//EN" "http://www.w3.org/Graphics/SVG/1.1/DTD/svg11.dtd">
<svg xmlns="http://www.w3.org/2000/svg" version="1.1" viewBox="0.00 0.00 179.00 101.00">
<g stroke-width="2.00" fill="none" stroke-linecap="butt">
<path stroke="#fcfcfc" stroke-opacity="0.506" vector-effect="non-scaling-stroke" d="
  M 175.03 92.69
  L 175.02 1.30
  Q 175.02 0.88 174.60 0.88
  L 93.97 0.89"
/>
<path stroke="#fcb87e" stroke-opacity="0.506" vector-effect="non-scaling-stroke" d="
  M 93.97 0.89
  L 85.95 0.94"
/>
<path stroke="#fcfcfc" stroke-opacity="0.506" vector-effect="non-scaling-stroke" d="
  M 85.95 0.94
  L 4.39 0.90
  A 0.40 0.39 -0.0 0 0 3.99 1.29
  L 3.99 92.85"
/>
<path stroke="#ffddbf" vector-effect="non-scaling-stroke" d="
  M 85.95 0.94
  Q 79.82 3.17 78.42 4.14
  Q 73.80 7.34 69.54 13.95"
/>
<path stroke="#d9d8da" vector-effect="non-scaling-stroke" d="
  M 69.54 13.95
  Q 66.76 14.15 68.98 18.86"
/>
<path stroke="#ffddbf" vector-effect="non-scaling-stroke" d="
  M 68.98 18.86
  L 69.01 26.81
  Q 69.02 27.36 68.47 27.31
  L 66.33 27.15
  A 2.40 2.40 0.0 0 0 63.78 29.16
  C 63.25 32.45 64.08 41.72 68.98 41.49
  Q 69.54 41.47 69.65 42.02
  Q 70.41 45.82 71.98 49.34
  Q 72.90 51.40 75.08 53.26
  C 76.90 54.82 79.71 56.90 80.48 59.25
  Q 80.93 60.60 79.53 60.74"
/>
<path stroke="#b9b8b8" vector-effect="non-scaling-stroke" d="
  M 79.53 60.74
  Q 71.80 62.23 68.56 69.30
  Q 68.35 69.76 67.87 69.89
  C 60.63 71.96 58.89 80.66 63.21 86.29
  Q 63.74 86.99 65.64 88.88
  Q 66.10 89.34 65.48 89.55
  L 60.75 91.11
  Q 60.62 91.15 60.62 91.28
  L 60.62 91.60
  A 0.22 0.21 75.4 0 0 60.94 91.79
  C 62.01 91.17 62.87 91.67 63.90 91.41
  Q 65.50 91.00 67.02 90.26
  Q 67.47 90.04 67.95 90.22
  L 71.16 91.48
  Q 71.62 91.65 72.08 91.52
  Q 73.43 91.12 74.61 91.81
  Q 74.88 91.97 74.88 91.65
  L 74.88 91.32
  Q 74.88 91.26 74.82 91.25
  Q 72.03 90.45 69.84 89.57
  Q 69.13 89.28 69.75 88.83
  Q 73.70 85.94 74.52 82.43"
/>
<path stroke="#ededed" vector-effect="non-scaling-stroke" d="
  M 74.52 82.43
  Q 76.52 82.97 77.70 84.73
  A 1.21 1.20 32.7 0 1 77.89 85.58
  Q 77.44 88.64 79.51 92.79"
/>
<path stroke="#cecece" stroke-opacity="0.620" vector-effect="non-scaling-stroke" d="
  M 79.51 92.79
  L 3.99 92.85"
/>
<path stroke="#b9b8b8" vector-effect="non-scaling-stroke" d="
  M 80.69 62.01
  Q 73.13 62.88 70.00 69.42
  Q 69.77 69.90 70.25 70.13
  Q 72.94 71.40 73.96 74.08"
/>
<path stroke="#a6a6a6" vector-effect="non-scaling-stroke" d="
  M 73.96 74.08
  Q 75.73 77.99 74.52 82.43"
/>
<path stroke="#c7c6c7" vector-effect="non-scaling-stroke" d="
  M 80.11 69.99
  L 86.19 92.76"
/>
<path stroke="#b0b0b0" stroke-opacity="0.620" vector-effect="non-scaling-stroke" d="
  M 86.19 92.76
  L 79.51 92.79"
/>
<path stroke="#d9b69a" vector-effect="non-scaling-stroke" d="
  M 91.32 18.86
  L 68.98 18.86"
/>
<path stroke="#ffddbf" vector-effect="non-scaling-stroke" d="
  M 93.97 0.89
  L 93.24 1.00
  Q 92.72 1.07 93.13 1.39
  Q 93.39 1.59 93.71 1.64"
/>
<path stroke="#fdb57a" vector-effect="non-scaling-stroke" d="
  M 93.71 1.64
  L 90.53 1.83
  Q 90.04 1.86 90.02 2.35
  Q 89.82 7.01 90.08 11.62
  Q 90.15 13.03 91.54 12.91"
/>
<path stroke="#ffddbf" vector-effect="non-scaling-stroke" d="
  M 91.54 12.91
  L 91.07 13.94"
/>
<path stroke="#d9b69a" vector-effect="non-scaling-stroke" d="
  M 91.07 13.94
  L 69.54 13.95"
/>
<path stroke="#fdb57a" vector-effect="non-scaling-stroke" d="
  M 92.05 20.44
  Q 90.38 19.68 90.31 20.74
  C 89.80 27.96 90.06 35.17 89.88 42.41
  Q 89.87 42.88 89.43 43.07
  L 88.72 43.38"
/>
<path stroke="#9c6f4b" vector-effect="non-scaling-stroke" d="
  M 88.72 43.38
  Q 81.33 42.64 80.36 48.98
  C 79.80 52.66 79.41 58.74 83.03 61.04
  Q 92.11 66.83 99.75 58.69"
/>
<path stroke="#b99678" vector-effect="non-scaling-stroke" d="
  M 100.48 60.41
  Q 99.65 61.03 100.05 61.82"
/>
<path stroke="#ffddbf" vector-effect="non-scaling-stroke" d="
  M 100.05 61.82
  C 99.42 64.62 101.35 67.59 100.33 69.85"
/>
<path stroke="#d9b69a" vector-effect="non-scaling-stroke" d="
  M 100.33 69.85
  C 96.54 72.40 95.64 75.16 90.65 75.94
  Q 88.44 76.29 86.34 75.14
  Q 83.05 73.33 80.11 69.99"
/>
<path stroke="#edcaad" vector-effect="non-scaling-stroke" d="
  M 80.11 69.99
  Q 79.79 68.70 80.43 66.41"
/>
<path stroke="#ffddbf" vector-effect="non-scaling-stroke" d="
  M 80.43 66.41
  L 80.69 62.01"
/>
<path stroke="#b99678" vector-effect="non-scaling-stroke" d="
  M 80.69 62.01
  Q 80.54 61.97 80.77 61.46
  Q 80.95 61.10 80.63 60.84
  Q 80.28 60.56 79.53 60.74"
/>
<path stroke="#ededed" vector-effect="non-scaling-stroke" d="
  M 80.43 66.41
  Q 75.33 67.01 75.17 72.28
  Q 75.15 73.00 74.91 73.38
  Q 74.53 73.99 73.96 74.08"
/>
<path stroke="#918f91" stroke-opacity="0.620" vector-effect="non-scaling-stroke" d="
  M 94.00 92.77
  L 86.19 92.76"
/>
<path stroke="#b0b0b0" stroke-opacity="0.620" vector-effect="non-scaling-stroke" d="
  M 129.69 92.79
  L 101.54 92.78"
/>
<path stroke="#ededed" vector-effect="non-scaling-stroke" d="
  M 110.15 69.22
  Q 109.93 70.46 108.49 70.28
  Q 106.75 70.07 105.07 69.59
  A 0.53 0.53 0.0 0 0 104.40 70.21
  L 106.43 79.62
  A 1.43 1.43 0.0 0 1 106.05 80.92
  L 102.32 84.66
  Q 101.92 85.07 102.28 85.51
  Q 103.22 86.66 103.59 88.10
  Q 103.73 88.61 103.48 89.08
  L 101.54 92.78"
/>
<path stroke="#cecece" stroke-opacity="0.620" vector-effect="non-scaling-stroke" d="
  M 101.54 92.78
  L 94.00 92.77"
/>
<path stroke="#d9d8da" vector-effect="non-scaling-stroke" d="
  M 94.00 92.77
  L 100.33 69.85"
/>
<path stroke="#cecece" stroke-opacity="0.620" vector-effect="non-scaling-stroke" d="
  M 175.03 92.69
  L 129.69 92.79"
/>
<path stroke="#ededed" vector-effect="non-scaling-stroke" d="
  M 129.69 92.79
  Q 127.91 83.83 124.19 75.77
  C 122.45 72.01 115.93 71.41 112.01 70.93"
/>
<path stroke="#b9b8b8" vector-effect="non-scaling-stroke" d="
  M 112.01 70.93
  Q 109.58 62.04 100.48 60.41"
/>
<path stroke="#ffddbf" vector-effect="non-scaling-stroke" d="
  M 100.48 60.41
  Q 99.61 59.91 99.75 58.69"
/>
<path stroke="#9c928b" vector-effect="non-scaling-stroke" d="
  M 99.75 58.69
  L 100.01 58.03"
/>
<path stroke="#fdd7ba" vector-effect="non-scaling-stroke" d="
  M 100.01 58.03
  Q 102.88 55.53 105.65 53.15
  C 109.18 50.12 109.43 47.16 110.35 43.22
  Q 110.75 41.50 112.49 41.48
  A 1.28 1.27 22.7 0 0 113.38 41.12
  C 116.20 38.40 117.33 33.84 116.93 30.24
  C 116.63 27.54 115.03 25.91 112.27 27.52
  A 0.54 0.54 0.0 0 1 111.46 27.06
  L 111.43 18.99"
/>
<path stroke="#d9d8da" vector-effect="non-scaling-stroke" d="
  M 111.43 18.99
  Q 114.01 14.27 110.08 13.75"
/>
<path stroke="#fdd7ba" vector-effect="non-scaling-stroke" d="
  M 110.08 13.75
  C 107.06 7.25 101.07 1.73 93.71 1.64"
/>
<path stroke="#d9d8da" vector-effect="non-scaling-stroke" d="
  M 105.01 14.06
  Q 105.69 16.59 105.03 18.98"
/>
<path stroke="#fdd7ba" vector-effect="non-scaling-stroke" d="
  M 105.03 18.98
  C 102.52 24.28 95.49 25.64 92.05 20.44"
/>
<path stroke="#ffddbf" vector-effect="non-scaling-stroke" d="
  M 92.05 20.44
  L 91.32 18.86"
/>
<path stroke="#d9d8da" vector-effect="non-scaling-stroke" d="
  M 91.32 18.86
  Q 90.43 16.42 91.07 13.94"
/>
<path stroke="#d7b095" vector-effect="non-scaling-stroke" d="
  M 110.08 13.75
  L 105.01 14.06"
/>
<path stroke="#fdd7ba" vector-effect="non-scaling-stroke" d="
  M 105.01 14.06
  C 102.53 7.85 94.96 7.15 91.54 12.91"
/>
<path stroke="#9a6a46" vector-effect="non-scaling-stroke" d="
  M 100.01 58.03
  C 100.58 51.06 101.25 41.38 90.51 43.77
  Q 90.01 43.88 88.72 43.38"
/>
<path stroke="#a6a6a6" vector-effect="non-scaling-stroke" d="
  M 112.01 70.93
  L 112.71 79.99
  Q 112.75 80.46 113.16 80.69
  C 120.70 84.80 114.29 92.52 109.49 89.57
  C 106.15 87.52 106.28 82.17 110.54 80.79
  Q 111.05 80.63 111.12 80.10
  Q 111.85 74.51 110.15 69.22"
/>
<path stroke="#b9b8b8" vector-effect="non-scaling-stroke" d="
  M 110.15 69.22
  Q 107.40 62.77 100.05 61.82"
/>
<path stroke="#d7b095" vector-effect="non-scaling-stroke" d="
  M 111.43 18.99
  Q 107.95 18.30 105.03 18.98"
/>
<path stroke="#b9b8b8" vector-effect="non-scaling-stroke" d="
  M 100.48 16.41
  A 2.39 2.39 0.0 0 0 98.09 14.02
  A 2.39 2.39 0.0 0 0 95.70 16.41
  A 2.39 2.39 0.0 0 0 98.09 18.80
  A 2.39 2.39 0.0 0 0 100.48 16.41"
/>
<path stroke="#9c6f4b" vector-effect="non-scaling-stroke" d="
  M 75.18 28.29
  Q 79.95 26.53 84.23 28.31
  Q 85.76 28.94 84.96 27.50
  C 82.61 23.23 76.10 25.26 73.48 28.11
  Q 72.92 28.72 73.75 28.66
  Q 74.30 28.62 75.18 28.29"
/>
<path stroke="#9c6f4b" vector-effect="non-scaling-stroke" d="
  M 83.26 32.61
  A 2.59 2.59 0.0 0 0 80.67 30.02
  A 2.59 2.59 0.0 0 0 78.08 32.61
  A 2.59 2.59 0.0 0 0 80.67 35.20
  A 2.59 2.59 0.0 0 0 83.26 32.61"
/>
<path stroke="#9a6a46" vector-effect="non-scaling-stroke" d="
  M 95.79 28.44
  Q 100.97 26.50 106.06 28.53
  Q 107.64 29.16 106.51 27.89
  C 103.85 24.90 97.47 23.80 95.21 27.77
  Q 94.57 28.90 95.79 28.44"
/>
<path stroke="#9a6a46" vector-effect="non-scaling-stroke" d="
  M 102.23 32.63
  A 2.61 2.61 0.0 0 0 99.62 30.02
  A 2.61 2.61 0.0 0 0 97.01 32.63
  A 2.61 2.61 0.0 0 0 99.62 35.24
  A 2.61 2.61 0.0 0 0 102.23 32.63"
/>
<path stroke="#9a6a46" vector-effect="non-scaling-stroke" d="
  M 91.46 52.67
  Q 91.94 56.47 95.99 55.94
  A 1.14 1.13 -75.1 0 0 96.76 55.49
  Q 99.40 51.90 98.24 47.47
  A 1.90 1.89 83.1 0 0 96.45 46.06
  C 93.32 45.99 90.82 45.29 87.61 45.82
  Q 85.42 46.18 83.29 46.22
  A 1.23 1.23 0.0 0 0 82.12 47.17
  C 81.54 49.67 81.41 56.71 85.74 55.97
  Q 88.74 55.45 88.83 52.92
  Q 88.87 52.02 89.77 51.97
  L 90.56 51.92
  Q 91.35 51.88 91.46 52.67"
/>
<path stroke="#fdd7ba" vector-effect="non-scaling-stroke" d="
  M 95.13 47.64
  L 85.93 47.82
  A 0.13 0.13 0.0 0 0 85.80 47.95
  L 85.81 48.01
  A 4.31 1.81 -1.1 0 0 90.15 49.74
  L 90.99 49.72
  A 4.31 1.81 -1.1 0 0 95.26 47.83
  L 95.26 47.77
  A 0.13 0.13 0.0 0 0 95.13 47.64"
/>
<path stroke="#b9b8b8" vector-effect="non-scaling-stroke" d="
  M 114.12 85.36
  A 2.27 2.27 0.0 0 0 111.85 83.09
  A 2.27 2.27 0.0 0 0 109.58 85.36
  A 2.27 2.27 0.0 0 0 111.85 87.63
  A 2.27 2.27 0.0 0 0 114.12 85.36"
/>
<path stroke="#b9b8b8" vector-effect="non-scaling-stroke" d="
  M 63.17 75.19
  Q 60.26 83.39 67.13 88.16
  Q 67.54 88.43 67.97 88.21
  Q 74.62 84.76 73.55 76.97
  C 72.69 70.78 65.29 69.23 63.17 75.19"
/>
</g>
<path fill="#000000" fill-opacity="0.012" d="
  M 0.00 0.00
  L 179.00 0.00
  L 179.00 101.00
  L 0.00 101.00
  L 0.00 0.00
  Z
  M 3.99 92.85
  Q 2.76 92.17 3.68 93.76
  Q 3.94 94.21 4.43 94.37
  L 7.52 95.44
  A 0.65 0.63 82.0 0 1 7.84 95.69
  Q 8.57 96.77 9.92 96.33
  Q 10.23 96.23 10.46 96.46
  Q 10.62 96.62 10.63 96.81
  Q 10.69 97.37 11.02 97.00
  Q 11.27 96.71 11.56 97.10
  A 0.74 0.73 64.5 0 0 12.31 97.37
  Q 13.16 97.17 13.69 97.80
  Q 13.82 97.95 13.89 97.77
  Q 13.94 97.63 14.00 97.50
  A 0.28 0.28 0.0 0 1 14.50 97.50
  Q 14.56 97.63 14.61 97.75
  Q 14.75 98.13 14.89 97.75
  Q 14.94 97.63 15.00 97.50
  Q 15.06 97.38 15.20 97.38
  L 90.30 97.38
  Q 90.44 97.38 90.50 97.50
  Q 90.56 97.62 90.61 97.75
  Q 90.75 98.12 90.89 97.75
  Q 90.94 97.62 91.00 97.50
  Q 91.06 97.38 91.20 97.38
  L 98.73 97.38
  Q 98.82 97.38 98.85 97.30
  Q 98.92 97.16 98.99 97.02
  Q 99.12 96.77 99.35 96.92
  Q 100.17 97.48 100.94 97.29
  Q 101.30 97.19 101.66 97.30
  Q 103.07 97.70 104.31 96.99
  Q 104.37 96.95 104.43 96.99
  Q 104.61 97.08 104.63 97.23
  Q 104.65 97.35 104.77 97.35
  Q 110.52 97.20 116.25 97.26
  A 10.20 0.01 0.5 0 0 126.25 97.35
  Q 136.77 97.43 147.29 97.37
  Q 147.43 97.37 147.49 97.50
  Q 147.56 97.62 147.61 97.75
  Q 147.75 98.12 147.89 97.75
  Q 147.94 97.62 148.01 97.50
  Q 148.07 97.38 148.20 97.38
  L 159.21 97.38
  Q 159.26 97.38 159.30 97.41
  Q 159.42 97.49 159.53 97.62
  Q 159.75 97.86 159.97 97.62
  Q 160.08 97.50 160.20 97.40
  Q 160.27 97.35 160.32 97.41
  L 160.64 97.72
  Q 160.75 97.84 160.87 97.73
  Q 161.52 97.13 162.31 97.43
  Q 162.55 97.51 162.80 97.49
  Q 164.44 97.31 166.09 97.39
  Q 166.60 97.41 167.03 97.14
  Q 167.94 96.57 168.78 97.17
  A 0.06 0.06 0.0 0 0 168.88 97.12
  L 168.88 96.80
  Q 168.88 96.28 169.39 96.40
  Q 170.06 96.55 170.29 96.07
  Q 170.51 95.62 170.99 95.49
  L 172.85 94.98
  Q 173.16 94.90 173.39 94.67
  Q 174.00 94.05 174.83 94.05
  Q 175.36 94.05 175.33 93.52
  Q 175.26 92.27 175.03 92.69
  L 175.02 1.30
  Q 175.02 0.88 174.60 0.88
  L 93.97 0.89
  L 85.95 0.94
  L 4.39 0.90
  A 0.40 0.39 -0.0 0 0 3.99 1.29
  L 3.99 92.85
  Z"
/>
<path fill="#ffffff" d="
  M 85.95 0.94
  Q 79.82 3.17 78.42 4.14
  Q 73.80 7.34 69.54 13.95
  Q 66.76 14.15 68.98 18.86
  L 69.01 26.81
  Q 69.02 27.36 68.47 27.31
  L 66.33 27.15
  A 2.40 2.40 0.0 0 0 63.78 29.16
  C 63.25 32.45 64.08 41.72 68.98 41.49
  Q 69.54 41.47 69.65 42.02
  Q 70.41 45.82 71.98 49.34
  Q 72.90 51.40 75.08 53.26
  C 76.90 54.82 79.71 56.90 80.48 59.25
  Q 80.93 60.60 79.53 60.74
  Q 71.80 62.23 68.56 69.30
  Q 68.35 69.76 67.87 69.89
  C 60.63 71.96 58.89 80.66 63.21 86.29
  Q 63.74 86.99 65.64 88.88
  Q 66.10 89.34 65.48 89.55
  L 60.75 91.11
  Q 60.62 91.15 60.62 91.28
  L 60.62 91.60
  A 0.22 0.21 75.4 0 0 60.94 91.79
  C 62.01 91.17 62.87 91.67 63.90 91.41
  Q 65.50 91.00 67.02 90.26
  Q 67.47 90.04 67.95 90.22
  L 71.16 91.48
  Q 71.62 91.65 72.08 91.52
  Q 73.43 91.12 74.61 91.81
  Q 74.88 91.97 74.88 91.65
  L 74.88 91.32
  Q 74.88 91.26 74.82 91.25
  Q 72.03 90.45 69.84 89.57
  Q 69.13 89.28 69.75 88.83
  Q 73.70 85.94 74.52 82.43
  Q 76.52 82.97 77.70 84.73
  A 1.21 1.20 32.7 0 1 77.89 85.58
  Q 77.44 88.64 79.51 92.79
  L 3.99 92.85
  L 3.99 1.29
  A 0.40 0.39 -0.0 0 1 4.39 0.90
  L 85.95 0.94
  Z"
/>
<path fill="#ffba7f" d="
  M 85.95 0.94
  L 93.97 0.89
  L 93.24 1.00
  Q 92.72 1.07 93.13 1.39
  Q 93.39 1.59 93.71 1.64
  L 90.53 1.83
  Q 90.04 1.86 90.02 2.35
  Q 89.82 7.01 90.08 11.62
  Q 90.15 13.03 91.54 12.91
  L 91.07 13.94
  L 69.54 13.95
  Q 73.80 7.34 78.42 4.14
  Q 79.82 3.17 85.95 0.94
  Z"
/>
<path fill="#ffffff" d="
  M 93.97 0.89
  L 174.60 0.88
  Q 175.02 0.88 175.02 1.30
  L 175.03 92.69
  L 129.69 92.79
  Q 127.91 83.83 124.19 75.77
  C 122.45 72.01 115.93 71.41 112.01 70.93
  Q 109.58 62.04 100.48 60.41
  Q 99.61 59.91 99.75 58.69
  L 100.01 58.03
  Q 102.88 55.53 105.65 53.15
  C 109.18 50.12 109.43 47.16 110.35 43.22
  Q 110.75 41.50 112.49 41.48
  A 1.28 1.27 22.7 0 0 113.38 41.12
  C 116.20 38.40 117.33 33.84 116.93 30.24
  C 116.63 27.54 115.03 25.91 112.27 27.52
  A 0.54 0.54 0.0 0 1 111.46 27.06
  L 111.43 18.99
  Q 114.01 14.27 110.08 13.75
  C 107.06 7.25 101.07 1.73 93.71 1.64
  Q 93.39 1.59 93.13 1.39
  Q 92.72 1.07 93.24 1.00
  L 93.97 0.89
  Z"
/>
<path fill="#fbaf75" d="
  M 93.71 1.64
  C 101.07 1.73 107.06 7.25 110.08 13.75
  L 105.01 14.06
  C 102.53 7.85 94.96 7.15 91.54 12.91
  Q 90.15 13.03 90.08 11.62
  Q 89.82 7.01 90.02 2.35
  Q 90.04 1.86 90.53 1.83
  L 93.71 1.64
  Z"
/>
<path fill="#ffffff" d="
  M 105.01 14.06
  Q 105.69 16.59 105.03 18.98
  C 102.52 24.28 95.49 25.64 92.05 20.44
  L 91.32 18.86
  Q 90.43 16.42 91.07 13.94
  L 91.54 12.91
  C 94.96 7.15 102.53 7.85 105.01 14.06
  Z
  M 100.48 16.41
  A 2.39 2.39 0.0 0 0 98.09 14.02
  A 2.39 2.39 0.0 0 0 95.70 16.41
  A 2.39 2.39 0.0 0 0 98.09 18.80
  A 2.39 2.39 0.0 0 0 100.48 16.41
  Z"
/>
<path fill="#b3b1b4" d="
  M 69.54 13.95
  L 91.07 13.94
  Q 90.43 16.42 91.32 18.86
  L 68.98 18.86
  Q 66.76 14.15 69.54 13.95
  Z"
/>
<path fill="#b3b1b4" d="
  M 110.08 13.75
  Q 114.01 14.27 111.43 18.99
  Q 107.95 18.30 105.03 18.98
  Q 105.69 16.59 105.01 14.06
  L 110.08 13.75
  Z"
/>
<circle fill="#727171" cx="98.09" cy="16.41" r="2.39"/>
<path fill="#ffba7f" d="
  M 91.32 18.86
  L 92.05 20.44
  Q 90.38 19.68 90.31 20.74
  C 89.80 27.96 90.06 35.17 89.88 42.41
  Q 89.87 42.88 89.43 43.07
  L 88.72 43.38
  Q 81.33 42.64 80.36 48.98
  C 79.80 52.66 79.41 58.74 83.03 61.04
  Q 92.11 66.83 99.75 58.69
  Q 99.61 59.91 100.48 60.41
  Q 99.65 61.03 100.05 61.82
  C 99.42 64.62 101.35 67.59 100.33 69.85
  C 96.54 72.40 95.64 75.16 90.65 75.94
  Q 88.44 76.29 86.34 75.14
  Q 83.05 73.33 80.11 69.99
  Q 79.79 68.70 80.43 66.41
  L 80.69 62.01
  Q 80.54 61.97 80.77 61.46
  Q 80.95 61.10 80.63 60.84
  Q 80.28 60.56 79.53 60.74
  Q 80.93 60.60 80.48 59.25
  C 79.71 56.90 76.90 54.82 75.08 53.26
  Q 72.90 51.40 71.98 49.34
  Q 70.41 45.82 69.65 42.02
  Q 69.54 41.47 68.98 41.49
  C 64.08 41.72 63.25 32.45 63.78 29.16
  A 2.40 2.40 0.0 0 1 66.33 27.15
  L 68.47 27.31
  Q 69.02 27.36 69.01 26.81
  L 68.98 18.86
  L 91.32 18.86
  Z
  M 75.18 28.29
  Q 79.95 26.53 84.23 28.31
  Q 85.76 28.94 84.96 27.50
  C 82.61 23.23 76.10 25.26 73.48 28.11
  Q 72.92 28.72 73.75 28.66
  Q 74.30 28.62 75.18 28.29
  Z
  M 83.26 32.61
  A 2.59 2.59 0.0 0 0 80.67 30.02
  A 2.59 2.59 0.0 0 0 78.08 32.61
  A 2.59 2.59 0.0 0 0 80.67 35.20
  A 2.59 2.59 0.0 0 0 83.26 32.61
  Z"
/>
<path fill="#fbaf75" d="
  M 111.43 18.99
  L 111.46 27.06
  A 0.54 0.54 0.0 0 0 112.27 27.52
  C 115.03 25.91 116.63 27.54 116.93 30.24
  C 117.33 33.84 116.20 38.40 113.38 41.12
  A 1.28 1.27 22.7 0 1 112.49 41.48
  Q 110.75 41.50 110.35 43.22
  C 109.43 47.16 109.18 50.12 105.65 53.15
  Q 102.88 55.53 100.01 58.03
  C 100.58 51.06 101.25 41.38 90.51 43.77
  Q 90.01 43.88 88.72 43.38
  L 89.43 43.07
  Q 89.87 42.88 89.88 42.41
  C 90.06 35.17 89.80 27.96 90.31 20.74
  Q 90.38 19.68 92.05 20.44
  C 95.49 25.64 102.52 24.28 105.03 18.98
  Q 107.95 18.30 111.43 18.99
  Z
  M 95.79 28.44
  Q 100.97 26.50 106.06 28.53
  Q 107.64 29.16 106.51 27.89
  C 103.85 24.90 97.47 23.80 95.21 27.77
  Q 94.57 28.90 95.79 28.44
  Z
  M 102.23 32.63
  A 2.61 2.61 0.0 0 0 99.62 30.02
  A 2.61 2.61 0.0 0 0 97.01 32.63
  A 2.61 2.61 0.0 0 0 99.62 35.24
  A 2.61 2.61 0.0 0 0 102.23 32.63
  Z"
/>
<path fill="#392416" d="
  M 75.18 28.29
  Q 74.30 28.62 73.75 28.66
  Q 72.92 28.72 73.48 28.11
  C 76.10 25.26 82.61 23.23 84.96 27.50
  Q 85.76 28.94 84.23 28.31
  Q 79.95 26.53 75.18 28.29
  Z"
/>
<path fill="#392416" d="
  M 95.79 28.44
  Q 94.57 28.90 95.21 27.77
  C 97.47 23.80 103.85 24.90 106.51 27.89
  Q 107.64 29.16 106.06 28.53
  Q 100.97 26.50 95.79 28.44
  Z"
/>
<circle fill="#392416" cx="80.67" cy="32.61" r="2.59"/>
<circle fill="#392416" cx="99.62" cy="32.63" r="2.61"/>
<path fill="#392416" d="
  M 88.72 43.38
  Q 90.01 43.88 90.51 43.77
  C 101.25 41.38 100.58 51.06 100.01 58.03
  L 99.75 58.69
  Q 92.11 66.83 83.03 61.04
  C 79.41 58.74 79.80 52.66 80.36 48.98
  Q 81.33 42.64 88.72 43.38
  Z
  M 91.46 52.67
  Q 91.94 56.47 95.99 55.94
  A 1.14 1.13 -75.1 0 0 96.76 55.49
  Q 99.40 51.90 98.24 47.47
  A 1.90 1.89 83.1 0 0 96.45 46.06
  C 93.32 45.99 90.82 45.29 87.61 45.82
  Q 85.42 46.18 83.29 46.22
  A 1.23 1.23 0.0 0 0 82.12 47.17
  C 81.54 49.67 81.41 56.71 85.74 55.97
  Q 88.74 55.45 88.83 52.92
  Q 88.87 52.02 89.77 51.97
  L 90.56 51.92
  Q 91.35 51.88 91.46 52.67
  Z"
/>
<path fill="#fbaf75" d="
  M 91.46 52.67
  Q 91.35 51.88 90.56 51.92
  L 89.77 51.97
  Q 88.87 52.02 88.83 52.92
  Q 88.74 55.45 85.74 55.97
  C 81.41 56.71 81.54 49.67 82.12 47.17
  A 1.23 1.23 0.0 0 1 83.29 46.22
  Q 85.42 46.18 87.61 45.82
  C 90.82 45.29 93.32 45.99 96.45 46.06
  A 1.90 1.89 83.1 0 1 98.24 47.47
  Q 99.40 51.90 96.76 55.49
  A 1.14 1.13 -75.1 0 1 95.99 55.94
  Q 91.94 56.47 91.46 52.67
  Z
  M 95.13 47.64
  L 85.93 47.82
  A 0.13 0.13 0.0 0 0 85.80 47.95
  L 85.81 48.01
  A 4.31 1.81 -1.1 0 0 90.15 49.74
  L 90.99 49.72
  A 4.31 1.81 -1.1 0 0 95.26 47.83
  L 95.26 47.77
  A 0.13 0.13 0.0 0 0 95.13 47.64
  Z"
/>
<path fill="#ffffff" d="
  M 95.13 47.64
  A 0.13 0.13 0.0 0 1 95.26 47.77
  L 95.26 47.83
  A 4.31 1.81 -1.1 0 1 90.99 49.72
  L 90.15 49.74
  A 4.31 1.81 -1.1 0 1 85.81 48.01
  L 85.80 47.95
  A 0.13 0.13 0.0 0 1 85.93 47.82
  L 95.13 47.64
  Z"
/>
<path fill="#727171" d="
  M 100.48 60.41
  Q 109.58 62.04 112.01 70.93
  L 112.71 79.99
  Q 112.75 80.46 113.16 80.69
  C 120.70 84.80 114.29 92.52 109.49 89.57
  C 106.15 87.52 106.28 82.17 110.54 80.79
  Q 111.05 80.63 111.12 80.10
  Q 111.85 74.51 110.15 69.22
  Q 107.40 62.77 100.05 61.82
  Q 99.65 61.03 100.48 60.41
  Z
  M 114.12 85.36
  A 2.27 2.27 0.0 0 0 111.85 83.09
  A 2.27 2.27 0.0 0 0 109.58 85.36
  A 2.27 2.27 0.0 0 0 111.85 87.63
  A 2.27 2.27 0.0 0 0 114.12 85.36
  Z"
/>
<path fill="#727171" d="
  M 79.53 60.74
  Q 80.28 60.56 80.63 60.84
  Q 80.95 61.10 80.77 61.46
  Q 80.54 61.97 80.69 62.01
  Q 73.13 62.88 70.00 69.42
  Q 69.77 69.90 70.25 70.13
  Q 72.94 71.40 73.96 74.08
  Q 75.73 77.99 74.52 82.43
  Q 73.70 85.94 69.75 88.83
  Q 69.13 89.28 69.84 89.57
  Q 72.03 90.45 74.82 91.25
  Q 74.88 91.26 74.88 91.32
  L 74.88 91.65
  Q 74.88 91.97 74.61 91.81
  Q 73.43 91.12 72.08 91.52
  Q 71.62 91.65 71.16 91.48
  L 67.95 90.22
  Q 67.47 90.04 67.02 90.26
  Q 65.50 91.00 63.90 91.41
  C 62.87 91.67 62.01 91.17 60.94 91.79
  A 0.22 0.21 75.4 0 1 60.62 91.60
  L 60.62 91.28
  Q 60.62 91.15 60.75 91.11
  L 65.48 89.55
  Q 66.10 89.34 65.64 88.88
  Q 63.74 86.99 63.21 86.29
  C 58.89 80.66 60.63 71.96 67.87 69.89
  Q 68.35 69.76 68.56 69.30
  Q 71.80 62.23 79.53 60.74
  Z
  M 63.17 75.19
  Q 60.26 83.39 67.13 88.16
  Q 67.54 88.43 67.97 88.21
  Q 74.62 84.76 73.55 76.97
  C 72.69 70.78 65.29 69.23 63.17 75.19
  Z"
/>
<path fill="#ffffff" d="
  M 80.69 62.01
  L 80.43 66.41
  Q 75.33 67.01 75.17 72.28
  Q 75.15 73.00 74.91 73.38
  Q 74.53 73.99 73.96 74.08
  Q 72.94 71.40 70.25 70.13
  Q 69.77 69.90 70.00 69.42
  Q 73.13 62.88 80.69 62.01
  Z"
/>
<path fill="#ffffff" d="
  M 100.05 61.82
  Q 107.40 62.77 110.15 69.22
  Q 109.93 70.46 108.49 70.28
  Q 106.75 70.07 105.07 69.59
  A 0.53 0.53 0.0 0 0 104.40 70.21
  L 106.43 79.62
  A 1.43 1.43 0.0 0 1 106.05 80.92
  L 102.32 84.66
  Q 101.92 85.07 102.28 85.51
  Q 103.22 86.66 103.59 88.10
  Q 103.73 88.61 103.48 89.08
  L 101.54 92.78
  L 94.00 92.77
  L 100.33 69.85
  C 101.35 67.59 99.42 64.62 100.05 61.82
  Z"
/>
<path fill="#dadada" d="
  M 80.43 66.41
  Q 79.79 68.70 80.11 69.99
  L 86.19 92.76
  L 79.51 92.79
  Q 77.44 88.64 77.89 85.58
  A 1.21 1.20 32.7 0 0 77.70 84.73
  Q 76.52 82.97 74.52 82.43
  Q 75.73 77.99 73.96 74.08
  Q 74.53 73.99 74.91 73.38
  Q 75.15 73.00 75.17 72.28
  Q 75.33 67.01 80.43 66.41
  Z"
/>
<path fill="#dadada" d="
  M 110.15 69.22
  Q 111.85 74.51 111.12 80.10
  Q 111.05 80.63 110.54 80.79
  C 106.28 82.17 106.15 87.52 109.49 89.57
  C 114.29 92.52 120.70 84.80 113.16 80.69
  Q 112.75 80.46 112.71 79.99
  L 112.01 70.93
  C 115.93 71.41 122.45 72.01 124.19 75.77
  Q 127.91 83.83 129.69 92.79
  L 101.54 92.78
  L 103.48 89.08
  Q 103.73 88.61 103.59 88.10
  Q 103.22 86.66 102.28 85.51
  Q 101.92 85.07 102.32 84.66
  L 106.05 80.92
  A 1.43 1.43 0.0 0 0 106.43 79.62
  L 104.40 70.21
  A 0.53 0.53 0.0 0 1 105.07 69.59
  Q 106.75 70.07 108.49 70.28
  Q 109.93 70.46 110.15 69.22
  Z"
/>
<path fill="#b3b1b4" d="
  M 100.33 69.85
  L 94.00 92.77
  L 86.19 92.76
  L 80.11 69.99
  Q 83.05 73.33 86.34 75.14
  Q 88.44 76.29 90.65 75.94
  C 95.64 75.16 96.54 72.40 100.33 69.85
  Z"
/>
<path fill="#ffffff" d="
  M 63.17 75.19
  C 65.29 69.23 72.69 70.78 73.55 76.97
  Q 74.62 84.76 67.97 88.21
  Q 67.54 88.43 67.13 88.16
  Q 60.26 83.39 63.17 75.19
  Z"
/>
<circle fill="#ffffff" cx="111.85" cy="85.36" r="2.27"/>
<path fill="#010100" fill-opacity="0.239" d="
  M 175.03 92.69
  Q 175.26 92.27 175.33 93.52
  Q 175.36 94.05 174.83 94.05
  Q 174.00 94.05 173.39 94.67
  Q 173.16 94.90 172.85 94.98
  L 170.99 95.49
  Q 170.51 95.62 170.29 96.07
  Q 170.06 96.55 169.39 96.40
  Q 168.88 96.28 168.88 96.80
  L 168.88 97.12
  A 0.06 0.06 0.0 0 1 168.78 97.17
  Q 167.94 96.57 167.03 97.14
  Q 166.60 97.41 166.09 97.39
  Q 164.44 97.31 162.80 97.49
  Q 162.55 97.51 162.31 97.43
  Q 161.52 97.13 160.87 97.73
  Q 160.75 97.84 160.64 97.72
  L 160.32 97.41
  Q 160.27 97.35 160.20 97.40
  Q 160.08 97.50 159.97 97.62
  Q 159.75 97.86 159.53 97.62
  Q 159.42 97.49 159.30 97.41
  Q 159.26 97.38 159.21 97.38
  L 148.20 97.38
  Q 148.07 97.38 148.01 97.50
  Q 147.94 97.62 147.89 97.75
  Q 147.75 98.12 147.61 97.75
  Q 147.56 97.62 147.49 97.50
  Q 147.43 97.37 147.29 97.37
  Q 136.77 97.43 126.25 97.35
  A 10.20 0.01 0.5 0 1 116.25 97.26
  Q 110.52 97.20 104.77 97.35
  Q 104.65 97.35 104.63 97.23
  Q 104.61 97.08 104.43 96.99
  Q 104.37 96.95 104.31 96.99
  Q 103.07 97.70 101.66 97.30
  Q 101.30 97.19 100.94 97.29
  Q 100.17 97.48 99.35 96.92
  Q 99.12 96.77 98.99 97.02
  Q 98.92 97.16 98.85 97.30
  Q 98.82 97.38 98.73 97.38
  L 91.20 97.38
  Q 91.06 97.38 91.00 97.50
  Q 90.94 97.62 90.89 97.75
  Q 90.75 98.12 90.61 97.75
  Q 90.56 97.62 90.50 97.50
  Q 90.44 97.38 90.30 97.38
  L 15.20 97.38
  Q 15.06 97.38 15.00 97.50
  Q 14.94 97.63 14.89 97.75
  Q 14.75 98.13 14.61 97.75
  Q 14.56 97.63 14.50 97.50
  A 0.28 0.28 0.0 0 0 14.00 97.50
  Q 13.94 97.63 13.89 97.77
  Q 13.82 97.95 13.69 97.80
  Q 13.16 97.17 12.31 97.37
  A 0.74 0.73 64.5 0 1 11.56 97.10
  Q 11.27 96.71 11.02 97.00
  Q 10.69 97.37 10.63 96.81
  Q 10.62 96.62 10.46 96.46
  Q 10.23 96.23 9.92 96.33
  Q 8.57 96.77 7.84 95.69
  A 0.65 0.63 82.0 0 0 7.52 95.44
  L 4.43 94.37
  Q 3.94 94.21 3.68 93.76
  Q 2.76 92.17 3.99 92.85
  L 79.51 92.79
  L 86.19 92.76
  L 94.00 92.77
  L 101.54 92.78
  L 129.69 92.79
  L 175.03 92.69
  Z"
/>
</svg>
