<?xml version="1.0" encoding="UTF-8" standalone="no"?>
<!DOCTYPE svg PUBLIC "-//W3C//DTD SVG 1.1//EN" "http://www.w3.org/Graphics/SVG/1.1/DTD/svg11.dtd">
<svg xmlns="http://www.w3.org/2000/svg" version="1.1" viewBox="0.00 0.00 179.00 101.00">
<g stroke-width="2.00" fill="none" stroke-linecap="butt">
<path stroke="#fcfcfc" stroke-opacity="0.506" vector-effect="non-scaling-stroke" d="
  M 175.01 92.92
  L 175.01 1.26
  A 0.39 0.39 0.0 0 0 174.62 0.87
  L 4.38 0.88
  A 0.39 0.38 0.0 0 0 3.99 1.26
  L 3.99 92.88"
/>
<path stroke="#cecece" stroke-opacity="0.620" vector-effect="non-scaling-stroke" d="
  M 175.01 92.92
  L 129.15 92.78"
/>
<path stroke="#f3f3f4" vector-effect="non-scaling-stroke" d="
  M 129.15 92.78
  Q 121.34 81.39 112.12 71.60
  A 1.62 1.62 0.0 0 1 112.72 68.98
  Q 115.25 68.03 115.49 65.19"
/>
<path stroke="#a0928a" vector-effect="non-scaling-stroke" d="
  M 115.49 65.19
  Q 118.12 59.97 118.72 54.50
  C 120.32 40.11 117.60 21.20 108.10 9.73"
/>
<path stroke="#f3f3f4" vector-effect="non-scaling-stroke" d="
  M 108.10 9.73
  Q 107.61 7.99 105.32 6.77
  Q 103.85 6.00 101.53 5.97
  C 98.66 5.94 96.67 6.01 93.56 5.39
  Q 90.08 4.70 86.49 5.38
  Q 83.61 5.93 81.78 7.22"
/>
<path stroke="#a0928a" vector-effect="non-scaling-stroke" d="
  M 81.78 7.22
  Q 71.49 10.10 68.07 19.82
  C 65.36 27.51 64.76 35.74 63.57 43.76
  C 62.54 50.70 61.63 58.56 64.84 64.87
  Q 65.39 65.94 68.19 67.76"
/>
<path stroke="#c6a39e" vector-effect="non-scaling-stroke" d="
  M 68.19 67.76
  Q 61.41 67.78 55.01 68.80
  C 53.06 69.11 51.44 70.28 49.42 70.66
  Q 48.81 70.78 48.89 71.39
  L 48.94 71.74
  A 0.48 0.48 0.0 0 0 49.51 72.15
  L 51.75 71.68
  A 0.90 0.89 75.7 0 1 52.78 72.30
  Q 52.86 72.55 53.04 72.75
  Q 53.42 73.18 53.99 73.09
  L 63.82 71.61
  A 0.98 0.96 4.2 0 0 64.61 70.94
  L 64.76 70.44
  Q 64.95 69.85 65.55 69.73
  L 69.04 69.00
  A 0.50 0.50 0.0 0 1 69.63 69.41
  L 72.43 87.11"
/>
<path stroke="#f3f3f4" vector-effect="non-scaling-stroke" d="
  M 72.43 87.11
  L 72.09 91.79
  A 0.92 0.91 -88.6 0 1 71.20 92.64
  L 68.04 92.71"
/>
<path stroke="#cecece" stroke-opacity="0.620" vector-effect="non-scaling-stroke" d="
  M 68.04 92.71
  L 52.68 92.76"
/>
<path stroke="#838381" vector-effect="non-scaling-stroke" d="
  M 52.68 92.76
  Q 52.47 90.51 51.49 89.22"
/>
<path stroke="#f8e0d9" vector-effect="non-scaling-stroke" d="
  M 51.49 89.22
  L 48.97 76.35
  Q 48.94 76.18 48.77 76.20
  L 48.76 76.20
  Q 48.59 76.23 48.60 76.40
  L 49.22 91.40"
/>
<path stroke="#838381" vector-effect="non-scaling-stroke" d="
  M 49.22 91.40
  Q 49.57 91.92 49.55 92.80"
/>
<path stroke="#cecece" stroke-opacity="0.620" vector-effect="non-scaling-stroke" d="
  M 49.55 92.80
  L 3.99 92.88"
/>
<path stroke="#94857e" vector-effect="non-scaling-stroke" d="
  M 115.49 65.19
  Q 113.67 68.11 111.30 69.40
  A 1.08 1.07 56.0 0 1 109.97 69.14
  C 107.39 65.95 104.20 61.36 99.48 61.82"
/>
<path stroke="#604d22" vector-effect="non-scaling-stroke" d="
  M 99.48 61.82
  L 98.75 61.52"
/>
<path stroke="#a0928a" vector-effect="non-scaling-stroke" d="
  M 98.75 61.52
  L 96.48 58.97"
/>
<path stroke="#997263" vector-effect="non-scaling-stroke" d="
  M 96.48 58.97
  Q 96.41 58.84 96.17 58.66"
/>
<path stroke="#9a5442" vector-effect="non-scaling-stroke" d="
  M 96.17 58.66
  Q 95.19 55.87 96.19 52.96"
/>
<path stroke="#997263" vector-effect="non-scaling-stroke" d="
  M 96.19 52.96
  Q 104.60 50.26 107.68 41.88
  Q 107.85 41.42 108.33 41.30
  C 112.37 40.35 116.22 36.05 114.23 31.73
  Q 112.58 28.15 111.20 30.98"
/>
<path stroke="#9a6046" vector-effect="non-scaling-stroke" d="
  M 111.20 30.98
  L 109.34 38.44
  A 0.26 0.26 0.0 0 1 108.84 38.46
  L 108.69 37.99"
/>
<path stroke="#997263" vector-effect="non-scaling-stroke" d="
  M 108.69 37.99
  Q 109.78 32.89 108.95 27.88
  Q 108.86 27.37 108.44 27.05
  Q 102.98 22.85 99.94 16.67
  A 0.54 0.53 -34.1 0 0 99.10 16.51
  Q 92.08 22.86 83.34 26.50
  Q 82.69 26.77 83.32 27.07
  Q 83.58 27.19 83.89 27.15
  Q 84.21 27.10 84.20 27.43
  Q 84.19 27.64 84.02 27.70
  Q 81.53 28.60 78.95 28.51
  C 76.15 28.40 74.49 28.57 72.09 28.78
  Q 71.67 28.81 71.66 29.23
  Q 71.47 35.09 73.17 40.70
  Q 73.48 41.72 72.70 40.99
  Q 69.06 37.54 69.14 32.50
  A 0.61 0.61 0.0 0 0 68.08 32.08
  L 67.55 32.65
  Q 66.70 33.57 66.79 34.82
  Q 67.28 41.13 73.33 42.64
  Q 73.87 42.77 74.10 43.28
  Q 77.76 51.18 86.30 53.43"
/>
<path stroke="#9a5442" vector-effect="non-scaling-stroke" d="
  M 86.30 53.43
  Q 86.80 56.53 86.12 58.80"
/>
<path stroke="#997263" vector-effect="non-scaling-stroke" d="
  M 86.12 58.80
  Q 85.63 59.16 85.54 59.43"
/>
<path stroke="#a0928a" vector-effect="non-scaling-stroke" d="
  M 85.54 59.43
  L 83.38 62.09"
/>
<path stroke="#94857e" vector-effect="non-scaling-stroke" d="
  M 83.38 62.09
  Q 79.09 66.44 74.52 69.12"
/>
<path stroke="#a0928a" vector-effect="non-scaling-stroke" d="
  M 74.52 69.12
  L 70.79 68.40"
/>
<path stroke="#673628" vector-effect="non-scaling-stroke" d="
  M 70.79 68.40
  Q 69.55 68.38 68.19 67.76"
/>
<path stroke="#94857e" vector-effect="non-scaling-stroke" d="
  M 108.10 9.73
  Q 104.59 6.91 102.01 6.97
  Q 97.17 7.07 93.80 6.33
  C 91.03 5.73 89.07 5.98 86.46 6.12
  C 84.84 6.20 83.49 7.02 81.78 7.22"
/>
<path stroke="#7c645a" vector-effect="non-scaling-stroke" d="
  M 51.49 89.22
  Q 50.00 89.24 49.22 91.40"
/>
<path stroke="#060602" stroke-opacity="0.620" vector-effect="non-scaling-stroke" d="
  M 52.68 92.76
  L 49.55 92.80"
/>
<path stroke="#bababb" stroke-opacity="0.620" vector-effect="non-scaling-stroke" d="
  M 129.15 92.78
  L 116.07 92.71"
/>
<path stroke="#f3f3f4" vector-effect="non-scaling-stroke" d="
  M 116.07 92.71
  L 107.08 77.22
  Q 105.87 75.13 106.60 77.43
  Q 107.44 80.06 108.41 83.77
  Q 109.56 88.16 109.37 92.75"
/>
<path stroke="#bababb" stroke-opacity="0.620" vector-effect="non-scaling-stroke" d="
  M 109.37 92.75
  L 102.99 92.74"
/>
<path stroke="#f3f3f4" vector-effect="non-scaling-stroke" d="
  M 102.99 92.74
  C 102.26 90.57 101.73 89.08 101.81 86.70
  Q 102.22 75.29 101.90 68.87
  Q 101.83 67.29 100.42 67.57"
/>
<path stroke="#c6a39e" vector-effect="non-scaling-stroke" d="
  M 70.79 68.40
  L 71.07 73.19"
/>
<path stroke="#f3f3f4" vector-effect="non-scaling-stroke" d="
  M 82.91 78.31
  Q 81.56 77.18 80.99 75.57
  A 0.58 0.58 0.0 0 0 80.32 75.19
  L 80.05 75.25
  Q 79.79 75.31 79.83 75.57
  C 80.47 79.31 81.69 86.57 80.13 90.04
  Q 79.54 91.37 79.15 92.74"
/>
<path stroke="#bababb" stroke-opacity="0.620" vector-effect="non-scaling-stroke" d="
  M 79.15 92.74
  L 68.04 92.71"
/>
<path stroke="#ba9792" vector-effect="non-scaling-stroke" d="
  M 72.43 87.11
  Q 73.32 80.34 71.07 73.19"
/>
<path stroke="#f3f3f4" vector-effect="non-scaling-stroke" d="
  M 71.07 73.19
  Q 73.34 71.33 74.52 69.12"
/>
<path stroke="#f2ae95" vector-effect="non-scaling-stroke" d="
  M 108.69 37.99
  Q 108.55 38.20 108.55 38.51
  Q 108.55 39.04 109.08 39.05
  C 111.77 39.06 113.98 34.58 112.41 32.45
  Q 111.94 31.81 111.20 30.98"
/>
<path stroke="#f2a291" vector-effect="non-scaling-stroke" d="
  M 96.19 52.96
  Q 91.23 54.27 86.30 53.43"
/>
<path stroke="#f2a291" vector-effect="non-scaling-stroke" d="
  M 96.17 58.66
  C 92.08 60.62 90.09 61.16 86.12 58.80"
/>
<path stroke="#ebde81" vector-effect="non-scaling-stroke" d="
  M 86.20 61.82
  L 84.01 78.14"
/>
<path stroke="#bfba97" vector-effect="non-scaling-stroke" d="
  M 84.01 78.14
  Q 83.16 77.67 83.40 77.63"
/>
<path stroke="#f3f3f4" vector-effect="non-scaling-stroke" d="
  M 83.40 77.63
  Q 82.02 75.86 81.88 74.63
  Q 81.29 69.21 83.38 62.09"
/>
<path stroke="#bfba97" vector-effect="non-scaling-stroke" d="
  M 98.75 61.52
  C 99.30 65.13 101.97 77.28 97.15 78.97"
/>
<path stroke="#ebde81" vector-effect="non-scaling-stroke" d="
  M 97.15 78.97
  L 95.73 61.34"
/>
<path stroke="#f8e0d9" vector-effect="non-scaling-stroke" d="
  M 96.48 58.97
  Q 95.27 59.30 95.62 60.13
  Q 95.93 60.85 95.73 61.34"
/>
<path stroke="#e3be5b" vector-effect="non-scaling-stroke" d="
  M 95.73 61.34
  Q 91.91 65.75 86.20 61.82"
/>
<path stroke="#f8e0d9" vector-effect="non-scaling-stroke" d="
  M 86.20 61.82
  Q 86.13 61.08 86.27 59.75
  Q 86.33 59.18 85.54 59.43"
/>
<path stroke="#b2ae8c" vector-effect="non-scaling-stroke" d="
  M 99.48 61.82
  L 100.42 67.57"
/>
<path stroke="#bfba97" vector-effect="non-scaling-stroke" d="
  M 100.42 67.57
  C 100.98 71.90 101.29 77.67 97.22 80.35"
/>
<path stroke="#aa9919" vector-effect="non-scaling-stroke" d="
  M 97.22 80.35
  L 91.86 81.21
  Q 91.43 81.27 91.12 81.59
  C 86.95 85.82 92.46 89.36 93.81 92.71"
/>
<path stroke="#665f26" stroke-opacity="0.620" vector-effect="non-scaling-stroke" d="
  M 93.81 92.71
  L 93.10 92.75"
/>
<path stroke="#aa9919" vector-effect="non-scaling-stroke" d="
  M 93.10 92.75
  C 90.56 89.35 86.53 86.50 89.56 81.73
  Q 89.88 81.23 89.29 81.13
  Q 86.39 80.62 83.77 79.20"
/>
<path stroke="#bfba97" vector-effect="non-scaling-stroke" d="
  M 83.77 79.20
  Q 83.29 78.87 82.91 78.31"
/>
<path stroke="#b2ae8c" vector-effect="non-scaling-stroke" d="
  M 82.91 78.31
  L 83.40 77.63"
/>
<path stroke="#cecece" stroke-opacity="0.620" vector-effect="non-scaling-stroke" d="
  M 102.99 92.74
  L 98.16 92.73"
/>
<path stroke="#ebde81" vector-effect="non-scaling-stroke" d="
  M 98.16 92.73
  L 97.22 80.35"
/>
<path stroke="#cecece" stroke-opacity="0.620" vector-effect="non-scaling-stroke" d="
  M 116.07 92.71
  L 109.37 92.75"
/>
<path stroke="#ad9802" stroke-opacity="0.620" vector-effect="non-scaling-stroke" d="
  M 98.16 92.73
  L 93.81 92.71"
/>
<path stroke="#ebde81" vector-effect="non-scaling-stroke" d="
  M 83.77 79.20
  L 81.99 92.77"
/>
<path stroke="#cecece" stroke-opacity="0.620" vector-effect="non-scaling-stroke" d="
  M 81.99 92.77
  L 79.15 92.74"
/>
<path stroke="#ad9802" stroke-opacity="0.620" vector-effect="non-scaling-stroke" d="
  M 93.10 92.75
  L 81.99 92.77"
/>
<path stroke="#aa9919" vector-effect="non-scaling-stroke" d="
  M 97.15 78.97
  C 96.87 79.56 96.41 79.88 95.72 79.93
  C 90.89 80.27 87.52 80.28 84.01 78.14"
/>
<path stroke="#bf8477" vector-effect="non-scaling-stroke" d="
  M 94.69 27.97
  L 101.33 29.23
  A 0.03 0.03 0.0 0 0 101.37 29.21
  L 101.38 29.17
  A 3.27 1.17 10.8 0 0 98.38 27.41
  L 98.11 27.35
  A 3.27 1.17 10.8 0 0 94.68 27.89
  L 94.67 27.93
  A 0.03 0.03 0.0 0 0 94.69 27.97"
/>
<path stroke="#7c645a" vector-effect="non-scaling-stroke" d="
  M 80.25 37.28
  C 84.36 37.73 84.92 31.76 81.35 30.85
  C 80.17 30.55 79.10 31.27 78.02 31.75
  Q 77.54 31.96 77.63 32.47
  L 78.11 35.27
  A 2.45 2.44 88.1 0 0 80.25 37.28"
/>
<path stroke="#7c645a" vector-effect="non-scaling-stroke" d="
  M 97.12 36.91
  C 100.76 37.79 101.45 34.24 100.54 31.45
  Q 100.40 31.02 99.96 30.93
  C 94.20 29.65 93.98 36.16 97.12 36.91"
/>
<path stroke="#f2a291" vector-effect="non-scaling-stroke" d="
  M 88.50 36.08
  L 86.82 36.51
  Q 86.25 36.66 86.04 37.21
  Q 85.46 38.68 85.98 40.13
  Q 86.16 40.64 86.68 40.77
  C 91.84 42.07 91.27 36.10 90.93 33.24
  A 0.74 0.73 -78.8 0 0 90.58 32.71
  Q 89.91 32.31 89.51 32.85
  Q 89.35 33.05 89.32 33.43
  Q 89.22 34.45 89.02 35.52
  Q 88.94 35.97 88.50 36.08"
/>
<path stroke="#f2ae95" vector-effect="non-scaling-stroke" d="
  M 104.31 40.89
  A 2.91 2.91 0.0 0 0 101.40 37.98
  A 2.91 2.91 0.0 0 0 98.49 40.89
  A 2.91 2.91 0.0 0 0 101.40 43.80
  A 2.91 2.91 0.0 0 0 104.31 40.89"
/>
<path stroke="#f2ae95" vector-effect="non-scaling-stroke" d="
  M 83.33 43.62
  A 2.89 2.89 0.0 0 0 80.44 40.73
  A 2.89 2.89 0.0 0 0 77.55 43.62
  A 2.89 2.89 0.0 0 0 80.44 46.51
  A 2.89 2.89 0.0 0 0 83.33 43.62"
/>
<path stroke="#f2ae95" vector-effect="non-scaling-stroke" d="
  M 96.12 44.37
  Q 96.51 44.05 96.24 43.56
  A 0.77 0.76 -23.9 0 0 95.30 43.20
  Q 90.58 44.89 85.69 43.69
  A 0.88 0.88 0.0 0 0 84.61 44.64
  C 85.43 52.27 96.80 50.43 96.12 44.37"
/>
<path stroke="#777775" vector-effect="non-scaling-stroke" d="
  M 81.32 33.15
  A 1.29 1.29 0.0 0 0 80.03 31.86
  A 1.29 1.29 0.0 0 0 78.74 33.15
  A 1.29 1.29 0.0 0 0 80.03 34.44
  A 1.29 1.29 0.0 0 0 81.32 33.15"
/>
<path stroke="#777775" vector-effect="non-scaling-stroke" d="
  M 98.56 32.96
  A 1.25 1.25 0.0 0 0 97.31 31.71
  A 1.25 1.25 0.0 0 0 96.06 32.96
  A 1.25 1.25 0.0 0 0 97.31 34.21
  A 1.25 1.25 0.0 0 0 98.56 32.96"
/>
<path stroke="#f9cdbc" vector-effect="non-scaling-stroke" d="
  M 95.39 44.93
  A 0.49 0.49 0.0 0 0 94.76 44.32
  Q 91.64 45.41 88.32 44.96
  Q 84.06 44.38 87.13 47.38
  Q 89.54 49.72 93.67 47.59
  Q 94.75 47.03 95.39 44.93"
/>
</g>
<path fill="#000000" fill-opacity="0.012" d="
  M 0.00 0.00
  L 179.00 0.00
  L 179.00 101.00
  L 0.00 101.00
  L 0.00 0.00
  Z
  M 3.99 92.88
  Q 3.50 92.64 3.71 93.29
  Q 3.84 93.71 4.25 93.86
  Q 6.74 94.73 8.51 95.73
  Q 8.71 95.84 8.82 96.15
  Q 8.94 96.48 9.28 96.40
  Q 10.67 96.06 10.70 97.22
  A 0.09 0.09 0.0 0 0 10.87 97.26
  Q 10.95 97.10 11.03 96.95
  Q 11.17 96.66 11.32 96.94
  Q 11.51 97.29 11.81 97.38
  Q 11.93 97.42 12.19 97.37
  Q 13.16 97.15 13.72 97.78
  Q 13.81 97.89 13.88 97.76
  Q 13.94 97.63 14.00 97.50
  A 0.28 0.28 0.0 0 1 14.50 97.50
  Q 14.56 97.63 14.61 97.75
  Q 14.75 98.13 14.89 97.75
  Q 14.94 97.63 15.00 97.50
  Q 15.06 97.39 15.19 97.37
  Q 15.78 97.31 15.87 97.75
  Q 15.88 97.77 15.88 97.75
  Q 15.99 97.38 16.25 97.38
  Q 27.97 97.40 39.69 97.38
  Q 39.82 97.38 39.88 97.26
  Q 39.95 97.12 40.02 96.98
  Q 40.15 96.70 40.35 96.93
  Q 41.24 97.97 42.34 96.96
  Q 42.43 96.87 42.49 96.99
  Q 42.56 97.12 42.61 97.25
  Q 42.75 97.63 42.89 97.25
  Q 42.94 97.12 43.01 96.99
  Q 43.09 96.82 43.28 96.89
  Q 43.51 96.97 43.59 97.13
  Q 43.71 97.38 43.98 97.38
  L 63.22 97.38
  Q 63.49 97.38 63.74 97.27
  Q 63.99 97.15 64.22 97.03
  Q 64.44 96.91 64.53 97.15
  Q 64.61 97.35 64.75 97.35
  Q 76.13 97.34 87.50 97.40
  Q 100.72 97.47 113.94 97.36
  A 0.16 0.16 0.0 0 0 114.10 97.19
  Q 114.08 96.98 114.36 96.90
  A 0.12 0.11 -14.6 0 1 114.49 96.97
  L 114.64 97.37
  Q 114.71 97.56 114.93 97.12
  Q 114.99 97.00 115.12 96.93
  Q 115.24 96.87 115.37 96.93
  Q 115.53 97.01 115.59 97.13
  Q 115.71 97.38 115.98 97.38
  L 124.11 97.38
  Q 127.20 97.38 130.28 97.43
  Q 139.04 97.56 157.25 97.34
  Q 158.92 97.32 159.74 97.80
  Q 159.83 97.85 159.88 97.76
  Q 159.94 97.63 160.00 97.50
  A 0.28 0.28 0.0 0 1 160.50 97.50
  Q 160.56 97.63 160.61 97.75
  Q 160.75 98.13 160.89 97.75
  Q 160.94 97.62 161.00 97.50
  Q 161.06 97.38 161.20 97.38
  L 166.24 97.38
  Q 166.75 97.38 167.18 97.09
  Q 167.95 96.58 168.75 97.16
  A 0.08 0.08 0.0 0 0 168.87 97.11
  Q 168.94 96.87 168.75 96.74
  A 0.39 0.23 -5.9 0 1 169.26 96.37
  Q 169.99 96.59 169.89 96.06
  A 0.63 0.62 3.7 0 1 170.70 95.35
  Q 171.31 95.55 171.63 95.13
  A 0.81 0.80 -62.7 0 1 172.50 94.85
  Q 173.61 95.19 173.66 94.48
  Q 173.68 94.13 174.03 94.13
  L 174.51 94.13
  Q 175.09 94.13 175.19 93.56
  Q 175.25 93.19 175.01 92.92
  L 175.01 1.26
  A 0.39 0.39 0.0 0 0 174.62 0.87
  L 4.38 0.88
  A 0.39 0.38 0.0 0 0 3.99 1.26
  L 3.99 92.88
  Z"
/>
<path fill="#ffffff" d="
  M 175.01 92.92
  L 129.15 92.78
  Q 121.34 81.39 112.12 71.60
  A 1.62 1.62 0.0 0 1 112.72 68.98
  Q 115.25 68.03 115.49 65.19
  Q 118.12 59.97 118.72 54.50
  C 120.32 40.11 117.60 21.20 108.10 9.73
  Q 107.61 7.99 105.32 6.77
  Q 103.85 6.00 101.53 5.97
  C 98.66 5.94 96.67 6.01 93.56 5.39
  Q 90.08 4.70 86.49 5.38
  Q 83.61 5.93 81.78 7.22
  Q 71.49 10.10 68.07 19.82
  C 65.36 27.51 64.76 35.74 63.57 43.76
  C 62.54 50.70 61.63 58.56 64.84 64.87
  Q 65.39 65.94 68.19 67.76
  Q 61.41 67.78 55.01 68.80
  C 53.06 69.11 51.44 70.28 49.42 70.66
  Q 48.81 70.78 48.89 71.39
  L 48.94 71.74
  A 0.48 0.48 0.0 0 0 49.51 72.15
  L 51.75 71.68
  A 0.90 0.89 75.7 0 1 52.78 72.30
  Q 52.86 72.55 53.04 72.75
  Q 53.42 73.18 53.99 73.09
  L 63.82 71.61
  A 0.98 0.96 4.2 0 0 64.61 70.94
  L 64.76 70.44
  Q 64.95 69.85 65.55 69.73
  L 69.04 69.00
  A 0.50 0.50 0.0 0 1 69.63 69.41
  L 72.43 87.11
  L 72.09 91.79
  A 0.92 0.91 -88.6 0 1 71.20 92.64
  L 68.04 92.71
  L 52.68 92.76
  Q 52.47 90.51 51.49 89.22
  L 48.97 76.35
  Q 48.94 76.18 48.77 76.20
  L 48.76 76.20
  Q 48.59 76.23 48.60 76.40
  L 49.22 91.40
  Q 49.57 91.92 49.55 92.80
  L 3.99 92.88
  L 3.99 1.26
  A 0.39 0.38 0.0 0 1 4.38 0.88
  L 174.62 0.87
  A 0.39 0.39 0.0 0 1 175.01 1.26
  L 175.01 92.92
  Z"
/>
<path fill="#e6e6e8" d="
  M 108.10 9.73
  Q 104.59 6.91 102.01 6.97
  Q 97.17 7.07 93.80 6.33
  C 91.03 5.73 89.07 5.98 86.46 6.12
  C 84.84 6.20 83.49 7.02 81.78 7.22
  Q 83.61 5.93 86.49 5.38
  Q 90.08 4.70 93.56 5.39
  C 96.67 6.01 98.66 5.94 101.53 5.97
  Q 103.85 6.00 105.32 6.77
  Q 107.61 7.99 108.10 9.73
  Z"
/>
<path fill="#412414" d="
  M 108.10 9.73
  C 117.60 21.20 120.32 40.11 118.72 54.50
  Q 118.12 59.97 115.49 65.19
  Q 113.67 68.11 111.30 69.40
  A 1.08 1.07 56.0 0 1 109.97 69.14
  C 107.39 65.95 104.20 61.36 99.48 61.82
  L 98.75 61.52
  L 96.48 58.97
  Q 96.41 58.84 96.17 58.66
  Q 95.19 55.87 96.19 52.96
  Q 104.60 50.26 107.68 41.88
  Q 107.85 41.42 108.33 41.30
  C 112.37 40.35 116.22 36.05 114.23 31.73
  Q 112.58 28.15 111.20 30.98
  L 109.34 38.44
  A 0.26 0.26 0.0 0 1 108.84 38.46
  L 108.69 37.99
  Q 109.78 32.89 108.95 27.88
  Q 108.86 27.37 108.44 27.05
  Q 102.98 22.85 99.94 16.67
  A 0.54 0.53 -34.1 0 0 99.10 16.51
  Q 92.08 22.86 83.34 26.50
  Q 82.69 26.77 83.32 27.07
  Q 83.58 27.19 83.89 27.15
  Q 84.21 27.10 84.20 27.43
  Q 84.19 27.64 84.02 27.70
  Q 81.53 28.60 78.95 28.51
  C 76.15 28.40 74.49 28.57 72.09 28.78
  Q 71.67 28.81 71.66 29.23
  Q 71.47 35.09 73.17 40.70
  Q 73.48 41.72 72.70 40.99
  Q 69.06 37.54 69.14 32.50
  A 0.61 0.61 0.0 0 0 68.08 32.08
  L 67.55 32.65
  Q 66.70 33.57 66.79 34.82
  Q 67.28 41.13 73.33 42.64
  Q 73.87 42.77 74.10 43.28
  Q 77.76 51.18 86.30 53.43
  Q 86.80 56.53 86.12 58.80
  Q 85.63 59.16 85.54 59.43
  L 83.38 62.09
  Q 79.09 66.44 74.52 69.12
  L 70.79 68.40
  Q 69.55 68.38 68.19 67.76
  Q 65.39 65.94 64.84 64.87
  C 61.63 58.56 62.54 50.70 63.57 43.76
  C 64.76 35.74 65.36 27.51 68.07 19.82
  Q 71.49 10.10 81.78 7.22
  C 83.49 7.02 84.84 6.20 86.46 6.12
  C 89.07 5.98 91.03 5.73 93.80 6.33
  Q 97.17 7.07 102.01 6.97
  Q 104.59 6.91 108.10 9.73
  Z"
/>
<path fill="#f0c0b2" d="
  M 108.69 37.99
  Q 108.55 38.20 108.55 38.51
  Q 108.55 39.04 109.08 39.05
  C 111.77 39.06 113.98 34.58 112.41 32.45
  Q 111.94 31.81 111.20 30.98
  Q 112.58 28.15 114.23 31.73
  C 116.22 36.05 112.37 40.35 108.33 41.30
  Q 107.85 41.42 107.68 41.88
  Q 104.60 50.26 96.19 52.96
  Q 91.23 54.27 86.30 53.43
  Q 77.76 51.18 74.10 43.28
  Q 73.87 42.77 73.33 42.64
  Q 67.28 41.13 66.79 34.82
  Q 66.70 33.57 67.55 32.65
  L 68.08 32.08
  A 0.61 0.61 0.0 0 1 69.14 32.50
  Q 69.06 37.54 72.70 40.99
  Q 73.48 41.72 73.17 40.70
  Q 71.47 35.09 71.66 29.23
  Q 71.67 28.81 72.09 28.78
  C 74.49 28.57 76.15 28.40 78.95 28.51
  Q 81.53 28.60 84.02 27.70
  Q 84.19 27.64 84.20 27.43
  Q 84.21 27.10 83.89 27.15
  Q 83.58 27.19 83.32 27.07
  Q 82.69 26.77 83.34 26.50
  Q 92.08 22.86 99.10 16.51
  A 0.54 0.53 -34.1 0 1 99.94 16.67
  Q 102.98 22.85 108.44 27.05
  Q 108.86 27.37 108.95 27.88
  Q 109.78 32.89 108.69 37.99
  Z
  M 94.69 27.97
  L 101.33 29.23
  A 0.03 0.03 0.0 0 0 101.37 29.21
  L 101.38 29.17
  A 3.27 1.17 10.8 0 0 98.38 27.41
  L 98.11 27.35
  A 3.27 1.17 10.8 0 0 94.68 27.89
  L 94.67 27.93
  A 0.03 0.03 0.0 0 0 94.69 27.97
  Z
  M 80.25 37.28
  C 84.36 37.73 84.92 31.76 81.35 30.85
  C 80.17 30.55 79.10 31.27 78.02 31.75
  Q 77.54 31.96 77.63 32.47
  L 78.11 35.27
  A 2.45 2.44 88.1 0 0 80.25 37.28
  Z
  M 97.12 36.91
  C 100.76 37.79 101.45 34.24 100.54 31.45
  Q 100.40 31.02 99.96 30.93
  C 94.20 29.65 93.98 36.16 97.12 36.91
  Z
  M 88.50 36.08
  L 86.82 36.51
  Q 86.25 36.66 86.04 37.21
  Q 85.46 38.68 85.98 40.13
  Q 86.16 40.64 86.68 40.77
  C 91.84 42.07 91.27 36.10 90.93 33.24
  A 0.74 0.73 -78.8 0 0 90.58 32.71
  Q 89.91 32.31 89.51 32.85
  Q 89.35 33.05 89.32 33.43
  Q 89.22 34.45 89.02 35.52
  Q 88.94 35.97 88.50 36.08
  Z
  M 104.31 40.89
  A 2.91 2.91 0.0 0 0 101.40 37.98
  A 2.91 2.91 0.0 0 0 98.49 40.89
  A 2.91 2.91 0.0 0 0 101.40 43.80
  A 2.91 2.91 0.0 0 0 104.31 40.89
  Z
  M 83.33 43.62
  A 2.89 2.89 0.0 0 0 80.44 40.73
  A 2.89 2.89 0.0 0 0 77.55 43.62
  A 2.89 2.89 0.0 0 0 80.44 46.51
  A 2.89 2.89 0.0 0 0 83.33 43.62
  Z
  M 96.12 44.37
  Q 96.51 44.05 96.24 43.56
  A 0.77 0.76 -23.9 0 0 95.30 43.20
  Q 90.58 44.89 85.69 43.69
  A 0.88 0.88 0.0 0 0 84.61 44.64
  C 85.43 52.27 96.80 50.43 96.12 44.37
  Z"
/>
<path fill="#8d473c" d="
  M 94.69 27.97
  A 0.03 0.03 0.0 0 1 94.67 27.93
  L 94.68 27.89
  A 3.27 1.17 10.8 0 1 98.11 27.35
  L 98.38 27.41
  A 3.27 1.17 10.8 0 1 101.38 29.17
  L 101.37 29.21
  A 0.03 0.03 0.0 0 1 101.33 29.23
  L 94.69 27.97
  Z"
/>
<path fill="#070702" d="
  M 81.35 30.85
  C 84.92 31.76 84.36 37.73 80.25 37.28
  A 2.45 2.44 88.1 0 1 78.11 35.27
  L 77.63 32.47
  Q 77.54 31.96 78.02 31.75
  C 79.10 31.27 80.17 30.55 81.35 30.85
  Z
  M 81.32 33.15
  A 1.29 1.29 0.0 0 0 80.03 31.86
  A 1.29 1.29 0.0 0 0 78.74 33.15
  A 1.29 1.29 0.0 0 0 80.03 34.44
  A 1.29 1.29 0.0 0 0 81.32 33.15
  Z"
/>
<path fill="#070702" d="
  M 97.12 36.91
  C 93.98 36.16 94.20 29.65 99.96 30.93
  Q 100.40 31.02 100.54 31.45
  C 101.45 34.24 100.76 37.79 97.12 36.91
  Z
  M 98.56 32.96
  A 1.25 1.25 0.0 0 0 97.31 31.71
  A 1.25 1.25 0.0 0 0 96.06 32.96
  A 1.25 1.25 0.0 0 0 97.31 34.21
  A 1.25 1.25 0.0 0 0 98.56 32.96
  Z"
/>
<path fill="#f39b78" d="
  M 111.20 30.98
  Q 111.94 31.81 112.41 32.45
  C 113.98 34.58 111.77 39.06 109.08 39.05
  Q 108.55 39.04 108.55 38.51
  Q 108.55 38.20 108.69 37.99
  L 108.84 38.46
  A 0.26 0.26 0.0 0 0 109.34 38.44
  L 111.20 30.98
  Z"
/>
<circle fill="#e6e6e8" cx="80.03" cy="33.15" r="1.29"/>
<circle fill="#e6e6e8" cx="97.31" cy="32.96" r="1.25"/>
<path fill="#f38370" d="
  M 89.02 35.52
  Q 89.22 34.45 89.32 33.43
  Q 89.35 33.05 89.51 32.85
  Q 89.91 32.31 90.58 32.71
  A 0.74 0.73 -78.8 0 1 90.93 33.24
  C 91.27 36.10 91.84 42.07 86.68 40.77
  Q 86.16 40.64 85.98 40.13
  Q 85.46 38.68 86.04 37.21
  Q 86.25 36.66 86.82 36.51
  L 88.50 36.08
  Q 88.94 35.97 89.02 35.52
  Z"
/>
<circle fill="#f39b78" cx="101.40" cy="40.89" r="2.91"/>
<circle fill="#f39b78" cx="80.44" cy="43.62" r="2.89"/>
<path fill="#f39b78" d="
  M 96.12 44.37
  C 96.80 50.43 85.43 52.27 84.61 44.64
  A 0.88 0.88 0.0 0 1 85.69 43.69
  Q 90.58 44.89 95.30 43.20
  A 0.77 0.76 -23.9 0 1 96.24 43.56
  Q 96.51 44.05 96.12 44.37
  Z
  M 95.39 44.93
  A 0.49 0.49 0.0 0 0 94.76 44.32
  Q 91.64 45.41 88.32 44.96
  Q 84.06 44.38 87.13 47.38
  Q 89.54 49.72 93.67 47.59
  Q 94.75 47.03 95.39 44.93
  Z"
/>
<path fill="#ffffff" d="
  M 95.39 44.93
  Q 94.75 47.03 93.67 47.59
  Q 89.54 49.72 87.13 47.38
  Q 84.06 44.38 88.32 44.96
  Q 91.64 45.41 94.76 44.32
  A 0.49 0.49 0.0 0 1 95.39 44.93
  Z"
/>
<path fill="#f38370" d="
  M 96.19 52.96
  Q 95.19 55.87 96.17 58.66
  C 92.08 60.62 90.09 61.16 86.12 58.80
  Q 86.80 56.53 86.30 53.43
  Q 91.23 54.27 96.19 52.96
  Z"
/>
<path fill="#f0c0b2" d="
  M 96.17 58.66
  Q 96.41 58.84 96.48 58.97
  Q 95.27 59.30 95.62 60.13
  Q 95.93 60.85 95.73 61.34
  Q 91.91 65.75 86.20 61.82
  Q 86.13 61.08 86.27 59.75
  Q 86.33 59.18 85.54 59.43
  Q 85.63 59.16 86.12 58.80
  C 90.09 61.16 92.08 60.62 96.17 58.66
  Z"
/>
<path fill="#ffffff" d="
  M 96.48 58.97
  L 98.75 61.52
  C 99.30 65.13 101.97 77.28 97.15 78.97
  L 95.73 61.34
  Q 95.93 60.85 95.62 60.13
  Q 95.27 59.30 96.48 58.97
  Z"
/>
<path fill="#ffffff" d="
  M 85.54 59.43
  Q 86.33 59.18 86.27 59.75
  Q 86.13 61.08 86.20 61.82
  L 84.01 78.14
  Q 83.16 77.67 83.40 77.63
  Q 82.02 75.86 81.88 74.63
  Q 81.29 69.21 83.38 62.09
  L 85.54 59.43
  Z"
/>
<path fill="#d6bc03" d="
  M 95.73 61.34
  L 97.15 78.97
  C 96.87 79.56 96.41 79.88 95.72 79.93
  C 90.89 80.27 87.52 80.28 84.01 78.14
  L 86.20 61.82
  Q 91.91 65.75 95.73 61.34
  Z"
/>
<path fill="#7e752f" d="
  M 98.75 61.52
  L 99.48 61.82
  L 100.42 67.57
  C 100.98 71.90 101.29 77.67 97.22 80.35
  L 91.86 81.21
  Q 91.43 81.27 91.12 81.59
  C 86.95 85.82 92.46 89.36 93.81 92.71
  L 93.10 92.75
  C 90.56 89.35 86.53 86.50 89.56 81.73
  Q 89.88 81.23 89.29 81.13
  Q 86.39 80.62 83.77 79.20
  Q 83.29 78.87 82.91 78.31
  L 83.40 77.63
  Q 83.16 77.67 84.01 78.14
  C 87.52 80.28 90.89 80.27 95.72 79.93
  C 96.41 79.88 96.87 79.56 97.15 78.97
  C 101.97 77.28 99.30 65.13 98.75 61.52
  Z"
/>
<path fill="#e6e6e8" d="
  M 99.48 61.82
  C 104.20 61.36 107.39 65.95 109.97 69.14
  A 1.08 1.07 56.0 0 0 111.30 69.40
  Q 113.67 68.11 115.49 65.19
  Q 115.25 68.03 112.72 68.98
  A 1.62 1.62 0.0 0 0 112.12 71.60
  Q 121.34 81.39 129.15 92.78
  L 116.07 92.71
  L 107.08 77.22
  Q 105.87 75.13 106.60 77.43
  Q 107.44 80.06 108.41 83.77
  Q 109.56 88.16 109.37 92.75
  L 102.99 92.74
  C 102.26 90.57 101.73 89.08 101.81 86.70
  Q 102.22 75.29 101.90 68.87
  Q 101.83 67.29 100.42 67.57
  L 99.48 61.82
  Z"
/>
<path fill="#e6e6e8" d="
  M 83.38 62.09
  Q 81.29 69.21 81.88 74.63
  Q 82.02 75.86 83.40 77.63
  L 82.91 78.31
  Q 81.56 77.18 80.99 75.57
  A 0.58 0.58 0.0 0 0 80.32 75.19
  L 80.05 75.25
  Q 79.79 75.31 79.83 75.57
  C 80.47 79.31 81.69 86.57 80.13 90.04
  Q 79.54 91.37 79.15 92.74
  L 68.04 92.71
  L 71.20 92.64
  A 0.92 0.91 -88.6 0 0 72.09 91.79
  L 72.43 87.11
  Q 73.32 80.34 71.07 73.19
  Q 73.34 71.33 74.52 69.12
  Q 79.09 66.44 83.38 62.09
  Z"
/>
<path fill="#8d473c" d="
  M 68.19 67.76
  Q 69.55 68.38 70.79 68.40
  L 71.07 73.19
  Q 73.32 80.34 72.43 87.11
  L 69.63 69.41
  A 0.50 0.50 0.0 0 0 69.04 69.00
  L 65.55 69.73
  Q 64.95 69.85 64.76 70.44
  L 64.61 70.94
  A 0.98 0.96 4.2 0 1 63.82 71.61
  L 53.99 73.09
  Q 53.42 73.18 53.04 72.75
  Q 52.86 72.55 52.78 72.30
  A 0.90 0.89 75.7 0 0 51.75 71.68
  L 49.51 72.15
  A 0.48 0.48 0.0 0 1 48.94 71.74
  L 48.89 71.39
  Q 48.81 70.78 49.42 70.66
  C 51.44 70.28 53.06 69.11 55.01 68.80
  Q 61.41 67.78 68.19 67.76
  Z"
/>
<path fill="#ffffff" d="
  M 100.42 67.57
  Q 101.83 67.29 101.90 68.87
  Q 102.22 75.29 101.81 86.70
  C 101.73 89.08 102.26 90.57 102.99 92.74
  L 98.16 92.73
  L 97.22 80.35
  C 101.29 77.67 100.98 71.90 100.42 67.57
  Z"
/>
<path fill="#ffffff" d="
  M 70.79 68.40
  L 74.52 69.12
  Q 73.34 71.33 71.07 73.19
  L 70.79 68.40
  Z"
/>
<path fill="#ffffff" d="
  M 82.91 78.31
  Q 83.29 78.87 83.77 79.20
  L 81.99 92.77
  L 79.15 92.74
  Q 79.54 91.37 80.13 90.04
  C 81.69 86.57 80.47 79.31 79.83 75.57
  Q 79.79 75.31 80.05 75.25
  L 80.32 75.19
  A 0.58 0.58 0.0 0 1 80.99 75.57
  Q 81.56 77.18 82.91 78.31
  Z"
/>
<path fill="#f0c0b2" d="
  M 51.49 89.22
  Q 50.00 89.24 49.22 91.40
  L 48.60 76.40
  Q 48.59 76.23 48.76 76.20
  L 48.77 76.20
  Q 48.94 76.18 48.97 76.35
  L 51.49 89.22
  Z"
/>
<path fill="#ffffff" d="
  M 116.07 92.71
  L 109.37 92.75
  Q 109.56 88.16 108.41 83.77
  Q 107.44 80.06 106.60 77.43
  Q 105.87 75.13 107.08 77.22
  L 116.07 92.71
  Z"
/>
<path fill="#d6bc03" d="
  M 83.77 79.20
  Q 86.39 80.62 89.29 81.13
  Q 89.88 81.23 89.56 81.73
  C 86.53 86.50 90.56 89.35 93.10 92.75
  L 81.99 92.77
  L 83.77 79.20
  Z"
/>
<path fill="#d6bc03" d="
  M 97.22 80.35
  L 98.16 92.73
  L 93.81 92.71
  C 92.46 89.36 86.95 85.82 91.12 81.59
  Q 91.43 81.27 91.86 81.21
  L 97.22 80.35
  Z"
/>
<path fill="#070702" d="
  M 51.49 89.22
  Q 52.47 90.51 52.68 92.76
  L 49.55 92.80
  Q 49.57 91.92 49.22 91.40
  Q 50.00 89.24 51.49 89.22
  Z"
/>
<path fill="#010100" fill-opacity="0.239" d="
  M 3.99 92.88
  L 49.55 92.80
  L 52.68 92.76
  L 68.04 92.71
  L 79.15 92.74
  L 81.99 92.77
  L 93.10 92.75
  L 93.81 92.71
  L 98.16 92.73
  L 102.99 92.74
  L 109.37 92.75
  L 116.07 92.71
  L 129.15 92.78
  L 175.01 92.92
  Q 175.25 93.19 175.19 93.56
  Q 175.09 94.13 174.51 94.13
  L 174.03 94.13
  Q 173.68 94.13 173.66 94.48
  Q 173.61 95.19 172.50 94.85
  A 0.81 0.80 -62.7 0 0 171.63 95.13
  Q 171.31 95.55 170.70 95.35
  A 0.63 0.62 3.7 0 0 169.89 96.06
  Q 169.99 96.59 169.26 96.37
  A 0.39 0.23 -5.9 0 0 168.75 96.74
  Q 168.94 96.87 168.87 97.11
  A 0.08 0.08 0.0 0 1 168.75 97.16
  Q 167.95 96.58 167.18 97.09
  Q 166.75 97.38 166.24 97.38
  L 161.20 97.38
  Q 161.06 97.38 161.00 97.50
  Q 160.94 97.62 160.89 97.75
  Q 160.75 98.13 160.61 97.75
  Q 160.56 97.63 160.50 97.50
  A 0.28 0.28 0.0 0 0 160.00 97.50
  Q 159.94 97.63 159.88 97.76
  Q 159.83 97.85 159.74 97.80
  Q 158.92 97.32 157.25 97.34
  Q 139.04 97.56 130.28 97.43
  Q 127.20 97.38 124.11 97.38
  L 115.98 97.38
  Q 115.71 97.38 115.59 97.13
  Q 115.53 97.01 115.37 96.93
  Q 115.24 96.87 115.12 96.93
  Q 114.99 97.00 114.93 97.12
  Q 114.71 97.56 114.64 97.37
  L 114.49 96.97
  A 0.12 0.11 -14.6 0 0 114.36 96.90
  Q 114.08 96.98 114.10 97.19
  A 0.16 0.16 0.0 0 1 113.94 97.36
  Q 100.72 97.47 87.50 97.40
  Q 76.13 97.34 64.75 97.35
  Q 64.61 97.35 64.53 97.15
  Q 64.44 96.91 64.22 97.03
  Q 63.99 97.15 63.74 97.27
  Q 63.49 97.38 63.22 97.38
  L 43.98 97.38
  Q 43.71 97.38 43.59 97.13
  Q 43.51 96.97 43.28 96.89
  Q 43.09 96.82 43.01 96.99
  Q 42.94 97.12 42.89 97.25
  Q 42.75 97.63 42.61 97.25
  Q 42.56 97.12 42.49 96.99
  Q 42.43 96.87 42.34 96.96
  Q 41.24 97.97 40.35 96.93
  Q 40.15 96.70 40.02 96.98
  Q 39.95 97.12 39.88 97.26
  Q 39.82 97.38 39.69 97.38
  Q 27.97 97.40 16.25 97.38
  Q 15.99 97.38 15.88 97.75
  Q 15.88 97.77 15.87 97.75
  Q 15.78 97.31 15.19 97.37
  Q 15.06 97.39 15.00 97.50
  Q 14.94 97.63 14.89 97.75
  Q 14.75 98.13 14.61 97.75
  Q 14.56 97.63 14.50 97.50
  A 0.28 0.28 0.0 0 0 14.00 97.50
  Q 13.94 97.63 13.88 97.76
  Q 13.81 97.89 13.72 97.78
  Q 13.16 97.15 12.19 97.37
  Q 11.93 97.42 11.81 97.38
  Q 11.51 97.29 11.32 96.94
  Q 11.17 96.66 11.03 96.95
  Q 10.95 97.10 10.87 97.26
  A 0.09 0.09 0.0 0 1 10.70 97.22
  Q 10.67 96.06 9.28 96.40
  Q 8.94 96.48 8.82 96.15
  Q 8.71 95.84 8.51 95.73
  Q 6.74 94.73 4.25 93.86
  Q 3.84 93.71 3.71 93.29
  Q 3.50 92.64 3.99 92.88
  Z"
/>
</svg>
