<?xml version="1.0" encoding="UTF-8" standalone="no"?>
<!DOCTYPE svg PUBLIC "-//W3C//DTD SVG 1.1//EN" "http://www.w3.org/Graphics/SVG/1.1/DTD/svg11.dtd">
<svg xmlns="http://www.w3.org/2000/svg" version="1.1" viewBox="0.00 0.00 63.00 55.00">
<g stroke-width="2.00" fill="none" stroke-linecap="butt">
<path stroke="#cecece" stroke-opacity="0.596" vector-effect="non-scaling-stroke" d="
  M 58.30 17.42
  L 58.23 46.44
  Q 58.23 46.98 57.69 46.98
  L 4.76 46.97"
/>
<path stroke="#e3e3e3" stroke-opacity="0.541" vector-effect="non-scaling-stroke" d="
  M 4.76 46.97
  L 4.53 2.91"
/>
<path stroke="#929396" vector-effect="non-scaling-stroke" d="
  M 22.99 40.28
  Q 23.11 41.46 25.00 41.58
  Q 33.64 42.10 40.18 40.63"
/>
<path stroke="#848484" vector-effect="non-scaling-stroke" d="
  M 40.18 40.63
  Q 46.10 39.45 52.93 40.02
  A 0.76 0.76 0.0 0 0 53.75 39.26
  L 53.75 23.40
  Q 53.75 22.55 52.90 22.55
  L 43.04 22.56
  Q 42.51 22.56 42.51 22.04
  L 42.52 11.17
  A 0.61 0.61 0.0 0 1 43.08 10.56
  L 43.75 10.50
  Q 44.43 10.44 44.43 9.75
  L 44.43 6.09
  Q 44.43 5.50 43.84 5.50
  L 19.15 5.51
  Q 18.56 5.51 18.56 6.10
  L 18.55 9.78
  Q 18.55 10.51 19.28 10.51
  L 19.87 10.51
  A 0.61 0.61 0.0 0 1 20.49 11.12
  L 20.45 22.05
  Q 20.45 22.55 19.95 22.55
  L 9.73 22.54
  Q 9.25 22.54 9.25 23.02
  L 9.25 39.27
  Q 9.25 39.95 9.93 39.97
  L 22.99 40.28"
/>
<path stroke="#212125" vector-effect="non-scaling-stroke" d="
  M 40.18 40.63
  Q 31.48 39.12 22.99 40.28"
/>
<path stroke="#575653" vector-effect="non-scaling-stroke" d="
  M 43.19 7.50
  A 0.76 0.76 0.0 0 0 42.43 6.74
  L 20.51 6.74
  A 0.76 0.76 0.0 0 0 19.75 7.50
  L 19.75 8.38
  A 0.76 0.76 0.0 0 0 20.51 9.14
  L 42.43 9.14
  A 0.76 0.76 0.0 0 0 43.19 8.38
  L 43.19 7.50"
/>
<path stroke="#373a3c" vector-effect="non-scaling-stroke" d="
  M 24.09 38.48
  Q 24.48 38.35 25.35 38.56"
/>
<path stroke="#556f7e" vector-effect="non-scaling-stroke" d="
  M 25.35 38.56
  Q 27.68 39.14 30.41 38.71
  Q 30.88 38.64 30.89 38.16
  L 30.92 31.50
  Q 30.92 30.98 30.42 30.86
  Q 27.84 30.28 25.21 31.33"
/>
<path stroke="#373a3c" vector-effect="non-scaling-stroke" d="
  M 25.21 31.33
  Q 24.77 31.57 24.27 31.05"
/>
<path stroke="#807f7c" vector-effect="non-scaling-stroke" d="
  M 24.27 31.05
  Q 23.47 30.01 23.82 28.36
  A 0.46 0.46 0.0 0 1 24.27 28.00
  L 38.50 28.01
  Q 39.01 28.01 39.16 28.50
  Q 39.59 29.88 38.72 31.06"
/>
<path stroke="#373a3c" vector-effect="non-scaling-stroke" d="
  M 38.72 31.06
  Q 38.22 31.26 37.68 31.00"
/>
<path stroke="#556f7e" vector-effect="non-scaling-stroke" d="
  M 37.68 31.00
  L 32.41 30.88
  A 0.51 0.51 0.0 0 0 31.90 31.50
  Q 32.63 34.77 31.88 38.01
  Q 31.72 38.72 32.44 38.72
  L 37.62 38.69"
/>
<path stroke="#373a3c" vector-effect="non-scaling-stroke" d="
  M 37.62 38.69
  Q 38.37 38.69 38.92 38.44"
/>
<path stroke="#807f7c" vector-effect="non-scaling-stroke" d="
  M 38.92 38.44
  Q 40.03 38.84 40.76 38.51
  A 0.86 0.86 0.0 0 0 41.26 37.73
  L 41.29 11.02
  Q 41.29 10.50 40.77 10.50
  L 22.23 10.50
  Q 21.72 10.50 21.72 11.02
  L 21.77 37.80
  Q 21.77 38.43 22.37 38.59
  Q 23.25 38.82 24.09 38.48"
/>
<path stroke="#a3a6a6" vector-effect="non-scaling-stroke" d="
  M 38.92 38.44
  L 38.72 31.06"
/>
<path stroke="#a3a6a6" vector-effect="non-scaling-stroke" d="
  M 24.27 31.05
  L 24.09 38.48"
/>
<path stroke="#7997a8" vector-effect="non-scaling-stroke" d="
  M 25.35 38.56
  L 25.21 31.33"
/>
<path stroke="#7997a8" vector-effect="non-scaling-stroke" d="
  M 37.68 31.00
  L 37.62 38.69"
/>
<path stroke="#72706d" vector-effect="non-scaling-stroke" d="
  M 52.4879 24.2913
  A 0.43 0.43 0.0 0 0 52.0572 23.8621
  L 42.9372 23.8780
  A 0.43 0.43 0.0 0 0 42.5079 24.3087
  L 42.5321 38.1287
  A 0.43 0.43 0.0 0 0 42.9628 38.5579
  L 52.0828 38.5420
  A 0.43 0.43 0.0 0 0 52.5121 38.1113
  L 52.4879 24.2913"
/>
<path stroke="#575653" vector-effect="non-scaling-stroke" d="
  M 20.46 29.58
  L 20.43 25.70"
/>
<path stroke="#72706d" vector-effect="non-scaling-stroke" d="
  M 20.43 25.70
  L 20.46 24.44
  Q 20.47 23.95 19.98 23.95
  L 11.06 23.91
  Q 10.53 23.91 10.53 24.44
  L 10.52 38.03
  Q 10.52 38.55 11.03 38.55
  L 19.96 38.54
  Q 20.39 38.53 20.40 38.10
  L 20.46 29.58"
/>
<path stroke="#b6b4ae" vector-effect="non-scaling-stroke" d="
  M 20.43 25.70
  Q 20.31 25.81 20.24 26.09
  Q 20.15 26.45 19.79 26.40
  Q 19.52 26.37 19.28 26.19"
/>
<path stroke="#72706d" vector-effect="non-scaling-stroke" d="
  M 19.28 26.19
  L 12.78 26.02
  Q 12.31 26.01 12.16 26.45
  Q 11.34 28.74 13.21 29.00
  Q 15.83 29.36 19.45 28.69"
/>
<path stroke="#b6b4ae" vector-effect="non-scaling-stroke" d="
  M 19.45 28.69
  Q 20.00 28.06 20.46 29.58"
/>
<path stroke="#575653" vector-effect="non-scaling-stroke" d="
  M 19.45 28.69
  L 19.28 26.19"
/>
<path stroke="#72706d" vector-effect="non-scaling-stroke" d="
  M 38.1294 29.3443
  A 0.26 0.26 0.0 0 0 37.8676 29.0861
  L 25.2879 29.1739
  A 0.26 0.26 0.0 0 0 25.0297 29.4357
  L 25.0306 29.5557
  A 0.26 0.26 0.0 0 0 25.2924 29.8139
  L 37.8721 29.7261
  A 0.26 0.26 0.0 0 0 38.1303 29.4643
  L 38.1294 29.3443"
/>
<path stroke="#957f7a" vector-effect="non-scaling-stroke" d="
  M 33.03 13.77
  L 33.13 12.73
  A 0.66 0.65 -87.6 0 0 32.47 12.01
  L 30.52 12.01
  A 0.62 0.62 0.0 0 0 29.91 12.72
  Q 30.21 14.98 28.06 14.48
  A 0.54 0.54 0.0 0 0 27.40 15.00
  L 27.36 17.37
  A 0.57 0.56 -5.4 0 0 28.04 17.93
  Q 30.16 17.50 29.90 19.55
  A 0.65 0.65 0.0 0 0 30.55 20.28
  L 32.49 20.27
  A 0.64 0.64 0.0 0 0 33.11 19.49
  Q 32.71 17.70 34.52 18.04
  A 1.84 1.65 56.2 0 0 35.02 14.59
  Q 34.61 14.46 33.75 14.51
  Q 32.96 14.55 33.03 13.77"
/>
<path stroke="#8d8e8f" vector-effect="non-scaling-stroke" d="
  M 27.7362 22.1803
  A 0.82 0.82 0.0 0 0 26.9006 21.3762
  L 24.3811 21.4246
  A 0.82 0.82 0.0 0 0 23.5770 22.2602
  L 23.6238 24.6997
  A 0.82 0.82 0.0 0 0 24.4594 25.5038
  L 26.9789 25.4554
  A 0.82 0.82 0.0 0 0 27.7830 24.6198
  L 27.7362 22.1803"
/>
<path stroke="#8d8e8f" vector-effect="non-scaling-stroke" d="
  M 33.5431 22.2231
  A 0.73 0.73 0.0 0 0 32.8324 21.4742
  L 30.2733 21.4072
  A 0.73 0.73 0.0 0 0 29.5245 22.1178
  L 29.4569 24.6969
  A 0.73 0.73 0.0 0 0 30.1676 25.4458
  L 32.7267 25.5128
  A 0.73 0.73 0.0 0 0 33.4755 24.8022
  L 33.5431 22.2231"
/>
<path stroke="#8d8e8f" vector-effect="non-scaling-stroke" d="
  M 39.4178 22.1690
  A 0.76 0.76 0.0 0 0 38.6685 21.3985
  L 36.0488 21.3619
  A 0.76 0.76 0.0 0 0 35.2782 22.1112
  L 35.2422 24.6910
  A 0.76 0.76 0.0 0 0 35.9915 25.4615
  L 38.6112 25.4981
  A 0.76 0.76 0.0 0 0 39.3818 24.7488
  L 39.4178 22.1690"
/>
<path stroke="#831412" vector-effect="non-scaling-stroke" d="
  M 32.42 14.82
  L 32.17 13.26
  Q 32.09 12.79 31.61 12.83
  L 31.26 12.87
  A 0.56 0.56 0.0 0 0 30.75 13.38
  L 30.66 14.29
  Q 30.60 14.85 30.04 14.87
  L 28.42 14.90
  Q 27.72 14.91 27.81 15.60
  Q 28.03 17.45 29.98 17.31
  A 0.61 0.60 -10.6 0 1 30.61 17.74
  L 31.11 19.39
  A 0.45 0.45 0.0 0 0 31.99 19.27
  Q 32.05 17.13 34.17 17.14
  Q 34.67 17.14 34.89 16.69
  L 35.12 16.19
  Q 35.36 15.67 34.91 15.31
  Q 33.92 14.52 33.24 15.11
  Q 32.57 15.70 32.42 14.82"
/>
<path stroke="#637e91" vector-effect="non-scaling-stroke" d="
  M 26.98 23.40
  A 1.19 1.19 0.0 0 0 25.79 22.21
  A 1.19 1.19 0.0 0 0 24.60 23.40
  A 1.19 1.19 0.0 0 0 25.79 24.59
  A 1.19 1.19 0.0 0 0 26.98 23.40"
/>
<path stroke="#637e91" vector-effect="non-scaling-stroke" d="
  M 31.07 22.40
  A 0.98 0.98 0.0 0 0 30.57 24.23
  Q 31.14 24.54 31.98 24.55
  A 1.07 1.07 0.0 0 0 32.01 22.42
  L 31.07 22.40"
/>
<path stroke="#637e91" vector-effect="non-scaling-stroke" d="
  M 37.93 22.65
  Q 36.01 21.73 36.02 23.55
  A 0.96 0.96 0.0 0 0 37.18 24.48
  Q 38.75 24.14 38.33 23.08
  A 0.84 0.84 0.0 0 0 37.93 22.65"
/>
<path stroke="#72706d" vector-effect="non-scaling-stroke" d="
  M 51.2050 26.5611
  A 0.59 0.59 0.0 0 0 50.6119 25.9742
  L 44.5720 26.0058
  A 0.59 0.59 0.0 0 0 43.9851 26.5989
  L 43.9950 28.4789
  A 0.59 0.59 0.0 0 0 44.5881 29.0658
  L 50.6280 29.0342
  A 0.59 0.59 0.0 0 0 51.2149 28.4411
  L 51.2050 26.5611"
/>
<path stroke="#969897" vector-effect="non-scaling-stroke" d="
  M 44.39 33.18
  Q 44.69 33.06 44.24 33.66"
/>
<path stroke="#807f7f" vector-effect="non-scaling-stroke" d="
  M 44.24 33.66
  Q 43.64 35.08 44.18 36.39
  A 0.75 0.74 -11.2 0 0 44.87 36.85
  L 50.31 36.87
  Q 50.79 36.87 51.00 36.44
  Q 51.63 35.13 50.92 33.95"
/>
<path stroke="#969897" vector-effect="non-scaling-stroke" d="
  M 50.92 33.95
  Q 50.60 33.65 50.72 33.08"
/>
<path stroke="#72706d" vector-effect="non-scaling-stroke" d="
  M 50.72 33.08
  Q 51.42 31.78 51.22 30.51
  Q 51.12 29.90 50.50 29.90
  L 44.75 29.98
  Q 44.19 29.99 44.06 30.52
  Q 43.72 31.90 44.39 33.18"
/>
<path stroke="#373a3c" vector-effect="non-scaling-stroke" d="
  M 50.72 33.08
  L 44.39 33.18"
/>
<path stroke="#44494f" vector-effect="non-scaling-stroke" d="
  M 50.92 33.95
  Q 50.09 33.86 49.88 34.37"
/>
<path stroke="#7997a8" vector-effect="non-scaling-stroke" d="
  M 49.88 34.37
  L 45.13 34.31"
/>
<path stroke="#44494f" vector-effect="non-scaling-stroke" d="
  M 45.13 34.31
  Q 44.76 33.82 44.24 33.66"
/>
<path stroke="#637e91" vector-effect="non-scaling-stroke" d="
  M 45.13 34.31
  Q 44.94 35.11 45.07 35.60
  Q 45.21 36.15 45.78 36.15
  L 49.52 36.11
  Q 50.14 36.10 50.15 35.48
  Q 50.16 34.99 49.88 34.37"
/>
<path stroke="#969897" vector-effect="non-scaling-stroke" d="
  M 12.95 33.06
  Q 13.15 33.34 12.44 33.74"
/>
<path stroke="#72706d" vector-effect="non-scaling-stroke" d="
  M 12.44 33.74
  Q 11.35 35.69 12.71 36.57"
/>
<path stroke="#969897" vector-effect="non-scaling-stroke" d="
  M 12.71 36.57
  Q 16.00 37.43 18.98 36.59
  Q 19.46 36.46 19.57 35.98
  Q 19.91 34.56 19.10 33.76"
/>
<path stroke="#b6b4ae" vector-effect="non-scaling-stroke" d="
  M 19.10 33.76
  Q 19.05 33.28 18.33 33.38"
/>
<path stroke="#72706d" vector-effect="non-scaling-stroke" d="
  M 18.33 33.38
  Q 19.97 32.26 19.53 30.53
  Q 19.38 29.94 18.77 29.94
  L 12.79 29.91
  Q 12.28 29.90 12.13 30.39
  Q 11.56 32.23 12.95 33.06"
/>
<path stroke="#575653" vector-effect="non-scaling-stroke" d="
  M 18.33 33.38
  Q 16.21 32.65 13.61 33.51"
/>
<path stroke="#373a3c" vector-effect="non-scaling-stroke" d="
  M 13.61 33.51
  Q 14.57 33.08 12.95 33.06"
/>
<path stroke="#7a7d7d" vector-effect="non-scaling-stroke" d="
  M 13.61 33.51
  L 19.10 33.76"
/>
<path stroke="#373a3c" vector-effect="non-scaling-stroke" d="
  M 12.71 36.57
  Q 13.19 36.65 13.56 36.55
  Q 13.82 36.47 13.60 36.31
  Q 13.42 36.18 13.43 35.94"
/>
<path stroke="#7997a8" vector-effect="non-scaling-stroke" d="
  M 13.43 35.94
  L 17.73 35.83
  A 0.47 0.47 0.0 0 0 18.10 35.09
  L 17.92 34.83
  Q 17.65 34.43 17.16 34.51
  Q 15.01 34.88 13.21 34.28"
/>
<path stroke="#373a3c" vector-effect="non-scaling-stroke" d="
  M 13.21 34.28
  Q 13.04 33.81 12.44 33.74"
/>
<path stroke="#556f7e" vector-effect="non-scaling-stroke" d="
  M 13.21 34.28
  Q 12.53 35.45 13.43 35.94"
/>
<path stroke="#556f7e" vector-effect="non-scaling-stroke" d="
  M 18.92 27.41
  A 0.53 0.53 0.0 0 0 18.39 26.88
  L 13.39 26.88
  A 0.53 0.53 0.0 0 0 12.86 27.41
  L 12.86 27.47
  A 0.53 0.53 0.0 0 0 13.39 28.00
  L 18.39 28.00
  A 0.53 0.53 0.0 0 0 18.92 27.47
  L 18.92 27.41"
/>
<path stroke="#556f7e" vector-effect="non-scaling-stroke" d="
  M 50.4199 27.3751
  A 0.55 0.55 0.0 0 0 49.8689 26.8261
  L 45.4089 26.8339
  A 0.55 0.55 0.0 0 0 44.8599 27.3849
  L 44.8601 27.5249
  A 0.55 0.55 0.0 0 0 45.4111 28.0739
  L 49.8711 28.0661
  A 0.55 0.55 0.0 0 0 50.4201 27.5151
  L 50.4199 27.3751"
/>
<path stroke="#556f7e" vector-effect="non-scaling-stroke" d="
  M 18.8303 31.4062
  A 0.65 0.65 0.0 0 0 18.1906 30.7461
  L 13.6111 30.6741
  A 0.65 0.65 0.0 0 0 12.9510 31.3138
  L 12.9497 31.3938
  A 0.65 0.65 0.0 0 0 13.5894 32.0539
  L 18.1689 32.1259
  A 0.65 0.65 0.0 0 0 18.8290 31.4862
  L 18.8303 31.4062"
/>
<path stroke="#556f7e" vector-effect="non-scaling-stroke" d="
  M 50.3496 31.2806
  A 0.62 0.62 0.0 0 0 49.7274 30.6627
  L 45.5675 30.6773
  A 0.62 0.62 0.0 0 0 44.9496 31.2994
  L 44.9504 31.5194
  A 0.62 0.62 0.0 0 0 45.5726 32.1373
  L 49.7325 32.1227
  A 0.62 0.62 0.0 0 0 50.3504 31.5006
  L 50.3496 31.2806"
/>
</g>
<path fill="#f5f5f5" d="
  M 4.80 0.00
  L 58.22 0.00
  L 58.30 17.42
  L 58.23 46.44
  Q 58.23 46.98 57.69 46.98
  L 4.76 46.97
  L 4.53 2.91
  L 4.80 0.00
  Z
  M 22.99 40.28
  Q 23.11 41.46 25.00 41.58
  Q 33.64 42.10 40.18 40.63
  Q 46.10 39.45 52.93 40.02
  A 0.76 0.76 0.0 0 0 53.75 39.26
  L 53.75 23.40
  Q 53.75 22.55 52.90 22.55
  L 43.04 22.56
  Q 42.51 22.56 42.51 22.04
  L 42.52 11.17
  A 0.61 0.61 0.0 0 1 43.08 10.56
  L 43.75 10.50
  Q 44.43 10.44 44.43 9.75
  L 44.43 6.09
  Q 44.43 5.50 43.84 5.50
  L 19.15 5.51
  Q 18.56 5.51 18.56 6.10
  L 18.55 9.78
  Q 18.55 10.51 19.28 10.51
  L 19.87 10.51
  A 0.61 0.61 0.0 0 1 20.49 11.12
  L 20.45 22.05
  Q 20.45 22.55 19.95 22.55
  L 9.73 22.54
  Q 9.25 22.54 9.25 23.02
  L 9.25 39.27
  Q 9.25 39.95 9.93 39.97
  L 22.99 40.28
  Z"
/>
<path fill="#000000" fill-opacity="0.078" d="
  M 4.53 2.91
  L 4.76 46.97
  Q 7.44 49.38 9.96 49.50
  Q 10.37 49.52 10.53 49.91
  Q 10.63 50.14 10.78 50.30
  Q 10.99 50.55 11.51 50.56
  Q 13.21 50.60 14.79 51.30
  Q 15.25 51.50 15.76 51.45
  Q 19.51 51.04 23.15 51.83
  Q 23.62 51.93 24.02 51.67
  Q 24.69 51.23 25.50 51.26
  Q 35.58 51.59 46.17 50.97
  Q 35.19 54.59 25.39 53.28
  Q 23.50 53.02 22.31 52.96
  Q 19.87 52.82 19.24 52.71
  Q 16.96 52.31 14.67 51.97
  Q 14.59 51.95 11.88 51.25
  C 8.80 50.45 5.84 51.85 3.42 48.74
  Q 3.14 48.38 3.13 47.91
  Q 3.12 36.75 3.14 25.59
  Q 3.14 25.49 2.73 16.94
  Q 2.38 9.64 4.53 2.91
  Z"
/>
<path fill="#131212" d="
  M 40.18 40.63
  Q 31.48 39.12 22.99 40.28
  L 9.93 39.97
  Q 9.25 39.95 9.25 39.27
  L 9.25 23.02
  Q 9.25 22.54 9.73 22.54
  L 19.95 22.55
  Q 20.45 22.55 20.45 22.05
  L 20.49 11.12
  A 0.61 0.61 0.0 0 0 19.87 10.51
  L 19.28 10.51
  Q 18.55 10.51 18.55 9.78
  L 18.56 6.10
  Q 18.56 5.51 19.15 5.51
  L 43.84 5.50
  Q 44.43 5.50 44.43 6.09
  L 44.43 9.75
  Q 44.43 10.44 43.75 10.50
  L 43.08 10.56
  A 0.61 0.61 0.0 0 0 42.52 11.17
  L 42.51 22.04
  Q 42.51 22.56 43.04 22.56
  L 52.90 22.55
  Q 53.75 22.55 53.75 23.40
  L 53.75 39.26
  A 0.76 0.76 0.0 0 1 52.93 40.02
  Q 46.10 39.45 40.18 40.63
  Z
  M 43.19 7.50
  A 0.76 0.76 0.0 0 0 42.43 6.74
  L 20.51 6.74
  A 0.76 0.76 0.0 0 0 19.75 7.50
  L 19.75 8.38
  A 0.76 0.76 0.0 0 0 20.51 9.14
  L 42.43 9.14
  A 0.76 0.76 0.0 0 0 43.19 8.38
  L 43.19 7.50
  Z
  M 24.09 38.48
  Q 24.48 38.35 25.35 38.56
  Q 27.68 39.14 30.41 38.71
  Q 30.88 38.64 30.89 38.16
  L 30.92 31.50
  Q 30.92 30.98 30.42 30.86
  Q 27.84 30.28 25.21 31.33
  Q 24.77 31.57 24.27 31.05
  Q 23.47 30.01 23.82 28.36
  A 0.46 0.46 0.0 0 1 24.27 28.00
  L 38.50 28.01
  Q 39.01 28.01 39.16 28.50
  Q 39.59 29.88 38.72 31.06
  Q 38.22 31.26 37.68 31.00
  L 32.41 30.88
  A 0.51 0.51 0.0 0 0 31.90 31.50
  Q 32.63 34.77 31.88 38.01
  Q 31.72 38.72 32.44 38.72
  L 37.62 38.69
  Q 38.37 38.69 38.92 38.44
  Q 40.03 38.84 40.76 38.51
  A 0.86 0.86 0.0 0 0 41.26 37.73
  L 41.29 11.02
  Q 41.29 10.50 40.77 10.50
  L 22.23 10.50
  Q 21.72 10.50 21.72 11.02
  L 21.77 37.80
  Q 21.77 38.43 22.37 38.59
  Q 23.25 38.82 24.09 38.48
  Z
  M 52.4879 24.2913
  A 0.43 0.43 0.0 0 0 52.0572 23.8621
  L 42.9372 23.8780
  A 0.43 0.43 0.0 0 0 42.5079 24.3087
  L 42.5321 38.1287
  A 0.43 0.43 0.0 0 0 42.9628 38.5579
  L 52.0828 38.5420
  A 0.43 0.43 0.0 0 0 52.5121 38.1113
  L 52.4879 24.2913
  Z
  M 20.46 29.58
  L 20.43 25.70
  L 20.46 24.44
  Q 20.47 23.95 19.98 23.95
  L 11.06 23.91
  Q 10.53 23.91 10.53 24.44
  L 10.52 38.03
  Q 10.52 38.55 11.03 38.55
  L 19.96 38.54
  Q 20.39 38.53 20.40 38.10
  L 20.46 29.58
  Z
  M 38.1294 29.3443
  A 0.26 0.26 0.0 0 0 37.8676 29.0861
  L 25.2879 29.1739
  A 0.26 0.26 0.0 0 0 25.0297 29.4357
  L 25.0306 29.5557
  A 0.26 0.26 0.0 0 0 25.2924 29.8139
  L 37.8721 29.7261
  A 0.26 0.26 0.0 0 0 38.1303 29.4643
  L 38.1294 29.3443
  Z"
/>
<rect fill="#9a9994" x="19.75" y="6.74" width="23.44" height="2.40" rx="0.76"/>
<path fill="#ecebe6" d="
  M 38.92 38.44
  L 38.72 31.06
  Q 39.59 29.88 39.16 28.50
  Q 39.01 28.01 38.50 28.01
  L 24.27 28.00
  A 0.46 0.46 0.0 0 0 23.82 28.36
  Q 23.47 30.01 24.27 31.05
  L 24.09 38.48
  Q 23.25 38.82 22.37 38.59
  Q 21.77 38.43 21.77 37.80
  L 21.72 11.02
  Q 21.72 10.50 22.23 10.50
  L 40.77 10.50
  Q 41.29 10.50 41.29 11.02
  L 41.26 37.73
  A 0.86 0.86 0.0 0 1 40.76 38.51
  Q 40.03 38.84 38.92 38.44
  Z
  M 33.03 13.77
  L 33.13 12.73
  A 0.66 0.65 -87.6 0 0 32.47 12.01
  L 30.52 12.01
  A 0.62 0.62 0.0 0 0 29.91 12.72
  Q 30.21 14.98 28.06 14.48
  A 0.54 0.54 0.0 0 0 27.40 15.00
  L 27.36 17.37
  A 0.57 0.56 -5.4 0 0 28.04 17.93
  Q 30.16 17.50 29.90 19.55
  A 0.65 0.65 0.0 0 0 30.55 20.28
  L 32.49 20.27
  A 0.64 0.64 0.0 0 0 33.11 19.49
  Q 32.71 17.70 34.52 18.04
  A 1.84 1.65 56.2 0 0 35.02 14.59
  Q 34.61 14.46 33.75 14.51
  Q 32.96 14.55 33.03 13.77
  Z
  M 27.7362 22.1803
  A 0.82 0.82 0.0 0 0 26.9006 21.3762
  L 24.3811 21.4246
  A 0.82 0.82 0.0 0 0 23.5770 22.2602
  L 23.6238 24.6997
  A 0.82 0.82 0.0 0 0 24.4594 25.5038
  L 26.9789 25.4554
  A 0.82 0.82 0.0 0 0 27.7830 24.6198
  L 27.7362 22.1803
  Z
  M 33.5431 22.2231
  A 0.73 0.73 0.0 0 0 32.8324 21.4742
  L 30.2733 21.4072
  A 0.73 0.73 0.0 0 0 29.5245 22.1178
  L 29.4569 24.6969
  A 0.73 0.73 0.0 0 0 30.1676 25.4458
  L 32.7267 25.5128
  A 0.73 0.73 0.0 0 0 33.4755 24.8022
  L 33.5431 22.2231
  Z
  M 39.4178 22.1690
  A 0.76 0.76 0.0 0 0 38.6685 21.3985
  L 36.0488 21.3619
  A 0.76 0.76 0.0 0 0 35.2782 22.1112
  L 35.2422 24.6910
  A 0.76 0.76 0.0 0 0 35.9915 25.4615
  L 38.6112 25.4981
  A 0.76 0.76 0.0 0 0 39.3818 24.7488
  L 39.4178 22.1690
  Z"
/>
<path fill="#3d120e" d="
  M 33.75 14.51
  Q 34.61 14.46 35.02 14.59
  A 1.84 1.65 56.2 0 1 34.52 18.04
  Q 32.71 17.70 33.11 19.49
  A 0.64 0.64 0.0 0 1 32.49 20.27
  L 30.55 20.28
  A 0.65 0.65 0.0 0 1 29.90 19.55
  Q 30.16 17.50 28.04 17.93
  A 0.57 0.56 -5.4 0 1 27.36 17.37
  L 27.40 15.00
  A 0.54 0.54 0.0 0 1 28.06 14.48
  Q 30.21 14.98 29.91 12.72
  A 0.62 0.62 0.0 0 1 30.52 12.01
  L 32.47 12.01
  A 0.66 0.65 -87.6 0 1 33.13 12.73
  L 33.03 13.77
  Q 32.96 14.55 33.75 14.51
  Z
  M 32.42 14.82
  L 32.17 13.26
  Q 32.09 12.79 31.61 12.83
  L 31.26 12.87
  A 0.56 0.56 0.0 0 0 30.75 13.38
  L 30.66 14.29
  Q 30.60 14.85 30.04 14.87
  L 28.42 14.90
  Q 27.72 14.91 27.81 15.60
  Q 28.03 17.45 29.98 17.31
  A 0.61 0.60 -10.6 0 1 30.61 17.74
  L 31.11 19.39
  A 0.45 0.45 0.0 0 0 31.99 19.27
  Q 32.05 17.13 34.17 17.14
  Q 34.67 17.14 34.89 16.69
  L 35.12 16.19
  Q 35.36 15.67 34.91 15.31
  Q 33.92 14.52 33.24 15.11
  Q 32.57 15.70 32.42 14.82
  Z"
/>
<path fill="#c91616" d="
  M 33.24 15.11
  Q 33.92 14.52 34.91 15.31
  Q 35.36 15.67 35.12 16.19
  L 34.89 16.69
  Q 34.67 17.14 34.17 17.14
  Q 32.05 17.13 31.99 19.27
  A 0.45 0.45 0.0 0 1 31.11 19.39
  L 30.61 17.74
  A 0.61 0.60 -10.6 0 0 29.98 17.31
  Q 28.03 17.45 27.81 15.60
  Q 27.72 14.91 28.42 14.90
  L 30.04 14.87
  Q 30.60 14.85 30.66 14.29
  L 30.75 13.38
  A 0.56 0.56 0.0 0 1 31.26 12.87
  L 31.61 12.83
  Q 32.09 12.79 32.17 13.26
  L 32.42 14.82
  Q 32.57 15.70 33.24 15.11
  Z"
/>
<path fill="#000100" fill-opacity="0.192" d="
  M 58.30 17.42
  Q 59.31 20.63 59.35 25.00
  Q 59.45 35.16 59.29 46.31
  A 2.97 2.97 0.0 0 1 56.81 49.20
  L 46.17 50.97
  Q 35.58 51.59 25.50 51.26
  Q 24.69 51.23 24.02 51.67
  Q 23.62 51.93 23.15 51.83
  Q 19.51 51.04 15.76 51.45
  Q 15.25 51.50 14.79 51.30
  Q 13.21 50.60 11.51 50.56
  Q 10.99 50.55 10.78 50.30
  Q 10.63 50.14 10.53 49.91
  Q 10.37 49.52 9.96 49.50
  Q 7.44 49.38 4.76 46.97
  L 57.69 46.98
  Q 58.23 46.98 58.23 46.44
  L 58.30 17.42
  Z"
/>
<path fill="#2e3037" d="
  M 27.7830 24.6198
  A 0.82 0.82 0.0 0 1 26.9789 25.4554
  L 24.4594 25.5038
  A 0.82 0.82 0.0 0 1 23.6238 24.6997
  L 23.5770 22.2602
  A 0.82 0.82 0.0 0 1 24.3811 21.4246
  L 26.9006 21.3762
  A 0.82 0.82 0.0 0 1 27.7362 22.1803
  L 27.7830 24.6198
  Z
  M 26.98 23.40
  A 1.19 1.19 0.0 0 0 25.79 22.21
  A 1.19 1.19 0.0 0 0 24.60 23.40
  A 1.19 1.19 0.0 0 0 25.79 24.59
  A 1.19 1.19 0.0 0 0 26.98 23.40
  Z"
/>
<path fill="#2e3037" d="
  M 33.4755 24.8022
  A 0.73 0.73 0.0 0 1 32.7267 25.5128
  L 30.1676 25.4458
  A 0.73 0.73 0.0 0 1 29.4569 24.6969
  L 29.5245 22.1178
  A 0.73 0.73 0.0 0 1 30.2733 21.4072
  L 32.8324 21.4742
  A 0.73 0.73 0.0 0 1 33.5431 22.2231
  L 33.4755 24.8022
  Z
  M 31.07 22.40
  A 0.98 0.98 0.0 0 0 30.57 24.23
  Q 31.14 24.54 31.98 24.55
  A 1.07 1.07 0.0 0 0 32.01 22.42
  L 31.07 22.40
  Z"
/>
<path fill="#2e3037" d="
  M 39.3818 24.7488
  A 0.76 0.76 0.0 0 1 38.6112 25.4981
  L 35.9915 25.4615
  A 0.76 0.76 0.0 0 1 35.2422 24.6910
  L 35.2782 22.1112
  A 0.76 0.76 0.0 0 1 36.0488 21.3619
  L 38.6685 21.3985
  A 0.76 0.76 0.0 0 1 39.4178 22.1690
  L 39.3818 24.7488
  Z
  M 37.93 22.65
  Q 36.01 21.73 36.02 23.55
  A 0.96 0.96 0.0 0 0 37.18 24.48
  Q 38.75 24.14 38.33 23.08
  A 0.84 0.84 0.0 0 0 37.93 22.65
  Z"
/>
<circle fill="#97ccea" cx="25.79" cy="23.40" r="1.19"/>
<path fill="#97ccea" d="
  M 37.93 22.65
  A 0.84 0.84 0.0 0 1 38.33 23.08
  Q 38.75 24.14 37.18 24.48
  A 0.96 0.96 0.0 0 1 36.02 23.55
  Q 36.01 21.73 37.93 22.65
  Z"
/>
<path fill="#97ccea" d="
  M 31.07 22.40
  L 32.01 22.42
  A 1.07 1.07 0.0 0 1 31.98 24.55
  Q 31.14 24.54 30.57 24.23
  A 0.98 0.98 0.0 0 1 31.07 22.40
  Z"
/>
<path fill="#d1cec7" d="
  M 52.5121 38.1113
  A 0.43 0.43 0.0 0 1 52.0828 38.5420
  L 42.9628 38.5579
  A 0.43 0.43 0.0 0 1 42.5321 38.1287
  L 42.5079 24.3087
  A 0.43 0.43 0.0 0 1 42.9372 23.8780
  L 52.0572 23.8621
  A 0.43 0.43 0.0 0 1 52.4879 24.2913
  L 52.5121 38.1113
  Z
  M 51.2050 26.5611
  A 0.59 0.59 0.0 0 0 50.6119 25.9742
  L 44.5720 26.0058
  A 0.59 0.59 0.0 0 0 43.9851 26.5989
  L 43.9950 28.4789
  A 0.59 0.59 0.0 0 0 44.5881 29.0658
  L 50.6280 29.0342
  A 0.59 0.59 0.0 0 0 51.2149 28.4411
  L 51.2050 26.5611
  Z
  M 44.39 33.18
  Q 44.69 33.06 44.24 33.66
  Q 43.64 35.08 44.18 36.39
  A 0.75 0.74 -11.2 0 0 44.87 36.85
  L 50.31 36.87
  Q 50.79 36.87 51.00 36.44
  Q 51.63 35.13 50.92 33.95
  Q 50.60 33.65 50.72 33.08
  Q 51.42 31.78 51.22 30.51
  Q 51.12 29.90 50.50 29.90
  L 44.75 29.98
  Q 44.19 29.99 44.06 30.52
  Q 43.72 31.90 44.39 33.18
  Z"
/>
<path fill="#d1cec7" d="
  M 20.43 25.70
  Q 20.31 25.81 20.24 26.09
  Q 20.15 26.45 19.79 26.40
  Q 19.52 26.37 19.28 26.19
  L 12.78 26.02
  Q 12.31 26.01 12.16 26.45
  Q 11.34 28.74 13.21 29.00
  Q 15.83 29.36 19.45 28.69
  Q 20.00 28.06 20.46 29.58
  L 20.40 38.10
  Q 20.39 38.53 19.96 38.54
  L 11.03 38.55
  Q 10.52 38.55 10.52 38.03
  L 10.53 24.44
  Q 10.53 23.91 11.06 23.91
  L 19.98 23.95
  Q 20.47 23.95 20.46 24.44
  L 20.43 25.70
  Z
  M 12.95 33.06
  Q 13.15 33.34 12.44 33.74
  Q 11.35 35.69 12.71 36.57
  Q 16.00 37.43 18.98 36.59
  Q 19.46 36.46 19.57 35.98
  Q 19.91 34.56 19.10 33.76
  Q 19.05 33.28 18.33 33.38
  Q 19.97 32.26 19.53 30.53
  Q 19.38 29.94 18.77 29.94
  L 12.79 29.91
  Q 12.28 29.90 12.13 30.39
  Q 11.56 32.23 12.95 33.06
  Z"
/>
<path fill="#9a9994" d="
  M 20.43 25.70
  L 20.46 29.58
  Q 20.00 28.06 19.45 28.69
  L 19.28 26.19
  Q 19.52 26.37 19.79 26.40
  Q 20.15 26.45 20.24 26.09
  Q 20.31 25.81 20.43 25.70
  Z"
/>
<path fill="#131212" d="
  M 19.28 26.19
  L 19.45 28.69
  Q 15.83 29.36 13.21 29.00
  Q 11.34 28.74 12.16 26.45
  Q 12.31 26.01 12.78 26.02
  L 19.28 26.19
  Z
  M 18.92 27.41
  A 0.53 0.53 0.0 0 0 18.39 26.88
  L 13.39 26.88
  A 0.53 0.53 0.0 0 0 12.86 27.41
  L 12.86 27.47
  A 0.53 0.53 0.0 0 0 13.39 28.00
  L 18.39 28.00
  A 0.53 0.53 0.0 0 0 18.92 27.47
  L 18.92 27.41
  Z"
/>
<path fill="#131212" d="
  M 51.2149 28.4411
  A 0.59 0.59 0.0 0 1 50.6280 29.0342
  L 44.5881 29.0658
  A 0.59 0.59 0.0 0 1 43.9950 28.4789
  L 43.9851 26.5989
  A 0.59 0.59 0.0 0 1 44.5720 26.0058
  L 50.6119 25.9742
  A 0.59 0.59 0.0 0 1 51.2050 26.5611
  L 51.2149 28.4411
  Z
  M 50.4199 27.3751
  A 0.55 0.55 0.0 0 0 49.8689 26.8261
  L 45.4089 26.8339
  A 0.55 0.55 0.0 0 0 44.8599 27.3849
  L 44.8601 27.5249
  A 0.55 0.55 0.0 0 0 45.4111 28.0739
  L 49.8711 28.0661
  A 0.55 0.55 0.0 0 0 50.4201 27.5151
  L 50.4199 27.3751
  Z"
/>
<rect fill="#97ccea" x="12.86" y="26.88" width="6.06" height="1.12" rx="0.53"/>
<rect fill="#97ccea" x="-2.78" y="-0.62" transform="translate(47.64,27.45) rotate(-0.1)" width="5.56" height="1.24" rx="0.55"/>
<rect fill="#d1cec7" x="-6.55" y="-0.32" transform="translate(31.58,29.45) rotate(-0.4)" width="13.10" height="0.64" rx="0.26"/>
<path fill="#131212" d="
  M 18.33 33.38
  Q 16.21 32.65 13.61 33.51
  Q 14.57 33.08 12.95 33.06
  Q 11.56 32.23 12.13 30.39
  Q 12.28 29.90 12.79 29.91
  L 18.77 29.94
  Q 19.38 29.94 19.53 30.53
  Q 19.97 32.26 18.33 33.38
  Z
  M 18.8303 31.4062
  A 0.65 0.65 0.0 0 0 18.1906 30.7461
  L 13.6111 30.6741
  A 0.65 0.65 0.0 0 0 12.9510 31.3138
  L 12.9497 31.3938
  A 0.65 0.65 0.0 0 0 13.5894 32.0539
  L 18.1689 32.1259
  A 0.65 0.65 0.0 0 0 18.8290 31.4862
  L 18.8303 31.4062
  Z"
/>
<path fill="#131212" d="
  M 50.72 33.08
  L 44.39 33.18
  Q 43.72 31.90 44.06 30.52
  Q 44.19 29.99 44.75 29.98
  L 50.50 29.90
  Q 51.12 29.90 51.22 30.51
  Q 51.42 31.78 50.72 33.08
  Z
  M 50.3496 31.2806
  A 0.62 0.62 0.0 0 0 49.7274 30.6627
  L 45.5675 30.6773
  A 0.62 0.62 0.0 0 0 44.9496 31.2994
  L 44.9504 31.5194
  A 0.62 0.62 0.0 0 0 45.5726 32.1373
  L 49.7325 32.1227
  A 0.62 0.62 0.0 0 0 50.3504 31.5006
  L 50.3496 31.2806
  Z"
/>
<rect fill="#97ccea" x="-2.94" y="-0.69" transform="translate(15.89,31.40) rotate(0.9)" width="5.88" height="1.38" rx="0.65"/>
<rect fill="#97ccea" x="-2.70" y="-0.73" transform="translate(47.65,31.40) rotate(-0.2)" width="5.40" height="1.46" rx="0.62"/>
<path fill="#97ccea" d="
  M 25.35 38.56
  L 25.21 31.33
  Q 27.84 30.28 30.42 30.86
  Q 30.92 30.98 30.92 31.50
  L 30.89 38.16
  Q 30.88 38.64 30.41 38.71
  Q 27.68 39.14 25.35 38.56
  Z"
/>
<path fill="#97ccea" d="
  M 37.68 31.00
  L 37.62 38.69
  L 32.44 38.72
  Q 31.72 38.72 31.88 38.01
  Q 32.63 34.77 31.90 31.50
  A 0.51 0.51 0.0 0 1 32.41 30.88
  L 37.68 31.00
  Z"
/>
<path fill="#5a6166" d="
  M 24.27 31.05
  Q 24.77 31.57 25.21 31.33
  L 25.35 38.56
  Q 24.48 38.35 24.09 38.48
  L 24.27 31.05
  Z"
/>
<path fill="#5a6166" d="
  M 37.68 31.00
  Q 38.22 31.26 38.72 31.06
  L 38.92 38.44
  Q 38.37 38.69 37.62 38.69
  L 37.68 31.00
  Z"
/>
<path fill="#5a6166" d="
  M 12.95 33.06
  Q 14.57 33.08 13.61 33.51
  L 19.10 33.76
  Q 19.91 34.56 19.57 35.98
  Q 19.46 36.46 18.98 36.59
  Q 16.00 37.43 12.71 36.57
  Q 13.19 36.65 13.56 36.55
  Q 13.82 36.47 13.60 36.31
  Q 13.42 36.18 13.43 35.94
  L 17.73 35.83
  A 0.47 0.47 0.0 0 0 18.10 35.09
  L 17.92 34.83
  Q 17.65 34.43 17.16 34.51
  Q 15.01 34.88 13.21 34.28
  Q 13.04 33.81 12.44 33.74
  Q 13.15 33.34 12.95 33.06
  Z"
/>
<path fill="#9a9994" d="
  M 18.33 33.38
  Q 19.05 33.28 19.10 33.76
  L 13.61 33.51
  Q 16.21 32.65 18.33 33.38
  Z"
/>
<path fill="#5a6166" d="
  M 44.39 33.18
  L 50.72 33.08
  Q 50.60 33.65 50.92 33.95
  Q 50.09 33.86 49.88 34.37
  L 45.13 34.31
  Q 44.76 33.82 44.24 33.66
  Q 44.69 33.06 44.39 33.18
  Z"
/>
<path fill="#131212" d="
  M 12.44 33.74
  Q 13.04 33.81 13.21 34.28
  Q 12.53 35.45 13.43 35.94
  Q 13.42 36.18 13.60 36.31
  Q 13.82 36.47 13.56 36.55
  Q 13.19 36.65 12.71 36.57
  Q 11.35 35.69 12.44 33.74
  Z"
/>
<path fill="#2e3037" d="
  M 44.24 33.66
  Q 44.76 33.82 45.13 34.31
  Q 44.94 35.11 45.07 35.60
  Q 45.21 36.15 45.78 36.15
  L 49.52 36.11
  Q 50.14 36.10 50.15 35.48
  Q 50.16 34.99 49.88 34.37
  Q 50.09 33.86 50.92 33.95
  Q 51.63 35.13 51.00 36.44
  Q 50.79 36.87 50.31 36.87
  L 44.87 36.85
  A 0.75 0.74 -11.2 0 1 44.18 36.39
  Q 43.64 35.08 44.24 33.66
  Z"
/>
<path fill="#97ccea" d="
  M 13.21 34.28
  Q 15.01 34.88 17.16 34.51
  Q 17.65 34.43 17.92 34.83
  L 18.10 35.09
  A 0.47 0.47 0.0 0 1 17.73 35.83
  L 13.43 35.94
  Q 12.53 35.45 13.21 34.28
  Z"
/>
<path fill="#97ccea" d="
  M 45.13 34.31
  L 49.88 34.37
  Q 50.16 34.99 50.15 35.48
  Q 50.14 36.10 49.52 36.11
  L 45.78 36.15
  Q 45.21 36.15 45.07 35.60
  Q 44.94 35.11 45.13 34.31
  Z"
/>
<path fill="#2e3037" d="
  M 40.18 40.63
  Q 33.64 42.10 25.00 41.58
  Q 23.11 41.46 22.99 40.28
  Q 31.48 39.12 40.18 40.63
  Z"
/>
</svg>
