<?xml version="1.0" encoding="UTF-8" standalone="no"?>
<!DOCTYPE svg PUBLIC "-//W3C//DTD SVG 1.1//EN" "http://www.w3.org/Graphics/SVG/1.1/DTD/svg11.dtd">
<svg xmlns="http://www.w3.org/2000/svg" version="1.1" viewBox="0.00 0.00 428.00 316.00">
<g stroke-width="2.00" fill="none" stroke-linecap="butt">
<path stroke="#f7a7ad" vector-effect="non-scaling-stroke" d="
  M 322.25 273.12
  Q 314.14 231.30 305.85 189.30
  C 305.13 185.66 303.93 183.81 300.50 182.69
  Q 282.45 176.79 264.27 171.11"
/>
<path stroke="#a65458" vector-effect="non-scaling-stroke" d="
  M 264.27 171.11
  Q 256.40 163.72 245.46 163.22
  Q 244.93 163.20 244.61 163.46
  Q 244.30 163.71 243.97 164.11"
/>
<path stroke="#909693" vector-effect="non-scaling-stroke" d="
  M 243.97 164.11
  L 235.66 154.00"
/>
<path stroke="#ff977d" vector-effect="non-scaling-stroke" d="
  M 235.66 154.00
  L 235.10 146.87
  Q 235.06 146.36 235.42 146.01
  C 240.15 141.36 244.94 138.04 246.24 130.98
  Q 247.46 124.36 248.41 115.36
  Q 248.48 114.75 249.04 115.00
  Q 251.16 115.99 253.32 115.16
  A 1.37 1.36 -88.2 0 0 254.05 114.47
  Q 258.68 104.31 258.44 93.99
  Q 258.32 89.04 253.21 89.52"
/>
<path stroke="#b36164" vector-effect="non-scaling-stroke" d="
  M 253.21 89.52
  C 254.77 78.94 257.58 51.20 241.07 49.73
  Q 240.57 49.69 240.43 49.22
  Q 236.72 37.37 224.23 35.69
  C 201.13 32.59 169.39 45.45 171.49 73.49
  Q 172.36 85.08 172.23 89.35"
/>
<path stroke="#ff977d" vector-effect="non-scaling-stroke" d="
  M 172.23 89.35
  Q 167.54 91.18 169.10 100.00
  Q 170.38 107.24 171.99 112.06
  C 173.04 115.19 174.76 116.56 178.02 115.03
  A 0.48 0.48 0.0 0 1 178.70 115.41
  C 179.52 121.89 179.78 129.38 182.39 135.37
  C 184.17 139.48 188.15 142.45 191.42 145.58
  Q 191.80 145.94 191.78 146.46
  L 191.49 153.90"
/>
<path stroke="#909693" vector-effect="non-scaling-stroke" d="
  M 191.49 153.90
  L 183.55 163.18"
/>
<path stroke="#a65458" vector-effect="non-scaling-stroke" d="
  M 183.55 163.18
  Q 168.50 163.01 158.66 172.45"
/>
<path stroke="#ffadb1" vector-effect="non-scaling-stroke" d="
  M 158.66 172.45
  Q 142.70 177.35 127.40 182.42
  C 124.64 183.34 122.30 184.72 121.75 187.49
  Q 113.41 229.95 104.75 273.04"
/>
<path stroke="#b29c7f" vector-effect="non-scaling-stroke" d="
  M 253.21 89.52
  Q 249.89 91.81 249.24 95.69
  Q 249.13 96.36 248.45 96.39
  L 246.33 96.47
  Q 245.65 96.50 245.82 95.85
  C 247.37 89.91 242.97 86.96 242.32 81.47
  C 241.76 76.66 242.48 72.18 242.20 67.46
  C 241.30 52.28 227.83 65.76 224.45 69.80
  C 219.03 76.26 213.44 77.86 205.00 79.43
  Q 195.46 81.20 181.72 80.64
  Q 181.21 80.61 181.18 81.13
  Q 180.76 88.83 178.62 96.27
  A 1.48 1.48 0.0 0 1 175.73 95.64
  Q 176.25 92.19 172.23 89.35"
/>
<path stroke="#90d1ae" vector-effect="non-scaling-stroke" d="
  M 235.66 154.00
  L 216.46 177.29"
/>
<path stroke="#87a68f" vector-effect="non-scaling-stroke" d="
  M 216.46 177.29
  L 210.91 177.42"
/>
<path stroke="#90d1ae" vector-effect="non-scaling-stroke" d="
  M 210.91 177.42
  L 191.49 153.90"
/>
<path stroke="#18a5a5" vector-effect="non-scaling-stroke" d="
  M 210.91 177.42
  L 207.35 181.25"
/>
<path stroke="#1bc7bb" vector-effect="non-scaling-stroke" d="
  M 207.35 181.25
  L 194.14 195.07
  A 0.46 0.46 0.0 0 1 193.37 194.90
  L 186.42 174.91
  A 0.53 0.53 0.0 0 0 185.52 174.74
  Q 185.21 175.09 185.46 175.45"
/>
<path stroke="#88e2dd" vector-effect="non-scaling-stroke" d="
  M 185.46 175.45
  L 183.31 165.76"
/>
<path stroke="#378f88" vector-effect="non-scaling-stroke" d="
  M 183.31 165.76
  Q 182.10 165.22 183.55 163.18"
/>
<path stroke="#378f88" vector-effect="non-scaling-stroke" d="
  M 243.97 164.11
  Q 244.64 164.69 244.00 165.96"
/>
<path stroke="#90e8e1" vector-effect="non-scaling-stroke" d="
  M 244.00 165.96
  L 241.93 175.07"
/>
<path stroke="#1bc7bb" vector-effect="non-scaling-stroke" d="
  M 241.93 175.07
  L 241.88 174.77
  A 0.63 0.62 50.5 0 0 240.68 174.65
  L 233.13 195.12
  A 0.57 0.56 -55.6 0 1 232.18 195.30
  L 219.81 181.28"
/>
<path stroke="#18a5a5" vector-effect="non-scaling-stroke" d="
  M 219.81 181.28
  L 216.46 177.29"
/>
<path stroke="#9ea0a2" vector-effect="non-scaling-stroke" d="
  M 183.31 165.76
  L 175.51 167.10"
/>
<path stroke="#a6a6a6" vector-effect="non-scaling-stroke" d="
  M 175.51 167.10
  C 162.81 169.50 154.50 178.67 157.20 191.48
  Q 157.83 194.48 158.58 197.39
  A 0.75 0.74 78.1 0 0 159.42 197.94
  Q 167.46 196.70 175.34 199.32"
/>
<path stroke="#9ea0a2" vector-effect="non-scaling-stroke" d="
  M 175.34 199.32
  Q 189.47 204.70 190.62 220.59"
/>
<path stroke="#378f88" vector-effect="non-scaling-stroke" d="
  M 190.62 220.59
  Q 188.84 220.49 188.21 221.20"
/>
<path stroke="#9ea0a2" vector-effect="non-scaling-stroke" d="
  M 188.21 221.20
  Q 187.43 221.16 187.33 220.45
  Q 184.68 201.34 165.06 201.00"
/>
<path stroke="#a6a6a6" vector-effect="non-scaling-stroke" d="
  M 165.06 201.00
  C 154.53 200.81 142.49 205.69 138.17 215.67
  Q 136.40 219.73 136.92 223.49
  Q 137.71 229.28 137.59 231.12"
/>
<path stroke="#378f88" vector-effect="non-scaling-stroke" d="
  M 137.59 231.12
  L 135.06 231.35"
/>
<path stroke="#a6a6a6" vector-effect="non-scaling-stroke" d="
  M 135.06 231.35
  Q 129.59 215.84 141.24 205.76
  Q 146.52 201.19 154.49 198.99
  Q 155.02 198.85 154.91 198.31
  C 154.13 194.48 153.85 189.61 153.84 186.42
  Q 153.82 179.05 158.66 172.45"
/>
<path stroke="#9ea0a2" vector-effect="non-scaling-stroke" d="
  M 264.27 171.11
  C 277.71 186.21 277.72 209.34 274.98 228.12
  Q 274.90 228.69 274.33 228.64
  L 272.69 228.48
  Q 272.02 228.42 272.13 227.75
  C 275.32 207.50 275.47 172.44 248.94 166.63"
/>
<path stroke="#a6a6a6" vector-effect="non-scaling-stroke" d="
  M 248.94 166.63
  L 244.00 165.96"
/>
<path stroke="#82d8d5" vector-effect="non-scaling-stroke" d="
  M 185.46 175.45
  L 204.17 262.09"
/>
<path stroke="#7fb6bf" vector-effect="non-scaling-stroke" d="
  M 204.17 262.09
  L 212.40 300.01"
/>
<path stroke="#f7f9fb" vector-effect="non-scaling-stroke" d="
  M 212.40 300.01
  L 210.16 297.97
  Q 209.82 297.66 209.63 297.24
  L 190.09 253.70"
/>
<path stroke="#88e2dd" vector-effect="non-scaling-stroke" d="
  M 190.09 253.70
  Q 196.02 250.43 194.91 244.76
  Q 192.56 232.86 190.28 220.98
  Q 190.19 220.50 190.62 220.59"
/>
<path stroke="#f7f9fb" vector-effect="non-scaling-stroke" d="
  M 175.34 199.32
  Q 177.79 198.68 179.86 196.97
  Q 180.21 196.68 179.76 196.66
  L 170.32 196.26
  Q 169.80 196.24 169.32 196.41
  C 167.40 197.09 165.47 196.16 163.86 196.14
  Q 162.53 196.12 161.09 196.02
  A 1.38 1.37 -73.0 0 1 160.00 193.96
  L 175.51 167.10"
/>
<path stroke="#f7f9fb" vector-effect="non-scaling-stroke" d="
  M 248.94 166.63
  L 267.46 194.87
  A 0.84 0.84 0.0 0 1 266.78 196.17
  L 247.25 196.69
  A 0.37 0.37 0.0 0 0 247.08 197.39
  L 259.14 204.15
  Q 259.62 204.42 259.39 204.92
  L 216.30 299.67
  Q 216.09 300.12 215.60 300.14
  L 214.86 300.17"
/>
<path stroke="#87bcc3" vector-effect="non-scaling-stroke" d="
  M 214.86 300.17
  L 222.64 263.63"
/>
<path stroke="#8aded9" vector-effect="non-scaling-stroke" d="
  M 222.64 263.63
  L 241.93 175.07"
/>
<path stroke="#f7a7ad" vector-effect="non-scaling-stroke" d="
  M 284.13 299.80
  L 275.63 272.41
  A 0.54 0.54 0.0 0 0 274.57 272.55
  L 273.37 304.61"
/>
<path stroke="#f7f9fb" vector-effect="non-scaling-stroke" d="
  M 213.44 316.00
  L 213.23 304.78"
/>
<path stroke="#7fb6bf" vector-effect="non-scaling-stroke" d="
  M 213.23 304.78
  Q 214.49 303.29 214.86 300.17"
/>
<path stroke="#7fb6bf" vector-effect="non-scaling-stroke" d="
  M 271.79 230.78
  Q 266.51 231.02 263.57 234.34
  C 256.84 241.95 263.80 254.30 273.55 251.90
  C 283.93 249.35 285.22 235.93 275.31 231.66
  Q 274.83 231.45 274.61 231.92
  L 274.19 232.78"
/>
<path stroke="#f7f9fb" vector-effect="non-scaling-stroke" d="
  M 274.19 232.78
  Q 274.73 230.89 274.54 229.74
  A 1.33 1.32 -46.0 0 0 271.92 229.79
  L 271.79 230.78"
/>
<path stroke="#87bcc3" vector-effect="non-scaling-stroke" d="
  M 274.19 232.78
  L 273.87 235.61
  Q 273.81 236.11 274.24 236.39
  C 282.93 242.14 270.86 252.94 266.04 244.23
  C 264.17 240.86 266.59 236.41 270.63 235.75
  A 0.70 0.70 0.0 0 0 271.22 235.15
  L 271.79 230.78"
/>
<path stroke="#f7f9fb" vector-effect="non-scaling-stroke" d="
  M 222.63 308.07
  A 2.86 2.86 0.0 0 0 219.77 305.21
  A 2.86 2.86 0.0 0 0 216.91 308.07
  A 2.86 2.86 0.0 0 0 219.77 310.93
  A 2.86 2.86 0.0 0 0 222.63 308.07"
/>
<path stroke="#90e8e1" vector-effect="non-scaling-stroke" d="
  M 135.06 231.35
  Q 137.46 241.06 140.11 254.65
  Q 141.62 262.36 149.75 261.81"
/>
<path stroke="#87bcc3" vector-effect="non-scaling-stroke" d="
  M 149.75 261.81
  L 155.00 262.42
  Q 155.46 262.47 155.90 262.32
  C 160.71 260.66 156.12 253.94 152.89 257.80
  Q 152.58 258.18 152.14 258.39
  L 149.67 259.55"
/>
<path stroke="#90e8e1" vector-effect="non-scaling-stroke" d="
  M 149.67 259.55
  Q 143.49 260.76 142.21 254.75
  Q 140.63 247.30 137.59 231.12"
/>
<path stroke="#f7f9fb" vector-effect="non-scaling-stroke" d="
  M 165.06 201.00
  L 168.66 201.72
  A 0.49 0.49 0.0 0 1 168.99 202.43
  L 168.01 204.24
  Q 167.74 204.74 167.97 205.25
  L 189.03 251.74"
/>
<path stroke="#90e8e1" vector-effect="non-scaling-stroke" d="
  M 189.03 251.74
  L 186.19 252.64"
/>
<path stroke="#87bcc3" vector-effect="non-scaling-stroke" d="
  M 186.19 252.64
  Q 185.15 251.98 183.41 252.57
  A 0.98 0.96 54.0 0 1 182.52 252.42
  C 178.28 249.07 175.51 257.61 181.19 257.28
  A 1.37 1.35 -66.2 0 0 182.02 256.95
  Q 183.96 255.28 186.54 254.54"
/>
<path stroke="#90e8e1" vector-effect="non-scaling-stroke" d="
  M 186.54 254.54
  L 190.09 253.70"
/>
<path stroke="#87bcc3" vector-effect="non-scaling-stroke" d="
  M 212.40 300.01
  L 213.23 304.78"
/>
<path stroke="#ffadb1" vector-effect="non-scaling-stroke" d="
  M 153.78 304.60
  Q 153.35 288.64 152.62 273.00
  Q 152.59 272.33 152.07 272.23
  A 0.60 0.59 -76.1 0 0 151.40 272.64
  L 143.07 299.83"
/>
<path stroke="#129b9c" vector-effect="non-scaling-stroke" d="
  M 222.64 263.63
  L 216.58 183.31
  Q 216.54 182.79 217.02 182.57
  L 219.81 181.28"
/>
<path stroke="#129b9c" vector-effect="non-scaling-stroke" d="
  M 207.35 181.25
  L 210.29 182.58
  Q 210.76 182.79 210.72 183.30
  Q 206.36 239.83 205.07 259.75
  Q 204.95 261.58 204.17 262.09"
/>
<path stroke="#88e2dd" vector-effect="non-scaling-stroke" d="
  M 188.21 221.20
  Q 190.60 232.84 192.76 244.50
  Q 193.82 250.23 189.03 251.74"
/>
<path stroke="#18a5a5" vector-effect="non-scaling-stroke" d="
  M 186.54 254.54
  Q 186.04 253.39 186.19 252.64"
/>
<path stroke="#18a5a5" vector-effect="non-scaling-stroke" d="
  M 149.67 259.55
  L 149.75 261.81"
/>
</g>
<path fill="#ff5b62" d="
  M 204.61 0.00
  L 222.53 0.00
  Q 274.54 3.23 313.39 35.12
  C 358.77 72.39 380.55 131.22 368.76 189.10
  Q 358.76 238.22 322.25 273.12
  Q 314.14 231.30 305.85 189.30
  C 305.13 185.66 303.93 183.81 300.50 182.69
  Q 282.45 176.79 264.27 171.11
  Q 256.40 163.72 245.46 163.22
  Q 244.93 163.20 244.61 163.46
  Q 244.30 163.71 243.97 164.11
  L 235.66 154.00
  L 235.10 146.87
  Q 235.06 146.36 235.42 146.01
  C 240.15 141.36 244.94 138.04 246.24 130.98
  Q 247.46 124.36 248.41 115.36
  Q 248.48 114.75 249.04 115.00
  Q 251.16 115.99 253.32 115.16
  A 1.37 1.36 -88.2 0 0 254.05 114.47
  Q 258.68 104.31 258.44 93.99
  Q 258.32 89.04 253.21 89.52
  C 254.77 78.94 257.58 51.20 241.07 49.73
  Q 240.57 49.69 240.43 49.22
  Q 236.72 37.37 224.23 35.69
  C 201.13 32.59 169.39 45.45 171.49 73.49
  Q 172.36 85.08 172.23 89.35
  Q 167.54 91.18 169.10 100.00
  Q 170.38 107.24 171.99 112.06
  C 173.04 115.19 174.76 116.56 178.02 115.03
  A 0.48 0.48 0.0 0 1 178.70 115.41
  C 179.52 121.89 179.78 129.38 182.39 135.37
  C 184.17 139.48 188.15 142.45 191.42 145.58
  Q 191.80 145.94 191.78 146.46
  L 191.49 153.90
  L 183.55 163.18
  Q 168.50 163.01 158.66 172.45
  Q 142.70 177.35 127.40 182.42
  C 124.64 183.34 122.30 184.72 121.75 187.49
  Q 113.41 229.95 104.75 273.04
  Q 53.64 222.82 55.43 152.21
  C 57.49 71.24 123.90 4.23 204.61 0.00
  Z"
/>
<path fill="#666666" d="
  M 253.21 89.52
  Q 249.89 91.81 249.24 95.69
  Q 249.13 96.36 248.45 96.39
  L 246.33 96.47
  Q 245.65 96.50 245.82 95.85
  C 247.37 89.91 242.97 86.96 242.32 81.47
  C 241.76 76.66 242.48 72.18 242.20 67.46
  C 241.30 52.28 227.83 65.76 224.45 69.80
  C 219.03 76.26 213.44 77.86 205.00 79.43
  Q 195.46 81.20 181.72 80.64
  Q 181.21 80.61 181.18 81.13
  Q 180.76 88.83 178.62 96.27
  A 1.48 1.48 0.0 0 1 175.73 95.64
  Q 176.25 92.19 172.23 89.35
  Q 172.36 85.08 171.49 73.49
  C 169.39 45.45 201.13 32.59 224.23 35.69
  Q 236.72 37.37 240.43 49.22
  Q 240.57 49.69 241.07 49.73
  C 257.58 51.20 254.77 78.94 253.21 89.52
  Z"
/>
<path fill="#fed298" d="
  M 253.21 89.52
  Q 258.32 89.04 258.44 93.99
  Q 258.68 104.31 254.05 114.47
  A 1.37 1.36 -88.2 0 1 253.32 115.16
  Q 251.16 115.99 249.04 115.00
  Q 248.48 114.75 248.41 115.36
  Q 247.46 124.36 246.24 130.98
  C 244.94 138.04 240.15 141.36 235.42 146.01
  Q 235.06 146.36 235.10 146.87
  L 235.66 154.00
  L 216.46 177.29
  L 210.91 177.42
  L 191.49 153.90
  L 191.78 146.46
  Q 191.80 145.94 191.42 145.58
  C 188.15 142.45 184.17 139.48 182.39 135.37
  C 179.78 129.38 179.52 121.89 178.70 115.41
  A 0.48 0.48 0.0 0 0 178.02 115.03
  C 174.76 116.56 173.04 115.19 171.99 112.06
  Q 170.38 107.24 169.10 100.00
  Q 167.54 91.18 172.23 89.35
  Q 176.25 92.19 175.73 95.64
  A 1.48 1.48 0.0 0 0 178.62 96.27
  Q 180.76 88.83 181.18 81.13
  Q 181.21 80.61 181.72 80.64
  Q 195.46 81.20 205.00 79.43
  C 213.44 77.86 219.03 76.26 224.45 69.80
  C 227.83 65.76 241.30 52.28 242.20 67.46
  C 242.48 72.18 241.76 76.66 242.32 81.47
  C 242.97 86.96 247.37 89.91 245.82 95.85
  Q 245.65 96.50 246.33 96.47
  L 248.45 96.39
  Q 249.13 96.36 249.24 95.69
  Q 249.89 91.81 253.21 89.52
  Z"
/>
<path fill="#21d0c3" d="
  M 191.49 153.90
  L 210.91 177.42
  L 207.35 181.25
  L 194.14 195.07
  A 0.46 0.46 0.0 0 1 193.37 194.90
  L 186.42 174.91
  A 0.53 0.53 0.0 0 0 185.52 174.74
  Q 185.21 175.09 185.46 175.45
  L 183.31 165.76
  Q 182.10 165.22 183.55 163.18
  L 191.49 153.90
  Z"
/>
<path fill="#21d0c3" d="
  M 235.66 154.00
  L 243.97 164.11
  Q 244.64 164.69 244.00 165.96
  L 241.93 175.07
  L 241.88 174.77
  A 0.63 0.62 50.5 0 0 240.68 174.65
  L 233.13 195.12
  A 0.57 0.56 -55.6 0 1 232.18 195.30
  L 219.81 181.28
  L 216.46 177.29
  L 235.66 154.00
  Z"
/>
<path fill="#4d4d4d" d="
  M 183.55 163.18
  Q 182.10 165.22 183.31 165.76
  L 175.51 167.10
  C 162.81 169.50 154.50 178.67 157.20 191.48
  Q 157.83 194.48 158.58 197.39
  A 0.75 0.74 78.1 0 0 159.42 197.94
  Q 167.46 196.70 175.34 199.32
  Q 189.47 204.70 190.62 220.59
  Q 188.84 220.49 188.21 221.20
  Q 187.43 221.16 187.33 220.45
  Q 184.68 201.34 165.06 201.00
  C 154.53 200.81 142.49 205.69 138.17 215.67
  Q 136.40 219.73 136.92 223.49
  Q 137.71 229.28 137.59 231.12
  L 135.06 231.35
  Q 129.59 215.84 141.24 205.76
  Q 146.52 201.19 154.49 198.99
  Q 155.02 198.85 154.91 198.31
  C 154.13 194.48 153.85 189.61 153.84 186.42
  Q 153.82 179.05 158.66 172.45
  Q 168.50 163.01 183.55 163.18
  Z"
/>
<path fill="#4d4d4d" d="
  M 264.27 171.11
  C 277.71 186.21 277.72 209.34 274.98 228.12
  Q 274.90 228.69 274.33 228.64
  L 272.69 228.48
  Q 272.02 228.42 272.13 227.75
  C 275.32 207.50 275.47 172.44 248.94 166.63
  L 244.00 165.96
  Q 244.64 164.69 243.97 164.11
  Q 244.30 163.71 244.61 163.46
  Q 244.93 163.20 245.46 163.22
  Q 256.40 163.72 264.27 171.11
  Z"
/>
<path fill="#eef3f7" d="
  M 183.31 165.76
  L 185.46 175.45
  L 204.17 262.09
  L 212.40 300.01
  L 210.16 297.97
  Q 209.82 297.66 209.63 297.24
  L 190.09 253.70
  Q 196.02 250.43 194.91 244.76
  Q 192.56 232.86 190.28 220.98
  Q 190.19 220.50 190.62 220.59
  Q 189.47 204.70 175.34 199.32
  Q 177.79 198.68 179.86 196.97
  Q 180.21 196.68 179.76 196.66
  L 170.32 196.26
  Q 169.80 196.24 169.32 196.41
  C 167.40 197.09 165.47 196.16 163.86 196.14
  Q 162.53 196.12 161.09 196.02
  A 1.38 1.37 -73.0 0 1 160.00 193.96
  L 175.51 167.10
  L 183.31 165.76
  Z"
/>
<path fill="#ffffff" d="
  M 244.00 165.96
  L 248.94 166.63
  L 267.46 194.87
  A 0.84 0.84 0.0 0 1 266.78 196.17
  L 247.25 196.69
  A 0.37 0.37 0.0 0 0 247.08 197.39
  L 259.14 204.15
  Q 259.62 204.42 259.39 204.92
  L 216.30 299.67
  Q 216.09 300.12 215.60 300.14
  L 214.86 300.17
  L 222.64 263.63
  L 241.93 175.07
  L 244.00 165.96
  Z"
/>
<path fill="#eef3f7" d="
  M 248.94 166.63
  C 275.47 172.44 275.32 207.50 272.13 227.75
  Q 272.02 228.42 272.69 228.48
  L 274.33 228.64
  Q 274.90 228.69 274.98 228.12
  C 277.72 209.34 277.71 186.21 264.27 171.11
  Q 282.45 176.79 300.50 182.69
  C 303.93 183.81 305.13 185.66 305.85 189.30
  Q 314.14 231.30 322.25 273.12
  Q 304.84 289.52 284.13 299.80
  L 275.63 272.41
  A 0.54 0.54 0.0 0 0 274.57 272.55
  L 273.37 304.61
  Q 250.33 314.22 225.13 316.00
  L 213.44 316.00
  L 213.23 304.78
  Q 214.49 303.29 214.86 300.17
  L 215.60 300.14
  Q 216.09 300.12 216.30 299.67
  L 259.39 204.92
  Q 259.62 204.42 259.14 204.15
  L 247.08 197.39
  A 0.37 0.37 0.0 0 1 247.25 196.69
  L 266.78 196.17
  A 0.84 0.84 0.0 0 0 267.46 194.87
  L 248.94 166.63
  Z
  M 271.79 230.78
  Q 266.51 231.02 263.57 234.34
  C 256.84 241.95 263.80 254.30 273.55 251.90
  C 283.93 249.35 285.22 235.93 275.31 231.66
  Q 274.83 231.45 274.61 231.92
  L 274.19 232.78
  Q 274.73 230.89 274.54 229.74
  A 1.33 1.32 -46.0 0 0 271.92 229.79
  L 271.79 230.78
  Z
  M 222.63 308.07
  A 2.86 2.86 0.0 0 0 219.77 305.21
  A 2.86 2.86 0.0 0 0 216.91 308.07
  A 2.86 2.86 0.0 0 0 219.77 310.93
  A 2.86 2.86 0.0 0 0 222.63 308.07
  Z"
/>
<path fill="#ffffff" d="
  M 175.51 167.10
  L 160.00 193.96
  A 1.38 1.37 -73.0 0 0 161.09 196.02
  Q 162.53 196.12 163.86 196.14
  C 165.47 196.16 167.40 197.09 169.32 196.41
  Q 169.80 196.24 170.32 196.26
  L 179.76 196.66
  Q 180.21 196.68 179.86 196.97
  Q 177.79 198.68 175.34 199.32
  Q 167.46 196.70 159.42 197.94
  A 0.75 0.74 78.1 0 1 158.58 197.39
  Q 157.83 194.48 157.20 191.48
  C 154.50 178.67 162.81 169.50 175.51 167.10
  Z"
/>
<path fill="#ffffff" d="
  M 158.66 172.45
  Q 153.82 179.05 153.84 186.42
  C 153.85 189.61 154.13 194.48 154.91 198.31
  Q 155.02 198.85 154.49 198.99
  Q 146.52 201.19 141.24 205.76
  Q 129.59 215.84 135.06 231.35
  Q 137.46 241.06 140.11 254.65
  Q 141.62 262.36 149.75 261.81
  L 155.00 262.42
  Q 155.46 262.47 155.90 262.32
  C 160.71 260.66 156.12 253.94 152.89 257.80
  Q 152.58 258.18 152.14 258.39
  L 149.67 259.55
  Q 143.49 260.76 142.21 254.75
  Q 140.63 247.30 137.59 231.12
  Q 137.71 229.28 136.92 223.49
  Q 136.40 219.73 138.17 215.67
  C 142.49 205.69 154.53 200.81 165.06 201.00
  L 168.66 201.72
  A 0.49 0.49 0.0 0 1 168.99 202.43
  L 168.01 204.24
  Q 167.74 204.74 167.97 205.25
  L 189.03 251.74
  L 186.19 252.64
  Q 185.15 251.98 183.41 252.57
  A 0.98 0.96 54.0 0 1 182.52 252.42
  C 178.28 249.07 175.51 257.61 181.19 257.28
  A 1.37 1.35 -66.2 0 0 182.02 256.95
  Q 183.96 255.28 186.54 254.54
  L 190.09 253.70
  L 209.63 297.24
  Q 209.82 297.66 210.16 297.97
  L 212.40 300.01
  L 213.23 304.78
  L 213.44 316.00
  L 201.99 316.00
  Q 176.90 314.19 153.78 304.60
  Q 153.35 288.64 152.62 273.00
  Q 152.59 272.33 152.07 272.23
  A 0.60 0.59 -76.1 0 0 151.40 272.64
  L 143.07 299.83
  Q 121.81 289.16 104.75 273.04
  Q 113.41 229.95 121.75 187.49
  C 122.30 184.72 124.64 183.34 127.40 182.42
  Q 142.70 177.35 158.66 172.45
  Z"
/>
<path fill="#15bdb2" d="
  M 241.93 175.07
  L 222.64 263.63
  L 216.58 183.31
  Q 216.54 182.79 217.02 182.57
  L 219.81 181.28
  L 232.18 195.30
  A 0.57 0.56 -55.6 0 0 233.13 195.12
  L 240.68 174.65
  A 0.63 0.62 50.5 0 1 241.88 174.77
  L 241.93 175.07
  Z"
/>
<path fill="#15bdb2" d="
  M 207.35 181.25
  L 210.29 182.58
  Q 210.76 182.79 210.72 183.30
  Q 206.36 239.83 205.07 259.75
  Q 204.95 261.58 204.17 262.09
  L 185.46 175.45
  Q 185.21 175.09 185.52 174.74
  A 0.53 0.53 0.0 0 1 186.42 174.91
  L 193.37 194.90
  A 0.46 0.46 0.0 0 0 194.14 195.07
  L 207.35 181.25
  Z"
/>
<path fill="#0f7986" d="
  M 210.91 177.42
  L 216.46 177.29
  L 219.81 181.28
  L 217.02 182.57
  Q 216.54 182.79 216.58 183.31
  L 222.64 263.63
  L 214.86 300.17
  Q 214.49 303.29 213.23 304.78
  L 212.40 300.01
  L 204.17 262.09
  Q 204.95 261.58 205.07 259.75
  Q 206.36 239.83 210.72 183.30
  Q 210.76 182.79 210.29 182.58
  L 207.35 181.25
  L 210.91 177.42
  Z"
/>
<path fill="#eef3f7" d="
  M 165.06 201.00
  Q 184.68 201.34 187.33 220.45
  Q 187.43 221.16 188.21 221.20
  Q 190.60 232.84 192.76 244.50
  Q 193.82 250.23 189.03 251.74
  L 167.97 205.25
  Q 167.74 204.74 168.01 204.24
  L 168.99 202.43
  A 0.49 0.49 0.0 0 0 168.66 201.72
  L 165.06 201.00
  Z"
/>
<path fill="#21d0c3" d="
  M 190.62 220.59
  Q 190.19 220.50 190.28 220.98
  Q 192.56 232.86 194.91 244.76
  Q 196.02 250.43 190.09 253.70
  L 186.54 254.54
  Q 186.04 253.39 186.19 252.64
  L 189.03 251.74
  Q 193.82 250.23 192.76 244.50
  Q 190.60 232.84 188.21 221.20
  Q 188.84 220.49 190.62 220.59
  Z"
/>
<path fill="#ffffff" d="
  M 274.19 232.78
  L 273.87 235.61
  Q 273.81 236.11 274.24 236.39
  C 282.93 242.14 270.86 252.94 266.04 244.23
  C 264.17 240.86 266.59 236.41 270.63 235.75
  A 0.70 0.70 0.0 0 0 271.22 235.15
  L 271.79 230.78
  L 271.92 229.79
  A 1.33 1.32 -46.0 0 1 274.54 229.74
  Q 274.73 230.89 274.19 232.78
  Z"
/>
<path fill="#0f7986" d="
  M 271.79 230.78
  L 271.22 235.15
  A 0.70 0.70 0.0 0 1 270.63 235.75
  C 266.59 236.41 264.17 240.86 266.04 244.23
  C 270.86 252.94 282.93 242.14 274.24 236.39
  Q 273.81 236.11 273.87 235.61
  L 274.19 232.78
  L 274.61 231.92
  Q 274.83 231.45 275.31 231.66
  C 285.22 235.93 283.93 249.35 273.55 251.90
  C 263.80 254.30 256.84 241.95 263.57 234.34
  Q 266.51 231.02 271.79 230.78
  Z"
/>
<path fill="#21d0c3" d="
  M 137.59 231.12
  Q 140.63 247.30 142.21 254.75
  Q 143.49 260.76 149.67 259.55
  L 149.75 261.81
  Q 141.62 262.36 140.11 254.65
  Q 137.46 241.06 135.06 231.35
  L 137.59 231.12
  Z"
/>
<path fill="#0f7986" d="
  M 186.19 252.64
  Q 186.04 253.39 186.54 254.54
  Q 183.96 255.28 182.02 256.95
  A 1.37 1.35 -66.2 0 1 181.19 257.28
  C 175.51 257.61 178.28 249.07 182.52 252.42
  A 0.98 0.96 54.0 0 0 183.41 252.57
  Q 185.15 251.98 186.19 252.64
  Z"
/>
<path fill="#0f7986" d="
  M 149.75 261.81
  L 149.67 259.55
  L 152.14 258.39
  Q 152.58 258.18 152.89 257.80
  C 156.12 253.94 160.71 260.66 155.90 262.32
  Q 155.46 262.47 155.00 262.42
  L 149.75 261.81
  Z"
/>
<path fill="#ff5b62" d="
  M 284.13 299.80
  L 273.37 304.61
  L 274.57 272.55
  A 0.54 0.54 0.0 0 1 275.63 272.41
  L 284.13 299.80
  Z"
/>
<path fill="#ff5b62" d="
  M 153.78 304.60
  L 143.07 299.83
  L 151.40 272.64
  A 0.60 0.59 -76.1 0 1 152.07 272.23
  Q 152.59 272.33 152.62 273.00
  Q 153.35 288.64 153.78 304.60
  Z"
/>
<circle fill="#ffffff" cx="219.77" cy="308.07" r="2.86"/>
</svg>
