<?xml version="1.0" encoding="UTF-8" standalone="no"?>
<!DOCTYPE svg PUBLIC "-//W3C//DTD SVG 1.1//EN" "http://www.w3.org/Graphics/SVG/1.1/DTD/svg11.dtd">
<svg xmlns="http://www.w3.org/2000/svg" version="1.1" viewBox="0.00 0.00 32.00 32.00">
<path fill="#0f8d82" d="
  M 14.12 0.00
  L 17.99 0.00
  Q 29.83 2.47 32.00 14.37
  L 32.00 17.75
  Q 29.69 29.78 17.66 32.00
  L 14.03 32.00
  Q 2.29 29.51 0.00 17.89
  L 0.00 14.02
  Q 2.39 2.27 14.12 0.00
  Z
  M 30.52 16.00
  A 14.52 14.52 0.0 0 0 16.00 1.48
  A 14.52 14.52 0.0 0 0 1.48 16.00
  A 14.52 14.52 0.0 0 0 16.00 30.52
  A 14.52 14.52 0.0 0 0 30.52 16.00
  Z"
/>
<circle fill="#0f8d82" cx="17.58" cy="9.86" r="1.92"/>
<path fill="#0f8d82" d="
  M 14.15 14.91
  L 12.82 14.94
  A 0.45 0.45 0.0 0 1 12.69 14.05
  Q 16.01 13.15 17.41 14.13
  Q 18.55 14.93 17.85 17.59
  Q 17.30 19.66 16.81 21.71
  A 0.61 0.61 0.0 0 0 17.37 22.45
  L 19.00 22.55
  Q 19.66 22.59 19.15 23.00
  Q 17.00 24.72 14.73 23.74
  C 12.16 22.63 14.68 17.70 14.76 15.53
  Q 14.78 14.90 14.15 14.91
  Z"
/>
</svg>
