<?xml version="1.0" encoding="UTF-8" standalone="no"?>
<!DOCTYPE svg PUBLIC "-//W3C//DTD SVG 1.1//EN" "http://www.w3.org/Graphics/SVG/1.1/DTD/svg11.dtd">
<svg xmlns="http://www.w3.org/2000/svg" version="1.1" viewBox="0.00 0.00 32.00 32.00">
<path fill="#08938a" fill-opacity="0.996" d="
  M 32.00 1.64
  L 32.00 19.76
  L 10.57 20.00
  A 0.43 0.42 -26.3 0 0 10.31 20.76
  L 14.94 24.34
  A 0.54 0.54 0.0 0 0 15.68 24.26
  L 17.69 21.87
  A 0.95 0.95 0.0 0 1 18.94 21.68
  L 24.11 25.10
  Q 25.61 26.09 24.79 27.69
  C 22.27 32.56 18.24 31.65 14.10 29.35
  Q 3.96 23.75 0.00 12.80
  L 0.00 9.99
  Q 1.18 7.04 4.66 6.12
  A 0.82 0.81 64.8 0 1 5.54 6.44
  L 6.28 7.48
  A 0.38 0.37 -62.8 0 0 6.96 7.26
  L 6.96 2.46
  A 1.67 1.66 -0.0 0 1 8.63 0.80
  Q 19.40 0.78 30.50 0.79
  Q 31.33 0.79 32.00 1.64
  Z
  M 9.33 13.50
  L 7.31 15.23
  Q 6.87 15.61 7.03 16.17
  C 7.58 18.11 8.59 19.00 10.73 18.99
  Q 20.67 18.95 30.46 18.97
  A 0.51 0.50 -89.4 0 0 30.97 18.46
  L 30.97 2.52
  Q 30.97 1.81 30.27 1.81
  L 8.58 1.83
  Q 7.99 1.83 7.99 2.42
  L 8.00 9.29
  Q 8.00 9.80 8.25 10.24
  L 9.51 12.39
  Q 9.88 13.02 9.33 13.50
  Z
  M 15.08 25.47
  Q 8.99 22.16 5.71 16.08
  A 0.74 0.73 -35.2 0 1 5.87 15.18
  L 8.09 13.17
  A 0.79 0.78 -38.2 0 0 8.22 12.15
  L 5.25 7.73
  Q 4.96 7.30 4.45 7.41
  C -0.16 8.38 0.67 12.86 2.46 16.07
  Q 7.37 24.86 16.30 29.43
  Q 21.75 32.23 23.91 26.85
  Q 24.10 26.37 23.67 26.08
  L 18.95 22.90
  A 0.65 0.65 0.0 0 0 18.09 23.01
  L 16.13 25.28
  A 0.85 0.85 0.0 0 1 15.08 25.47
  Z"
/>
<path fill="#08938a" fill-opacity="0.996" d="
  M 19.96 9.91
  Q 24.17 7.07 28.06 3.81
  Q 28.67 3.29 29.26 3.31
  A 0.42 0.42 0.0 0 1 29.50 4.07
  L 20.37 11.01
  A 1.45 1.45 0.0 0 1 18.61 11.01
  L 9.46 4.07
  A 0.44 0.43 -33.6 0 1 9.62 3.30
  Q 10.13 3.18 10.78 3.71
  Q 14.75 7.01 19.02 9.91
  Q 19.49 10.23 19.96 9.91
  Z"
/>
<rect fill="#08938a" fill-opacity="0.996" x="-0.52" y="-4.42" transform="translate(12.58,14.20) rotate(42.9)" width="1.04" height="8.84" rx="0.50"/>
<rect fill="#08938a" fill-opacity="0.996" x="-0.52" y="-4.42" transform="translate(26.40,14.22) rotate(-43.0)" width="1.04" height="8.84" rx="0.49"/>
</svg>
