<?xml version="1.0" encoding="UTF-8" standalone="no"?>
<!DOCTYPE svg PUBLIC "-//W3C//DTD SVG 1.1//EN" "http://www.w3.org/Graphics/SVG/1.1/DTD/svg11.dtd">
<svg xmlns="http://www.w3.org/2000/svg" version="1.1" viewBox="0.00 0.00 40.00 40.00">
<g stroke-width="2.00" fill="none" stroke-linecap="butt">
<path stroke="#0a7f73" stroke-opacity="0.569" vector-effect="non-scaling-stroke" d="
  M 36.22 16.13
  L 27.27 25.09
  Q 26.91 25.44 26.48 25.18
  L 25.39 24.50
  A 0.59 0.58 -51.4 0 1 25.29 23.59
  L 31.02 17.80
  A 0.33 0.32 22.5 0 0 30.79 17.25
  L 15.13 17.20"
/>
<path stroke="#0a7f73" stroke-opacity="0.569" vector-effect="non-scaling-stroke" d="
  M 19.80 2.81
  L 7.65 2.77
  A 0.95 0.95 0.0 0 0 6.70 3.74
  L 6.96 27.98"
/>
<path stroke="#0a7f73" stroke-opacity="0.569" vector-effect="non-scaling-stroke" d="
  M 13.58 32.02
  L 6.21 31.79
  A 0.96 0.95 -13.3 0 1 5.41 31.30
  L 4.00 28.72"
/>
</g>
<path fill="#0b9082" d="
  M 7.64 0.00
  L 20.06 0.00
  Q 22.64 1.37 19.80 2.81
  L 7.65 2.77
  A 0.95 0.95 0.0 0 0 6.70 3.74
  L 6.96 27.98
  Q 6.39 28.48 7.10 29.02
  Q 7.43 29.27 7.95 29.26
  Q 14.09 29.21 20.23 29.29
  A 0.74 0.73 -6.7 0 1 20.93 29.84
  L 21.26 31.08
  A 0.57 0.56 81.9 0 1 20.73 31.79
  L 13.58 32.02
  L 6.21 31.79
  A 0.96 0.95 -13.3 0 1 5.41 31.30
  L 4.00 28.72
  Q 3.89 16.51 4.10 4.70
  C 4.14 2.05 5.10 0.58 7.64 0.00
  Z"
/>
<path fill="#010101" fill-opacity="0.133" d="
  M 19.80 2.81
  Q 20.04 3.97 20.89 4.45
  A 1.64 1.63 -30.7 0 1 20.11 7.50
  Q 15.55 7.61 10.36 7.86
  Q 9.03 7.93 8.19 9.54
  Q 7.68 10.50 7.73 12.06
  Q 7.99 19.98 6.96 27.98
  L 6.70 3.74
  A 0.95 0.95 0.0 0 1 7.65 2.77
  L 19.80 2.81
  Z"
/>
<path fill="#0b9082" d="
  M 36.22 16.13
  L 27.27 25.09
  Q 26.91 25.44 26.48 25.18
  L 25.39 24.50
  A 0.59 0.58 -51.4 0 1 25.29 23.59
  L 31.02 17.80
  A 0.33 0.32 22.5 0 0 30.79 17.25
  L 15.13 17.20
  Q 14.29 15.86 15.09 15.01
  Q 15.38 14.70 15.81 14.70
  L 30.77 14.77
  A 0.34 0.34 0.0 0 0 31.01 14.19
  L 25.63 8.80
  A 1.12 1.11 39.5 0 1 25.49 7.39
  Q 26.28 6.24 27.36 7.17
  Q 32.33 11.45 36.22 16.13
  Z"
/>
<path fill="#010101" fill-opacity="0.133" d="
  M 36.22 16.13
  Q 37.30 17.66 37.47 18.90
  Q 37.54 19.43 37.20 19.84
  Q 33.91 23.82 29.66 26.61
  A 2.83 2.73 63.9 0 1 25.54 25.11
  Q 25.32 24.50 24.26 23.81
  C 22.78 22.84 17.81 23.14 15.85 23.00
  A 1.59 1.55 65.4 0 1 14.97 22.66
  Q 12.05 20.29 15.13 17.20
  L 30.79 17.25
  A 0.33 0.32 22.5 0 1 31.02 17.80
  L 25.29 23.59
  A 0.59 0.58 -51.4 0 0 25.39 24.50
  L 26.48 25.18
  Q 26.91 25.44 27.27 25.09
  L 36.22 16.13
  Z"
/>
<path fill="#010101" fill-opacity="0.133" d="
  M 4.00 28.72
  L 5.41 31.30
  A 0.96 0.95 -13.3 0 0 6.21 31.79
  L 13.58 32.02
  Q 3.63 34.39 4.00 28.72
  Z"
/>
</svg>
