<?xml version="1.0" encoding="UTF-8" standalone="no"?>
<!DOCTYPE svg PUBLIC "-//W3C//DTD SVG 1.1//EN" "http://www.w3.org/Graphics/SVG/1.1/DTD/svg11.dtd">
<svg xmlns="http://www.w3.org/2000/svg" version="1.1" viewBox="0.00 0.00 58.00 68.00">
<g stroke-width="2.00" fill="none" stroke-linecap="butt">
<path stroke="#fcfcfc" stroke-opacity="0.506" vector-effect="non-scaling-stroke" d="
  M 0.74 0.41
  A 0.26 0.26 0.0 0 0 0.48 0.15
  L 0.46 0.15
  A 0.26 0.26 0.0 0 0 0.20 0.41
  L 0.20 67.59
  A 0.26 0.26 0.0 0 0 0.46 67.85
  L 0.48 67.85
  A 0.26 0.26 0.0 0 0 0.74 67.59
  L 0.74 0.41"
/>
<path stroke="#fcfcfc" stroke-opacity="0.506" vector-effect="non-scaling-stroke" d="
  M 57.74 0.40
  A 0.26 0.26 0.0 0 0 57.48 0.14
  L 57.46 0.14
  A 0.26 0.26 0.0 0 0 57.20 0.40
  L 57.20 67.60
  A 0.26 0.26 0.0 0 0 57.46 67.86
  L 57.48 67.86
  A 0.26 0.26 0.0 0 0 57.74 67.60
  L 57.74 0.40"
/>
<path stroke="#809ab4" vector-effect="non-scaling-stroke" d="
  M 43.61 28.49
  L 43.63 12.62
  A 2.45 2.45 0.0 0 0 41.18 10.16
  L 16.64 10.11
  A 2.25 2.24 -89.9 0 0 14.39 12.36
  L 14.38 22.43
  Q 14.38 23.00 13.82 23.00
  L 7.00 23.00
  A 3.50 3.50 0.0 0 0 3.50 26.50
  L 3.50 54.69
  A 3.20 3.19 89.9 0 0 6.69 57.88
  L 45.22 57.85
  A 3.44 3.43 11.3 0 0 48.39 55.74
  Q 51.02 49.50 53.63 42.59
  C 54.16 41.16 55.01 40.07 54.04 38.54
  A 1.28 1.28 0.0 0 0 52.98 37.95
  L 48.47 37.85
  Q 47.94 37.84 47.92 37.31
  C 47.79 33.81 48.88 29.75 44.06 29.01
  Q 43.61 28.95 43.61 28.49"
/>
<path stroke="#718ba5" vector-effect="non-scaling-stroke" d="
  M 41.9883 12.3173
  A 0.60 0.60 0.0 0 0 41.3872 11.7184
  L 16.5673 11.7617
  A 0.60 0.60 0.0 0 0 15.9683 12.3627
  L 16.0117 37.2227
  A 0.60 0.60 0.0 0 0 16.6128 37.8216
  L 41.4327 37.7783
  A 0.60 0.60 0.0 0 0 42.0317 37.1773
  L 41.9883 12.3173"
/>
<path stroke="#376f86" vector-effect="non-scaling-stroke" d="
  M 5.69 51.32
  Q 8.40 44.66 10.38 39.66
  Q 11.00 38.08 13.79 37.92
  Q 14.43 37.89 14.43 37.25
  L 14.45 25.23
  A 0.71 0.71 0.0 0 0 13.73 24.52
  L 6.99 24.62
  A 1.87 1.87 0.0 0 0 5.14 26.50
  L 5.19 51.23
  Q 5.19 52.54 5.69 51.32"
/>
<path stroke="#376f86" vector-effect="non-scaling-stroke" d="
  M 44.28 30.51
  A 0.53 0.53 0.0 0 0 43.56 31.01
  L 43.56 37.25
  Q 43.56 37.94 44.25 37.93
  L 45.69 37.89
  Q 46.26 37.88 46.28 37.30
  C 46.34 35.02 47.11 31.57 44.28 30.51"
/>
<path stroke="#418097" vector-effect="non-scaling-stroke" d="
  M 6.24 56.19
  L 44.31 56.20
  Q 46.56 56.20 47.39 54.11
  L 52.89 40.20
  A 0.51 0.51 0.0 0 0 52.41 39.50
  L 13.46 39.50
  A 1.99 1.99 0.0 0 0 11.61 40.75
  L 5.76 55.48
  A 0.52 0.52 0.0 0 0 6.24 56.19"
/>
<path stroke="#718ba5" vector-effect="non-scaling-stroke" d="
  M 38.49 18.65
  A 0.77 0.77 0.0 0 0 37.72 17.88
  L 20.28 17.88
  A 0.77 0.77 0.0 0 0 19.51 18.65
  L 19.51 18.73
  A 0.77 0.77 0.0 0 0 20.28 19.50
  L 37.72 19.50
  A 0.77 0.77 0.0 0 0 38.49 18.73
  L 38.49 18.65"
/>
<path stroke="#718ba5" vector-effect="non-scaling-stroke" d="
  M 38.47 24.67
  A 0.72 0.72 0.0 0 0 37.75 23.95
  L 20.21 23.95
  A 0.72 0.72 0.0 0 0 19.49 24.67
  L 19.49 24.81
  A 0.72 0.72 0.0 0 0 20.21 25.53
  L 37.75 25.53
  A 0.72 0.72 0.0 0 0 38.47 24.81
  L 38.47 24.67"
/>
<path stroke="#718ba5" vector-effect="non-scaling-stroke" d="
  M 38.45 30.68
  A 0.70 0.70 0.0 0 0 37.75 29.98
  L 20.19 29.98
  A 0.70 0.70 0.0 0 0 19.49 30.68
  L 19.49 30.86
  A 0.70 0.70 0.0 0 0 20.19 31.56
  L 37.75 31.56
  A 0.70 0.70 0.0 0 0 38.45 30.86
  L 38.45 30.68"
/>
</g>
<path fill="#ffffff" d="
  M 0.00 0.00
  L 58.00 0.00
  L 58.00 68.00
  L 0.00 68.00
  L 0.00 0.00
  Z
  M 0.74 0.41
  A 0.26 0.26 0.0 0 0 0.48 0.15
  L 0.46 0.15
  A 0.26 0.26 0.0 0 0 0.20 0.41
  L 0.20 67.59
  A 0.26 0.26 0.0 0 0 0.46 67.85
  L 0.48 67.85
  A 0.26 0.26 0.0 0 0 0.74 67.59
  L 0.74 0.41
  Z
  M 57.74 0.40
  A 0.26 0.26 0.0 0 0 57.48 0.14
  L 57.46 0.14
  A 0.26 0.26 0.0 0 0 57.20 0.40
  L 57.20 67.60
  A 0.26 0.26 0.0 0 0 57.46 67.86
  L 57.48 67.86
  A 0.26 0.26 0.0 0 0 57.74 67.60
  L 57.74 0.40
  Z
  M 43.61 28.49
  L 43.63 12.62
  A 2.45 2.45 0.0 0 0 41.18 10.16
  L 16.64 10.11
  A 2.25 2.24 -89.9 0 0 14.39 12.36
  L 14.38 22.43
  Q 14.38 23.00 13.82 23.00
  L 7.00 23.00
  A 3.50 3.50 0.0 0 0 3.50 26.50
  L 3.50 54.69
  A 3.20 3.19 89.9 0 0 6.69 57.88
  L 45.22 57.85
  A 3.44 3.43 11.3 0 0 48.39 55.74
  Q 51.02 49.50 53.63 42.59
  C 54.16 41.16 55.01 40.07 54.04 38.54
  A 1.28 1.28 0.0 0 0 52.98 37.95
  L 48.47 37.85
  Q 47.94 37.84 47.92 37.31
  C 47.79 33.81 48.88 29.75 44.06 29.01
  Q 43.61 28.95 43.61 28.49
  Z"
/>
<rect fill="#050709" fill-opacity="0.012" x="0.20" y="0.15" width="0.54" height="67.70" rx="0.26"/>
<rect fill="#050709" fill-opacity="0.012" x="57.20" y="0.14" width="0.54" height="67.72" rx="0.26"/>
<path fill="#013569" d="
  M 44.06 29.01
  C 48.88 29.75 47.79 33.81 47.92 37.31
  Q 47.94 37.84 48.47 37.85
  L 52.98 37.95
  A 1.28 1.28 0.0 0 1 54.04 38.54
  C 55.01 40.07 54.16 41.16 53.63 42.59
  Q 51.02 49.50 48.39 55.74
  A 3.44 3.43 11.3 0 1 45.22 57.85
  L 6.69 57.88
  A 3.20 3.19 89.9 0 1 3.50 54.69
  L 3.50 26.50
  A 3.50 3.50 0.0 0 1 7.00 23.00
  L 13.82 23.00
  Q 14.38 23.00 14.38 22.43
  L 14.39 12.36
  A 2.25 2.24 -89.9 0 1 16.64 10.11
  L 41.18 10.16
  A 2.45 2.45 0.0 0 1 43.63 12.62
  L 43.61 28.49
  Q 43.61 28.95 44.06 29.01
  Z
  M 41.9883 12.3173
  A 0.60 0.60 0.0 0 0 41.3872 11.7184
  L 16.5673 11.7617
  A 0.60 0.60 0.0 0 0 15.9683 12.3627
  L 16.0117 37.2227
  A 0.60 0.60 0.0 0 0 16.6128 37.8216
  L 41.4327 37.7783
  A 0.60 0.60 0.0 0 0 42.0317 37.1773
  L 41.9883 12.3173
  Z
  M 5.69 51.32
  Q 8.40 44.66 10.38 39.66
  Q 11.00 38.08 13.79 37.92
  Q 14.43 37.89 14.43 37.25
  L 14.45 25.23
  A 0.71 0.71 0.0 0 0 13.73 24.52
  L 6.99 24.62
  A 1.87 1.87 0.0 0 0 5.14 26.50
  L 5.19 51.23
  Q 5.19 52.54 5.69 51.32
  Z
  M 44.28 30.51
  A 0.53 0.53 0.0 0 0 43.56 31.01
  L 43.56 37.25
  Q 43.56 37.94 44.25 37.93
  L 45.69 37.89
  Q 46.26 37.88 46.28 37.30
  C 46.34 35.02 47.11 31.57 44.28 30.51
  Z
  M 6.24 56.19
  L 44.31 56.20
  Q 46.56 56.20 47.39 54.11
  L 52.89 40.20
  A 0.51 0.51 0.0 0 0 52.41 39.50
  L 13.46 39.50
  A 1.99 1.99 0.0 0 0 11.61 40.75
  L 5.76 55.48
  A 0.52 0.52 0.0 0 0 6.24 56.19
  Z"
/>
<path fill="#e0e0e0" d="
  M 42.0317 37.1773
  A 0.60 0.60 0.0 0 1 41.4327 37.7783
  L 16.6128 37.8216
  A 0.60 0.60 0.0 0 1 16.0117 37.2227
  L 15.9683 12.3627
  A 0.60 0.60 0.0 0 1 16.5673 11.7617
  L 41.3872 11.7184
  A 0.60 0.60 0.0 0 1 41.9883 12.3173
  L 42.0317 37.1773
  Z
  M 38.49 18.65
  A 0.77 0.77 0.0 0 0 37.72 17.88
  L 20.28 17.88
  A 0.77 0.77 0.0 0 0 19.51 18.65
  L 19.51 18.73
  A 0.77 0.77 0.0 0 0 20.28 19.50
  L 37.72 19.50
  A 0.77 0.77 0.0 0 0 38.49 18.73
  L 38.49 18.65
  Z
  M 38.47 24.67
  A 0.72 0.72 0.0 0 0 37.75 23.95
  L 20.21 23.95
  A 0.72 0.72 0.0 0 0 19.49 24.67
  L 19.49 24.81
  A 0.72 0.72 0.0 0 0 20.21 25.53
  L 37.75 25.53
  A 0.72 0.72 0.0 0 0 38.47 24.81
  L 38.47 24.67
  Z
  M 38.45 30.68
  A 0.70 0.70 0.0 0 0 37.75 29.98
  L 20.19 29.98
  A 0.70 0.70 0.0 0 0 19.49 30.68
  L 19.49 30.86
  A 0.70 0.70 0.0 0 0 20.19 31.56
  L 37.75 31.56
  A 0.70 0.70 0.0 0 0 38.45 30.86
  L 38.45 30.68
  Z"
/>
<rect fill="#013569" x="19.51" y="17.88" width="18.98" height="1.62" rx="0.77"/>
<rect fill="#013569" x="19.49" y="23.95" width="18.98" height="1.58" rx="0.72"/>
<path fill="#6ca9a2" d="
  M 5.69 51.32
  Q 5.19 52.54 5.19 51.23
  L 5.14 26.50
  A 1.87 1.87 0.0 0 1 6.99 24.62
  L 13.73 24.52
  A 0.71 0.71 0.0 0 1 14.45 25.23
  L 14.43 37.25
  Q 14.43 37.89 13.79 37.92
  Q 11.00 38.08 10.38 39.66
  Q 8.40 44.66 5.69 51.32
  Z"
/>
<rect fill="#013569" x="19.49" y="29.98" width="18.96" height="1.58" rx="0.70"/>
<path fill="#6ca9a2" d="
  M 44.28 30.51
  C 47.11 31.57 46.34 35.02 46.28 37.30
  Q 46.26 37.88 45.69 37.89
  L 44.25 37.93
  Q 43.56 37.94 43.56 37.25
  L 43.56 31.01
  A 0.53 0.53 0.0 0 1 44.28 30.51
  Z"
/>
<path fill="#80cbc4" d="
  M 44.31 56.20
  L 6.24 56.19
  A 0.52 0.52 0.0 0 1 5.76 55.48
  L 11.61 40.75
  A 1.99 1.99 0.0 0 1 13.46 39.50
  L 52.41 39.50
  A 0.51 0.51 0.0 0 1 52.89 40.20
  L 47.39 54.11
  Q 46.56 56.20 44.31 56.20
  Z"
/>
</svg>
