<?xml version="1.0" encoding="UTF-8" standalone="no"?>
<!DOCTYPE svg PUBLIC "-//W3C//DTD SVG 1.1//EN" "http://www.w3.org/Graphics/SVG/1.1/DTD/svg11.dtd">
<svg xmlns="http://www.w3.org/2000/svg" version="1.1" viewBox="0.00 0.00 322.00 316.00">
<g stroke-width="2.00" fill="none" stroke-linecap="butt">
<path stroke="#6fa38b" vector-effect="non-scaling-stroke" d="
  M 127.71 64.08
  Q 112.93 64.24 98.25 64.00
  C 92.22 63.90 90.72 68.07 90.71 73.50
  Q 90.65 94.72 90.68 116.25
  A 0.97 0.97 0.0 0 1 89.71 117.22
  Q 81.20 117.18 72.36 117.21
  C 67.41 117.23 64.26 119.42 64.26 124.50
  Q 64.25 186.38 64.25 248.24
  C 64.25 253.35 65.38 258.31 71.24 258.28
  Q 98.22 258.15 125.61 258.48"
/>
<path stroke="#669a82" vector-effect="non-scaling-stroke" d="
  M 125.61 258.48
  Q 125.18 260.74 126.18 262.76
  A 0.97 0.96 76.4 0 0 127.04 263.29
  L 146.03 263.51"
/>
<path stroke="#9ed5b2" vector-effect="non-scaling-stroke" d="
  M 146.03 263.51
  L 175.06 263.45"
/>
<path stroke="#669a82" vector-effect="non-scaling-stroke" d="
  M 175.06 263.45
  L 195.12 263.28
  A 1.73 1.73 0.0 0 0 196.83 261.68
  L 197.10 258.25"
/>
<path stroke="#6da086" vector-effect="non-scaling-stroke" d="
  M 197.10 258.25
  Q 222.31 258.13 247.12 258.19
  C 253.51 258.21 258.19 257.73 258.20 250.25
  Q 258.27 189.63 258.25 129.01
  C 258.25 124.09 258.27 117.26 252.00 117.25
  Q 242.13 117.22 232.57 117.25
  A 0.77 0.77 0.0 0 1 231.79 116.47
  Q 231.84 94.10 231.77 71.93
  C 231.75 66.30 228.83 64.20 223.27 64.16
  Q 208.90 64.05 194.62 64.14"
/>
<path stroke="#9ed5b2" vector-effect="non-scaling-stroke" d="
  M 194.62 64.14
  Q 190.36 44.62 173.42 38.02
  C 152.85 29.99 131.64 42.76 127.71 64.08"
/>
<path stroke="#c0b8a2" vector-effect="non-scaling-stroke" d="
  M 194.62 64.14
  Q 196.25 76.81 189.99 86.75
  Q 179.95 102.69 160.81 103.19"
/>
<path stroke="#c2bba7" vector-effect="non-scaling-stroke" d="
  M 160.81 103.19
  C 139.72 102.30 125.11 84.98 127.71 64.08"
/>
<path stroke="#91867b" vector-effect="non-scaling-stroke" d="
  M 160.81 103.19
  L 160.93 140.03"
/>
<path stroke="#c2bba7" vector-effect="non-scaling-stroke" d="
  M 160.93 140.03
  L 147.10 140.03
  A 2.76 2.75 90.0 0 0 144.35 142.79
  L 144.35 157.73
  Q 144.35 160.88 147.51 160.88
  L 162.70 160.85"
/>
<path stroke="#91867b" vector-effect="non-scaling-stroke" d="
  M 162.70 160.85
  L 161.51 161.24
  Q 161.00 161.41 161.00 161.96
  L 160.97 178.96"
/>
<path stroke="#c2bba7" vector-effect="non-scaling-stroke" d="
  M 160.97 178.96
  L 146.86 178.99
  A 2.50 2.50 0.0 0 0 144.36 181.49
  L 144.35 196.48
  Q 144.34 199.83 147.69 199.83
  L 160.60 199.83"
/>
<path stroke="#91867b" vector-effect="non-scaling-stroke" d="
  M 160.60 199.83
  Q 161.43 205.50 160.73 211.57"
/>
<path stroke="#8b8177" vector-effect="non-scaling-stroke" d="
  M 160.73 211.57
  L 128.20 211.57
  A 2.64 2.64 0.0 0 0 125.56 214.21
  L 125.61 258.48"
/>
<path stroke="#897e72" vector-effect="non-scaling-stroke" d="
  M 197.10 258.25
  L 197.06 214.88
  Q 197.06 211.53 193.72 211.54
  L 160.73 211.57"
/>
<path stroke="#c0b8a2" vector-effect="non-scaling-stroke" d="
  M 160.60 199.83
  L 175.74 199.81
  A 2.79 2.79 0.0 0 0 178.52 197.02
  L 178.52 181.52
  A 2.55 2.55 0.0 0 0 175.97 178.97
  L 160.97 178.96"
/>
<path stroke="#c0b8a2" vector-effect="non-scaling-stroke" d="
  M 162.70 160.85
  L 175.98 160.81
  A 2.54 2.54 0.0 0 0 178.52 158.27
  L 178.52 142.77
  A 2.76 2.75 90.0 0 0 175.77 140.01
  L 160.93 140.03"
/>
<path stroke="#bab39d" vector-effect="non-scaling-stroke" d="
  M 175.06 263.45
  L 175.04 224.76
  A 3.79 3.79 0.0 0 0 171.28 220.97
  L 150.00 220.80
  A 3.94 3.94 0.0 0 0 146.03 224.74
  L 146.03 263.51"
/>
<path stroke="#e4877a" vector-effect="non-scaling-stroke" d="
  M 153.65 62.30
  Q 147.58 62.46 141.50 62.29
  Q 137.59 62.18 136.74 65.23
  C 136.18 67.25 135.65 76.22 140.01 76.25
  Q 146.76 76.31 153.67 76.32
  Q 154.20 76.32 154.20 76.86
  Q 154.29 82.70 154.23 88.51
  C 154.21 91.15 155.06 93.79 157.99 93.79
  C 161.83 93.80 168.24 95.17 168.05 88.98
  Q 167.91 84.53 168.08 76.89
  Q 168.09 76.38 168.60 76.37
  Q 175.05 76.25 181.49 76.08
  C 186.65 75.94 186.00 69.96 185.52 66.24
  C 185.15 63.35 183.18 62.19 180.49 62.25
  Q 174.59 62.40 168.61 62.33
  A 0.56 0.56 0.0 0 1 168.05 61.77
  L 168.04 48.53
  A 3.73 3.73 0.0 0 0 164.57 44.82
  C 161.32 44.60 154.13 43.58 154.20 49.01
  Q 154.30 55.37 154.21 61.74
  Q 154.20 62.29 153.65 62.30"
/>
<path stroke="#c2bba7" vector-effect="non-scaling-stroke" d="
  M 119.63 142.98
  A 2.95 2.95 0.0 0 0 116.68 140.03
  L 88.30 140.03
  A 2.95 2.95 0.0 0 0 85.35 142.98
  L 85.35 157.92
  A 2.95 2.95 0.0 0 0 88.30 160.87
  L 116.68 160.87
  A 2.95 2.95 0.0 0 0 119.63 157.92
  L 119.63 142.98"
/>
<path stroke="#c2bba7" vector-effect="non-scaling-stroke" d="
  M 119.63 181.90
  A 2.94 2.94 0.0 0 0 116.69 178.96
  L 88.29 178.96
  A 2.94 2.94 0.0 0 0 85.35 181.90
  L 85.35 196.88
  A 2.94 2.94 0.0 0 0 88.29 199.82
  L 116.69 199.82
  A 2.94 2.94 0.0 0 0 119.63 196.88
  L 119.63 181.90"
/>
<path stroke="#c0b8a2" vector-effect="non-scaling-stroke" d="
  M 235.2733 142.8598
  A 2.81 2.81 0.0 0 0 232.4682 140.0449
  L 203.9082 139.9951
  A 2.81 2.81 0.0 0 0 201.0933 142.8002
  L 201.0667 158.0402
  A 2.81 2.81 0.0 0 0 203.8718 160.8551
  L 232.4318 160.9049
  A 2.81 2.81 0.0 0 0 235.2467 158.0998
  L 235.2733 142.8598"
/>
<path stroke="#c0b8a2" vector-effect="non-scaling-stroke" d="
  M 235.27 181.75
  A 2.79 2.79 0.0 0 0 232.48 178.96
  L 203.88 178.96
  A 2.79 2.79 0.0 0 0 201.09 181.75
  L 201.09 197.03
  A 2.79 2.79 0.0 0 0 203.88 199.82
  L 232.48 199.82
  A 2.79 2.79 0.0 0 0 235.27 197.03
  L 235.27 181.75"
/>
</g>
<path fill="#4abc96" d="
  M 156.91 0.00
  L 165.71 0.00
  Q 210.09 1.73 246.26 24.79
  Q 285.75 49.98 305.52 93.64
  Q 317.12 119.26 318.84 143.50
  Q 319.23 149.01 319.06 163.00
  Q 318.92 174.31 317.67 182.40
  Q 311.00 225.50 283.88 258.38
  Q 242.46 308.61 175.86 316.00
  L 146.52 316.00
  Q 79.17 308.38 37.88 257.37
  Q 7.73 220.12 3.64 171.23
  C -3.96 80.39 66.31 3.46 156.91 0.00
  Z
  M 127.71 64.08
  Q 112.93 64.24 98.25 64.00
  C 92.22 63.90 90.72 68.07 90.71 73.50
  Q 90.65 94.72 90.68 116.25
  A 0.97 0.97 0.0 0 1 89.71 117.22
  Q 81.20 117.18 72.36 117.21
  C 67.41 117.23 64.26 119.42 64.26 124.50
  Q 64.25 186.38 64.25 248.24
  C 64.25 253.35 65.38 258.31 71.24 258.28
  Q 98.22 258.15 125.61 258.48
  Q 125.18 260.74 126.18 262.76
  A 0.97 0.96 76.4 0 0 127.04 263.29
  L 146.03 263.51
  L 175.06 263.45
  L 195.12 263.28
  A 1.73 1.73 0.0 0 0 196.83 261.68
  L 197.10 258.25
  Q 222.31 258.13 247.12 258.19
  C 253.51 258.21 258.19 257.73 258.20 250.25
  Q 258.27 189.63 258.25 129.01
  C 258.25 124.09 258.27 117.26 252.00 117.25
  Q 242.13 117.22 232.57 117.25
  A 0.77 0.77 0.0 0 1 231.79 116.47
  Q 231.84 94.10 231.77 71.93
  C 231.75 66.30 228.83 64.20 223.27 64.16
  Q 208.90 64.05 194.62 64.14
  Q 190.36 44.62 173.42 38.02
  C 152.85 29.99 131.64 42.76 127.71 64.08
  Z"
/>
<path fill="#f1edcd" d="
  M 194.62 64.14
  Q 196.25 76.81 189.99 86.75
  Q 179.95 102.69 160.81 103.19
  C 139.72 102.30 125.11 84.98 127.71 64.08
  C 131.64 42.76 152.85 29.99 173.42 38.02
  Q 190.36 44.62 194.62 64.14
  Z
  M 153.65 62.30
  Q 147.58 62.46 141.50 62.29
  Q 137.59 62.18 136.74 65.23
  C 136.18 67.25 135.65 76.22 140.01 76.25
  Q 146.76 76.31 153.67 76.32
  Q 154.20 76.32 154.20 76.86
  Q 154.29 82.70 154.23 88.51
  C 154.21 91.15 155.06 93.79 157.99 93.79
  C 161.83 93.80 168.24 95.17 168.05 88.98
  Q 167.91 84.53 168.08 76.89
  Q 168.09 76.38 168.60 76.37
  Q 175.05 76.25 181.49 76.08
  C 186.65 75.94 186.00 69.96 185.52 66.24
  C 185.15 63.35 183.18 62.19 180.49 62.25
  Q 174.59 62.40 168.61 62.33
  A 0.56 0.56 0.0 0 1 168.05 61.77
  L 168.04 48.53
  A 3.73 3.73 0.0 0 0 164.57 44.82
  C 161.32 44.60 154.13 43.58 154.20 49.01
  Q 154.30 55.37 154.21 61.74
  Q 154.20 62.29 153.65 62.30
  Z"
/>
<path fill="#d62127" d="
  M 154.21 61.74
  Q 154.30 55.37 154.20 49.01
  C 154.13 43.58 161.32 44.60 164.57 44.82
  A 3.73 3.73 0.0 0 1 168.04 48.53
  L 168.05 61.77
  A 0.56 0.56 0.0 0 0 168.61 62.33
  Q 174.59 62.40 180.49 62.25
  C 183.18 62.19 185.15 63.35 185.52 66.24
  C 186.00 69.96 186.65 75.94 181.49 76.08
  Q 175.05 76.25 168.60 76.37
  Q 168.09 76.38 168.08 76.89
  Q 167.91 84.53 168.05 88.98
  C 168.24 95.17 161.83 93.80 157.99 93.79
  C 155.06 93.79 154.21 91.15 154.23 88.51
  Q 154.29 82.70 154.20 76.86
  Q 154.20 76.32 153.67 76.32
  Q 146.76 76.31 140.01 76.25
  C 135.65 76.22 136.18 67.25 136.74 65.23
  Q 137.59 62.18 141.50 62.29
  Q 147.58 62.46 153.65 62.30
  Q 154.20 62.29 154.21 61.74
  Z"
/>
<path fill="#938980" d="
  M 127.71 64.08
  C 125.11 84.98 139.72 102.30 160.81 103.19
  L 160.93 140.03
  L 147.10 140.03
  A 2.76 2.75 90.0 0 0 144.35 142.79
  L 144.35 157.73
  Q 144.35 160.88 147.51 160.88
  L 162.70 160.85
  L 161.51 161.24
  Q 161.00 161.41 161.00 161.96
  L 160.97 178.96
  L 146.86 178.99
  A 2.50 2.50 0.0 0 0 144.36 181.49
  L 144.35 196.48
  Q 144.34 199.83 147.69 199.83
  L 160.60 199.83
  Q 161.43 205.50 160.73 211.57
  L 128.20 211.57
  A 2.64 2.64 0.0 0 0 125.56 214.21
  L 125.61 258.48
  Q 98.22 258.15 71.24 258.28
  C 65.38 258.31 64.25 253.35 64.25 248.24
  Q 64.25 186.38 64.26 124.50
  C 64.26 119.42 67.41 117.23 72.36 117.21
  Q 81.20 117.18 89.71 117.22
  A 0.97 0.97 0.0 0 0 90.68 116.25
  Q 90.65 94.72 90.71 73.50
  C 90.72 68.07 92.22 63.90 98.25 64.00
  Q 112.93 64.24 127.71 64.08
  Z
  M 119.63 142.98
  A 2.95 2.95 0.0 0 0 116.68 140.03
  L 88.30 140.03
  A 2.95 2.95 0.0 0 0 85.35 142.98
  L 85.35 157.92
  A 2.95 2.95 0.0 0 0 88.30 160.87
  L 116.68 160.87
  A 2.95 2.95 0.0 0 0 119.63 157.92
  L 119.63 142.98
  Z
  M 119.63 181.90
  A 2.94 2.94 0.0 0 0 116.69 178.96
  L 88.29 178.96
  A 2.94 2.94 0.0 0 0 85.35 181.90
  L 85.35 196.88
  A 2.94 2.94 0.0 0 0 88.29 199.82
  L 116.69 199.82
  A 2.94 2.94 0.0 0 0 119.63 196.88
  L 119.63 181.90
  Z"
/>
<path fill="#8f8376" d="
  M 197.10 258.25
  L 197.06 214.88
  Q 197.06 211.53 193.72 211.54
  L 160.73 211.57
  Q 161.43 205.50 160.60 199.83
  L 175.74 199.81
  A 2.79 2.79 0.0 0 0 178.52 197.02
  L 178.52 181.52
  A 2.55 2.55 0.0 0 0 175.97 178.97
  L 160.97 178.96
  L 161.00 161.96
  Q 161.00 161.41 161.51 161.24
  L 162.70 160.85
  L 175.98 160.81
  A 2.54 2.54 0.0 0 0 178.52 158.27
  L 178.52 142.77
  A 2.76 2.75 90.0 0 0 175.77 140.01
  L 160.93 140.03
  L 160.81 103.19
  Q 179.95 102.69 189.99 86.75
  Q 196.25 76.81 194.62 64.14
  Q 208.90 64.05 223.27 64.16
  C 228.83 64.20 231.75 66.30 231.77 71.93
  Q 231.84 94.10 231.79 116.47
  A 0.77 0.77 0.0 0 0 232.57 117.25
  Q 242.13 117.22 252.00 117.25
  C 258.27 117.26 258.25 124.09 258.25 129.01
  Q 258.27 189.63 258.20 250.25
  C 258.19 257.73 253.51 258.21 247.12 258.19
  Q 222.31 258.13 197.10 258.25
  Z
  M 235.2733 142.8598
  A 2.81 2.81 0.0 0 0 232.4682 140.0449
  L 203.9082 139.9951
  A 2.81 2.81 0.0 0 0 201.0933 142.8002
  L 201.0667 158.0402
  A 2.81 2.81 0.0 0 0 203.8718 160.8551
  L 232.4318 160.9049
  A 2.81 2.81 0.0 0 0 235.2467 158.0998
  L 235.2733 142.8598
  Z
  M 235.27 181.75
  A 2.79 2.79 0.0 0 0 232.48 178.96
  L 203.88 178.96
  A 2.79 2.79 0.0 0 0 201.09 181.75
  L 201.09 197.03
  A 2.79 2.79 0.0 0 0 203.88 199.82
  L 232.48 199.82
  A 2.79 2.79 0.0 0 0 235.27 197.03
  L 235.27 181.75
  Z"
/>
<rect fill="#f1edcd" x="85.35" y="140.03" width="34.28" height="20.84" rx="2.95"/>
<path fill="#f1edcd" d="
  M 160.93 140.03
  L 175.77 140.01
  A 2.76 2.75 90.0 0 1 178.52 142.77
  L 178.52 158.27
  A 2.54 2.54 0.0 0 1 175.98 160.81
  L 162.70 160.85
  L 147.51 160.88
  Q 144.35 160.88 144.35 157.73
  L 144.35 142.79
  A 2.76 2.75 90.0 0 1 147.10 140.03
  L 160.93 140.03
  Z"
/>
<rect fill="#f1edcd" x="-17.09" y="-10.43" transform="translate(218.17,150.45) rotate(0.1)" width="34.18" height="20.86" rx="2.81"/>
<rect fill="#f1edcd" x="85.35" y="178.96" width="34.28" height="20.86" rx="2.94"/>
<path fill="#f1edcd" d="
  M 160.97 178.96
  L 175.97 178.97
  A 2.55 2.55 0.0 0 1 178.52 181.52
  L 178.52 197.02
  A 2.79 2.79 0.0 0 1 175.74 199.81
  L 160.60 199.83
  L 147.69 199.83
  Q 144.34 199.83 144.35 196.48
  L 144.36 181.49
  A 2.50 2.50 0.0 0 1 146.86 178.99
  L 160.97 178.96
  Z"
/>
<rect fill="#f1edcd" x="201.09" y="178.96" width="34.18" height="20.86" rx="2.79"/>
<path fill="#82786d" d="
  M 160.73 211.57
  L 193.72 211.54
  Q 197.06 211.53 197.06 214.88
  L 197.10 258.25
  L 196.83 261.68
  A 1.73 1.73 0.0 0 1 195.12 263.28
  L 175.06 263.45
  L 175.04 224.76
  A 3.79 3.79 0.0 0 0 171.28 220.97
  L 150.00 220.80
  A 3.94 3.94 0.0 0 0 146.03 224.74
  L 146.03 263.51
  L 127.04 263.29
  A 0.97 0.96 76.4 0 1 126.18 262.76
  Q 125.18 260.74 125.61 258.48
  L 125.56 214.21
  A 2.64 2.64 0.0 0 1 128.20 211.57
  L 160.73 211.57
  Z"
/>
<path fill="#f1edcd" d="
  M 175.06 263.45
  L 146.03 263.51
  L 146.03 224.74
  A 3.94 3.94 0.0 0 1 150.00 220.80
  L 171.28 220.97
  A 3.79 3.79 0.0 0 1 175.04 224.76
  L 175.06 263.45
  Z"
/>
</svg>
