<?xml version="1.0" encoding="UTF-8" standalone="no"?>
<!DOCTYPE svg PUBLIC "-//W3C//DTD SVG 1.1//EN" "http://www.w3.org/Graphics/SVG/1.1/DTD/svg11.dtd">
<svg xmlns="http://www.w3.org/2000/svg" version="1.1" viewBox="0.00 0.00 412.00 336.00">
<g stroke-width="2.00" fill="none" stroke-linecap="butt">
<path stroke="#de948c" vector-effect="non-scaling-stroke" d="
  M 273.58 68.77
  C 272.27 66.07 273.69 63.01 273.39 60.78
  C 272.74 56.09 268.84 55.67 264.58 55.67
  Q 183.49 55.84 149.99 55.72
  Q 143.99 55.70 144.30 61.16
  C 144.62 66.81 144.40 72.59 144.34 78.26
  C 144.28 83.55 142.15 86.42 137.47 88.72
  Q 129.39 92.70 130.32 102.76
  C 130.47 104.45 128.76 105.82 127.04 106.12
  Q 120.41 107.31 117.89 108.67
  Q 108.72 113.63 108.72 123.51
  Q 108.72 192.41 108.50 261.32
  C 108.48 267.08 109.12 271.81 115.74 272.03
  C 126.45 272.40 141.60 271.75 153.75 271.80
  Q 242.30 272.19 285.25 271.89
  Q 295.53 271.81 300.36 264.47
  Q 302.59 261.07 304.37 251.58
  Q 312.29 209.51 319.78 167.38
  C 321.66 156.77 320.87 147.56 309.58 143.89
  Q 304.86 142.36 303.95 141.59
  Q 301.17 139.25 301.52 134.99
  Q 302.07 128.38 301.69 122.67
  C 301.23 115.84 299.21 112.97 293.43 109.86
  C 288.06 106.95 287.33 101.41 287.34 95.17
  Q 287.37 85.58 287.56 76.01
  C 287.71 68.49 280.81 70.19 276.00 70.26
  A 2.66 2.66 0.0 0 1 273.58 68.77"
/>
<path stroke="#de948c" vector-effect="non-scaling-stroke" d="
  M 158.56 77.50
  C 158.44 70.19 163.07 70.00 168.82 70.04
  Q 216.52 70.34 264.24 70.06
  Q 264.77 70.06 265.05 69.62
  Q 267.16 66.40 264.95 63.41
  Q 264.62 62.97 264.07 62.97
  Q 210.53 63.13 157.00 62.70
  Q 151.51 62.66 151.57 68.26
  Q 151.92 99.05 151.60 140.38
  A 1.11 1.10 -70.7 0 0 152.01 141.24
  Q 154.51 143.24 157.44 141.76
  C 159.93 140.51 158.52 136.90 158.55 135.25
  Q 159.04 106.37 158.56 77.50"
/>
<path stroke="#de948c" vector-effect="non-scaling-stroke" d="
  M 280.14 81.32
  A 3.95 3.95 0.0 0 0 276.19 77.37
  L 169.93 77.37
  A 3.95 3.95 0.0 0 0 165.98 81.32
  L 165.98 138.20
  A 3.95 3.95 0.0 0 0 169.93 142.15
  L 276.19 142.15
  A 3.95 3.95 0.0 0 0 280.14 138.20
  L 280.14 81.32"
/>
<path stroke="#de948c" vector-effect="non-scaling-stroke" d="
  M 128.29 157.55
  C 129.45 150.65 134.05 145.20 140.67 143.10
  C 142.28 142.59 144.53 141.25 144.51 139.72
  Q 144.09 117.05 144.43 94.31
  Q 144.44 93.75 143.92 93.95
  Q 140.47 95.27 138.65 98.25
  C 136.01 102.55 139.82 113.14 132.49 113.53
  C 121.73 114.10 115.82 114.46 115.86 126.75
  Q 115.99 173.06 115.92 219.13
  A 0.17 0.17 0.0 0 0 116.25 219.16
  Q 123.04 188.50 128.29 157.55"
/>
<path stroke="#de948c" vector-effect="non-scaling-stroke" d="
  M 294.15 141.37
  C 297.24 134.43 293.29 120.71 288.11 115.50
  A 0.37 0.37 0.0 0 0 287.48 115.76
  L 287.49 140.36
  A 1.95 1.94 -3.2 0 0 289.65 142.29
  L 293.48 141.86
  A 0.85 0.83 -80.4 0 0 294.15 141.37"
/>
<path stroke="#de948c" vector-effect="non-scaling-stroke" d="
  M 147.57 149.47
  C 141.53 149.47 136.81 152.32 135.66 158.58
  Q 125.96 211.29 116.97 263.21
  Q 116.74 264.49 118.04 264.49
  Q 201.15 264.48 281.94 264.58
  C 290.41 264.59 294.98 262.29 296.57 253.63
  Q 304.64 209.53 312.77 165.42
  C 315.12 152.70 309.83 149.49 297.67 149.48
  Q 222.63 149.44 147.57 149.47"
/>
<path stroke="#de948c" vector-effect="non-scaling-stroke" d="
  M 272.76 87.74
  A 3.22 3.22 0.0 0 0 269.54 84.52
  L 176.52 84.52
  A 3.22 3.22 0.0 0 0 173.30 87.74
  L 173.30 88.56
  A 3.22 3.22 0.0 0 0 176.52 91.78
  L 269.54 91.78
  A 3.22 3.22 0.0 0 0 272.76 88.56
  L 272.76 87.74"
/>
<path stroke="#de948c" vector-effect="non-scaling-stroke" d="
  M 272.76 102.20
  A 3.25 3.25 0.0 0 0 269.51 98.95
  L 176.55 98.95
  A 3.25 3.25 0.0 0 0 173.30 102.20
  L 173.30 102.98
  A 3.25 3.25 0.0 0 0 176.55 106.23
  L 269.51 106.23
  A 3.25 3.25 0.0 0 0 272.76 102.98
  L 272.76 102.20"
/>
<path stroke="#de948c" vector-effect="non-scaling-stroke" d="
  M 272.75 116.61
  A 3.28 3.28 0.0 0 0 269.47 113.33
  L 176.57 113.33
  A 3.28 3.28 0.0 0 0 173.29 116.61
  L 173.29 117.35
  A 3.28 3.28 0.0 0 0 176.57 120.63
  L 269.47 120.63
  A 3.28 3.28 0.0 0 0 272.75 117.35
  L 272.75 116.61"
/>
<path stroke="#de948c" vector-effect="non-scaling-stroke" d="
  M 272.69 130.76
  A 3.00 3.00 0.0 0 0 269.69 127.76
  L 176.41 127.76
  A 3.00 3.00 0.0 0 0 173.41 130.76
  L 173.41 132.02
  A 3.00 3.00 0.0 0 0 176.41 135.02
  L 269.69 135.02
  A 3.00 3.00 0.0 0 0 272.69 132.02
  L 272.69 130.76"
/>
</g>
<path fill="#bc2818" d="
  M 358.79 171.07
  A 152.71 152.71 0.0 0 1 206.08 323.78
  A 152.71 152.71 0.0 0 1 53.37 171.07
  A 152.71 152.71 0.0 0 1 206.08 18.36
  A 152.71 152.71 0.0 0 1 358.79 171.07
  Z
  M 273.58 68.77
  C 272.27 66.07 273.69 63.01 273.39 60.78
  C 272.74 56.09 268.84 55.67 264.58 55.67
  Q 183.49 55.84 149.99 55.72
  Q 143.99 55.70 144.30 61.16
  C 144.62 66.81 144.40 72.59 144.34 78.26
  C 144.28 83.55 142.15 86.42 137.47 88.72
  Q 129.39 92.70 130.32 102.76
  C 130.47 104.45 128.76 105.82 127.04 106.12
  Q 120.41 107.31 117.89 108.67
  Q 108.72 113.63 108.72 123.51
  Q 108.72 192.41 108.50 261.32
  C 108.48 267.08 109.12 271.81 115.74 272.03
  C 126.45 272.40 141.60 271.75 153.75 271.80
  Q 242.30 272.19 285.25 271.89
  Q 295.53 271.81 300.36 264.47
  Q 302.59 261.07 304.37 251.58
  Q 312.29 209.51 319.78 167.38
  C 321.66 156.77 320.87 147.56 309.58 143.89
  Q 304.86 142.36 303.95 141.59
  Q 301.17 139.25 301.52 134.99
  Q 302.07 128.38 301.69 122.67
  C 301.23 115.84 299.21 112.97 293.43 109.86
  C 288.06 106.95 287.33 101.41 287.34 95.17
  Q 287.37 85.58 287.56 76.01
  C 287.71 68.49 280.81 70.19 276.00 70.26
  A 2.66 2.66 0.0 0 1 273.58 68.77
  Z"
/>
<path fill="#ffffff" d="
  M 273.58 68.77
  A 2.66 2.66 0.0 0 0 276.00 70.26
  C 280.81 70.19 287.71 68.49 287.56 76.01
  Q 287.37 85.58 287.34 95.17
  C 287.33 101.41 288.06 106.95 293.43 109.86
  C 299.21 112.97 301.23 115.84 301.69 122.67
  Q 302.07 128.38 301.52 134.99
  Q 301.17 139.25 303.95 141.59
  Q 304.86 142.36 309.58 143.89
  C 320.87 147.56 321.66 156.77 319.78 167.38
  Q 312.29 209.51 304.37 251.58
  Q 302.59 261.07 300.36 264.47
  Q 295.53 271.81 285.25 271.89
  Q 242.30 272.19 153.75 271.80
  C 141.60 271.75 126.45 272.40 115.74 272.03
  C 109.12 271.81 108.48 267.08 108.50 261.32
  Q 108.72 192.41 108.72 123.51
  Q 108.72 113.63 117.89 108.67
  Q 120.41 107.31 127.04 106.12
  C 128.76 105.82 130.47 104.45 130.32 102.76
  Q 129.39 92.70 137.47 88.72
  C 142.15 86.42 144.28 83.55 144.34 78.26
  C 144.40 72.59 144.62 66.81 144.30 61.16
  Q 143.99 55.70 149.99 55.72
  Q 183.49 55.84 264.58 55.67
  C 268.84 55.67 272.74 56.09 273.39 60.78
  C 273.69 63.01 272.27 66.07 273.58 68.77
  Z
  M 158.56 77.50
  C 158.44 70.19 163.07 70.00 168.82 70.04
  Q 216.52 70.34 264.24 70.06
  Q 264.77 70.06 265.05 69.62
  Q 267.16 66.40 264.95 63.41
  Q 264.62 62.97 264.07 62.97
  Q 210.53 63.13 157.00 62.70
  Q 151.51 62.66 151.57 68.26
  Q 151.92 99.05 151.60 140.38
  A 1.11 1.10 -70.7 0 0 152.01 141.24
  Q 154.51 143.24 157.44 141.76
  C 159.93 140.51 158.52 136.90 158.55 135.25
  Q 159.04 106.37 158.56 77.50
  Z
  M 280.14 81.32
  A 3.95 3.95 0.0 0 0 276.19 77.37
  L 169.93 77.37
  A 3.95 3.95 0.0 0 0 165.98 81.32
  L 165.98 138.20
  A 3.95 3.95 0.0 0 0 169.93 142.15
  L 276.19 142.15
  A 3.95 3.95 0.0 0 0 280.14 138.20
  L 280.14 81.32
  Z
  M 128.29 157.55
  C 129.45 150.65 134.05 145.20 140.67 143.10
  C 142.28 142.59 144.53 141.25 144.51 139.72
  Q 144.09 117.05 144.43 94.31
  Q 144.44 93.75 143.92 93.95
  Q 140.47 95.27 138.65 98.25
  C 136.01 102.55 139.82 113.14 132.49 113.53
  C 121.73 114.10 115.82 114.46 115.86 126.75
  Q 115.99 173.06 115.92 219.13
  A 0.17 0.17 0.0 0 0 116.25 219.16
  Q 123.04 188.50 128.29 157.55
  Z
  M 294.15 141.37
  C 297.24 134.43 293.29 120.71 288.11 115.50
  A 0.37 0.37 0.0 0 0 287.48 115.76
  L 287.49 140.36
  A 1.95 1.94 -3.2 0 0 289.65 142.29
  L 293.48 141.86
  A 0.85 0.83 -80.4 0 0 294.15 141.37
  Z
  M 147.57 149.47
  C 141.53 149.47 136.81 152.32 135.66 158.58
  Q 125.96 211.29 116.97 263.21
  Q 116.74 264.49 118.04 264.49
  Q 201.15 264.48 281.94 264.58
  C 290.41 264.59 294.98 262.29 296.57 253.63
  Q 304.64 209.53 312.77 165.42
  C 315.12 152.70 309.83 149.49 297.67 149.48
  Q 222.63 149.44 147.57 149.47
  Z"
/>
<path fill="#bc2818" d="
  M 168.82 70.04
  C 163.07 70.00 158.44 70.19 158.56 77.50
  Q 159.04 106.37 158.55 135.25
  C 158.52 136.90 159.93 140.51 157.44 141.76
  Q 154.51 143.24 152.01 141.24
  A 1.11 1.10 -70.7 0 1 151.60 140.38
  Q 151.92 99.05 151.57 68.26
  Q 151.51 62.66 157.00 62.70
  Q 210.53 63.13 264.07 62.97
  Q 264.62 62.97 264.95 63.41
  Q 267.16 66.40 265.05 69.62
  Q 264.77 70.06 264.24 70.06
  Q 216.52 70.34 168.82 70.04
  Z"
/>
<path fill="#bc2818" d="
  M 280.14 138.20
  A 3.95 3.95 0.0 0 1 276.19 142.15
  L 169.93 142.15
  A 3.95 3.95 0.0 0 1 165.98 138.20
  L 165.98 81.32
  A 3.95 3.95 0.0 0 1 169.93 77.37
  L 276.19 77.37
  A 3.95 3.95 0.0 0 1 280.14 81.32
  L 280.14 138.20
  Z
  M 272.76 87.74
  A 3.22 3.22 0.0 0 0 269.54 84.52
  L 176.52 84.52
  A 3.22 3.22 0.0 0 0 173.30 87.74
  L 173.30 88.56
  A 3.22 3.22 0.0 0 0 176.52 91.78
  L 269.54 91.78
  A 3.22 3.22 0.0 0 0 272.76 88.56
  L 272.76 87.74
  Z
  M 272.76 102.20
  A 3.25 3.25 0.0 0 0 269.51 98.95
  L 176.55 98.95
  A 3.25 3.25 0.0 0 0 173.30 102.20
  L 173.30 102.98
  A 3.25 3.25 0.0 0 0 176.55 106.23
  L 269.51 106.23
  A 3.25 3.25 0.0 0 0 272.76 102.98
  L 272.76 102.20
  Z
  M 272.75 116.61
  A 3.28 3.28 0.0 0 0 269.47 113.33
  L 176.57 113.33
  A 3.28 3.28 0.0 0 0 173.29 116.61
  L 173.29 117.35
  A 3.28 3.28 0.0 0 0 176.57 120.63
  L 269.47 120.63
  A 3.28 3.28 0.0 0 0 272.75 117.35
  L 272.75 116.61
  Z
  M 272.69 130.76
  A 3.00 3.00 0.0 0 0 269.69 127.76
  L 176.41 127.76
  A 3.00 3.00 0.0 0 0 173.41 130.76
  L 173.41 132.02
  A 3.00 3.00 0.0 0 0 176.41 135.02
  L 269.69 135.02
  A 3.00 3.00 0.0 0 0 272.69 132.02
  L 272.69 130.76
  Z"
/>
<rect fill="#ffffff" x="173.30" y="84.52" width="99.46" height="7.26" rx="3.22"/>
<path fill="#bc2818" d="
  M 140.67 143.10
  C 134.05 145.20 129.45 150.65 128.29 157.55
  Q 123.04 188.50 116.25 219.16
  A 0.17 0.17 0.0 0 1 115.92 219.13
  Q 115.99 173.06 115.86 126.75
  C 115.82 114.46 121.73 114.10 132.49 113.53
  C 139.82 113.14 136.01 102.55 138.65 98.25
  Q 140.47 95.27 143.92 93.95
  Q 144.44 93.75 144.43 94.31
  Q 144.09 117.05 144.51 139.72
  C 144.53 141.25 142.28 142.59 140.67 143.10
  Z"
/>
<rect fill="#ffffff" x="173.30" y="98.95" width="99.46" height="7.28" rx="3.25"/>
<rect fill="#ffffff" x="173.29" y="113.33" width="99.46" height="7.30" rx="3.28"/>
<path fill="#bc2818" d="
  M 288.11 115.50
  C 293.29 120.71 297.24 134.43 294.15 141.37
  A 0.85 0.83 -80.4 0 1 293.48 141.86
  L 289.65 142.29
  A 1.95 1.94 -3.2 0 1 287.49 140.36
  L 287.48 115.76
  A 0.37 0.37 0.0 0 1 288.11 115.50
  Z"
/>
<rect fill="#ffffff" x="173.41" y="127.76" width="99.28" height="7.26" rx="3.00"/>
<path fill="#bc2818" d="
  M 135.66 158.58
  C 136.81 152.32 141.53 149.47 147.57 149.47
  Q 222.63 149.44 297.67 149.48
  C 309.83 149.49 315.12 152.70 312.77 165.42
  Q 304.64 209.53 296.57 253.63
  C 294.98 262.29 290.41 264.59 281.94 264.58
  Q 201.15 264.48 118.04 264.49
  Q 116.74 264.49 116.97 263.21
  Q 125.96 211.29 135.66 158.58
  Z"
/>
</svg>
