<?xml version="1.0" encoding="UTF-8" standalone="no"?>
<!DOCTYPE svg PUBLIC "-//W3C//DTD SVG 1.1//EN" "http://www.w3.org/Graphics/SVG/1.1/DTD/svg11.dtd">
<svg xmlns="http://www.w3.org/2000/svg" version="1.1" viewBox="0.00 0.00 383.00 204.00">
<g stroke-width="2.00" fill="none" stroke-linecap="butt">
<path stroke="#846666" vector-effect="non-scaling-stroke" d="
  M 383.00 15.28
  Q 381.00 16.09 380.35 19.53
  Q 380.10 20.80 379.66 19.59
  C 378.61 16.72 379.80 13.79 375.76 12.66
  C 370.78 11.27 364.83 11.27 363.56 18.00"
/>
<path stroke="#959897" vector-effect="non-scaling-stroke" d="
  M 381.04 33.78
  Q 380.71 35.79 379.15 36.65
  Q 371.05 41.12 366.46 33.73"
/>
<path stroke="#84989a" vector-effect="non-scaling-stroke" d="
  M 216.80 43.26
  Q 216.94 45.33 216.23 46.97"
/>
<path stroke="#846666" vector-effect="non-scaling-stroke" d="
  M 216.23 46.97
  Q 214.87 39.88 207.96 40.61
  C 201.73 41.27 200.77 42.20 200.11 48.47
  A 0.44 0.44 0.0 0 1 199.23 48.45
  Q 198.81 42.09 194.33 45.12"
/>
<path stroke="#84989a" vector-effect="non-scaling-stroke" d="
  M 194.33 45.12
  Q 193.77 44.28 193.71 43.24"
/>
<path stroke="#157379" vector-effect="non-scaling-stroke" d="
  M 383.00 97.92
  L 355.39 97.93"
/>
<path stroke="#959897" vector-effect="non-scaling-stroke" d="
  M 356.37 66.17
  Q 355.14 63.67 347.76 62.68"
/>
<path stroke="#ffcdcb" vector-effect="non-scaling-stroke" d="
  M 216.23 46.97
  Q 216.39 46.79 216.46 47.46"
/>
<path stroke="#959897" vector-effect="non-scaling-stroke" d="
  M 216.46 47.46
  Q 216.42 47.38 216.09 47.46
  A 0.29 0.28 78.3 0 0 215.88 47.79
  Q 217.31 55.06 210.96 58.30
  Q 210.45 58.56 210.56 59.12
  Q 211.04 61.58 213.17 62.34"
/>
<path stroke="#9ca2a2" vector-effect="non-scaling-stroke" d="
  M 213.17 62.34
  C 210.09 68.11 201.34 68.68 198.51 62.42"
/>
<path stroke="#959897" vector-effect="non-scaling-stroke" d="
  M 198.51 62.42
  Q 200.77 61.06 200.80 58.04
  C 200.82 55.71 199.01 54.07 198.60 51.42
  Q 198.52 50.90 197.99 50.89
  Q 194.85 50.84 194.13 47.81"
/>
<path stroke="#ffcdcb" vector-effect="non-scaling-stroke" d="
  M 194.13 47.81
  L 194.33 45.12"
/>
<path stroke="#95cbcb" vector-effect="non-scaling-stroke" d="
  M 194.13 47.81
  Q 166.48 47.67 138.80 47.82
  C 133.55 47.85 129.52 48.97 127.15 53.55
  Q 125.80 56.15 125.79 62.66
  Q 125.76 85.61 125.79 108.53"
/>
<path stroke="#9cd4d6" vector-effect="non-scaling-stroke" d="
  M 125.79 108.53
  L 125.74 110.74
  Q 125.73 111.26 125.32 111.57
  Q 122.56 113.63 121.08 116.72"
/>
<path stroke="#eaeaea" stroke-opacity="0.549" vector-effect="non-scaling-stroke" d="
  M 120.97 112.38
  L 121.00 109.04"
/>
<path stroke="#eaeaea" stroke-opacity="0.549" vector-effect="non-scaling-stroke" d="
  M 294.65 104.02
  L 294.66 116.84"
/>
<path stroke="#9cd4d6" vector-effect="non-scaling-stroke" d="
  M 294.66 116.84
  L 289.84 110.67"
/>
<path stroke="#95cbcb" vector-effect="non-scaling-stroke" d="
  M 289.84 110.67
  Q 289.83 86.79 289.86 63.19
  C 289.87 56.91 289.59 51.80 283.89 49.06
  Q 281.12 47.73 273.41 47.74
  Q 245.06 47.78 216.69 47.75
  Q 216.62 47.75 216.59 47.69
  Q 216.52 47.57 216.46 47.46"
/>
<path stroke="#31a0a2" vector-effect="non-scaling-stroke" d="
  M 289.84 110.67
  L 261.52 110.54"
/>
<path stroke="#5eb8c3" vector-effect="non-scaling-stroke" d="
  M 261.52 110.54
  L 262.26 94.76"
/>
<path stroke="#959897" vector-effect="non-scaling-stroke" d="
  M 262.26 94.76
  Q 269.27 93.57 274.10 88.31
  A 0.75 0.74 18.3 0 0 273.47 87.07
  L 266.76 87.77
  A 0.72 0.72 0.0 0 1 266.00 87.26
  L 265.86 86.75
  A 0.79 0.79 0.0 0 0 265.03 86.18
  L 261.82 86.48"
/>
<path stroke="#5eb8c3" vector-effect="non-scaling-stroke" d="
  M 261.82 86.48
  Q 261.21 75.89 259.22 66.09
  Q 259.12 65.60 258.62 65.63
  L 226.57 67.28"
/>
<path stroke="#31a0a2" vector-effect="non-scaling-stroke" d="
  M 226.57 67.28
  Q 220.14 62.89 213.17 62.34"
/>
<path stroke="#31a0a2" vector-effect="non-scaling-stroke" d="
  M 198.51 62.42
  Q 191.28 62.06 184.00 67.11"
/>
<path stroke="#5eb8c3" vector-effect="non-scaling-stroke" d="
  M 184.00 67.11
  L 157.33 65.62
  Q 156.85 65.59 156.75 66.07
  Q 152.46 87.36 154.38 110.34"
/>
<path stroke="#31a0a2" vector-effect="non-scaling-stroke" d="
  M 154.38 110.34
  L 137.85 110.45
  Q 137.28 110.45 136.82 110.12
  Q 134.74 108.65 132.15 109.21
  A 0.56 0.56 0.0 0 1 131.47 108.68
  L 131.37 105.57
  A 0.77 0.77 0.0 0 0 130.57 104.82
  L 128.63 104.89
  A 0.87 0.87 0.0 0 0 127.80 105.64
  L 127.37 108.86
  A 0.73 0.73 0.0 0 1 125.96 109.01
  L 125.79 108.53"
/>
<path stroke="#65c2cf" vector-effect="non-scaling-stroke" d="
  M 226.57 67.28
  Q 231.26 78.18 233.89 89.96
  Q 234.00 90.48 233.49 90.62
  L 233.15 90.71"
/>
<path stroke="#9ca2a2" vector-effect="non-scaling-stroke" d="
  M 233.15 90.71
  L 225.11 92.95"
/>
<path stroke="#31a0a2" vector-effect="non-scaling-stroke" d="
  M 225.11 92.95
  Q 223.91 88.01 223.24 82.99
  C 223.00 81.13 223.63 79.45 223.97 77.60
  Q 224.12 76.82 223.57 77.38
  Q 221.45 79.53 221.84 82.99
  Q 222.43 88.28 223.31 93.60"
/>
<path stroke="#65c2cf" vector-effect="non-scaling-stroke" d="
  M 223.31 93.60
  L 224.02 113.02
  Q 224.04 113.59 223.48 113.48
  C 211.64 111.27 201.02 108.91 189.25 113.04
  A 0.76 0.76 0.0 0 1 188.24 112.33
  Q 188.13 104.02 188.41 95.38
  Q 188.45 94.16 186.72 94.43"
/>
<path stroke="#9ca2a2" vector-effect="non-scaling-stroke" d="
  M 186.72 94.43
  L 178.38 92.71"
/>
<path stroke="#65c2cf" vector-effect="non-scaling-stroke" d="
  M 178.38 92.71
  L 177.32 92.47
  Q 176.80 92.34 176.91 91.83
  Q 179.69 79.02 184.00 67.11"
/>
<path stroke="#31a0a2" vector-effect="non-scaling-stroke" d="
  M 188.66 93.49
  Q 189.39 87.66 189.99 82.00
  Q 190.16 80.33 187.83 78.32
  Q 187.44 77.99 187.58 78.48
  C 188.16 80.59 188.71 82.29 188.33 84.53
  Q 187.61 88.92 186.89 93.31
  Q 186.80 93.86 186.98 94.14
  Q 187.31 94.63 188.06 94.29
  Q 188.59 94.05 188.66 93.49"
/>
<path stroke="#c9bac4" vector-effect="non-scaling-stroke" d="
  M 178.38 92.71
  Q 177.23 99.04 177.02 105.24
  Q 176.94 107.65 177.96 110.05
  Q 181.18 117.60 184.33 125.17
  Q 185.46 127.86 187.20 128.35
  Q 190.12 129.15 194.51 127.88
  Q 195.03 127.73 194.80 127.24
  C 193.87 125.27 193.11 123.81 192.19 121.48
  Q 191.09 118.72 187.70 118.18
  Q 187.23 118.10 187.05 117.65
  C 183.68 108.98 185.16 102.61 186.72 94.43"
/>
<path stroke="#5eb8c3" vector-effect="non-scaling-stroke" d="
  M 223.31 93.60
  L 224.03 93.36"
/>
<path stroke="#c9bac4" vector-effect="non-scaling-stroke" d="
  M 224.03 93.36
  C 225.12 96.56 225.73 101.18 227.83 103.82
  A 0.91 0.91 0.0 0 0 228.68 104.15
  C 237.62 102.72 247.95 98.25 255.46 95.39
  C 257.72 94.53 259.93 94.67 262.26 94.76"
/>
<path stroke="#65c2cf" vector-effect="non-scaling-stroke" d="
  M 261.52 110.54
  L 261.09 114.85
  Q 261.05 115.32 261.51 115.40
  Q 270.76 117.10 282.75 121.74
  C 284.93 122.58 286.06 122.83 286.36 125.48
  Q 286.94 130.69 287.07 136.06"
/>
<path stroke="#c9edf8" vector-effect="non-scaling-stroke" d="
  M 287.07 136.06
  L 131.62 136.07"
/>
<path stroke="#65c2cf" vector-effect="non-scaling-stroke" d="
  M 131.62 136.07
  L 132.99 124.80
  A 0.92 0.90 -10.0 0 1 133.49 124.10
  Q 143.37 119.16 154.26 117.27
  Q 154.73 117.19 154.70 116.72
  L 154.38 110.34"
/>
<path stroke="#c9bac4" vector-effect="non-scaling-stroke" d="
  M 261.82 86.48
  Q 249.64 91.91 235.12 93.52
  Q 234.67 93.57 234.36 93.25
  Q 233.38 92.24 233.15 90.71"
/>
<path stroke="#959897" vector-effect="non-scaling-stroke" d="
  M 225.11 92.95
  L 224.03 93.36"
/>
<path stroke="#eaeaea" stroke-opacity="0.549" vector-effect="non-scaling-stroke" d="
  M 111.46 111.69
  Q 112.00 116.29 110.85 119.84"
/>
<path stroke="#80a7ad" vector-effect="non-scaling-stroke" d="
  M 101.85 180.36
  L 95.33 180.29"
/>
<path stroke="#80a7ad" vector-effect="non-scaling-stroke" d="
  M 59.00 180.30
  L 52.42 180.29"
/>
<path stroke="#80a7ad" vector-effect="non-scaling-stroke" d="
  M 46.53 168.85
  L 46.52 168.02"
/>
<path stroke="#80a7ad" vector-effect="non-scaling-stroke" d="
  M 46.44 165.20
  L 46.51 164.47"
/>
<path stroke="#80a7ad" vector-effect="non-scaling-stroke" d="
  M 42.71 103.69
  L 42.67 102.27"
/>
<path stroke="#80a7ad" vector-effect="non-scaling-stroke" d="
  M 42.70 98.92
  L 42.72 97.97"
/>
<path stroke="#eaeaea" stroke-opacity="0.549" vector-effect="non-scaling-stroke" d="
  M 42.72 97.97
  L 42.76 94.49"
/>
<path stroke="#8db0b5" vector-effect="non-scaling-stroke" d="
  M 49.55 94.17
  L 49.51 110.20
  Q 49.51 110.74 50.05 110.74
  L 67.48 110.74"
/>
<path stroke="#80a7ad" vector-effect="non-scaling-stroke" d="
  M 67.48 110.74
  L 78.72 110.73"
/>
<path stroke="#8db0b5" vector-effect="non-scaling-stroke" d="
  M 78.72 110.73
  L 82.78 110.74"
/>
<path stroke="#80a7ad" vector-effect="non-scaling-stroke" d="
  M 82.78 110.74
  L 88.32 110.71"
/>
<path stroke="#8db0b5" vector-effect="non-scaling-stroke" d="
  M 88.32 110.71
  L 92.90 110.69"
/>
<path stroke="#80a7ad" vector-effect="non-scaling-stroke" d="
  M 92.90 110.69
  L 104.23 110.64
  Q 104.81 110.64 104.81 110.05
  L 104.83 86.71
  A 0.37 0.37 0.0 0 0 104.46 86.34
  L 50.19 86.35
  Q 49.55 86.35 49.55 86.98
  L 49.55 94.17"
/>
<path stroke="#0d5863" vector-effect="non-scaling-stroke" d="
  M 92.90 110.69
  Q 92.65 108.26 93.96 105.34
  A 0.52 0.52 0.0 0 0 93.47 104.60
  L 90.49 104.69
  Q 89.79 104.71 89.62 105.39
  L 88.32 110.71"
/>
<path stroke="#0d5863" vector-effect="non-scaling-stroke" d="
  M 82.78 110.74
  L 81.10 105.11
  A 0.74 0.74 0.0 0 0 80.39 104.59
  L 77.63 104.61
  A 0.64 0.64 0.0 0 0 77.02 105.44
  L 78.72 110.73"
/>
<path stroke="#0d5863" vector-effect="non-scaling-stroke" d="
  M 67.48 110.74
  Q 67.42 103.93 63.57 99.77"
/>
<path stroke="#80a7ad" vector-effect="non-scaling-stroke" d="
  M 63.57 99.77
  L 67.35 93.90
  Q 67.75 93.27 68.05 93.95
  L 73.65 106.94
  Q 73.92 107.56 74.24 106.97
  L 79.40 97.45
  A 0.49 0.49 0.0 0 1 80.26 97.46
  L 82.97 102.73
  A 0.45 0.44 -43.5 0 0 83.75 102.75
  L 89.07 93.76
  Q 89.47 93.08 89.83 93.78
  L 92.36 98.78
  A 0.44 0.28 -84.2 0 0 92.82 98.20
  L 89.85 92.27
  Q 89.52 91.61 89.15 92.24
  L 83.77 101.25
  A 0.44 0.43 -42.6 0 1 83.01 101.22
  L 80.27 95.83
  A 0.46 0.46 0.0 0 0 79.45 95.82
  L 74.57 104.83
  A 0.62 0.62 0.0 0 1 73.46 104.77
  L 68.13 92.23
  A 0.37 0.37 0.0 0 0 67.48 92.18
  L 62.33 100.07
  A 0.53 0.53 0.0 0 1 61.37 99.92
  Q 60.35 95.94 58.46 94.98"
/>
<path stroke="#0d5863" vector-effect="non-scaling-stroke" d="
  M 58.46 94.98
  Q 53.43 93.77 49.55 94.17"
/>
<path stroke="#8db0b5" vector-effect="non-scaling-stroke" d="
  M 63.57 99.77
  L 61.96 101.59
  Q 61.63 101.97 61.42 101.51
  L 59.09 96.48
  Q 58.78 95.82 58.38 96.42
  L 52.26 105.57
  Q 51.89 106.12 51.81 105.47
  Q 51.76 105.11 51.99 104.75
  Q 54.80 100.48 58.46 94.98"
/>
<path stroke="#fe9185" vector-effect="non-scaling-stroke" d="
  M 104.7496 115.3718
  A 0.53 0.53 0.0 0 0 104.2186 114.8427
  L 50.0387 114.9373
  A 0.53 0.53 0.0 0 0 49.5097 115.4682
  L 49.5104 115.9082
  A 0.53 0.53 0.0 0 0 50.0414 116.4373
  L 104.2213 116.3427
  A 0.53 0.53 0.0 0 0 104.7503 115.8118
  L 104.7496 115.3718"
/>
<path stroke="#d7eceb" vector-effect="non-scaling-stroke" d="
  M 54.78 138.75
  L 63.70 138.69"
/>
<path stroke="#d7eceb" vector-effect="non-scaling-stroke" d="
  M 66.59 138.72
  L 75.26 138.71"
/>
<path stroke="#d7eceb" vector-effect="non-scaling-stroke" d="
  M 90.53 138.72
  L 96.83 138.74"
/>
<path stroke="#eaeaea" stroke-opacity="0.549" vector-effect="non-scaling-stroke" d="
  M 66.06 124.54
  L 51.47 124.53
  Q 50.99 124.53 50.99 125.01
  L 50.97 138.25
  Q 50.97 138.73 51.46 138.74
  L 54.78 138.75"
/>
<path stroke="#a2c7c6" stroke-opacity="0.549" vector-effect="non-scaling-stroke" d="
  M 63.89 129.69
  Q 62.78 129.64 62.59 129.15"
/>
<path stroke="#147364" stroke-opacity="0.549" vector-effect="non-scaling-stroke" d="
  M 62.59 129.15
  Q 59.41 127.12 55.80 129.17"
/>
<path stroke="#a2c7c6" stroke-opacity="0.549" vector-effect="non-scaling-stroke" d="
  M 55.80 129.17
  Q 53.95 129.82 54.61 132.74"
/>
<path stroke="#eaeaea" stroke-opacity="0.549" vector-effect="non-scaling-stroke" d="
  M 54.61 132.74
  L 54.58 134.93"
/>
<path stroke="#a2c7c6" stroke-opacity="0.549" vector-effect="non-scaling-stroke" d="
  M 54.58 134.93
  L 54.78 138.75"
/>
<path stroke="#d7eceb" vector-effect="non-scaling-stroke" d="
  M 63.94 135.37
  L 54.58 134.93"
/>
<path stroke="#61aaa1" vector-effect="non-scaling-stroke" d="
  M 62.59 129.15
  L 55.80 129.17"
/>
<path stroke="#d7eceb" vector-effect="non-scaling-stroke" d="
  M 63.94 132.70
  L 54.61 132.74"
/>
<path stroke="#d7eceb" vector-effect="non-scaling-stroke" d="
  M 97.16 135.02
  L 90.32 135.01"
/>
<path stroke="#589499" vector-effect="non-scaling-stroke" d="
  M 96.26 129.17
  L 91.28 129.15"
/>
<path stroke="#589499" vector-effect="non-scaling-stroke" d="
  M 74.47 129.16
  L 67.56 129.15"
/>
<path stroke="#d7eceb" vector-effect="non-scaling-stroke" d="
  M 75.67 132.78
  L 66.34 132.84"
/>
<path stroke="#d7eceb" vector-effect="non-scaling-stroke" d="
  M 97.13 132.75
  L 90.35 132.59"
/>
<path stroke="#d7eceb" vector-effect="non-scaling-stroke" d="
  M 75.67 135.21
  L 66.31 135.30"
/>
<path stroke="#d7eceb" vector-effect="non-scaling-stroke" d="
  M 103.48 145.13
  A 0.37 0.37 0.0 0 0 103.11 144.76
  L 51.33 144.76
  A 0.37 0.37 0.0 0 0 50.96 145.13
  L 50.96 156.53
  A 0.37 0.37 0.0 0 0 51.33 156.90
  L 103.11 156.90
  A 0.37 0.37 0.0 0 0 103.48 156.53
  L 103.48 145.13"
/>
<path stroke="#d7eceb" vector-effect="non-scaling-stroke" d="
  M 103.49 160.43
  A 0.42 0.42 0.0 0 0 103.07 160.01
  L 51.35 160.01
  A 0.42 0.42 0.0 0 0 50.93 160.43
  L 50.93 171.59
  A 0.42 0.42 0.0 0 0 51.35 172.01
  L 103.07 172.01
  A 0.42 0.42 0.0 0 0 103.49 171.59
  L 103.49 160.43"
/>
<path stroke="#0a6663" vector-effect="non-scaling-stroke" d="
  M 330.37 95.40
  Q 327.18 97.36 330.74 102.57"
/>
<path stroke="#898b81" vector-effect="non-scaling-stroke" d="
  M 330.74 102.57
  L 324.30 102.51"
/>
<path stroke="#176f6b" vector-effect="non-scaling-stroke" d="
  M 324.30 102.51
  Q 322.21 99.64 322.85 96.33"
/>
<path stroke="#80a7ad" vector-effect="non-scaling-stroke" d="
  M 103.2702 88.2743
  A 0.59 0.59 0.0 0 0 102.6833 87.6812
  L 98.4034 87.6588
  A 0.59 0.59 0.0 0 0 97.8103 88.2457
  L 97.8098 88.3457
  A 0.59 0.59 0.0 0 0 98.3967 88.9388
  L 102.6766 88.9612
  A 0.59 0.59 0.0 0 0 103.2697 88.3743
  L 103.2702 88.2743"
/>
<path stroke="#80a7ad" vector-effect="non-scaling-stroke" d="
  M 101.02 89.79
  Q 100.56 89.75 100.14 90.01
  A 0.52 0.52 0.0 0 0 100.40 90.98
  L 102.94 91.02
  A 0.55 0.55 0.0 0 0 103.06 89.94
  C 102.46 89.81 101.71 89.87 101.02 89.79"
/>
<path stroke="#80a7ad" vector-effect="non-scaling-stroke" d="
  M 103.3609 92.3911
  A 0.50 0.50 0.0 0 0 102.8679 91.8842
  L 96.5485 91.7959
  A 0.50 0.50 0.0 0 0 96.0416 92.2889
  L 96.0391 92.4689
  A 0.50 0.50 0.0 0 0 96.5321 92.9758
  L 102.8515 93.0641
  A 0.50 0.50 0.0 0 0 103.3584 92.5711
  L 103.3609 92.3911"
/>
<path stroke="#80a7ad" vector-effect="non-scaling-stroke" d="
  M 103.3997 94.4296
  A 0.52 0.52 0.0 0 0 102.8761 93.9133
  L 98.0762 93.9468
  A 0.52 0.52 0.0 0 0 97.5599 94.4704
  L 97.5603 94.5304
  A 0.52 0.52 0.0 0 0 98.0839 95.0467
  L 102.8838 95.0132
  A 0.52 0.52 0.0 0 0 103.4001 94.4896
  L 103.3997 94.4296"
/>
<path stroke="#80a7ad" vector-effect="non-scaling-stroke" d="
  M 103.3883 96.3240
  A 0.40 0.40 0.0 0 0 102.9842 95.9282
  L 96.9045 95.9919
  A 0.40 0.40 0.0 0 0 96.5087 96.3960
  L 96.5117 96.6760
  A 0.40 0.40 0.0 0 0 96.9158 97.0718
  L 102.9955 97.0081
  A 0.40 0.40 0.0 0 0 103.3913 96.6040
  L 103.3883 96.3240"
/>
<path stroke="#80a7ad" vector-effect="non-scaling-stroke" d="
  M 99.72 98.06
  A 0.51 0.51 0.0 0 0 99.78 99.08
  L 102.92 99.01
  A 0.54 0.54 0.0 0 0 102.92 97.93
  Q 101.31 97.90 99.72 98.06"
/>
<path stroke="#80a7ad" vector-effect="non-scaling-stroke" d="
  M 103.3560 100.4107
  A 0.56 0.56 0.0 0 0 102.7731 99.8747
  L 98.6767 100.0464
  A 0.56 0.56 0.0 0 0 98.1406 100.6293
  L 98.1440 100.7093
  A 0.56 0.56 0.0 0 0 98.7269 101.2453
  L 102.8233 101.0736
  A 0.56 0.56 0.0 0 0 103.3594 100.4907
  L 103.3560 100.4107"
/>
<path stroke="#80a7ad" vector-effect="non-scaling-stroke" d="
  M 103.4496 102.4946
  A 1.69 0.67 -1.2 0 0 101.7460 101.8601
  A 1.69 0.67 -1.2 0 0 100.0704 102.5654
  A 1.69 0.67 -1.2 0 0 101.7740 103.1999
  A 1.69 0.67 -1.2 0 0 103.4496 102.4946"
/>
<path stroke="#80a7ad" vector-effect="non-scaling-stroke" d="
  M 103.3060 104.3818
  A 0.48 0.48 0.0 0 0 102.8096 103.9189
  L 97.5728 104.1018
  A 0.48 0.48 0.0 0 0 97.1098 104.5982
  L 97.1140 104.7182
  A 0.48 0.48 0.0 0 0 97.6104 105.1811
  L 102.8472 104.9982
  A 0.48 0.48 0.0 0 0 103.3102 104.5018
  L 103.3060 104.3818"
/>
<path stroke="#80a7ad" vector-effect="non-scaling-stroke" d="
  M 103.2783 106.4717
  A 0.56 0.56 0.0 0 0 102.7096 105.9206
  L 98.9500 105.9796
  A 0.56 0.56 0.0 0 0 98.3989 106.5483
  L 98.4017 106.7283
  A 0.56 0.56 0.0 0 0 98.9704 107.2794
  L 102.7300 107.2204
  A 0.56 0.56 0.0 0 0 103.2811 106.6517
  L 103.2783 106.4717"
/>
<path stroke="#80a7ad" vector-effect="non-scaling-stroke" d="
  M 103.3500 108.7971
  A 0.60 0.60 0.0 0 0 102.7511 108.1960
  L 95.8711 108.1840
  A 0.60 0.60 0.0 0 0 95.2700 108.7829
  L 95.2700 108.8229
  A 0.60 0.60 0.0 0 0 95.8689 109.4240
  L 102.7489 109.4360
  A 0.60 0.60 0.0 0 0 103.3500 108.8371
  L 103.3500 108.7971"
/>
<path stroke="#807579" vector-effect="non-scaling-stroke" d="
  M 332.81 102.72
  L 330.74 102.57"
/>
<path stroke="#0d5863" vector-effect="non-scaling-stroke" d="
  M 319.72 94.00
  Q 317.30 93.06 316.33 94.19"
/>
<path stroke="#024a55" stroke-opacity="0.549" vector-effect="non-scaling-stroke" d="
  M 316.33 94.19
  L 314.56 92.44"
/>
<path stroke="#1a5b64" stroke-opacity="0.549" vector-effect="non-scaling-stroke" d="
  M 316.33 94.19
  Q 316.46 98.79 319.64 101.47
  Q 320.02 101.79 320.19 102.27
  L 320.33 102.68"
/>
<path stroke="#ea8e8c" stroke-opacity="0.549" vector-effect="non-scaling-stroke" d="
  M 320.33 102.68
  L 320.25 104.13"
/>
<path stroke="#ea8e8c" stroke-opacity="0.549" vector-effect="non-scaling-stroke" d="
  M 321.31 112.94
  Q 321.52 113.81 322.00 114.36"
/>
<path stroke="#147364" stroke-opacity="0.549" vector-effect="non-scaling-stroke" d="
  M 322.00 114.36
  Q 322.08 114.38 321.78 114.78"
/>
<path stroke="#359ca0" stroke-opacity="0.549" vector-effect="non-scaling-stroke" d="
  M 321.78 114.78
  L 311.08 114.94
  Q 310.51 114.95 310.42 115.52
  L 310.16 117.20"
/>
<path stroke="#eaeaea" stroke-opacity="0.549" vector-effect="non-scaling-stroke" d="
  M 313.48 128.10
  L 313.49 136.13"
/>
<path stroke="#359ca0" stroke-opacity="0.549" vector-effect="non-scaling-stroke" d="
  M 294.97 126.54
  L 294.66 116.84"
/>
<path stroke="#8d7e81" vector-effect="non-scaling-stroke" d="
  M 324.30 102.51
  L 320.33 102.68"
/>
<path stroke="#024a55" stroke-opacity="0.549" vector-effect="non-scaling-stroke" d="
  M 42.72 97.97
  Q 38.11 98.63 38.10 102.75
  Q 38.07 117.62 38.09 133.38"
/>
<path stroke="#0d5863" vector-effect="non-scaling-stroke" d="
  M 383.00 108.55
  C 373.71 110.03 373.60 122.63 383.00 123.35"
/>
<path stroke="#80a7ad" vector-effect="non-scaling-stroke" d="
  M 379.85 165.25
  L 376.60 144.96"
/>
<path stroke="#589499" vector-effect="non-scaling-stroke" d="
  M 376.60 144.96
  L 376.01 139.22"
/>
<path stroke="#80a7ad" vector-effect="non-scaling-stroke" d="
  M 376.01 139.22
  L 374.05 126.91
  Q 373.94 126.16 373.81 126.91
  L 371.66 139.27"
/>
<path stroke="#589499" vector-effect="non-scaling-stroke" d="
  M 371.66 139.27
  L 368.31 160.78"
/>
<path stroke="#80a7ad" vector-effect="non-scaling-stroke" d="
  M 368.31 160.78
  L 367.66 165.21"
/>
<path stroke="#054048" vector-effect="non-scaling-stroke" d="
  M 365.17 181.07
  L 356.75 180.34"
/>
<path stroke="#80a7ad" vector-effect="non-scaling-stroke" d="
  M 356.31 165.26
  L 356.24 160.69"
/>
<path stroke="#589499" vector-effect="non-scaling-stroke" d="
  M 356.24 160.69
  L 355.69 139.31"
/>
<path stroke="#80a7ad" vector-effect="non-scaling-stroke" d="
  M 355.69 139.31
  L 355.49 133.98"
/>
<path stroke="#589499" vector-effect="non-scaling-stroke" d="
  M 355.49 133.98
  L 355.21 124.91"
/>
<path stroke="#80a7ad" vector-effect="non-scaling-stroke" d="
  M 355.21 124.91
  L 355.26 120.70"
/>
<path stroke="#1c7c84" vector-effect="non-scaling-stroke" d="
  M 355.26 120.70
  L 355.69 115.42"
/>
<path stroke="#0d5863" vector-effect="non-scaling-stroke" d="
  M 355.69 115.42
  L 359.49 105.43
  Q 359.68 104.92 359.16 104.79
  Q 357.21 104.31 355.31 105.04"
/>
<path stroke="#0d5863" vector-effect="non-scaling-stroke" d="
  M 364.66 117.16
  L 368.76 116.68
  Q 369.28 116.62 369.78 116.79
  Q 371.42 117.38 373.17 117.12
  A 0.71 0.70 -88.2 0 0 373.76 116.56
  C 374.77 111.30 370.03 107.30 365.25 108.84
  C 355.72 111.92 359.88 126.41 370.98 122.98
  Q 371.66 122.77 371.40 122.11
  L 370.74 120.46
  A 0.69 0.69 0.0 0 0 369.92 120.06
  Q 366.06 121.16 364.27 117.93
  A 0.52 0.52 0.0 0 1 364.66 117.16"
/>
<path stroke="#9ca2a2" vector-effect="non-scaling-stroke" d="
  M 331.40 114.72
  Q 330.81 114.28 330.04 114.65"
/>
<path stroke="#898b81" vector-effect="non-scaling-stroke" d="
  M 330.04 114.65
  L 322.00 114.36"
/>
<path stroke="#1a5b64" stroke-opacity="0.549" vector-effect="non-scaling-stroke" d="
  M 355.26 106.89
  L 355.28 114.87"
/>
<path stroke="#359ca0" stroke-opacity="0.549" vector-effect="non-scaling-stroke" d="
  M 355.28 114.87
  L 344.42 114.76"
/>
<path stroke="#29858c" vector-effect="non-scaling-stroke" d="
  M 355.69 115.42
  Q 355.20 114.46 355.28 114.87"
/>
<path stroke="#9cd4d6" vector-effect="non-scaling-stroke" d="
  M 131.62 136.07
  Q 125.40 135.35 120.60 138.88"
/>
<path stroke="#359ca0" stroke-opacity="0.549" vector-effect="non-scaling-stroke" d="
  M 120.56 123.91
  L 120.63 118.42"
/>
<path stroke="#0a6663" vector-effect="non-scaling-stroke" d="
  M 10.36 131.42
  Q 3.31 139.51 4.72 150.20"
/>
<path stroke="#898b81" vector-effect="non-scaling-stroke" d="
  M 4.72 150.20
  L 0.00 150.20"
/>
<path stroke="#0d5863" vector-effect="non-scaling-stroke" d="
  M 383.00 112.45
  C 379.40 112.08 379.19 118.53 383.00 119.93"
/>
<path stroke="#0d5863" vector-effect="non-scaling-stroke" d="
  M 364.45 114.89
  L 369.89 114.93
  A 0.20 0.20 0.0 0 0 370.09 114.74
  L 370.09 114.68
  A 2.86 2.82 -89.5 0 0 367.29 111.79
  L 367.09 111.79
  A 2.86 2.82 -89.5 0 0 364.25 114.62
  L 364.25 114.68
  A 0.20 0.20 0.0 0 0 364.45 114.89"
/>
<path stroke="#9cd4d6" vector-effect="non-scaling-stroke" d="
  M 294.93 138.83
  Q 291.33 136.11 287.07 136.06"
/>
<path stroke="#26938c" vector-effect="non-scaling-stroke" d="
  M 330.04 114.65
  L 321.78 114.78"
/>
<path stroke="#9cd4d6" vector-effect="non-scaling-stroke" d="
  M 355.26 120.70
  L 313.53 120.71"
/>
<path stroke="#807579" vector-effect="non-scaling-stroke" d="
  M 14.30 150.20
  L 4.72 150.20"
/>
<path stroke="#d7eceb" vector-effect="non-scaling-stroke" d="
  M 355.21 124.91
  L 321.29 125.01
  Q 320.79 125.02 320.79 125.52
  L 320.77 133.47
  Q 320.77 134.06 321.37 134.06
  L 355.49 133.98"
/>
<path stroke="#d7eceb" vector-effect="non-scaling-stroke" d="
  M 355.69 139.31
  Q 353.81 138.90 352.66 139.32
  Q 352.21 139.49 352.21 139.97
  L 352.20 160.30
  Q 352.20 160.83 352.72 160.93
  Q 354.43 161.26 356.24 160.69"
/>
<path stroke="#80a7ad" vector-effect="non-scaling-stroke" d="
  M 327.59 165.27
  L 320.55 165.27"
/>
<path stroke="#89beb5" vector-effect="non-scaling-stroke" d="
  M 344.50 149.41
  Q 344.52 149.38 344.54 149.36"
/>
<path stroke="#d7eceb" vector-effect="non-scaling-stroke" d="
  M 344.54 149.36
  L 344.81 139.81
  Q 344.82 139.27 344.28 139.27
  L 321.25 139.27
  A 0.48 0.48 0.0 0 0 320.77 139.75
  L 320.76 160.50
  Q 320.76 161.00 321.26 161.00
  L 344.28 161.00
  A 0.55 0.54 -1.0 0 0 344.83 160.44
  L 344.50 149.41"
/>
<path stroke="#61aaa1" vector-effect="non-scaling-stroke" d="
  M 344.54 149.36
  Q 343.65 148.09 342.38 148.53
  A 1.17 1.17 0.0 0 0 342.02 150.55
  Q 343.68 151.87 344.50 149.41"
/>
<path stroke="#61aaa1" vector-effect="non-scaling-stroke" d="
  M 349.82 127.20
  A 1.30 1.30 0.0 0 0 348.52 125.90
  A 1.30 1.30 0.0 0 0 347.22 127.20
  A 1.30 1.30 0.0 0 0 348.52 128.50
  A 1.30 1.30 0.0 0 0 349.82 127.20"
/>
<path stroke="#d7eceb" vector-effect="non-scaling-stroke" d="
  M 376.01 139.22
  L 371.66 139.27"
/>
<path stroke="#80a7ad" vector-effect="non-scaling-stroke" d="
  M 283.18 186.76
  L 261.52 186.76"
/>
<path stroke="#80a7ad" vector-effect="non-scaling-stroke" d="
  M 153.93 186.76
  L 132.28 186.76"
/>
<path stroke="#c9edf8" vector-effect="non-scaling-stroke" d="
  M 128.16 159.45
  L 287.92 159.44"
/>
<path stroke="#9cd4d6" vector-effect="non-scaling-stroke" d="
  M 287.92 159.44
  L 294.36 159.44
  Q 294.83 159.44 294.86 158.97
  Q 295.41 151.46 294.70 148.04
  Q 293.69 143.15 287.06 139.10"
/>
<path stroke="#c9edf8" vector-effect="non-scaling-stroke" d="
  M 287.06 139.10
  L 130.99 139.03"
/>
<path stroke="#9cd4d6" vector-effect="non-scaling-stroke" d="
  M 130.99 139.03
  C 120.14 141.44 120.28 149.94 120.61 158.92
  Q 120.63 159.42 121.12 159.42
  L 128.16 159.45"
/>
<path stroke="#65c2cf" vector-effect="non-scaling-stroke" d="
  M 130.99 139.03
  L 128.16 159.45"
/>
<path stroke="#65c2cf" vector-effect="non-scaling-stroke" d="
  M 287.06 139.10
  L 287.92 159.44"
/>
<path stroke="#ffcdcb" vector-effect="non-scaling-stroke" d="
  M 257.06 166.69
  A 0.40 0.40 0.0 0 0 256.66 166.29
  L 158.78 166.29
  A 0.40 0.40 0.0 0 0 158.38 166.69
  L 158.38 180.61
  A 0.40 0.40 0.0 0 0 158.78 181.01
  L 256.66 181.01
  A 0.40 0.40 0.0 0 0 257.06 180.61
  L 257.06 166.69"
/>
<path stroke="#61aaa1" vector-effect="non-scaling-stroke" d="
  M 355.47 149.67
  A 1.25 1.25 0.0 0 0 354.22 148.42
  A 1.25 1.25 0.0 0 0 352.97 149.67
  A 1.25 1.25 0.0 0 0 354.22 150.92
  A 1.25 1.25 0.0 0 0 355.47 149.67"
/>
<path stroke="#d7eceb" vector-effect="non-scaling-stroke" d="
  M 376.60 144.96
  L 376.30 160.42
  A 0.55 0.54 1.1 0 1 375.74 160.95
  L 368.31 160.78"
/>
<path stroke="#589499" vector-effect="non-scaling-stroke" d="
  M 78.57 147.49
  A 1.41 1.41 0.0 0 0 77.16 146.08
  A 1.41 1.41 0.0 0 0 75.75 147.49
  A 1.41 1.41 0.0 0 0 77.16 148.90
  A 1.41 1.41 0.0 0 0 78.57 147.49"
/>
<path stroke="#80a7ad" vector-effect="non-scaling-stroke" d="
  M 375.94 165.30
  L 368.99 165.37"
/>
<path stroke="#589499" vector-effect="non-scaling-stroke" d="
  M 78.58 162.98
  A 1.35 1.35 0.0 0 0 77.23 161.63
  A 1.35 1.35 0.0 0 0 75.88 162.98
  A 1.35 1.35 0.0 0 0 77.23 164.33
  A 1.35 1.35 0.0 0 0 78.58 162.98"
/>
</g>
<path fill="#191919" fill-opacity="0.098" d="
  M 164.05 14.69
  Q 159.04 8.78 159.14 1.26
  Q 159.15 0.07 160.35 0.09
  L 172.21 0.26
  A 1.20 1.20 0.0 0 1 173.38 1.61
  C 172.90 5.29 173.47 13.95 178.74 14.20
  Q 184.37 14.48 186.79 9.32
  Q 188.32 6.07 188.98 3.57
  A 0.90 0.90 0.0 0 1 189.69 2.92
  L 192.70 2.40
  A 0.91 0.90 5.0 0 0 193.40 1.82
  L 193.82 0.69
  A 0.77 0.76 -79.2 0 1 194.55 0.19
  L 200.07 0.24
  Q 201.04 0.24 201.03 1.21
  Q 200.90 12.13 193.34 17.65
  C 185.01 23.74 170.95 22.81 164.05 14.69
  Z"
/>
<path fill="#191919" fill-opacity="0.098" d="
  M 179.31 10.86
  C 176.28 8.51 176.49 4.41 176.70 0.97
  A 0.72 0.71 -1.5 0 1 177.33 0.31
  Q 181.55 -0.21 185.02 2.23
  A 1.30 1.29 22.7 0 1 185.56 3.54
  Q 184.60 8.55 180.09 10.93
  A 0.75 0.72 -38.9 0 1 179.31 10.86
  Z"
/>
<path fill="#191919" fill-opacity="0.098" d="
  M 218.59 1.66
  Q 220.26 -0.62 223.20 0.48
  A 0.73 0.72 -70.9 0 1 223.64 1.39
  L 221.34 8.46
  A 0.48 0.46 88.9 0 1 221.09 8.73
  Q 218.70 9.70 216.33 8.90
  Q 215.62 8.66 215.36 7.95
  L 212.87 1.06
  A 0.58 0.57 -17.8 0 1 213.26 0.31
  Q 216.34 -0.59 218.17 1.67
  A 0.27 0.27 0.0 0 0 218.59 1.66
  Z"
/>
<path fill="#093135" d="
  M 383.00 6.02
  L 383.00 15.28
  Q 381.00 16.09 380.35 19.53
  Q 380.10 20.80 379.66 19.59
  C 378.61 16.72 379.80 13.79 375.76 12.66
  C 370.78 11.27 364.83 11.27 363.56 18.00
  Q 361.80 15.34 362.57 12.05
  A 0.84 0.82 -65.5 0 0 362.26 11.20
  Q 356.00 6.54 361.01 0.26
  A 0.43 0.43 0.0 0 1 361.77 0.62
  Q 361.26 3.03 364.02 3.36
  C 369.99 4.08 379.23 -3.28 383.00 6.02
  Z"
/>
<path fill="#191919" fill-opacity="0.098" d="
  M 240.12 1.13
  Q 240.41 1.13 240.49 0.84
  A 0.16 0.16 0.0 0 1 240.71 0.74
  Q 241.26 0.98 241.08 1.78
  Q 240.96 2.32 240.41 2.39
  L 233.15 3.21
  A 0.80 0.80 0.0 0 0 232.67 4.56
  Q 234.43 6.36 237.00 5.87
  A 1.07 0.05 -36.3 0 0 237.82 5.32
  Q 238.72 4.67 239.62 5.37
  A 1.17 1.17 0.0 0 1 239.88 6.91
  C 238.94 8.41 237.38 8.61 235.60 8.56
  C 233.15 8.48 231.00 8.86 229.15 6.65
  C 228.23 5.54 228.38 4.05 227.25 2.74
  A 1.34 1.34 0.0 0 1 228.38 0.53
  Q 233.82 1.00 240.12 1.13
  Z"
/>
<path fill="#191919" fill-opacity="0.098" d="
  M 34.30 1.11
  Q 34.73 1.12 35.06 1.61
  A 0.36 0.36 0.0 0 1 34.74 2.17
  L 30.52 1.82
  A 0.25 0.25 0.0 0 1 30.46 1.33
  C 31.78 0.92 33.02 1.08 34.30 1.11
  Z"
/>
<path fill="#ff9a97" d="
  M 383.00 15.28
  L 383.00 22.29
  L 381.82 22.24
  Q 381.30 22.22 381.19 22.73
  C 380.59 25.39 378.77 27.31 378.92 29.81
  Q 379.09 32.55 381.04 33.78
  Q 380.71 35.79 379.15 36.65
  Q 371.05 41.12 366.46 33.73
  Q 369.23 32.73 369.12 30.22
  Q 369.10 29.73 368.64 29.53
  C 363.13 27.09 363.87 22.98 363.56 18.00
  C 364.83 11.27 370.78 11.27 375.76 12.66
  C 379.80 13.79 378.61 16.72 379.66 19.59
  Q 380.10 20.80 380.35 19.53
  Q 381.00 16.09 383.00 15.28
  Z"
/>
<path fill="#093135" d="
  M 216.80 43.26
  Q 216.94 45.33 216.23 46.97
  Q 214.87 39.88 207.96 40.61
  C 201.73 41.27 200.77 42.20 200.11 48.47
  A 0.44 0.44 0.0 0 1 199.23 48.45
  Q 198.81 42.09 194.33 45.12
  Q 193.77 44.28 193.71 43.24
  Q 193.42 39.49 196.06 37.01
  Q 196.42 36.67 196.59 36.20
  C 199.39 28.33 209.83 29.15 214.83 33.97
  C 217.43 36.48 217.35 39.93 216.80 43.26
  Z"
/>
<path fill="#2a9696" d="
  M 366.46 33.73
  Q 371.05 41.12 379.15 36.65
  Q 380.71 35.79 381.04 33.78
  L 383.00 33.83
  L 383.00 97.92
  L 355.39 97.93
  L 356.37 66.17
  Q 355.14 63.67 347.76 62.68
  L 345.93 61.77
  Q 345.41 61.50 345.59 60.94
  L 352.46 39.46
  A 0.75 0.73 80.4 0 1 352.71 39.10
  Q 359.28 34.22 366.46 33.73
  Z"
/>
<path fill="#ff9a97" d="
  M 216.23 46.97
  Q 216.39 46.79 216.46 47.46
  Q 216.42 47.38 216.09 47.46
  A 0.29 0.28 78.3 0 0 215.88 47.79
  Q 217.31 55.06 210.96 58.30
  Q 210.45 58.56 210.56 59.12
  Q 211.04 61.58 213.17 62.34
  C 210.09 68.11 201.34 68.68 198.51 62.42
  Q 200.77 61.06 200.80 58.04
  C 200.82 55.71 199.01 54.07 198.60 51.42
  Q 198.52 50.90 197.99 50.89
  Q 194.85 50.84 194.13 47.81
  L 194.33 45.12
  Q 198.81 42.09 199.23 48.45
  A 0.44 0.44 0.0 0 0 200.11 48.47
  C 200.77 42.20 201.73 41.27 207.96 40.61
  Q 214.87 39.88 216.23 46.97
  Z"
/>
<path fill="#ffffff" d="
  M 193.71 43.24
  Q 193.77 44.28 194.33 45.12
  L 194.13 47.81
  Q 166.48 47.67 138.80 47.82
  C 133.55 47.85 129.52 48.97 127.15 53.55
  Q 125.80 56.15 125.79 62.66
  Q 125.76 85.61 125.79 108.53
  L 125.74 110.74
  Q 125.73 111.26 125.32 111.57
  Q 122.56 113.63 121.08 116.72
  L 120.97 112.38
  L 121.00 109.04
  Q 120.99 84.29 121.01 59.70
  C 121.02 52.42 122.41 46.92 129.22 44.27
  Q 131.90 43.23 137.91 43.24
  Q 165.77 43.26 193.71 43.24
  Z"
/>
<path fill="#ffffff" d="
  M 216.80 43.26
  Q 247.82 43.22 278.73 43.27
  Q 284.37 43.28 287.31 44.63
  Q 294.73 48.02 294.68 56.99
  Q 294.56 80.54 294.65 104.02
  L 294.66 116.84
  L 289.84 110.67
  Q 289.83 86.79 289.86 63.19
  C 289.87 56.91 289.59 51.80 283.89 49.06
  Q 281.12 47.73 273.41 47.74
  Q 245.06 47.78 216.69 47.75
  Q 216.62 47.75 216.59 47.69
  Q 216.52 47.57 216.46 47.46
  Q 216.39 46.79 216.23 46.97
  Q 216.94 45.33 216.80 43.26
  Z"
/>
<path fill="#2a9696" d="
  M 216.46 47.46
  Q 216.52 47.57 216.59 47.69
  Q 216.62 47.75 216.69 47.75
  Q 245.06 47.78 273.41 47.74
  Q 281.12 47.73 283.89 49.06
  C 289.59 51.80 289.87 56.91 289.86 63.19
  Q 289.83 86.79 289.84 110.67
  L 261.52 110.54
  L 262.26 94.76
  Q 269.27 93.57 274.10 88.31
  A 0.75 0.74 18.3 0 0 273.47 87.07
  L 266.76 87.77
  A 0.72 0.72 0.0 0 1 266.00 87.26
  L 265.86 86.75
  A 0.79 0.79 0.0 0 0 265.03 86.18
  L 261.82 86.48
  Q 261.21 75.89 259.22 66.09
  Q 259.12 65.60 258.62 65.63
  L 226.57 67.28
  Q 220.14 62.89 213.17 62.34
  Q 211.04 61.58 210.56 59.12
  Q 210.45 58.56 210.96 58.30
  Q 217.31 55.06 215.88 47.79
  A 0.29 0.28 78.3 0 1 216.09 47.46
  Q 216.42 47.38 216.46 47.46
  Z"
/>
<path fill="#2a9696" d="
  M 194.13 47.81
  Q 194.85 50.84 197.99 50.89
  Q 198.52 50.90 198.60 51.42
  C 199.01 54.07 200.82 55.71 200.80 58.04
  Q 200.77 61.06 198.51 62.42
  Q 191.28 62.06 184.00 67.11
  L 157.33 65.62
  Q 156.85 65.59 156.75 66.07
  Q 152.46 87.36 154.38 110.34
  L 137.85 110.45
  Q 137.28 110.45 136.82 110.12
  Q 134.74 108.65 132.15 109.21
  A 0.56 0.56 0.0 0 1 131.47 108.68
  L 131.37 105.57
  A 0.77 0.77 0.0 0 0 130.57 104.82
  L 128.63 104.89
  A 0.87 0.87 0.0 0 0 127.80 105.64
  L 127.37 108.86
  A 0.73 0.73 0.0 0 1 125.96 109.01
  L 125.79 108.53
  Q 125.76 85.61 125.79 62.66
  Q 125.80 56.15 127.15 53.55
  C 129.52 48.97 133.55 47.85 138.80 47.82
  Q 166.48 47.67 194.13 47.81
  Z"
/>
<path fill="#ff9a97" d="
  M 347.76 62.68
  Q 355.14 63.67 356.37 66.17
  Q 354.55 71.37 353.16 74.43
  C 352.20 76.54 351.07 76.63 348.96 75.85
  Q 337.34 71.54 326.23 66.08
  Q 323.95 64.95 321.86 64.67
  C 319.80 64.39 317.65 64.53 315.78 63.74
  C 313.70 62.87 307.79 59.33 306.99 56.83
  A 0.70 0.70 0.0 0 1 307.80 55.93
  L 314.28 57.21
  Q 314.88 57.32 315.10 56.76
  L 315.28 56.28
  Q 315.47 55.81 315.98 55.79
  Q 321.27 55.64 324.72 59.52
  A 1.43 1.37 76.0 0 0 325.40 59.95
  L 345.26 65.49
  A 0.95 0.94 -58.0 0 0 346.15 65.28
  Q 347.33 64.19 347.76 62.68
  Z"
/>
<path fill="#38a9ad" d="
  M 198.51 62.42
  C 201.34 68.68 210.09 68.11 213.17 62.34
  Q 220.14 62.89 226.57 67.28
  Q 231.26 78.18 233.89 89.96
  Q 234.00 90.48 233.49 90.62
  L 233.15 90.71
  L 225.11 92.95
  Q 223.91 88.01 223.24 82.99
  C 223.00 81.13 223.63 79.45 223.97 77.60
  Q 224.12 76.82 223.57 77.38
  Q 221.45 79.53 221.84 82.99
  Q 222.43 88.28 223.31 93.60
  L 224.02 113.02
  Q 224.04 113.59 223.48 113.48
  C 211.64 111.27 201.02 108.91 189.25 113.04
  A 0.76 0.76 0.0 0 1 188.24 112.33
  Q 188.13 104.02 188.41 95.38
  Q 188.45 94.16 186.72 94.43
  L 178.38 92.71
  L 177.32 92.47
  Q 176.80 92.34 176.91 91.83
  Q 179.69 79.02 184.00 67.11
  Q 191.28 62.06 198.51 62.42
  Z
  M 188.66 93.49
  Q 189.39 87.66 189.99 82.00
  Q 190.16 80.33 187.83 78.32
  Q 187.44 77.99 187.58 78.48
  C 188.16 80.59 188.71 82.29 188.33 84.53
  Q 187.61 88.92 186.89 93.31
  Q 186.80 93.86 186.98 94.14
  Q 187.31 94.63 188.06 94.29
  Q 188.59 94.05 188.66 93.49
  Z"
/>
<path fill="#92daf0" d="
  M 184.00 67.11
  Q 179.69 79.02 176.91 91.83
  Q 176.80 92.34 177.32 92.47
  L 178.38 92.71
  Q 177.23 99.04 177.02 105.24
  Q 176.94 107.65 177.96 110.05
  Q 181.18 117.60 184.33 125.17
  Q 185.46 127.86 187.20 128.35
  Q 190.12 129.15 194.51 127.88
  Q 195.03 127.73 194.80 127.24
  C 193.87 125.27 193.11 123.81 192.19 121.48
  Q 191.09 118.72 187.70 118.18
  Q 187.23 118.10 187.05 117.65
  C 183.68 108.98 185.16 102.61 186.72 94.43
  Q 188.45 94.16 188.41 95.38
  Q 188.13 104.02 188.24 112.33
  A 0.76 0.76 0.0 0 0 189.25 113.04
  C 201.02 108.91 211.64 111.27 223.48 113.48
  Q 224.04 113.59 224.02 113.02
  L 223.31 93.60
  L 224.03 93.36
  C 225.12 96.56 225.73 101.18 227.83 103.82
  A 0.91 0.91 0.0 0 0 228.68 104.15
  C 237.62 102.72 247.95 98.25 255.46 95.39
  C 257.72 94.53 259.93 94.67 262.26 94.76
  L 261.52 110.54
  L 261.09 114.85
  Q 261.05 115.32 261.51 115.40
  Q 270.76 117.10 282.75 121.74
  C 284.93 122.58 286.06 122.83 286.36 125.48
  Q 286.94 130.69 287.07 136.06
  L 131.62 136.07
  L 132.99 124.80
  A 0.92 0.90 -10.0 0 1 133.49 124.10
  Q 143.37 119.16 154.26 117.27
  Q 154.73 117.19 154.70 116.72
  L 154.38 110.34
  Q 152.46 87.36 156.75 66.07
  Q 156.85 65.59 157.33 65.62
  L 184.00 67.11
  Z"
/>
<path fill="#92daf0" d="
  M 261.82 86.48
  Q 249.64 91.91 235.12 93.52
  Q 234.67 93.57 234.36 93.25
  Q 233.38 92.24 233.15 90.71
  L 233.49 90.62
  Q 234.00 90.48 233.89 89.96
  Q 231.26 78.18 226.57 67.28
  L 258.62 65.63
  Q 259.12 65.60 259.22 66.09
  Q 261.21 75.89 261.82 86.48
  Z"
/>
<path fill="#2a9696" d="
  M 225.11 92.95
  L 224.03 93.36
  L 223.31 93.60
  Q 222.43 88.28 221.84 82.99
  Q 221.45 79.53 223.57 77.38
  Q 224.12 76.82 223.97 77.60
  C 223.63 79.45 223.00 81.13 223.24 82.99
  Q 223.91 88.01 225.11 92.95
  Z"
/>
<path fill="#2a9696" d="
  M 188.66 93.49
  Q 188.59 94.05 188.06 94.29
  Q 187.31 94.63 186.98 94.14
  Q 186.80 93.86 186.89 93.31
  Q 187.61 88.92 188.33 84.53
  C 188.71 82.29 188.16 80.59 187.58 78.48
  Q 187.44 77.99 187.83 78.32
  Q 190.16 80.33 189.99 82.00
  Q 189.39 87.66 188.66 93.49
  Z"
/>
<path fill="#ffffff" d="
  M 111.46 111.69
  Q 112.00 116.29 110.85 119.84
  Q 109.29 119.29 108.17 119.52
  Q 107.75 119.61 107.75 120.03
  L 107.75 179.75
  Q 107.75 180.26 107.24 180.27
  L 101.85 180.36
  L 95.33 180.29
  L 59.00 180.30
  L 52.42 180.29
  L 47.08 180.24
  Q 46.55 180.24 46.55 179.71
  L 46.53 168.85
  L 46.52 168.02
  L 46.44 165.20
  L 46.51 164.47
  L 46.53 120.04
  Q 46.53 119.50 45.99 119.50
  L 43.47 119.50
  Q 42.91 119.50 42.90 118.93
  L 42.71 103.69
  L 42.67 102.27
  L 42.70 98.92
  L 42.72 97.97
  L 42.76 94.49
  L 42.79 80.48
  Q 42.79 80.01 43.26 80.01
  L 110.99 80.01
  Q 111.48 80.01 111.48 80.50
  L 111.46 111.69
  Z
  M 49.55 94.17
  L 49.51 110.20
  Q 49.51 110.74 50.05 110.74
  L 67.48 110.74
  L 78.72 110.73
  L 82.78 110.74
  L 88.32 110.71
  L 92.90 110.69
  L 104.23 110.64
  Q 104.81 110.64 104.81 110.05
  L 104.83 86.71
  A 0.37 0.37 0.0 0 0 104.46 86.34
  L 50.19 86.35
  Q 49.55 86.35 49.55 86.98
  L 49.55 94.17
  Z
  M 104.7496 115.3718
  A 0.53 0.53 0.0 0 0 104.2186 114.8427
  L 50.0387 114.9373
  A 0.53 0.53 0.0 0 0 49.5097 115.4682
  L 49.5104 115.9082
  A 0.53 0.53 0.0 0 0 50.0414 116.4373
  L 104.2213 116.3427
  A 0.53 0.53 0.0 0 0 104.7503 115.8118
  L 104.7496 115.3718
  Z
  M 54.78 138.75
  L 63.70 138.69
  L 66.59 138.72
  L 75.26 138.71
  L 90.53 138.72
  L 96.83 138.74
  L 103.00 138.72
  Q 103.48 138.71 103.48 138.24
  L 103.48 125.03
  Q 103.48 124.54 102.99 124.54
  L 66.06 124.54
  L 51.47 124.53
  Q 50.99 124.53 50.99 125.01
  L 50.97 138.25
  Q 50.97 138.73 51.46 138.74
  L 54.78 138.75
  Z
  M 103.48 145.13
  A 0.37 0.37 0.0 0 0 103.11 144.76
  L 51.33 144.76
  A 0.37 0.37 0.0 0 0 50.96 145.13
  L 50.96 156.53
  A 0.37 0.37 0.0 0 0 51.33 156.90
  L 103.11 156.90
  A 0.37 0.37 0.0 0 0 103.48 156.53
  L 103.48 145.13
  Z
  M 103.49 160.43
  A 0.42 0.42 0.0 0 0 103.07 160.01
  L 51.35 160.01
  A 0.42 0.42 0.0 0 0 50.93 160.43
  L 50.93 171.59
  A 0.42 0.42 0.0 0 0 51.35 172.01
  L 103.07 172.01
  A 0.42 0.42 0.0 0 0 103.49 171.59
  L 103.49 160.43
  Z"
/>
<path fill="#137c6b" d="
  M 330.37 95.40
  Q 327.18 97.36 330.74 102.57
  L 324.30 102.51
  Q 322.21 99.64 322.85 96.33
  Q 324.52 93.86 323.78 90.64
  Q 323.68 90.18 323.82 89.73
  C 324.89 86.34 327.51 85.29 327.56 81.29
  Q 327.57 80.73 327.99 81.10
  C 332.55 85.16 327.44 88.55 328.88 92.72
  Q 329.35 94.08 330.37 95.40
  Z"
/>
<path fill="#004f5b" d="
  M 92.90 110.69
  Q 92.65 108.26 93.96 105.34
  A 0.52 0.52 0.0 0 0 93.47 104.60
  L 90.49 104.69
  Q 89.79 104.71 89.62 105.39
  L 88.32 110.71
  L 82.78 110.74
  L 81.10 105.11
  A 0.74 0.74 0.0 0 0 80.39 104.59
  L 77.63 104.61
  A 0.64 0.64 0.0 0 0 77.02 105.44
  L 78.72 110.73
  L 67.48 110.74
  Q 67.42 103.93 63.57 99.77
  L 67.35 93.90
  Q 67.75 93.27 68.05 93.95
  L 73.65 106.94
  Q 73.92 107.56 74.24 106.97
  L 79.40 97.45
  A 0.49 0.49 0.0 0 1 80.26 97.46
  L 82.97 102.73
  A 0.45 0.44 -43.5 0 0 83.75 102.75
  L 89.07 93.76
  Q 89.47 93.08 89.83 93.78
  L 92.36 98.78
  A 0.44 0.28 -84.2 0 0 92.82 98.20
  L 89.85 92.27
  Q 89.52 91.61 89.15 92.24
  L 83.77 101.25
  A 0.44 0.43 -42.6 0 1 83.01 101.22
  L 80.27 95.83
  A 0.46 0.46 0.0 0 0 79.45 95.82
  L 74.57 104.83
  A 0.62 0.62 0.0 0 1 73.46 104.77
  L 68.13 92.23
  A 0.37 0.37 0.0 0 0 67.48 92.18
  L 62.33 100.07
  A 0.53 0.53 0.0 0 1 61.37 99.92
  Q 60.35 95.94 58.46 94.98
  Q 53.43 93.77 49.55 94.17
  L 49.55 86.98
  Q 49.55 86.35 50.19 86.35
  L 104.46 86.34
  A 0.37 0.37 0.0 0 1 104.83 86.71
  L 104.81 110.05
  Q 104.81 110.64 104.23 110.64
  L 92.90 110.69
  Z
  M 103.2702 88.2743
  A 0.59 0.59 0.0 0 0 102.6833 87.6812
  L 98.4034 87.6588
  A 0.59 0.59 0.0 0 0 97.8103 88.2457
  L 97.8098 88.3457
  A 0.59 0.59 0.0 0 0 98.3967 88.9388
  L 102.6766 88.9612
  A 0.59 0.59 0.0 0 0 103.2697 88.3743
  L 103.2702 88.2743
  Z
  M 101.02 89.79
  Q 100.56 89.75 100.14 90.01
  A 0.52 0.52 0.0 0 0 100.40 90.98
  L 102.94 91.02
  A 0.55 0.55 0.0 0 0 103.06 89.94
  C 102.46 89.81 101.71 89.87 101.02 89.79
  Z
  M 103.3609 92.3911
  A 0.50 0.50 0.0 0 0 102.8679 91.8842
  L 96.5485 91.7959
  A 0.50 0.50 0.0 0 0 96.0416 92.2889
  L 96.0391 92.4689
  A 0.50 0.50 0.0 0 0 96.5321 92.9758
  L 102.8515 93.0641
  A 0.50 0.50 0.0 0 0 103.3584 92.5711
  L 103.3609 92.3911
  Z
  M 103.3997 94.4296
  A 0.52 0.52 0.0 0 0 102.8761 93.9133
  L 98.0762 93.9468
  A 0.52 0.52 0.0 0 0 97.5599 94.4704
  L 97.5603 94.5304
  A 0.52 0.52 0.0 0 0 98.0839 95.0467
  L 102.8838 95.0132
  A 0.52 0.52 0.0 0 0 103.4001 94.4896
  L 103.3997 94.4296
  Z
  M 103.3883 96.3240
  A 0.40 0.40 0.0 0 0 102.9842 95.9282
  L 96.9045 95.9919
  A 0.40 0.40 0.0 0 0 96.5087 96.3960
  L 96.5117 96.6760
  A 0.40 0.40 0.0 0 0 96.9158 97.0718
  L 102.9955 97.0081
  A 0.40 0.40 0.0 0 0 103.3913 96.6040
  L 103.3883 96.3240
  Z
  M 99.72 98.06
  A 0.51 0.51 0.0 0 0 99.78 99.08
  L 102.92 99.01
  A 0.54 0.54 0.0 0 0 102.92 97.93
  Q 101.31 97.90 99.72 98.06
  Z
  M 103.3560 100.4107
  A 0.56 0.56 0.0 0 0 102.7731 99.8747
  L 98.6767 100.0464
  A 0.56 0.56 0.0 0 0 98.1406 100.6293
  L 98.1440 100.7093
  A 0.56 0.56 0.0 0 0 98.7269 101.2453
  L 102.8233 101.0736
  A 0.56 0.56 0.0 0 0 103.3594 100.4907
  L 103.3560 100.4107
  Z
  M 103.4496 102.4946
  A 1.69 0.67 -1.2 0 0 101.7460 101.8601
  A 1.69 0.67 -1.2 0 0 100.0704 102.5654
  A 1.69 0.67 -1.2 0 0 101.7740 103.1999
  A 1.69 0.67 -1.2 0 0 103.4496 102.4946
  Z
  M 103.3060 104.3818
  A 0.48 0.48 0.0 0 0 102.8096 103.9189
  L 97.5728 104.1018
  A 0.48 0.48 0.0 0 0 97.1098 104.5982
  L 97.1140 104.7182
  A 0.48 0.48 0.0 0 0 97.6104 105.1811
  L 102.8472 104.9982
  A 0.48 0.48 0.0 0 0 103.3102 104.5018
  L 103.3060 104.3818
  Z
  M 103.2783 106.4717
  A 0.56 0.56 0.0 0 0 102.7096 105.9206
  L 98.9500 105.9796
  A 0.56 0.56 0.0 0 0 98.3989 106.5483
  L 98.4017 106.7283
  A 0.56 0.56 0.0 0 0 98.9704 107.2794
  L 102.7300 107.2204
  A 0.56 0.56 0.0 0 0 103.2811 106.6517
  L 103.2783 106.4717
  Z
  M 103.3500 108.7971
  A 0.60 0.60 0.0 0 0 102.7511 108.1960
  L 95.8711 108.1840
  A 0.60 0.60 0.0 0 0 95.2700 108.7829
  L 95.2700 108.8229
  A 0.60 0.60 0.0 0 0 95.8689 109.4240
  L 102.7489 109.4360
  A 0.60 0.60 0.0 0 0 103.3500 108.8371
  L 103.3500 108.7971
  Z"
/>
<path fill="#ff9a97" d="
  M 261.82 86.48
  L 265.03 86.18
  A 0.79 0.79 0.0 0 1 265.86 86.75
  L 266.00 87.26
  A 0.72 0.72 0.0 0 0 266.76 87.77
  L 273.47 87.07
  A 0.75 0.74 18.3 0 1 274.10 88.31
  Q 269.27 93.57 262.26 94.76
  C 259.93 94.67 257.72 94.53 255.46 95.39
  C 247.95 98.25 237.62 102.72 228.68 104.15
  A 0.91 0.91 0.0 0 1 227.83 103.82
  C 225.73 101.18 225.12 96.56 224.03 93.36
  L 225.11 92.95
  L 233.15 90.71
  Q 233.38 92.24 234.36 93.25
  Q 234.67 93.57 235.12 93.52
  Q 249.64 91.91 261.82 86.48
  Z"
/>
<path fill="#004f5b" d="
  M 332.81 102.72
  L 330.74 102.57
  Q 327.18 97.36 330.37 95.40
  Q 332.67 94.42 334.50 92.85
  C 336.21 91.39 336.71 88.89 338.90 87.31
  Q 339.31 87.02 339.25 87.51
  C 338.82 91.28 339.47 94.80 336.14 97.60
  Q 333.69 99.66 332.81 102.72
  Z"
/>
<rect fill="#ffffff" x="-2.73" y="-0.64" transform="translate(100.54,88.31) rotate(0.3)" width="5.46" height="1.28" rx="0.59"/>
<path fill="#004f5b" d="
  M 319.72 94.00
  Q 317.30 93.06 316.33 94.19
  L 314.56 92.44
  Q 313.63 91.12 313.41 89.50
  Q 313.33 88.97 313.80 89.22
  C 316.48 90.65 318.95 90.41 319.72 94.00
  Z"
/>
<path fill="#ffffff" d="
  M 101.02 89.79
  C 101.71 89.87 102.46 89.81 103.06 89.94
  A 0.55 0.55 0.0 0 1 102.94 91.02
  L 100.40 90.98
  A 0.52 0.52 0.0 0 1 100.14 90.01
  Q 100.56 89.75 101.02 89.79
  Z"
/>
<path fill="#ffffff" d="
  M 63.57 99.77
  L 61.96 101.59
  Q 61.63 101.97 61.42 101.51
  L 59.09 96.48
  Q 58.78 95.82 58.38 96.42
  L 52.26 105.57
  Q 51.89 106.12 51.81 105.47
  Q 51.76 105.11 51.99 104.75
  Q 54.80 100.48 58.46 94.98
  Q 60.35 95.94 61.37 99.92
  A 0.53 0.53 0.0 0 0 62.33 100.07
  L 67.48 92.18
  A 0.37 0.37 0.0 0 1 68.13 92.23
  L 73.46 104.77
  A 0.62 0.62 0.0 0 0 74.57 104.83
  L 79.45 95.82
  A 0.46 0.46 0.0 0 1 80.27 95.83
  L 83.01 101.22
  A 0.44 0.43 -42.6 0 0 83.77 101.25
  L 89.15 92.24
  Q 89.52 91.61 89.85 92.27
  L 92.82 98.20
  A 0.44 0.28 -84.2 0 1 92.36 98.78
  L 89.83 93.78
  Q 89.47 93.08 89.07 93.76
  L 83.75 102.75
  A 0.45 0.44 -43.5 0 1 82.97 102.73
  L 80.26 97.46
  A 0.49 0.49 0.0 0 0 79.40 97.45
  L 74.24 106.97
  Q 73.92 107.56 73.65 106.94
  L 68.05 93.95
  Q 67.75 93.27 67.35 93.90
  L 63.57 99.77
  Z"
/>
<rect fill="#ffffff" x="-3.66" y="-0.59" transform="translate(99.70,92.43) rotate(0.8)" width="7.32" height="1.18" rx="0.50"/>
<path fill="#191919" fill-opacity="0.098" d="
  M 314.56 92.44
  L 316.33 94.19
  Q 316.46 98.79 319.64 101.47
  Q 320.02 101.79 320.19 102.27
  L 320.33 102.68
  L 320.25 104.13
  Q 319.01 102.07 317.19 102.58
  Q 310.24 104.52 312.79 111.99
  C 314.05 115.64 317.74 114.00 320.45 114.15
  Q 320.89 114.17 321.04 113.75
  L 321.31 112.94
  Q 321.52 113.81 322.00 114.36
  Q 322.08 114.38 321.78 114.78
  L 311.08 114.94
  Q 310.51 114.95 310.42 115.52
  L 310.16 117.20
  Q 309.79 114.47 309.13 111.92
  C 308.15 108.15 305.90 106.47 302.10 107.22
  Q 301.24 107.39 300.88 107.94
  Q 300.36 108.77 301.13 109.66
  A 1.04 1.03 -22.6 0 0 301.99 110.01
  C 309.59 109.41 303.87 122.87 308.69 127.13
  Q 310.74 128.93 313.48 128.10
  L 313.49 136.13
  Q 302.41 135.83 294.97 126.54
  L 294.66 116.84
  L 294.65 104.02
  L 295.39 104.31
  Q 295.89 104.51 296.07 104.00
  Q 296.33 103.22 296.65 102.90
  Q 303.90 95.53 314.05 93.54
  Q 314.49 93.45 314.43 93.00
  Q 314.36 92.61 314.56 92.44
  Z"
/>
<path fill="#ff9a97" d="
  M 178.38 92.71
  L 186.72 94.43
  C 185.16 102.61 183.68 108.98 187.05 117.65
  Q 187.23 118.10 187.70 118.18
  Q 191.09 118.72 192.19 121.48
  C 193.11 123.81 193.87 125.27 194.80 127.24
  Q 195.03 127.73 194.51 127.88
  Q 190.12 129.15 187.20 128.35
  Q 185.46 127.86 184.33 125.17
  Q 181.18 117.60 177.96 110.05
  Q 176.94 107.65 177.02 105.24
  Q 177.23 99.04 178.38 92.71
  Z"
/>
<path fill="#1a616b" d="
  M 319.72 94.00
  Q 320.67 95.82 322.85 96.33
  Q 322.21 99.64 324.30 102.51
  L 320.33 102.68
  L 320.19 102.27
  Q 320.02 101.79 319.64 101.47
  Q 316.46 98.79 316.33 94.19
  Q 317.30 93.06 319.72 94.00
  Z"
/>
<path fill="#1a616b" d="
  M 58.46 94.98
  Q 54.80 100.48 51.99 104.75
  Q 51.76 105.11 51.81 105.47
  Q 51.89 106.12 52.26 105.57
  L 58.38 96.42
  Q 58.78 95.82 59.09 96.48
  L 61.42 101.51
  Q 61.63 101.97 61.96 101.59
  L 63.57 99.77
  Q 67.42 103.93 67.48 110.74
  L 50.05 110.74
  Q 49.51 110.74 49.51 110.20
  L 49.55 94.17
  Q 53.43 93.77 58.46 94.98
  Z"
/>
<rect fill="#ffffff" x="-2.92" y="-0.55" transform="translate(100.48,94.48) rotate(-0.4)" width="5.84" height="1.10" rx="0.52"/>
<path fill="#191919" fill-opacity="0.098" d="
  M 42.76 94.49
  L 42.72 97.97
  Q 38.11 98.63 38.10 102.75
  Q 38.07 117.62 38.09 133.38
  Q 29.12 129.37 27.20 120.56
  Q 26.31 116.50 26.20 115.51
  C 25.31 107.96 32.71 100.20 38.81 97.04
  Q 38.81 97.04 39.35 96.34
  Q 39.87 95.65 40.74 95.89
  Q 41.25 96.03 41.52 95.58
  Q 41.98 94.83 42.76 94.49
  Z"
/>
<rect fill="#ffffff" x="-3.44" y="-0.54" transform="translate(99.95,96.50) rotate(-0.6)" width="6.88" height="1.08" rx="0.40"/>
<path fill="#004f5b" d="
  M 383.00 97.92
  L 383.00 108.55
  C 373.71 110.03 373.60 122.63 383.00 123.35
  L 383.00 180.57
  L 382.76 187.81
  Q 382.76 187.90 382.68 187.91
  Q 382.51 187.92 382.43 187.90
  Q 382.39 187.89 382.39 187.86
  Q 382.16 176.44 379.85 165.25
  L 376.60 144.96
  L 376.01 139.22
  L 374.05 126.91
  Q 373.94 126.16 373.81 126.91
  L 371.66 139.27
  L 368.31 160.78
  L 367.66 165.21
  L 365.17 181.07
  L 356.75 180.34
  L 356.31 165.26
  L 356.24 160.69
  L 355.69 139.31
  L 355.49 133.98
  L 355.21 124.91
  L 355.26 120.70
  L 355.69 115.42
  L 359.49 105.43
  Q 359.68 104.92 359.16 104.79
  Q 357.21 104.31 355.31 105.04
  L 355.39 97.93
  L 383.00 97.92
  Z
  M 364.66 117.16
  L 368.76 116.68
  Q 369.28 116.62 369.78 116.79
  Q 371.42 117.38 373.17 117.12
  A 0.71 0.70 -88.2 0 0 373.76 116.56
  C 374.77 111.30 370.03 107.30 365.25 108.84
  C 355.72 111.92 359.88 126.41 370.98 122.98
  Q 371.66 122.77 371.40 122.11
  L 370.74 120.46
  A 0.69 0.69 0.0 0 0 369.92 120.06
  Q 366.06 121.16 364.27 117.93
  A 0.52 0.52 0.0 0 1 364.66 117.16
  Z"
/>
<path fill="#004f5b" d="
  M 42.72 97.97
  L 42.70 98.92
  C 39.85 99.02 38.89 100.93 38.91 103.64
  Q 39.03 131.69 38.92 159.75
  Q 38.91 161.93 39.84 163.01
  A 0.38 0.38 0.0 0 0 40.51 162.76
  Q 40.46 134.43 40.32 106.13
  Q 40.31 104.39 42.67 102.27
  L 42.71 103.69
  C 40.26 106.13 40.89 109.45 40.61 111.92
  C 40.23 115.31 41.39 118.74 41.38 121.71
  Q 41.35 142.56 41.30 163.51
  A 0.73 0.72 8.8 0 0 41.81 164.20
  Q 43.95 164.89 46.51 164.47
  L 46.44 165.20
  L 42.19 165.26
  Q 41.62 165.27 41.82 165.80
  Q 42.75 168.40 46.52 168.02
  L 46.53 168.85
  C 43.78 169.22 42.11 168.37 40.91 165.93
  C 39.68 163.45 37.92 162.98 37.93 159.75
  Q 37.99 146.14 38.09 133.38
  Q 38.07 117.62 38.10 102.75
  Q 38.11 98.63 42.72 97.97
  Z"
/>
<path fill="#ffffff" d="
  M 99.72 98.06
  Q 101.31 97.90 102.92 97.93
  A 0.54 0.54 0.0 0 1 102.92 99.01
  L 99.78 99.08
  A 0.51 0.51 0.0 0 1 99.72 98.06
  Z"
/>
<rect fill="#ffffff" x="-2.61" y="-0.60" transform="translate(100.75,100.56) rotate(-2.4)" width="5.22" height="1.20" rx="0.56"/>
<ellipse fill="#ffffff" cx="0.00" cy="0.00" transform="translate(101.76,102.53) rotate(-1.2)" rx="1.69" ry="0.67"/>
<path fill="#ff9a97" d="
  M 324.30 102.51
  L 330.74 102.57
  L 332.81 102.72
  L 331.40 114.72
  Q 330.81 114.28 330.04 114.65
  L 322.00 114.36
  Q 321.52 113.81 321.31 112.94
  L 320.25 104.13
  L 320.33 102.68
  L 324.30 102.51
  Z"
/>
<rect fill="#ffffff" x="-3.10" y="-0.54" transform="translate(100.21,104.55) rotate(-2.0)" width="6.20" height="1.08" rx="0.48"/>
<path fill="#1a616b" d="
  M 82.78 110.74
  L 78.72 110.73
  L 77.02 105.44
  A 0.64 0.64 0.0 0 1 77.63 104.61
  L 80.39 104.59
  A 0.74 0.74 0.0 0 1 81.10 105.11
  L 82.78 110.74
  Z"
/>
<path fill="#1a616b" d="
  M 92.90 110.69
  L 88.32 110.71
  L 89.62 105.39
  Q 89.79 104.71 90.49 104.69
  L 93.47 104.60
  A 0.52 0.52 0.0 0 1 93.96 105.34
  Q 92.65 108.26 92.90 110.69
  Z"
/>
<path fill="#191919" fill-opacity="0.098" d="
  M 355.26 106.89
  L 355.28 114.87
  L 344.42 114.76
  Q 344.58 110.47 342.36 105.30
  A 0.64 0.63 -11.8 0 1 342.94 104.42
  L 346.23 104.40
  A 0.77 0.75 79.9 0 1 346.96 104.92
  L 349.72 113.12
  Q 349.93 113.75 350.59 113.72
  L 352.12 113.64
  A 0.98 0.97 -87.2 0 0 353.05 112.79
  L 353.60 108.64
  Q 353.65 108.26 353.90 107.97
  Q 354.53 107.21 355.26 106.89
  Z"
/>
<path fill="#1a616b" d="
  M 355.69 115.42
  Q 355.20 114.46 355.28 114.87
  L 355.26 106.89
  L 355.31 105.04
  Q 357.21 104.31 359.16 104.79
  Q 359.68 104.92 359.49 105.43
  L 355.69 115.42
  Z"
/>
<path fill="#38a9ad" d="
  M 154.38 110.34
  L 154.70 116.72
  Q 154.73 117.19 154.26 117.27
  Q 143.37 119.16 133.49 124.10
  A 0.92 0.90 -10.0 0 0 132.99 124.80
  L 131.62 136.07
  Q 125.40 135.35 120.60 138.88
  L 120.56 123.91
  L 120.63 118.42
  L 121.08 116.72
  Q 122.56 113.63 125.32 111.57
  Q 125.73 111.26 125.74 110.74
  L 125.79 108.53
  L 125.96 109.01
  A 0.73 0.73 0.0 0 0 127.37 108.86
  L 127.80 105.64
  A 0.87 0.87 0.0 0 1 128.63 104.89
  L 130.57 104.82
  A 0.77 0.77 0.0 0 1 131.37 105.57
  L 131.47 108.68
  A 0.56 0.56 0.0 0 0 132.15 109.21
  Q 134.74 108.65 136.82 110.12
  Q 137.28 110.45 137.85 110.45
  L 154.38 110.34
  Z"
/>
<rect fill="#ffffff" x="-2.44" y="-0.65" transform="translate(100.84,106.60) rotate(-0.9)" width="4.88" height="1.30" rx="0.56"/>
<path fill="#191919" fill-opacity="0.098" d="
  M 318.90 111.39
  L 319.09 111.74
  A 0.99 0.85 9.9 0 1 317.54 112.66
  Q 315.11 110.67 315.68 107.55
  A 1.41 1.41 0.0 0 1 318.33 107.19
  Q 319.19 108.97 318.83 110.90
  Q 318.78 111.16 318.90 111.39
  Z"
/>
<rect fill="#ffffff" x="-4.04" y="-0.62" transform="translate(99.31,108.81) rotate(0.1)" width="8.08" height="1.24" rx="0.60"/>
<path fill="#137c6b" d="
  M 10.36 131.42
  Q 3.31 139.51 4.72 150.20
  L 0.00 150.20
  L 0.00 115.70
  L 5.08 108.82
  Q 5.60 108.11 5.64 108.99
  C 5.74 111.28 5.56 113.46 6.13 115.62
  Q 8.21 123.59 10.36 131.42
  Z"
/>
<path fill="#1a616b" d="
  M 383.00 108.55
  L 383.00 112.45
  C 379.40 112.08 379.19 118.53 383.00 119.93
  L 383.00 123.35
  C 373.60 122.63 373.71 110.03 383.00 108.55
  Z"
/>
<path fill="#191919" fill-opacity="0.098" d="
  M 121.00 109.04
  L 120.97 112.38
  L 116.40 112.32
  A 0.80 0.80 0.0 0 0 115.63 112.86
  Q 114.70 115.53 115.36 118.33
  Q 115.47 118.80 115.85 119.08
  Q 118.82 121.29 120.63 118.42
  L 120.56 123.91
  Q 113.77 124.28 110.85 119.84
  Q 112.00 116.29 111.46 111.69
  Q 113.26 111.63 113.90 109.99
  Q 114.10 109.49 114.61 109.34
  Q 117.58 108.46 121.00 109.04
  Z"
/>
<path fill="#1a616b" d="
  M 364.27 117.93
  Q 366.06 121.16 369.92 120.06
  A 0.69 0.69 0.0 0 1 370.74 120.46
  L 371.40 122.11
  Q 371.66 122.77 370.98 122.98
  C 359.88 126.41 355.72 111.92 365.25 108.84
  C 370.03 107.30 374.77 111.30 373.76 116.56
  A 0.71 0.70 -88.2 0 1 373.17 117.12
  Q 371.42 117.38 369.78 116.79
  Q 369.28 116.62 368.76 116.68
  L 364.66 117.16
  A 0.52 0.52 0.0 0 0 364.27 117.93
  Z
  M 364.45 114.89
  L 369.89 114.93
  A 0.20 0.20 0.0 0 0 370.09 114.74
  L 370.09 114.68
  A 2.86 2.82 -89.5 0 0 367.29 111.79
  L 367.09 111.79
  A 2.86 2.82 -89.5 0 0 364.25 114.62
  L 364.25 114.68
  A 0.20 0.20 0.0 0 0 364.45 114.89
  Z"
/>
<path fill="#38a9ad" d="
  M 289.84 110.67
  L 294.66 116.84
  L 294.97 126.54
  L 294.93 138.83
  Q 291.33 136.11 287.07 136.06
  Q 286.94 130.69 286.36 125.48
  C 286.06 122.83 284.93 122.58 282.75 121.74
  Q 270.76 117.10 261.51 115.40
  Q 261.05 115.32 261.09 114.85
  L 261.52 110.54
  L 289.84 110.67
  Z"
/>
<path fill="#004f5b" d="
  M 364.45 114.89
  A 0.20 0.20 0.0 0 1 364.25 114.68
  L 364.25 114.62
  A 2.86 2.82 -89.5 0 1 367.09 111.79
  L 367.29 111.79
  A 2.86 2.82 -89.5 0 1 370.09 114.68
  L 370.09 114.74
  A 0.20 0.20 0.0 0 1 369.89 114.93
  L 364.45 114.89
  Z"
/>
<path fill="#004f5b" d="
  M 383.00 112.45
  L 383.00 119.93
  C 379.19 118.53 379.40 112.08 383.00 112.45
  Z"
/>
<path fill="#137c6b" d="
  M 322.00 114.36
  L 330.04 114.65
  L 321.78 114.78
  Q 322.08 114.38 322.00 114.36
  Z"
/>
<path fill="#38a9ad" d="
  M 330.04 114.65
  Q 330.81 114.28 331.40 114.72
  L 344.42 114.76
  L 355.28 114.87
  Q 355.20 114.46 355.69 115.42
  L 355.26 120.70
  L 313.53 120.71
  L 310.83 120.55
  Q 310.28 120.52 310.34 119.97
  Q 310.53 118.36 310.16 117.20
  L 310.42 115.52
  Q 310.51 114.95 311.08 114.94
  L 321.78 114.78
  L 330.04 114.65
  Z"
/>
<rect fill="#fd230a" x="-27.62" y="-0.75" transform="translate(77.13,115.64) rotate(-0.1)" width="55.24" height="1.50" rx="0.53"/>
<path fill="#004f5b" d="
  M 14.30 150.20
  L 4.72 150.20
  Q 3.31 139.51 10.36 131.42
  Q 18.67 125.90 24.47 117.99
  Q 24.77 117.57 24.87 118.08
  C 27.13 129.90 23.88 142.52 14.30 150.20
  Z"
/>
<path fill="#ffffff" d="
  M 355.26 120.70
  L 355.21 124.91
  L 321.29 125.01
  Q 320.79 125.02 320.79 125.52
  L 320.77 133.47
  Q 320.77 134.06 321.37 134.06
  L 355.49 133.98
  L 355.69 139.31
  Q 353.81 138.90 352.66 139.32
  Q 352.21 139.49 352.21 139.97
  L 352.20 160.30
  Q 352.20 160.83 352.72 160.93
  Q 354.43 161.26 356.24 160.69
  L 356.31 165.26
  L 327.59 165.27
  L 320.55 165.27
  L 314.05 165.24
  Q 313.52 165.23 313.52 164.70
  L 313.49 136.13
  L 313.48 128.10
  L 313.53 120.71
  L 355.26 120.70
  Z
  M 344.50 149.41
  Q 344.52 149.38 344.54 149.36
  L 344.81 139.81
  Q 344.82 139.27 344.28 139.27
  L 321.25 139.27
  A 0.48 0.48 0.0 0 0 320.77 139.75
  L 320.76 160.50
  Q 320.76 161.00 321.26 161.00
  L 344.28 161.00
  A 0.55 0.54 -1.0 0 0 344.83 160.44
  L 344.50 149.41
  Z"
/>
<path fill="#191919" fill-opacity="0.098" d="
  M 66.06 124.54
  Q 65.83 127.30 63.89 129.69
  Q 62.78 129.64 62.59 129.15
  Q 59.41 127.12 55.80 129.17
  Q 53.95 129.82 54.61 132.74
  L 54.58 134.93
  L 54.78 138.75
  L 51.46 138.74
  Q 50.97 138.73 50.97 138.25
  L 50.99 125.01
  Q 50.99 124.53 51.47 124.53
  L 66.06 124.54
  Z"
/>
<path fill="#afd8d7" d="
  M 355.21 124.91
  L 355.49 133.98
  L 321.37 134.06
  Q 320.77 134.06 320.77 133.47
  L 320.79 125.52
  Q 320.79 125.02 321.29 125.01
  L 355.21 124.91
  Z
  M 349.82 127.20
  A 1.30 1.30 0.0 0 0 348.52 125.90
  A 1.30 1.30 0.0 0 0 347.22 127.20
  A 1.30 1.30 0.0 0 0 348.52 128.50
  A 1.30 1.30 0.0 0 0 349.82 127.20
  Z"
/>
<circle fill="#137c6b" cx="348.52" cy="127.20" r="1.30"/>
<path fill="#ffffff" d="
  M 376.01 139.22
  L 371.66 139.27
  L 373.81 126.91
  Q 373.94 126.16 374.05 126.91
  L 376.01 139.22
  Z"
/>
<path fill="#137c6b" d="
  M 62.59 129.15
  L 55.80 129.17
  Q 59.41 127.12 62.59 129.15
  Z"
/>
<path fill="#004f5b" d="
  M 74.47 129.16
  L 67.56 129.15
  Q 71.13 126.87 74.47 129.16
  Z"
/>
<path fill="#004f5b" d="
  M 96.26 129.17
  L 91.28 129.15
  Q 93.80 126.91 96.26 129.17
  Z"
/>
<path fill="#afd8d7" d="
  M 55.80 129.17
  L 62.59 129.15
  Q 62.78 129.64 63.89 129.69
  L 63.94 132.70
  L 54.61 132.74
  Q 53.95 129.82 55.80 129.17
  Z"
/>
<path fill="#afd8d7" d="
  M 67.56 129.15
  L 74.47 129.16
  Q 76.36 129.56 75.67 132.78
  L 66.34 132.84
  Q 65.66 129.54 67.56 129.15
  Z"
/>
<path fill="#afd8d7" d="
  M 91.28 129.15
  L 96.26 129.17
  Q 97.63 129.89 97.13 132.75
  L 90.35 132.59
  Q 89.87 129.75 91.28 129.15
  Z"
/>
<path fill="#ffffff" d="
  M 90.35 132.59
  L 97.13 132.75
  L 97.16 135.02
  L 90.32 135.01
  L 90.35 132.59
  Z"
/>
<path fill="#ffffff" d="
  M 63.94 132.70
  L 63.94 135.37
  L 54.58 134.93
  L 54.61 132.74
  L 63.94 132.70
  Z"
/>
<path fill="#ffffff" d="
  M 66.34 132.84
  L 75.67 132.78
  L 75.67 135.21
  L 66.31 135.30
  L 66.34 132.84
  Z"
/>
<path fill="#afd8d7" d="
  M 54.58 134.93
  L 63.94 135.37
  Q 64.22 137.26 63.70 138.69
  L 54.78 138.75
  L 54.58 134.93
  Z"
/>
<path fill="#afd8d7" d="
  M 75.67 135.21
  Q 76.13 137.04 75.26 138.71
  L 66.59 138.72
  Q 66.04 136.99 66.31 135.30
  L 75.67 135.21
  Z"
/>
<path fill="#afd8d7" d="
  M 90.32 135.01
  L 97.16 135.02
  Q 97.44 137.02 96.83 138.74
  L 90.53 138.72
  L 90.32 135.01
  Z"
/>
<path fill="#ffffff" d="
  M 131.62 136.07
  L 287.07 136.06
  Q 291.33 136.11 294.93 138.83
  Q 299.29 142.81 299.28 148.00
  Q 299.26 167.09 299.27 186.22
  Q 299.27 186.74 298.75 186.74
  L 283.18 186.76
  L 261.52 186.76
  L 153.93 186.76
  L 132.28 186.76
  L 116.93 186.74
  A 0.53 0.53 0.0 0 1 116.40 186.21
  Q 116.32 166.70 116.39 147.25
  Q 116.41 142.84 120.60 138.88
  Q 125.40 135.35 131.62 136.07
  Z
  M 128.16 159.45
  L 287.92 159.44
  L 294.36 159.44
  Q 294.83 159.44 294.86 158.97
  Q 295.41 151.46 294.70 148.04
  Q 293.69 143.15 287.06 139.10
  L 130.99 139.03
  C 120.14 141.44 120.28 149.94 120.61 158.92
  Q 120.63 159.42 121.12 159.42
  L 128.16 159.45
  Z
  M 257.06 166.69
  A 0.40 0.40 0.0 0 0 256.66 166.29
  L 158.78 166.29
  A 0.40 0.40 0.0 0 0 158.38 166.69
  L 158.38 180.61
  A 0.40 0.40 0.0 0 0 158.78 181.01
  L 256.66 181.01
  A 0.40 0.40 0.0 0 0 257.06 180.61
  L 257.06 166.69
  Z"
/>
<path fill="#38a9ad" d="
  M 130.99 139.03
  L 128.16 159.45
  L 121.12 159.42
  Q 120.63 159.42 120.61 158.92
  C 120.28 149.94 120.14 141.44 130.99 139.03
  Z"
/>
<path fill="#92daf0" d="
  M 130.99 139.03
  L 287.06 139.10
  L 287.92 159.44
  L 128.16 159.45
  L 130.99 139.03
  Z"
/>
<path fill="#afd8d7" d="
  M 344.54 149.36
  Q 343.65 148.09 342.38 148.53
  A 1.17 1.17 0.0 0 0 342.02 150.55
  Q 343.68 151.87 344.50 149.41
  L 344.83 160.44
  A 0.55 0.54 -1.0 0 1 344.28 161.00
  L 321.26 161.00
  Q 320.76 161.00 320.76 160.50
  L 320.77 139.75
  A 0.48 0.48 0.0 0 1 321.25 139.27
  L 344.28 139.27
  Q 344.82 139.27 344.81 139.81
  L 344.54 149.36
  Z"
/>
<path fill="#afd8d7" d="
  M 355.69 139.31
  L 356.24 160.69
  Q 354.43 161.26 352.72 160.93
  Q 352.20 160.83 352.20 160.30
  L 352.21 139.97
  Q 352.21 139.49 352.66 139.32
  Q 353.81 138.90 355.69 139.31
  Z
  M 355.47 149.67
  A 1.25 1.25 0.0 0 0 354.22 148.42
  A 1.25 1.25 0.0 0 0 352.97 149.67
  A 1.25 1.25 0.0 0 0 354.22 150.92
  A 1.25 1.25 0.0 0 0 355.47 149.67
  Z"
/>
<path fill="#afd8d7" d="
  M 371.66 139.27
  L 376.01 139.22
  L 376.60 144.96
  L 376.30 160.42
  A 0.55 0.54 1.1 0 1 375.74 160.95
  L 368.31 160.78
  L 371.66 139.27
  Z"
/>
<path fill="#38a9ad" d="
  M 287.06 139.10
  Q 293.69 143.15 294.70 148.04
  Q 295.41 151.46 294.86 158.97
  Q 294.83 159.44 294.36 159.44
  L 287.92 159.44
  L 287.06 139.10
  Z"
/>
<path fill="#afd8d7" d="
  M 103.48 156.53
  A 0.37 0.37 0.0 0 1 103.11 156.90
  L 51.33 156.90
  A 0.37 0.37 0.0 0 1 50.96 156.53
  L 50.96 145.13
  A 0.37 0.37 0.0 0 1 51.33 144.76
  L 103.11 144.76
  A 0.37 0.37 0.0 0 1 103.48 145.13
  L 103.48 156.53
  Z
  M 78.57 147.49
  A 1.41 1.41 0.0 0 0 77.16 146.08
  A 1.41 1.41 0.0 0 0 75.75 147.49
  A 1.41 1.41 0.0 0 0 77.16 148.90
  A 1.41 1.41 0.0 0 0 78.57 147.49
  Z"
/>
<path fill="#ffffff" d="
  M 376.60 144.96
  L 379.85 165.25
  L 375.94 165.30
  L 368.99 165.37
  L 367.66 165.21
  L 368.31 160.78
  L 375.74 160.95
  A 0.55 0.54 1.1 0 0 376.30 160.42
  L 376.60 144.96
  Z"
/>
<circle fill="#004f5b" cx="77.16" cy="147.49" r="1.41"/>
<path fill="#137c6b" d="
  M 344.54 149.36
  Q 344.52 149.38 344.50 149.41
  Q 343.68 151.87 342.02 150.55
  A 1.17 1.17 0.0 0 1 342.38 148.53
  Q 343.65 148.09 344.54 149.36
  Z"
/>
<circle fill="#137c6b" cx="354.22" cy="149.67" r="1.25"/>
<path fill="#ff9a97" d="
  M 0.00 150.20
  L 4.72 150.20
  L 14.30 150.20
  Q 14.80 150.15 15.15 150.27
  Q 15.67 150.43 15.61 150.98
  L 12.77 174.26
  Q 12.70 174.75 12.20 174.75
  L 0.00 174.77
  L 0.00 150.20
  Z"
/>
<path fill="#afd8d7" d="
  M 103.49 171.59
  A 0.42 0.42 0.0 0 1 103.07 172.01
  L 51.35 172.01
  A 0.42 0.42 0.0 0 1 50.93 171.59
  L 50.93 160.43
  A 0.42 0.42 0.0 0 1 51.35 160.01
  L 103.07 160.01
  A 0.42 0.42 0.0 0 1 103.49 160.43
  L 103.49 171.59
  Z
  M 78.58 162.98
  A 1.35 1.35 0.0 0 0 77.23 161.63
  A 1.35 1.35 0.0 0 0 75.88 162.98
  A 1.35 1.35 0.0 0 0 77.23 164.33
  A 1.35 1.35 0.0 0 0 78.58 162.98
  Z"
/>
<circle fill="#004f5b" cx="77.23" cy="162.98" r="1.35"/>
<path fill="#004f5b" d="
  M 320.55 165.27
  L 327.59 165.27
  L 326.47 173.36
  Q 326.39 173.95 325.79 173.95
  L 322.21 173.94
  Q 321.63 173.94 321.55 173.36
  L 320.55 165.27
  Z"
/>
<path fill="#004f5b" d="
  M 375.94 165.30
  L 374.88 173.37
  Q 374.80 173.94 374.23 173.94
  L 370.72 173.94
  Q 370.12 173.94 370.04 173.35
  L 368.99 165.37
  L 375.94 165.30
  Z"
/>
<rect fill="#ff9a97" x="158.38" y="166.29" width="98.68" height="14.72" rx="0.40"/>
<path fill="#004f5b" d="
  M 52.42 180.29
  L 59.00 180.30
  L 57.99 188.32
  Q 57.91 188.93 57.29 188.93
  L 54.20 188.94
  Q 53.60 188.94 53.52 188.35
  L 52.42 180.29
  Z"
/>
<path fill="#004f5b" d="
  M 95.33 180.29
  L 101.85 180.36
  L 100.81 188.41
  Q 100.75 188.93 100.22 188.93
  L 97.04 188.94
  Q 96.53 188.95 96.46 188.44
  L 95.33 180.29
  Z"
/>
<path fill="#093135" d="
  M 356.75 180.34
  L 365.17 181.07
  L 365.33 187.19
  Q 365.34 187.77 364.76 187.78
  L 342.50 187.82
  A 1.15 1.15 0.0 0 1 342.11 185.59
  L 356.75 180.34
  Z"
/>
<path fill="#004f5b" d="
  M 132.28 186.76
  L 153.93 186.76
  L 153.80 190.00
  Q 153.78 190.53 153.24 190.53
  L 148.02 190.53
  Q 147.32 190.53 147.32 191.23
  L 147.31 199.28
  Q 147.31 199.91 147.91 200.07
  L 148.45 200.22
  Q 149.02 200.37 149.01 200.96
  L 148.94 204.00
  L 137.14 204.00
  L 137.09 200.92
  Q 137.07 200.30 137.70 200.25
  L 138.19 200.22
  Q 138.80 200.18 138.80 199.56
  L 138.81 191.04
  Q 138.81 190.52 138.29 190.52
  L 132.96 190.54
  Q 132.35 190.54 132.34 189.93
  L 132.28 186.76
  Z"
/>
<path fill="#004f5b" d="
  M 261.52 186.76
  L 283.18 186.76
  L 283.18 190.07
  Q 283.18 190.53 282.72 190.53
  L 277.18 190.53
  Q 276.64 190.53 276.64 191.07
  L 276.63 199.25
  Q 276.63 199.81 277.16 200.00
  Q 279.02 200.63 278.15 204.00
  L 266.46 204.00
  L 266.45 200.92
  Q 266.45 200.35 267.01 200.29
  L 267.51 200.23
  Q 268.18 200.15 268.18 199.49
  L 268.17 191.10
  Q 268.17 190.53 267.60 190.53
  L 262.22 190.53
  Q 261.65 190.53 261.63 189.96
  L 261.52 186.76
  Z"
/>
</svg>
